<?xml version="1.0" encoding="utf-8"?>
<svg xmlns="http://www.w3.org/2000/svg" xmlns:xlink="http://www.w3.org/1999/xlink" width="800" height="500" viewBox="0 0 3200 2000">
<defs>
  <clipPath id="clip200">
    <rect x="0" y="0" width="3200" height="2000"/>
  </clipPath>
</defs>
<path clip-path="url(#clip200)" d="
M0 2000 L3200 2000 L3200 0 L0 0  Z
  " fill="#ffffff" fill-rule="evenodd" fill-opacity="1"/>
<defs>
  <clipPath id="clip201">
    <rect x="640" y="0" width="2241" height="2000"/>
  </clipPath>
</defs>
<path clip-path="url(#clip200)" d="
M254.572 1824.31 L3152.76 1824.31 L3152.76 47.2441 L254.572 47.2441  Z
  " fill="#ffffff" fill-rule="evenodd" fill-opacity="1"/>
<defs>
  <clipPath id="clip202">
    <rect x="254" y="47" width="2899" height="1778"/>
  </clipPath>
</defs>
<polyline clip-path="url(#clip202)" style="stroke:#000000; stroke-linecap:round; stroke-linejoin:round; stroke-width:2; stroke-opacity:0.1; fill:none" points="
  325.616,1824.31 325.616,47.2441 
  "/>
<polyline clip-path="url(#clip202)" style="stroke:#000000; stroke-linecap:round; stroke-linejoin:round; stroke-width:2; stroke-opacity:0.1; fill:none" points="
  874.639,1824.31 874.639,47.2441 
  "/>
<polyline clip-path="url(#clip202)" style="stroke:#000000; stroke-linecap:round; stroke-linejoin:round; stroke-width:2; stroke-opacity:0.1; fill:none" points="
  1423.66,1824.31 1423.66,47.2441 
  "/>
<polyline clip-path="url(#clip202)" style="stroke:#000000; stroke-linecap:round; stroke-linejoin:round; stroke-width:2; stroke-opacity:0.1; fill:none" points="
  1972.69,1824.31 1972.69,47.2441 
  "/>
<polyline clip-path="url(#clip202)" style="stroke:#000000; stroke-linecap:round; stroke-linejoin:round; stroke-width:2; stroke-opacity:0.1; fill:none" points="
  2521.71,1824.31 2521.71,47.2441 
  "/>
<polyline clip-path="url(#clip202)" style="stroke:#000000; stroke-linecap:round; stroke-linejoin:round; stroke-width:2; stroke-opacity:0.1; fill:none" points="
  3070.73,1824.31 3070.73,47.2441 
  "/>
<polyline clip-path="url(#clip200)" style="stroke:#000000; stroke-linecap:round; stroke-linejoin:round; stroke-width:4; stroke-opacity:1; fill:none" points="
  254.572,1824.31 3152.76,1824.31 
  "/>
<polyline clip-path="url(#clip200)" style="stroke:#000000; stroke-linecap:round; stroke-linejoin:round; stroke-width:4; stroke-opacity:1; fill:none" points="
  325.616,1824.31 325.616,1805.41 
  "/>
<polyline clip-path="url(#clip200)" style="stroke:#000000; stroke-linecap:round; stroke-linejoin:round; stroke-width:4; stroke-opacity:1; fill:none" points="
  874.639,1824.31 874.639,1805.41 
  "/>
<polyline clip-path="url(#clip200)" style="stroke:#000000; stroke-linecap:round; stroke-linejoin:round; stroke-width:4; stroke-opacity:1; fill:none" points="
  1423.66,1824.31 1423.66,1805.41 
  "/>
<polyline clip-path="url(#clip200)" style="stroke:#000000; stroke-linecap:round; stroke-linejoin:round; stroke-width:4; stroke-opacity:1; fill:none" points="
  1972.69,1824.31 1972.69,1805.41 
  "/>
<polyline clip-path="url(#clip200)" style="stroke:#000000; stroke-linecap:round; stroke-linejoin:round; stroke-width:4; stroke-opacity:1; fill:none" points="
  2521.71,1824.31 2521.71,1805.41 
  "/>
<polyline clip-path="url(#clip200)" style="stroke:#000000; stroke-linecap:round; stroke-linejoin:round; stroke-width:4; stroke-opacity:1; fill:none" points="
  3070.73,1824.31 3070.73,1805.41 
  "/>
<path clip-path="url(#clip200)" d="M325.616 1861.63 Q322.005 1861.63 320.176 1865.19 Q318.37 1868.73 318.37 1875.86 Q318.37 1882.97 320.176 1886.54 Q322.005 1890.08 325.616 1890.08 Q329.25 1890.08 331.055 1886.54 Q332.884 1882.97 332.884 1875.86 Q332.884 1868.73 331.055 1865.19 Q329.25 1861.63 325.616 1861.63 M325.616 1857.92 Q331.426 1857.92 334.481 1862.53 Q337.56 1867.11 337.56 1875.86 Q337.56 1884.59 334.481 1889.2 Q331.426 1893.78 325.616 1893.78 Q319.805 1893.78 316.727 1889.2 Q313.671 1884.59 313.671 1875.86 Q313.671 1867.11 316.727 1862.53 Q319.805 1857.92 325.616 1857.92 Z" fill="#000000" fill-rule="evenodd" fill-opacity="1" /><path clip-path="url(#clip200)" d="M849.338 1858.55 L867.694 1858.55 L867.694 1862.49 L853.62 1862.49 L853.62 1870.96 Q854.639 1870.61 855.657 1870.45 Q856.676 1870.26 857.695 1870.26 Q863.482 1870.26 866.861 1873.43 Q870.241 1876.61 870.241 1882.02 Q870.241 1887.6 866.769 1890.7 Q863.296 1893.78 856.977 1893.78 Q854.801 1893.78 852.533 1893.41 Q850.287 1893.04 847.88 1892.3 L847.88 1887.6 Q849.963 1888.73 852.185 1889.29 Q854.408 1889.85 856.884 1889.85 Q860.889 1889.85 863.227 1887.74 Q865.565 1885.63 865.565 1882.02 Q865.565 1878.41 863.227 1876.3 Q860.889 1874.2 856.884 1874.2 Q855.009 1874.2 853.134 1874.61 Q851.283 1875.03 849.338 1875.91 L849.338 1858.55 Z" fill="#000000" fill-rule="evenodd" fill-opacity="1" /><path clip-path="url(#clip200)" d="M889.454 1861.63 Q885.843 1861.63 884.014 1865.19 Q882.208 1868.73 882.208 1875.86 Q882.208 1882.97 884.014 1886.54 Q885.843 1890.08 889.454 1890.08 Q893.088 1890.08 894.893 1886.54 Q896.722 1882.97 896.722 1875.86 Q896.722 1868.73 894.893 1865.19 Q893.088 1861.63 889.454 1861.63 M889.454 1857.92 Q895.264 1857.92 898.319 1862.53 Q901.398 1867.11 901.398 1875.86 Q901.398 1884.59 898.319 1889.2 Q895.264 1893.78 889.454 1893.78 Q883.643 1893.78 880.565 1889.2 Q877.509 1884.59 877.509 1875.86 Q877.509 1867.11 880.565 1862.53 Q883.643 1857.92 889.454 1857.92 Z" fill="#000000" fill-rule="evenodd" fill-opacity="1" /><path clip-path="url(#clip200)" d="M1383.27 1889.17 L1390.91 1889.17 L1390.91 1862.81 L1382.6 1864.48 L1382.6 1860.22 L1390.86 1858.55 L1395.54 1858.55 L1395.54 1889.17 L1403.18 1889.17 L1403.18 1893.11 L1383.27 1893.11 L1383.27 1889.17 Z" fill="#000000" fill-rule="evenodd" fill-opacity="1" /><path clip-path="url(#clip200)" d="M1422.62 1861.63 Q1419.01 1861.63 1417.18 1865.19 Q1415.38 1868.73 1415.38 1875.86 Q1415.38 1882.97 1417.18 1886.54 Q1419.01 1890.08 1422.62 1890.08 Q1426.25 1890.08 1428.06 1886.54 Q1429.89 1882.97 1429.89 1875.86 Q1429.89 1868.73 1428.06 1865.19 Q1426.25 1861.63 1422.62 1861.63 M1422.62 1857.92 Q1428.43 1857.92 1431.49 1862.53 Q1434.56 1867.11 1434.56 1875.86 Q1434.56 1884.59 1431.49 1889.2 Q1428.43 1893.78 1422.62 1893.78 Q1416.81 1893.78 1413.73 1889.2 Q1410.68 1884.59 1410.68 1875.86 Q1410.68 1867.11 1413.73 1862.53 Q1416.81 1857.92 1422.62 1857.92 Z" fill="#000000" fill-rule="evenodd" fill-opacity="1" /><path clip-path="url(#clip200)" d="M1452.78 1861.63 Q1449.17 1861.63 1447.34 1865.19 Q1445.54 1868.73 1445.54 1875.86 Q1445.54 1882.97 1447.34 1886.54 Q1449.17 1890.08 1452.78 1890.08 Q1456.42 1890.08 1458.22 1886.54 Q1460.05 1882.97 1460.05 1875.86 Q1460.05 1868.73 1458.22 1865.19 Q1456.42 1861.63 1452.78 1861.63 M1452.78 1857.92 Q1458.59 1857.92 1461.65 1862.53 Q1464.73 1867.11 1464.73 1875.86 Q1464.73 1884.59 1461.65 1889.2 Q1458.59 1893.78 1452.78 1893.78 Q1446.97 1893.78 1443.89 1889.2 Q1440.84 1884.59 1440.84 1875.86 Q1440.84 1867.11 1443.89 1862.53 Q1446.97 1857.92 1452.78 1857.92 Z" fill="#000000" fill-rule="evenodd" fill-opacity="1" /><path clip-path="url(#clip200)" d="M1932.29 1889.17 L1939.93 1889.17 L1939.93 1862.81 L1931.62 1864.48 L1931.62 1860.22 L1939.88 1858.55 L1944.56 1858.55 L1944.56 1889.17 L1952.2 1889.17 L1952.2 1893.11 L1932.29 1893.11 L1932.29 1889.17 Z" fill="#000000" fill-rule="evenodd" fill-opacity="1" /><path clip-path="url(#clip200)" d="M1961.69 1858.55 L1980.05 1858.55 L1980.05 1862.49 L1965.97 1862.49 L1965.97 1870.96 Q1966.99 1870.61 1968.01 1870.45 Q1969.03 1870.26 1970.05 1870.26 Q1975.83 1870.26 1979.21 1873.43 Q1982.59 1876.61 1982.59 1882.02 Q1982.59 1887.6 1979.12 1890.7 Q1975.65 1893.78 1969.33 1893.78 Q1967.15 1893.78 1964.88 1893.41 Q1962.64 1893.04 1960.23 1892.3 L1960.23 1887.6 Q1962.32 1888.73 1964.54 1889.29 Q1966.76 1889.85 1969.24 1889.85 Q1973.24 1889.85 1975.58 1887.74 Q1977.92 1885.63 1977.92 1882.02 Q1977.92 1878.41 1975.58 1876.3 Q1973.24 1874.2 1969.24 1874.2 Q1967.36 1874.2 1965.49 1874.61 Q1963.63 1875.03 1961.69 1875.91 L1961.69 1858.55 Z" fill="#000000" fill-rule="evenodd" fill-opacity="1" /><path clip-path="url(#clip200)" d="M2001.81 1861.63 Q1998.19 1861.63 1996.37 1865.19 Q1994.56 1868.73 1994.56 1875.86 Q1994.56 1882.97 1996.37 1886.54 Q1998.19 1890.08 2001.81 1890.08 Q2005.44 1890.08 2007.25 1886.54 Q2009.07 1882.97 2009.07 1875.86 Q2009.07 1868.73 2007.25 1865.19 Q2005.44 1861.63 2001.81 1861.63 M2001.81 1857.92 Q2007.62 1857.92 2010.67 1862.53 Q2013.75 1867.11 2013.75 1875.86 Q2013.75 1884.59 2010.67 1889.2 Q2007.62 1893.78 2001.81 1893.78 Q1996 1893.78 1992.92 1889.2 Q1989.86 1884.59 1989.86 1875.86 Q1989.86 1867.11 1992.92 1862.53 Q1996 1857.92 2001.81 1857.92 Z" fill="#000000" fill-rule="evenodd" fill-opacity="1" /><path clip-path="url(#clip200)" d="M2485.4 1889.17 L2501.72 1889.17 L2501.72 1893.11 L2479.78 1893.11 L2479.78 1889.17 Q2482.44 1886.42 2487.02 1881.79 Q2491.63 1877.14 2492.81 1875.8 Q2495.05 1873.27 2495.93 1871.54 Q2496.84 1869.78 2496.84 1868.09 Q2496.84 1865.33 2494.89 1863.6 Q2492.97 1861.86 2489.87 1861.86 Q2487.67 1861.86 2485.22 1862.62 Q2482.79 1863.39 2480.01 1864.94 L2480.01 1860.22 Q2482.83 1859.08 2485.29 1858.5 Q2487.74 1857.92 2489.78 1857.92 Q2495.15 1857.92 2498.34 1860.61 Q2501.54 1863.3 2501.54 1867.79 Q2501.54 1869.92 2500.72 1871.84 Q2499.94 1873.73 2497.83 1876.33 Q2497.25 1877 2494.15 1880.22 Q2491.05 1883.41 2485.4 1889.17 Z" fill="#000000" fill-rule="evenodd" fill-opacity="1" /><path clip-path="url(#clip200)" d="M2521.53 1861.63 Q2517.92 1861.63 2516.1 1865.19 Q2514.29 1868.73 2514.29 1875.86 Q2514.29 1882.97 2516.1 1886.54 Q2517.92 1890.08 2521.53 1890.08 Q2525.17 1890.08 2526.97 1886.54 Q2528.8 1882.97 2528.8 1875.86 Q2528.8 1868.73 2526.97 1865.19 Q2525.17 1861.63 2521.53 1861.63 M2521.53 1857.92 Q2527.35 1857.92 2530.4 1862.53 Q2533.48 1867.11 2533.48 1875.86 Q2533.48 1884.59 2530.4 1889.2 Q2527.35 1893.78 2521.53 1893.78 Q2515.72 1893.78 2512.65 1889.2 Q2509.59 1884.59 2509.59 1875.86 Q2509.59 1867.11 2512.65 1862.53 Q2515.72 1857.92 2521.53 1857.92 Z" fill="#000000" fill-rule="evenodd" fill-opacity="1" /><path clip-path="url(#clip200)" d="M2551.7 1861.63 Q2548.09 1861.63 2546.26 1865.19 Q2544.45 1868.73 2544.45 1875.86 Q2544.45 1882.97 2546.26 1886.54 Q2548.09 1890.08 2551.7 1890.08 Q2555.33 1890.08 2557.14 1886.54 Q2558.97 1882.97 2558.97 1875.86 Q2558.97 1868.73 2557.14 1865.19 Q2555.33 1861.63 2551.7 1861.63 M2551.7 1857.92 Q2557.51 1857.92 2560.56 1862.53 Q2563.64 1867.11 2563.64 1875.86 Q2563.64 1884.59 2560.56 1889.2 Q2557.51 1893.78 2551.7 1893.78 Q2545.89 1893.78 2542.81 1889.2 Q2539.75 1884.59 2539.75 1875.86 Q2539.75 1867.11 2542.81 1862.53 Q2545.89 1857.92 2551.7 1857.92 Z" fill="#000000" fill-rule="evenodd" fill-opacity="1" /><path clip-path="url(#clip200)" d="M3034.42 1889.17 L3050.74 1889.17 L3050.74 1893.11 L3028.8 1893.11 L3028.8 1889.17 Q3031.46 1886.42 3036.04 1881.79 Q3040.65 1877.14 3041.83 1875.8 Q3044.08 1873.27 3044.96 1871.54 Q3045.86 1869.78 3045.86 1868.09 Q3045.86 1865.33 3043.91 1863.6 Q3041.99 1861.86 3038.89 1861.86 Q3036.69 1861.86 3034.24 1862.62 Q3031.81 1863.39 3029.03 1864.94 L3029.03 1860.22 Q3031.85 1859.08 3034.31 1858.5 Q3036.76 1857.92 3038.8 1857.92 Q3044.17 1857.92 3047.36 1860.61 Q3050.56 1863.3 3050.56 1867.79 Q3050.56 1869.92 3049.75 1871.84 Q3048.96 1873.73 3046.85 1876.33 Q3046.28 1877 3043.17 1880.22 Q3040.07 1883.41 3034.42 1889.17 Z" fill="#000000" fill-rule="evenodd" fill-opacity="1" /><path clip-path="url(#clip200)" d="M3060.6 1858.55 L3078.96 1858.55 L3078.96 1862.49 L3064.89 1862.49 L3064.89 1870.96 Q3065.91 1870.61 3066.92 1870.45 Q3067.94 1870.26 3068.96 1870.26 Q3074.75 1870.26 3078.13 1873.43 Q3081.51 1876.61 3081.51 1882.02 Q3081.51 1887.6 3078.04 1890.7 Q3074.56 1893.78 3068.24 1893.78 Q3066.07 1893.78 3063.8 1893.41 Q3061.55 1893.04 3059.15 1892.3 L3059.15 1887.6 Q3061.23 1888.73 3063.45 1889.29 Q3065.67 1889.85 3068.15 1889.85 Q3072.16 1889.85 3074.49 1887.74 Q3076.83 1885.63 3076.83 1882.02 Q3076.83 1878.41 3074.49 1876.3 Q3072.16 1874.2 3068.15 1874.2 Q3066.28 1874.2 3064.4 1874.61 Q3062.55 1875.03 3060.6 1875.91 L3060.6 1858.55 Z" fill="#000000" fill-rule="evenodd" fill-opacity="1" /><path clip-path="url(#clip200)" d="M3100.72 1861.63 Q3097.11 1861.63 3095.28 1865.19 Q3093.47 1868.73 3093.47 1875.86 Q3093.47 1882.97 3095.28 1886.54 Q3097.11 1890.08 3100.72 1890.08 Q3104.35 1890.08 3106.16 1886.54 Q3107.99 1882.97 3107.99 1875.86 Q3107.99 1868.73 3106.16 1865.19 Q3104.35 1861.63 3100.72 1861.63 M3100.72 1857.92 Q3106.53 1857.92 3109.59 1862.53 Q3112.66 1867.11 3112.66 1875.86 Q3112.66 1884.59 3109.59 1889.2 Q3106.53 1893.78 3100.72 1893.78 Q3094.91 1893.78 3091.83 1889.2 Q3088.78 1884.59 3088.78 1875.86 Q3088.78 1867.11 3091.83 1862.53 Q3094.91 1857.92 3100.72 1857.92 Z" fill="#000000" fill-rule="evenodd" fill-opacity="1" /><path clip-path="url(#clip200)" d="M1609.83 1933.65 L1639.88 1933.65 L1639.88 1939.06 L1616.26 1939.06 L1616.26 1953.13 L1638.89 1953.13 L1638.89 1958.54 L1616.26 1958.54 L1616.26 1975.76 L1640.45 1975.76 L1640.45 1981.17 L1609.83 1981.17 L1609.83 1933.65 Z" fill="#000000" fill-rule="evenodd" fill-opacity="1" /><path clip-path="url(#clip200)" d="M1656.43 1975.83 L1656.43 1994.73 L1650.54 1994.73 L1650.54 1945.53 L1656.43 1945.53 L1656.43 1950.94 Q1658.28 1947.75 1661.08 1946.23 Q1663.91 1944.67 1667.83 1944.67 Q1674.32 1944.67 1678.36 1949.82 Q1682.43 1954.98 1682.43 1963.38 Q1682.43 1971.78 1678.36 1976.94 Q1674.32 1982.1 1667.83 1982.1 Q1663.91 1982.1 1661.08 1980.57 Q1658.28 1979.01 1656.43 1975.83 M1676.36 1963.38 Q1676.36 1956.92 1673.68 1953.26 Q1671.04 1949.57 1666.39 1949.57 Q1661.75 1949.57 1659.07 1953.26 Q1656.43 1956.92 1656.43 1963.38 Q1656.43 1969.84 1659.07 1973.53 Q1661.75 1977.2 1666.39 1977.2 Q1671.04 1977.2 1673.68 1973.53 Q1676.36 1969.84 1676.36 1963.38 Z" fill="#000000" fill-rule="evenodd" fill-opacity="1" /><path clip-path="url(#clip200)" d="M1705.96 1949.63 Q1701.25 1949.63 1698.51 1953.32 Q1695.77 1956.98 1695.77 1963.38 Q1695.77 1969.78 1698.48 1973.47 Q1701.21 1977.13 1705.96 1977.13 Q1710.63 1977.13 1713.37 1973.44 Q1716.11 1969.75 1716.11 1963.38 Q1716.11 1957.05 1713.37 1953.36 Q1710.63 1949.63 1705.96 1949.63 M1705.96 1944.67 Q1713.59 1944.67 1717.95 1949.63 Q1722.32 1954.6 1722.32 1963.38 Q1722.32 1972.13 1717.95 1977.13 Q1713.59 1982.1 1705.96 1982.1 Q1698.28 1982.1 1693.92 1977.13 Q1689.6 1972.13 1689.6 1963.38 Q1689.6 1954.6 1693.92 1949.63 Q1698.28 1944.67 1705.96 1944.67 Z" fill="#000000" fill-rule="evenodd" fill-opacity="1" /><path clip-path="url(#clip200)" d="M1757.68 1946.89 L1757.68 1952.37 Q1755.19 1951 1752.68 1950.33 Q1750.2 1949.63 1747.65 1949.63 Q1741.95 1949.63 1738.8 1953.26 Q1735.65 1956.86 1735.65 1963.38 Q1735.65 1969.91 1738.8 1973.53 Q1741.95 1977.13 1747.65 1977.13 Q1750.2 1977.13 1752.68 1976.46 Q1755.19 1975.76 1757.68 1974.39 L1757.68 1979.81 Q1755.23 1980.95 1752.58 1981.52 Q1749.97 1982.1 1747.01 1982.1 Q1738.96 1982.1 1734.22 1977.04 Q1729.48 1971.98 1729.48 1963.38 Q1729.48 1954.66 1734.25 1949.66 Q1739.06 1944.67 1747.4 1944.67 Q1750.1 1944.67 1752.68 1945.24 Q1755.26 1945.78 1757.68 1946.89 Z" fill="#000000" fill-rule="evenodd" fill-opacity="1" /><path clip-path="url(#clip200)" d="M1797.49 1959.66 L1797.49 1981.17 L1791.64 1981.17 L1791.64 1959.85 Q1791.64 1954.79 1789.66 1952.27 Q1787.69 1949.76 1783.74 1949.76 Q1779 1949.76 1776.26 1952.78 Q1773.53 1955.81 1773.53 1961.03 L1773.53 1981.17 L1767.64 1981.17 L1767.64 1931.65 L1773.53 1931.65 L1773.53 1951.06 Q1775.63 1947.85 1778.46 1946.26 Q1781.33 1944.67 1785.05 1944.67 Q1791.19 1944.67 1794.34 1948.49 Q1797.49 1952.27 1797.49 1959.66 Z" fill="#000000" fill-rule="evenodd" fill-opacity="1" /><polyline clip-path="url(#clip202)" style="stroke:#000000; stroke-linecap:round; stroke-linejoin:round; stroke-width:2; stroke-opacity:0.1; fill:none" points="
  254.572,1774.03 3152.76,1774.03 
  "/>
<polyline clip-path="url(#clip202)" style="stroke:#000000; stroke-linecap:round; stroke-linejoin:round; stroke-width:2; stroke-opacity:0.1; fill:none" points="
  254.572,1348.05 3152.76,1348.05 
  "/>
<polyline clip-path="url(#clip202)" style="stroke:#000000; stroke-linecap:round; stroke-linejoin:round; stroke-width:2; stroke-opacity:0.1; fill:none" points="
  254.572,922.069 3152.76,922.069 
  "/>
<polyline clip-path="url(#clip202)" style="stroke:#000000; stroke-linecap:round; stroke-linejoin:round; stroke-width:2; stroke-opacity:0.1; fill:none" points="
  254.572,496.087 3152.76,496.087 
  "/>
<polyline clip-path="url(#clip202)" style="stroke:#000000; stroke-linecap:round; stroke-linejoin:round; stroke-width:2; stroke-opacity:0.1; fill:none" points="
  254.572,70.1041 3152.76,70.1041 
  "/>
<polyline clip-path="url(#clip200)" style="stroke:#000000; stroke-linecap:round; stroke-linejoin:round; stroke-width:4; stroke-opacity:1; fill:none" points="
  254.572,1824.31 254.572,47.2441 
  "/>
<polyline clip-path="url(#clip200)" style="stroke:#000000; stroke-linecap:round; stroke-linejoin:round; stroke-width:4; stroke-opacity:1; fill:none" points="
  254.572,1774.03 273.47,1774.03 
  "/>
<polyline clip-path="url(#clip200)" style="stroke:#000000; stroke-linecap:round; stroke-linejoin:round; stroke-width:4; stroke-opacity:1; fill:none" points="
  254.572,1348.05 273.47,1348.05 
  "/>
<polyline clip-path="url(#clip200)" style="stroke:#000000; stroke-linecap:round; stroke-linejoin:round; stroke-width:4; stroke-opacity:1; fill:none" points="
  254.572,922.069 273.47,922.069 
  "/>
<polyline clip-path="url(#clip200)" style="stroke:#000000; stroke-linecap:round; stroke-linejoin:round; stroke-width:4; stroke-opacity:1; fill:none" points="
  254.572,496.087 273.47,496.087 
  "/>
<polyline clip-path="url(#clip200)" style="stroke:#000000; stroke-linecap:round; stroke-linejoin:round; stroke-width:4; stroke-opacity:1; fill:none" points="
  254.572,70.1041 273.47,70.1041 
  "/>
<path clip-path="url(#clip200)" d="M119.235 1759.83 Q115.623 1759.83 113.795 1763.4 Q111.989 1766.94 111.989 1774.07 Q111.989 1781.17 113.795 1784.74 Q115.623 1788.28 119.235 1788.28 Q122.869 1788.28 124.674 1784.74 Q126.503 1781.17 126.503 1774.07 Q126.503 1766.94 124.674 1763.4 Q122.869 1759.83 119.235 1759.83 M119.235 1756.13 Q125.045 1756.13 128.1 1760.74 Q131.179 1765.32 131.179 1774.07 Q131.179 1782.8 128.1 1787.4 Q125.045 1791.99 119.235 1791.99 Q113.424 1791.99 110.346 1787.4 Q107.29 1782.8 107.29 1774.07 Q107.29 1765.32 110.346 1760.74 Q113.424 1756.13 119.235 1756.13 Z" fill="#000000" fill-rule="evenodd" fill-opacity="1" /><path clip-path="url(#clip200)" d="M139.396 1785.43 L144.281 1785.43 L144.281 1791.31 L139.396 1791.31 L139.396 1785.43 Z" fill="#000000" fill-rule="evenodd" fill-opacity="1" /><path clip-path="url(#clip200)" d="M164.466 1759.83 Q160.855 1759.83 159.026 1763.4 Q157.22 1766.94 157.22 1774.07 Q157.22 1781.17 159.026 1784.74 Q160.855 1788.28 164.466 1788.28 Q168.1 1788.28 169.906 1784.74 Q171.734 1781.17 171.734 1774.07 Q171.734 1766.94 169.906 1763.4 Q168.1 1759.83 164.466 1759.83 M164.466 1756.13 Q170.276 1756.13 173.331 1760.74 Q176.41 1765.32 176.41 1774.07 Q176.41 1782.8 173.331 1787.4 Q170.276 1791.99 164.466 1791.99 Q158.656 1791.99 155.577 1787.4 Q152.521 1782.8 152.521 1774.07 Q152.521 1765.32 155.577 1760.74 Q158.656 1756.13 164.466 1756.13 Z" fill="#000000" fill-rule="evenodd" fill-opacity="1" /><path clip-path="url(#clip200)" d="M194.628 1759.83 Q191.017 1759.83 189.188 1763.4 Q187.382 1766.94 187.382 1774.07 Q187.382 1781.17 189.188 1784.74 Q191.017 1788.28 194.628 1788.28 Q198.262 1788.28 200.067 1784.74 Q201.896 1781.17 201.896 1774.07 Q201.896 1766.94 200.067 1763.4 Q198.262 1759.83 194.628 1759.83 M194.628 1756.13 Q200.438 1756.13 203.493 1760.74 Q206.572 1765.32 206.572 1774.07 Q206.572 1782.8 203.493 1787.4 Q200.438 1791.99 194.628 1791.99 Q188.817 1791.99 185.739 1787.4 Q182.683 1782.8 182.683 1774.07 Q182.683 1765.32 185.739 1760.74 Q188.817 1756.13 194.628 1756.13 Z" fill="#000000" fill-rule="evenodd" fill-opacity="1" /><path clip-path="url(#clip200)" d="M120.23 1333.85 Q116.619 1333.85 114.79 1337.41 Q112.985 1340.96 112.985 1348.09 Q112.985 1355.19 114.79 1358.76 Q116.619 1362.3 120.23 1362.3 Q123.864 1362.3 125.67 1358.76 Q127.498 1355.19 127.498 1348.09 Q127.498 1340.96 125.67 1337.41 Q123.864 1333.85 120.23 1333.85 M120.23 1330.15 Q126.04 1330.15 129.096 1334.75 Q132.174 1339.34 132.174 1348.09 Q132.174 1356.81 129.096 1361.42 Q126.04 1366 120.23 1366 Q114.42 1366 111.341 1361.42 Q108.286 1356.81 108.286 1348.09 Q108.286 1339.34 111.341 1334.75 Q114.42 1330.15 120.23 1330.15 Z" fill="#000000" fill-rule="evenodd" fill-opacity="1" /><path clip-path="url(#clip200)" d="M140.392 1359.45 L145.276 1359.45 L145.276 1365.33 L140.392 1365.33 L140.392 1359.45 Z" fill="#000000" fill-rule="evenodd" fill-opacity="1" /><path clip-path="url(#clip200)" d="M159.489 1361.4 L175.808 1361.4 L175.808 1365.33 L153.864 1365.33 L153.864 1361.4 Q156.526 1358.64 161.109 1354.01 Q165.716 1349.36 166.896 1348.02 Q169.142 1345.49 170.021 1343.76 Q170.924 1342 170.924 1340.31 Q170.924 1337.55 168.98 1335.82 Q167.058 1334.08 163.957 1334.08 Q161.757 1334.08 159.304 1334.85 Q156.873 1335.61 154.095 1337.16 L154.095 1332.44 Q156.92 1331.3 159.373 1330.73 Q161.827 1330.15 163.864 1330.15 Q169.234 1330.15 172.429 1332.83 Q175.623 1335.52 175.623 1340.01 Q175.623 1342.14 174.813 1344.06 Q174.026 1345.96 171.919 1348.55 Q171.341 1349.22 168.239 1352.44 Q165.137 1355.63 159.489 1361.4 Z" fill="#000000" fill-rule="evenodd" fill-opacity="1" /><path clip-path="url(#clip200)" d="M185.669 1330.77 L204.026 1330.77 L204.026 1334.71 L189.952 1334.71 L189.952 1343.18 Q190.97 1342.83 191.989 1342.67 Q193.007 1342.48 194.026 1342.48 Q199.813 1342.48 203.192 1345.66 Q206.572 1348.83 206.572 1354.24 Q206.572 1359.82 203.1 1362.92 Q199.628 1366 193.308 1366 Q191.132 1366 188.864 1365.63 Q186.618 1365.26 184.211 1364.52 L184.211 1359.82 Q186.294 1360.96 188.517 1361.51 Q190.739 1362.07 193.216 1362.07 Q197.22 1362.07 199.558 1359.96 Q201.896 1357.85 201.896 1354.24 Q201.896 1350.63 199.558 1348.53 Q197.22 1346.42 193.216 1346.42 Q191.341 1346.42 189.466 1346.84 Q187.614 1347.25 185.669 1348.13 L185.669 1330.77 Z" fill="#000000" fill-rule="evenodd" fill-opacity="1" /><path clip-path="url(#clip200)" d="M119.235 907.868 Q115.623 907.868 113.795 911.432 Q111.989 914.974 111.989 922.104 Q111.989 929.21 113.795 932.775 Q115.623 936.317 119.235 936.317 Q122.869 936.317 124.674 932.775 Q126.503 929.21 126.503 922.104 Q126.503 914.974 124.674 911.432 Q122.869 907.868 119.235 907.868 M119.235 904.164 Q125.045 904.164 128.1 908.77 Q131.179 913.354 131.179 922.104 Q131.179 930.831 128.1 935.437 Q125.045 940.02 119.235 940.02 Q113.424 940.02 110.346 935.437 Q107.29 930.831 107.29 922.104 Q107.29 913.354 110.346 908.77 Q113.424 904.164 119.235 904.164 Z" fill="#000000" fill-rule="evenodd" fill-opacity="1" /><path clip-path="url(#clip200)" d="M139.396 933.469 L144.281 933.469 L144.281 939.349 L139.396 939.349 L139.396 933.469 Z" fill="#000000" fill-rule="evenodd" fill-opacity="1" /><path clip-path="url(#clip200)" d="M154.512 904.789 L172.869 904.789 L172.869 908.724 L158.795 908.724 L158.795 917.196 Q159.813 916.849 160.832 916.687 Q161.85 916.502 162.869 916.502 Q168.656 916.502 172.035 919.673 Q175.415 922.844 175.415 928.261 Q175.415 933.84 171.943 936.942 Q168.47 940.02 162.151 940.02 Q159.975 940.02 157.707 939.65 Q155.461 939.28 153.054 938.539 L153.054 933.84 Q155.137 934.974 157.359 935.53 Q159.582 936.085 162.058 936.085 Q166.063 936.085 168.401 933.979 Q170.739 931.872 170.739 928.261 Q170.739 924.65 168.401 922.544 Q166.063 920.437 162.058 920.437 Q160.183 920.437 158.308 920.854 Q156.457 921.27 154.512 922.15 L154.512 904.789 Z" fill="#000000" fill-rule="evenodd" fill-opacity="1" /><path clip-path="url(#clip200)" d="M194.628 907.868 Q191.017 907.868 189.188 911.432 Q187.382 914.974 187.382 922.104 Q187.382 929.21 189.188 932.775 Q191.017 936.317 194.628 936.317 Q198.262 936.317 200.067 932.775 Q201.896 929.21 201.896 922.104 Q201.896 914.974 200.067 911.432 Q198.262 907.868 194.628 907.868 M194.628 904.164 Q200.438 904.164 203.493 908.77 Q206.572 913.354 206.572 922.104 Q206.572 930.831 203.493 935.437 Q200.438 940.02 194.628 940.02 Q188.817 940.02 185.739 935.437 Q182.683 930.831 182.683 922.104 Q182.683 913.354 185.739 908.77 Q188.817 904.164 194.628 904.164 Z" fill="#000000" fill-rule="evenodd" fill-opacity="1" /><path clip-path="url(#clip200)" d="M120.23 481.885 Q116.619 481.885 114.79 485.45 Q112.985 488.992 112.985 496.121 Q112.985 503.228 114.79 506.793 Q116.619 510.334 120.23 510.334 Q123.864 510.334 125.67 506.793 Q127.498 503.228 127.498 496.121 Q127.498 488.992 125.67 485.45 Q123.864 481.885 120.23 481.885 M120.23 478.182 Q126.04 478.182 129.096 482.788 Q132.174 487.371 132.174 496.121 Q132.174 504.848 129.096 509.455 Q126.04 514.038 120.23 514.038 Q114.42 514.038 111.341 509.455 Q108.286 504.848 108.286 496.121 Q108.286 487.371 111.341 482.788 Q114.42 478.182 120.23 478.182 Z" fill="#000000" fill-rule="evenodd" fill-opacity="1" /><path clip-path="url(#clip200)" d="M140.392 507.487 L145.276 507.487 L145.276 513.367 L140.392 513.367 L140.392 507.487 Z" fill="#000000" fill-rule="evenodd" fill-opacity="1" /><path clip-path="url(#clip200)" d="M154.281 478.807 L176.503 478.807 L176.503 480.797 L163.957 513.367 L159.072 513.367 L170.878 482.742 L154.281 482.742 L154.281 478.807 Z" fill="#000000" fill-rule="evenodd" fill-opacity="1" /><path clip-path="url(#clip200)" d="M185.669 478.807 L204.026 478.807 L204.026 482.742 L189.952 482.742 L189.952 491.214 Q190.97 490.867 191.989 490.705 Q193.007 490.519 194.026 490.519 Q199.813 490.519 203.192 493.691 Q206.572 496.862 206.572 502.279 Q206.572 507.857 203.1 510.959 Q199.628 514.038 193.308 514.038 Q191.132 514.038 188.864 513.667 Q186.618 513.297 184.211 512.556 L184.211 507.857 Q186.294 508.992 188.517 509.547 Q190.739 510.103 193.216 510.103 Q197.22 510.103 199.558 507.996 Q201.896 505.89 201.896 502.279 Q201.896 498.668 199.558 496.561 Q197.22 494.455 193.216 494.455 Q191.341 494.455 189.466 494.871 Q187.614 495.288 185.669 496.168 L185.669 478.807 Z" fill="#000000" fill-rule="evenodd" fill-opacity="1" /><path clip-path="url(#clip200)" d="M110.045 83.449 L117.684 83.449 L117.684 57.0834 L109.373 58.75 L109.373 54.4908 L117.637 52.8241 L122.313 52.8241 L122.313 83.449 L129.952 83.449 L129.952 87.3841 L110.045 87.3841 L110.045 83.449 Z" fill="#000000" fill-rule="evenodd" fill-opacity="1" /><path clip-path="url(#clip200)" d="M139.396 81.5045 L144.281 81.5045 L144.281 87.3841 L139.396 87.3841 L139.396 81.5045 Z" fill="#000000" fill-rule="evenodd" fill-opacity="1" /><path clip-path="url(#clip200)" d="M164.466 55.9028 Q160.855 55.9028 159.026 59.4676 Q157.22 63.0093 157.22 70.1389 Q157.22 77.2453 159.026 80.8101 Q160.855 84.3518 164.466 84.3518 Q168.1 84.3518 169.906 80.8101 Q171.734 77.2453 171.734 70.1389 Q171.734 63.0093 169.906 59.4676 Q168.1 55.9028 164.466 55.9028 M164.466 52.1991 Q170.276 52.1991 173.331 56.8056 Q176.41 61.3889 176.41 70.1389 Q176.41 78.8657 173.331 83.4721 Q170.276 88.0554 164.466 88.0554 Q158.656 88.0554 155.577 83.4721 Q152.521 78.8657 152.521 70.1389 Q152.521 61.3889 155.577 56.8056 Q158.656 52.1991 164.466 52.1991 Z" fill="#000000" fill-rule="evenodd" fill-opacity="1" /><path clip-path="url(#clip200)" d="M194.628 55.9028 Q191.017 55.9028 189.188 59.4676 Q187.382 63.0093 187.382 70.1389 Q187.382 77.2453 189.188 80.8101 Q191.017 84.3518 194.628 84.3518 Q198.262 84.3518 200.067 80.8101 Q201.896 77.2453 201.896 70.1389 Q201.896 63.0093 200.067 59.4676 Q198.262 55.9028 194.628 55.9028 M194.628 52.1991 Q200.438 52.1991 203.493 56.8056 Q206.572 61.3889 206.572 70.1389 Q206.572 78.8657 203.493 83.4721 Q200.438 88.0554 194.628 88.0554 Q188.817 88.0554 185.739 83.4721 Q182.683 78.8657 182.683 70.1389 Q182.683 61.3889 185.739 56.8056 Q188.817 52.1991 194.628 52.1991 Z" fill="#000000" fill-rule="evenodd" fill-opacity="1" /><path clip-path="url(#clip200)" d="M1.17444 1203.61 L7.95392 1203.61 Q4.93021 1206.86 3.43426 1210.55 Q1.93832 1214.21 1.93832 1218.35 Q1.93832 1226.5 6.9354 1230.83 Q11.9007 1235.16 21.3219 1235.16 Q30.7113 1235.16 35.7084 1230.83 Q40.6736 1226.5 40.6736 1218.35 Q40.6736 1214.21 39.1777 1210.55 Q37.6818 1206.86 34.6581 1203.61 L41.3739 1203.61 Q43.6655 1206.99 44.8114 1210.78 Q45.9572 1214.53 45.9572 1218.73 Q45.9572 1229.52 39.3687 1235.73 Q32.7483 1241.94 21.3219 1241.94 Q9.86363 1241.94 3.27512 1235.73 Q-3.34521 1229.52 -3.34521 1218.73 Q-3.34521 1214.47 -2.19939 1210.71 Q-1.08539 1206.92 1.17444 1203.61 Z" fill="#000000" fill-rule="evenodd" fill-opacity="1" /><path clip-path="url(#clip200)" d="M14.8607 1173.28 Q14.2878 1174.27 14.0332 1175.45 Q13.7467 1176.59 13.7467 1177.99 Q13.7467 1182.96 16.9932 1185.63 Q20.2079 1188.27 26.2553 1188.27 L45.0342 1188.27 L45.0342 1194.16 L9.3862 1194.16 L9.3862 1188.27 L14.9244 1188.27 Q11.6779 1186.43 10.1183 1183.47 Q8.52683 1180.51 8.52683 1176.27 Q8.52683 1175.67 8.62232 1174.94 Q8.68597 1174.2 8.84512 1173.31 L14.8607 1173.28 Z" fill="#000000" fill-rule="evenodd" fill-opacity="1" /><path clip-path="url(#clip200)" d="M13.4921 1154.76 Q13.4921 1159.47 17.1842 1162.21 Q20.8445 1164.94 27.242 1164.94 Q33.6395 1164.94 37.3317 1162.24 Q40.9919 1159.5 40.9919 1154.76 Q40.9919 1150.08 37.2998 1147.34 Q33.6077 1144.6 27.242 1144.6 Q20.9081 1144.6 17.216 1147.34 Q13.4921 1150.08 13.4921 1154.76 M8.52683 1154.76 Q8.52683 1147.12 13.4921 1142.76 Q18.4573 1138.4 27.242 1138.4 Q35.9949 1138.4 40.9919 1142.76 Q45.9572 1147.12 45.9572 1154.76 Q45.9572 1162.43 40.9919 1166.79 Q35.9949 1171.12 27.242 1171.12 Q18.4573 1171.12 13.4921 1166.79 Q8.52683 1162.43 8.52683 1154.76 Z" fill="#000000" fill-rule="evenodd" fill-opacity="1" /><path clip-path="url(#clip200)" d="M10.4365 1105.96 L15.9747 1105.96 Q14.7016 1108.45 14.065 1111.12 Q13.4284 1113.79 13.4284 1116.66 Q13.4284 1121.02 14.7652 1123.22 Q16.102 1125.38 18.7756 1125.38 Q20.8126 1125.38 21.9903 1123.82 Q23.1361 1122.26 24.1865 1117.55 L24.6321 1115.54 Q25.9689 1109.31 28.4197 1106.7 Q30.8386 1104.05 35.1991 1104.05 Q40.1644 1104.05 43.0608 1108 Q45.9572 1111.92 45.9572 1118.79 Q45.9572 1121.66 45.3843 1124.77 Q44.8432 1127.86 43.7292 1131.3 L37.6818 1131.3 Q39.3687 1128.05 40.228 1124.9 Q41.0556 1121.75 41.0556 1118.66 Q41.0556 1114.53 39.6551 1112.3 Q38.2229 1110.07 35.6447 1110.07 Q33.2576 1110.07 31.9845 1111.69 Q30.7113 1113.28 29.5337 1118.73 L29.0562 1120.76 Q27.9104 1126.21 25.5551 1128.63 Q23.168 1131.05 19.0302 1131.05 Q14.0013 1131.05 11.2641 1127.48 Q8.52683 1123.92 8.52683 1117.36 Q8.52683 1114.11 9.00426 1111.25 Q9.48169 1108.38 10.4365 1105.96 Z" fill="#000000" fill-rule="evenodd" fill-opacity="1" /><path clip-path="url(#clip200)" d="M10.4365 1072 L15.9747 1072 Q14.7016 1074.49 14.065 1077.16 Q13.4284 1079.83 13.4284 1082.7 Q13.4284 1087.06 14.7652 1089.25 Q16.102 1091.42 18.7756 1091.42 Q20.8126 1091.42 21.9903 1089.86 Q23.1361 1088.3 24.1865 1083.59 L24.6321 1081.58 Q25.9689 1075.35 28.4197 1072.74 Q30.8386 1070.09 35.1991 1070.09 Q40.1644 1070.09 43.0608 1074.04 Q45.9572 1077.96 45.9572 1084.83 Q45.9572 1087.69 45.3843 1090.81 Q44.8432 1093.9 43.7292 1097.34 L37.6818 1097.34 Q39.3687 1094.09 40.228 1090.94 Q41.0556 1087.79 41.0556 1084.7 Q41.0556 1080.56 39.6551 1078.34 Q38.2229 1076.11 35.6447 1076.11 Q33.2576 1076.11 31.9845 1077.73 Q30.7113 1079.32 29.5337 1084.77 L29.0562 1086.8 Q27.9104 1092.25 25.5551 1094.67 Q23.168 1097.08 19.0302 1097.08 Q14.0013 1097.08 11.2641 1093.52 Q8.52683 1089.95 8.52683 1083.4 Q8.52683 1080.15 9.00426 1077.29 Q9.48169 1074.42 10.4365 1072 Z" fill="#000000" fill-rule="evenodd" fill-opacity="1" /><path clip-path="url(#clip200)" d="M24.5684 1063.73 L24.5684 1046.57 L29.7883 1046.57 L29.7883 1063.73 L24.5684 1063.73 Z" fill="#000000" fill-rule="evenodd" fill-opacity="1" /><path clip-path="url(#clip200)" d="M-2.48584 1036.99 L-2.48584 1006.95 L2.92501 1006.95 L2.92501 1030.56 L16.9932 1030.56 L16.9932 1007.93 L22.4041 1007.93 L22.4041 1030.56 L39.6233 1030.56 L39.6233 1006.37 L45.0342 1006.37 L45.0342 1036.99 L-2.48584 1036.99 Z" fill="#000000" fill-rule="evenodd" fill-opacity="1" /><path clip-path="url(#clip200)" d="M23.5181 966.428 L45.0342 966.428 L45.0342 972.284 L23.709 972.284 Q18.6483 972.284 16.1338 974.258 Q13.6194 976.231 13.6194 980.178 Q13.6194 984.92 16.6431 987.657 Q19.6668 990.395 24.8867 990.395 L45.0342 990.395 L45.0342 996.283 L9.3862 996.283 L9.3862 990.395 L14.9244 990.395 Q11.7097 988.294 10.1183 985.461 Q8.52683 982.597 8.52683 978.873 Q8.52683 972.73 12.3463 969.579 Q16.1338 966.428 23.5181 966.428 Z" fill="#000000" fill-rule="evenodd" fill-opacity="1" /><path clip-path="url(#clip200)" d="M-0.735273 948.954 L9.3862 948.954 L9.3862 936.891 L13.9377 936.891 L13.9377 948.954 L33.2894 948.954 Q37.6499 948.954 38.8913 947.776 Q40.1326 946.567 40.1326 942.907 L40.1326 936.891 L45.0342 936.891 L45.0342 942.907 Q45.0342 949.686 42.5197 952.264 Q39.9734 954.842 33.2894 954.842 L13.9377 954.842 L13.9377 959.139 L9.3862 959.139 L9.3862 954.842 L-0.735273 954.842 L-0.735273 948.954 Z" fill="#000000" fill-rule="evenodd" fill-opacity="1" /><path clip-path="url(#clip200)" d="M14.8607 908.532 Q14.2878 909.518 14.0332 910.696 Q13.7467 911.842 13.7467 913.242 Q13.7467 918.208 16.9932 920.881 Q20.2079 923.523 26.2553 923.523 L45.0342 923.523 L45.0342 929.411 L9.3862 929.411 L9.3862 923.523 L14.9244 923.523 Q11.6779 921.677 10.1183 918.717 Q8.52683 915.757 8.52683 911.524 Q8.52683 910.919 8.62232 910.187 Q8.68597 909.455 8.84512 908.564 L14.8607 908.532 Z" fill="#000000" fill-rule="evenodd" fill-opacity="1" /><path clip-path="url(#clip200)" d="M13.4921 890.008 Q13.4921 894.718 17.1842 897.455 Q20.8445 900.193 27.242 900.193 Q33.6395 900.193 37.3317 897.487 Q40.9919 894.75 40.9919 890.008 Q40.9919 885.329 37.2998 882.591 Q33.6077 879.854 27.242 879.854 Q20.9081 879.854 17.216 882.591 Q13.4921 885.329 13.4921 890.008 M8.52683 890.008 Q8.52683 882.369 13.4921 878.008 Q18.4573 873.648 27.242 873.648 Q35.9949 873.648 40.9919 878.008 Q45.9572 882.369 45.9572 890.008 Q45.9572 897.678 40.9919 902.039 Q35.9949 906.367 27.242 906.367 Q18.4573 906.367 13.4921 902.039 Q8.52683 897.678 8.52683 890.008 Z" fill="#000000" fill-rule="evenodd" fill-opacity="1" /><path clip-path="url(#clip200)" d="M39.687 858.274 L58.5931 858.274 L58.5931 864.163 L9.3862 864.163 L9.3862 858.274 L14.7971 858.274 Q11.6142 856.428 10.0864 853.628 Q8.52683 850.795 8.52683 846.88 Q8.52683 840.387 13.6831 836.345 Q18.8393 832.271 27.242 832.271 Q35.6447 832.271 40.801 836.345 Q45.9572 840.387 45.9572 846.88 Q45.9572 850.795 44.4294 853.628 Q42.8698 856.428 39.687 858.274 M27.242 838.35 Q20.7808 838.35 17.1205 841.023 Q13.4284 843.665 13.4284 848.312 Q13.4284 852.959 17.1205 855.633 Q20.7808 858.274 27.242 858.274 Q33.7032 858.274 37.3953 855.633 Q41.0556 852.959 41.0556 848.312 Q41.0556 843.665 37.3953 841.023 Q33.7032 838.35 27.242 838.35 Z" fill="#000000" fill-rule="evenodd" fill-opacity="1" /><path clip-path="url(#clip200)" d="M48.3443 807.731 Q54.71 810.213 56.6516 812.569 Q58.5931 814.924 58.5931 818.871 L58.5931 823.55 L53.6915 823.55 L53.6915 820.112 Q53.6915 817.693 52.5457 816.356 Q51.3999 815.02 47.1348 813.396 L44.4612 812.346 L9.3862 826.764 L9.3862 820.558 L37.268 809.418 L9.3862 798.278 L9.3862 792.071 L48.3443 807.731 Z" fill="#000000" fill-rule="evenodd" fill-opacity="1" /><path clip-path="url(#clip200)" d="M-2.48584 763.012 L-2.48584 756.582 L39.6233 756.582 L39.6233 733.443 L45.0342 733.443 L45.0342 763.012 L-2.48584 763.012 Z" fill="#000000" fill-rule="evenodd" fill-opacity="1" /><path clip-path="url(#clip200)" d="M13.4921 714.282 Q13.4921 718.993 17.1842 721.73 Q20.8445 724.467 27.242 724.467 Q33.6395 724.467 37.3317 721.762 Q40.9919 719.025 40.9919 714.282 Q40.9919 709.603 37.2998 706.866 Q33.6077 704.129 27.242 704.129 Q20.9081 704.129 17.216 706.866 Q13.4921 709.603 13.4921 714.282 M8.52683 714.282 Q8.52683 706.643 13.4921 702.283 Q18.4573 697.922 27.242 697.922 Q35.9949 697.922 40.9919 702.283 Q45.9572 706.643 45.9572 714.282 Q45.9572 721.953 40.9919 726.313 Q35.9949 730.642 27.242 730.642 Q18.4573 730.642 13.4921 726.313 Q8.52683 721.953 8.52683 714.282 Z" fill="#000000" fill-rule="evenodd" fill-opacity="1" /><path clip-path="url(#clip200)" d="M10.4365 665.489 L15.9747 665.489 Q14.7016 667.972 14.065 670.645 Q13.4284 673.319 13.4284 676.183 Q13.4284 680.544 14.7652 682.74 Q16.102 684.904 18.7756 684.904 Q20.8126 684.904 21.9903 683.345 Q23.1361 681.785 24.1865 677.075 L24.6321 675.069 Q25.9689 668.831 28.4197 666.221 Q30.8386 663.579 35.1991 663.579 Q40.1644 663.579 43.0608 667.526 Q45.9572 671.441 45.9572 678.316 Q45.9572 681.181 45.3843 684.3 Q44.8432 687.387 43.7292 690.825 L37.6818 690.825 Q39.3687 687.578 40.228 684.427 Q41.0556 681.276 41.0556 678.189 Q41.0556 674.051 39.6551 671.823 Q38.2229 669.595 35.6447 669.595 Q33.2576 669.595 31.9845 671.218 Q30.7113 672.81 29.5337 678.252 L29.0562 680.289 Q27.9104 685.732 25.5551 688.151 Q23.168 690.57 19.0302 690.57 Q14.0013 690.57 11.2641 687.005 Q8.52683 683.44 8.52683 676.884 Q8.52683 673.637 9.00426 670.773 Q9.48169 667.908 10.4365 665.489 Z" fill="#000000" fill-rule="evenodd" fill-opacity="1" /><path clip-path="url(#clip200)" d="M10.4365 631.528 L15.9747 631.528 Q14.7016 634.011 14.065 636.684 Q13.4284 639.358 13.4284 642.222 Q13.4284 646.583 14.7652 648.779 Q16.102 650.943 18.7756 650.943 Q20.8126 650.943 21.9903 649.384 Q23.1361 647.824 24.1865 643.114 L24.6321 641.108 Q25.9689 634.87 28.4197 632.26 Q30.8386 629.618 35.1991 629.618 Q40.1644 629.618 43.0608 633.565 Q45.9572 637.48 45.9572 644.355 Q45.9572 647.219 45.3843 650.339 Q44.8432 653.426 43.7292 656.864 L37.6818 656.864 Q39.3687 653.617 40.228 650.466 Q41.0556 647.315 41.0556 644.228 Q41.0556 640.09 39.6551 637.862 Q38.2229 635.634 35.6447 635.634 Q33.2576 635.634 31.9845 637.257 Q30.7113 638.849 29.5337 644.291 L29.0562 646.328 Q27.9104 651.771 25.5551 654.19 Q23.168 656.609 19.0302 656.609 Q14.0013 656.609 11.2641 653.044 Q8.52683 649.479 8.52683 642.923 Q8.52683 639.676 9.00426 636.812 Q9.48169 633.947 10.4365 631.528 Z" fill="#000000" fill-rule="evenodd" fill-opacity="1" /><polyline clip-path="url(#clip202)" style="stroke:#009af9; stroke-linecap:round; stroke-linejoin:round; stroke-width:4; stroke-opacity:1; fill:none" points="
  336.596,1462.3 347.577,1463.54 358.557,1464.78 369.537,1466.01 380.518,1467.23 391.498,1468.44 402.479,1469.65 413.459,1470.85 424.44,1472.03 435.42,1473.22 
  446.401,1474.39 457.381,1475.55 468.362,1476.71 479.342,1477.86 490.323,1479 501.303,1480.14 512.284,1481.26 523.264,1482.38 534.244,1483.5 545.225,1484.6 
  556.205,1485.7 567.186,1486.79 578.166,1487.88 589.147,1488.95 600.127,1490.02 611.108,1491.09 622.088,1492.14 633.069,1493.19 644.049,1494.24 655.03,1495.27 
  666.01,1496.3 676.991,1497.33 687.971,1498.35 698.951,1499.36 709.932,1500.36 720.912,1501.36 731.893,1502.35 742.873,1503.34 753.854,1504.32 764.834,1505.29 
  775.815,1506.26 786.795,1507.22 797.776,1508.18 808.756,1509.13 819.737,1510.07 830.717,1511.01 841.697,1511.94 852.678,1512.87 863.658,1513.79 874.639,1514.71 
  885.619,1515.62 896.6,1516.52 907.58,1517.42 918.561,1518.32 929.541,1519.21 940.522,1520.09 951.502,1520.97 962.483,1521.84 973.463,1522.71 984.444,1523.57 
  995.424,1524.43 1006.4,1525.29 1017.38,1526.13 1028.37,1526.98 1039.35,1527.81 1050.33,1528.65 1061.31,1529.48 1072.29,1530.3 1083.27,1531.12 1094.25,1531.93 
  1105.23,1532.74 1116.21,1533.55 1127.19,1534.35 1138.17,1535.14 1149.15,1535.94 1160.13,1536.72 1171.11,1537.51 1182.09,1538.28 1193.07,1539.06 1204.05,1539.83 
  1215.03,1540.59 1226.01,1541.35 1236.99,1542.11 1247.97,1542.86 1258.96,1543.61 1269.94,1544.35 1280.92,1545.09 1291.9,1545.83 1302.88,1546.56 1313.86,1547.29 
  1324.84,1548.01 1335.82,1548.73 1346.8,1549.45 1357.78,1550.16 1368.76,1550.87 1379.74,1551.57 1390.72,1552.27 1401.7,1552.97 1412.68,1553.66 1423.66,1554.35 
  1434.64,1555.04 1445.62,1555.72 1456.6,1556.4 1467.58,1557.07 1478.56,1557.74 1489.54,1558.41 1500.53,1559.07 1511.51,1559.73 1522.49,1560.39 1533.47,1561.04 
  1544.45,1561.69 1555.43,1562.34 1566.41,1562.98 1577.39,1563.62 1588.37,1564.26 1599.35,1564.89 1610.33,1565.52 1621.31,1566.15 1632.29,1566.77 1643.27,1567.39 
  1654.25,1568.01 1665.23,1568.62 1676.21,1569.24 1687.19,1569.84 1698.17,1570.45 1709.15,1571.05 1720.13,1571.65 1731.12,1572.24 1742.1,1572.84 1753.08,1573.43 
  1764.06,1574.01 1775.04,1574.6 1786.02,1575.18 1797,1575.75 1807.98,1576.33 1818.96,1576.9 1829.94,1577.47 1840.92,1578.04 1851.9,1578.6 1862.88,1579.16 
  1873.86,1579.72 1884.84,1580.27 1895.82,1580.83 1906.8,1581.38 1917.78,1581.92 1928.76,1582.47 1939.74,1583.01 1950.72,1583.55 1961.7,1584.09 1972.69,1584.62 
  1983.67,1585.15 1994.65,1585.68 2005.63,1586.21 2016.61,1586.73 2027.59,1587.25 2038.57,1587.77 2049.55,1588.29 2060.53,1588.8 2071.51,1589.31 2082.49,1589.82 
  2093.47,1590.33 2104.45,1590.83 2115.43,1591.33 2126.41,1591.83 2137.39,1592.33 2148.37,1592.83 2159.35,1593.32 2170.33,1593.81 2181.31,1594.3 2192.29,1594.78 
  2203.28,1595.27 2214.26,1595.75 2225.24,1596.23 2236.22,1596.7 2247.2,1597.18 2258.18,1597.65 2269.16,1598.12 2280.14,1598.59 2291.12,1599.05 2302.1,1599.52 
  2313.08,1599.98 2324.06,1600.44 2335.04,1600.9 2346.02,1601.35 2357,1601.8 2367.98,1602.26 2378.96,1602.71 2389.94,1603.15 2400.92,1603.6 2411.9,1604.04 
  2422.88,1604.48 2433.86,1604.92 2444.85,1605.36 2455.83,1605.79 2466.81,1606.23 2477.79,1606.66 2488.77,1607.09 2499.75,1607.52 2510.73,1607.94 2521.71,1608.37 
  2532.69,1608.79 2543.67,1609.21 2554.65,1609.63 2565.63,1610.04 2576.61,1610.46 2587.59,1610.87 2598.57,1611.28 2609.55,1611.69 2620.53,1612.1 2631.51,1612.51 
  2642.49,1612.91 2653.47,1613.31 2664.45,1613.71 2675.44,1614.11 2686.42,1614.51 2697.4,1614.9 2708.38,1615.3 2719.36,1615.69 2730.34,1616.08 2741.32,1616.47 
  2752.3,1616.86 2763.28,1617.24 2774.26,1617.63 2785.24,1618.01 2796.22,1618.39 2807.2,1618.77 2818.18,1619.15 2829.16,1619.52 2840.14,1619.9 2851.12,1620.27 
  2862.1,1620.64 2873.08,1621.01 2884.06,1621.38 2895.04,1621.75 2906.02,1622.11 2917.01,1622.47 2927.99,1622.84 2938.97,1623.2 2949.95,1623.56 2960.93,1623.91 
  2971.91,1624.27 2982.89,1624.62 2993.87,1624.98 3004.85,1625.33 3015.83,1625.68 3026.81,1626.03 3037.79,1626.38 3048.77,1626.72 3059.75,1627.07 3070.73,1627.41 
  
  "/>
<polyline clip-path="url(#clip202)" style="stroke:#e26f46; stroke-linecap:round; stroke-linejoin:round; stroke-width:4; stroke-opacity:1; fill:none" points="
  336.596,97.5384 347.577,171.981 358.557,275.275 369.537,391.494 380.518,510.066 391.498,624.453 402.479,730.988 413.459,827.957 424.44,914.902 435.42,992.117 
  446.401,1060.31 457.381,1120.37 468.362,1173.25 479.342,1219.84 490.323,1260.99 501.303,1297.43 512.284,1329.82 523.264,1358.71 534.244,1384.58 545.225,1407.83 
  556.205,1428.81 567.186,1447.82 578.166,1465.09 589.147,1480.85 600.127,1495.26 611.108,1508.5 622.088,1520.68 633.069,1531.93 644.049,1542.33 655.03,1551.99 
  666.01,1560.97 676.991,1569.33 687.971,1577.15 698.951,1584.45 709.932,1591.3 720.912,1597.73 731.893,1603.78 742.873,1609.48 753.854,1614.85 764.834,1619.92 
  775.815,1624.72 786.795,1629.26 797.776,1633.57 808.756,1637.66 819.737,1641.54 830.717,1645.24 841.697,1648.76 852.678,1652.11 863.658,1655.31 874.639,1658.37 
  885.619,1661.29 896.6,1664.08 907.58,1666.76 918.561,1669.32 929.541,1671.77 940.522,1674.13 951.502,1676.39 962.483,1678.57 973.463,1680.66 984.444,1682.67 
  995.424,1684.6 1006.4,1686.47 1017.38,1688.26 1028.37,1689.99 1039.35,1691.67 1050.33,1693.28 1061.31,1694.84 1072.29,1696.34 1083.27,1697.8 1094.25,1699.2 
  1105.23,1700.57 1116.21,1701.88 1127.19,1703.16 1138.17,1704.4 1149.15,1705.6 1160.13,1706.76 1171.11,1707.89 1182.09,1708.98 1193.07,1710.05 1204.05,1711.08 
  1215.03,1712.08 1226.01,1713.06 1236.99,1714 1247.97,1714.92 1258.96,1715.82 1269.94,1716.69 1280.92,1717.54 1291.9,1718.37 1302.88,1719.17 1313.86,1719.96 
  1324.84,1720.72 1335.82,1721.47 1346.8,1722.2 1357.78,1722.9 1368.76,1723.6 1379.74,1724.27 1390.72,1724.93 1401.7,1725.57 1412.68,1726.2 1423.66,1726.82 
  1434.64,1727.42 1445.62,1728 1456.6,1728.57 1467.58,1729.13 1478.56,1729.68 1489.54,1730.22 1500.53,1730.74 1511.51,1731.26 1522.49,1731.76 1533.47,1732.25 
  1544.45,1732.73 1555.43,1733.2 1566.41,1733.66 1577.39,1734.12 1588.37,1734.56 1599.35,1734.99 1610.33,1735.42 1621.31,1735.84 1632.29,1736.25 1643.27,1736.65 
  1654.25,1737.04 1665.23,1737.43 1676.21,1737.81 1687.19,1738.18 1698.17,1738.54 1709.15,1738.9 1720.13,1739.25 1731.12,1739.6 1742.1,1739.94 1753.08,1740.27 
  1764.06,1740.6 1775.04,1740.92 1786.02,1741.23 1797,1741.55 1807.98,1741.85 1818.96,1742.15 1829.94,1742.45 1840.92,1742.73 1851.9,1743.02 1862.88,1743.3 
  1873.86,1743.58 1884.84,1743.85 1895.82,1744.11 1906.8,1744.38 1917.78,1744.64 1928.76,1744.89 1939.74,1745.14 1950.72,1745.39 1961.7,1745.63 1972.69,1745.87 
  1983.67,1746.1 1994.65,1746.34 2005.63,1746.56 2016.61,1746.79 2027.59,1747.01 2038.57,1747.23 2049.55,1747.44 2060.53,1747.65 2071.51,1747.86 2082.49,1748.07 
  2093.47,1748.27 2104.45,1748.47 2115.43,1748.67 2126.41,1748.86 2137.39,1749.05 2148.37,1749.24 2159.35,1749.43 2170.33,1749.61 2181.31,1749.79 2192.29,1749.97 
  2203.28,1750.15 2214.26,1750.32 2225.24,1750.5 2236.22,1750.67 2247.2,1750.83 2258.18,1751 2269.16,1751.16 2280.14,1751.32 2291.12,1751.48 2302.1,1751.64 
  2313.08,1751.79 2324.06,1751.94 2335.04,1752.09 2346.02,1752.24 2357,1752.39 2367.98,1752.54 2378.96,1752.68 2389.94,1752.82 2400.92,1752.96 2411.9,1753.1 
  2422.88,1753.24 2433.86,1753.37 2444.85,1753.5 2455.83,1753.64 2466.81,1753.77 2477.79,1753.9 2488.77,1754.02 2499.75,1754.15 2510.73,1754.27 2521.71,1754.4 
  2532.69,1754.52 2543.67,1754.64 2554.65,1754.76 2565.63,1754.87 2576.61,1754.99 2587.59,1755.1 2598.57,1755.22 2609.55,1755.33 2620.53,1755.44 2631.51,1755.55 
  2642.49,1755.66 2653.47,1755.77 2664.45,1755.87 2675.44,1755.98 2686.42,1756.08 2697.4,1756.19 2708.38,1756.29 2719.36,1756.39 2730.34,1756.49 2741.32,1756.59 
  2752.3,1756.68 2763.28,1756.78 2774.26,1756.88 2785.24,1756.97 2796.22,1757.06 2807.2,1757.16 2818.18,1757.25 2829.16,1757.34 2840.14,1757.43 2851.12,1757.52 
  2862.1,1757.61 2873.08,1757.7 2884.06,1757.78 2895.04,1757.87 2906.02,1757.95 2917.01,1758.04 2927.99,1758.12 2938.97,1758.2 2949.95,1758.28 2960.93,1758.36 
  2971.91,1758.44 2982.89,1758.52 2993.87,1758.6 3004.85,1758.68 3015.83,1758.76 3026.81,1758.83 3037.79,1758.91 3048.77,1758.98 3059.75,1759.06 3070.73,1759.13 
  
  "/>
<polyline clip-path="url(#clip202)" style="stroke:#3da44d; stroke-linecap:round; stroke-linejoin:round; stroke-width:4; stroke-opacity:1; fill:none" points="
  336.596,652.643 347.577,717.317 358.557,764.147 369.537,803.472 380.518,838.529 391.498,870.787 402.479,901.04 413.459,929.774 424.44,957.307 435.42,983.861 
  446.401,1009.6 457.381,1034.65 468.362,1059.11 479.342,1083.06 490.323,1106.57 501.303,1129.67 512.284,1152.41 523.264,1174.83 534.244,1196.93 545.225,1218.74 
  556.205,1240.26 567.186,1261.49 578.166,1282.42 589.147,1303.04 600.127,1323.33 611.108,1343.28 622.088,1362.85 633.069,1382.03 644.049,1400.79 655.03,1419.1 
  666.01,1436.95 676.991,1454.29 687.971,1471.12 698.951,1487.42 709.932,1503.16 720.912,1518.33 731.893,1532.92 742.873,1546.92 753.854,1560.33 764.834,1573.15 
  775.815,1585.38 786.795,1597.03 797.776,1608.1 808.756,1618.6 819.737,1628.55 830.717,1637.96 841.697,1646.85 852.678,1655.23 863.658,1663.12 874.639,1670.54 
  885.619,1677.51 896.6,1684.06 907.58,1690.19 918.561,1695.93 929.541,1701.31 940.522,1706.33 951.502,1711.03 962.483,1715.41 973.463,1719.49 984.444,1723.3 
  995.424,1726.85 1006.4,1730.16 1017.38,1733.23 1028.37,1736.1 1039.35,1738.76 1050.33,1741.23 1061.31,1743.53 1072.29,1745.67 1083.27,1747.66 1094.25,1749.5 
  1105.23,1751.22 1116.21,1752.81 1127.19,1754.29 1138.17,1755.66 1149.15,1756.94 1160.13,1758.12 1171.11,1759.22 1182.09,1760.25 1193.07,1761.2 1204.05,1762.08 
  1215.03,1762.9 1226.01,1763.66 1236.99,1764.37 1247.97,1765.03 1258.96,1765.64 1269.94,1766.21 1280.92,1766.74 1291.9,1767.23 1302.88,1767.69 1313.86,1768.11 
  1324.84,1768.51 1335.82,1768.88 1346.8,1769.22 1357.78,1769.55 1368.76,1769.84 1379.74,1770.12 1390.72,1770.38 1401.7,1770.62 1412.68,1770.85 1423.66,1771.06 
  1434.64,1771.26 1445.62,1771.44 1456.6,1771.61 1467.58,1771.77 1478.56,1771.92 1489.54,1772.05 1500.53,1772.18 1511.51,1772.3 1522.49,1772.42 1533.47,1772.52 
  1544.45,1772.62 1555.43,1772.71 1566.41,1772.8 1577.39,1772.88 1588.37,1772.95 1599.35,1773.02 1610.33,1773.09 1621.31,1773.15 1632.29,1773.21 1643.27,1773.26 
  1654.25,1773.31 1665.23,1773.35 1676.21,1773.4 1687.19,1773.44 1698.17,1773.48 1709.15,1773.51 1720.13,1773.54 1731.12,1773.57 1742.1,1773.6 1753.08,1773.63 
  1764.06,1773.65 1775.04,1773.68 1786.02,1773.7 1797,1773.72 1807.98,1773.74 1818.96,1773.76 1829.94,1773.77 1840.92,1773.79 1851.9,1773.8 1862.88,1773.81 
  1873.86,1773.83 1884.84,1773.84 1895.82,1773.85 1906.8,1773.86 1917.78,1773.87 1928.76,1773.88 1939.74,1773.88 1950.72,1773.89 1961.7,1773.9 1972.69,1773.9 
  1983.67,1773.91 1994.65,1773.92 2005.63,1773.92 2016.61,1773.93 2027.59,1773.93 2038.57,1773.93 2049.55,1773.94 2060.53,1773.94 2071.51,1773.95 2082.49,1773.95 
  2093.47,1773.95 2104.45,1773.95 2115.43,1773.96 2126.41,1773.96 2137.39,1773.96 2148.37,1773.96 2159.35,1773.97 2170.33,1773.97 2181.31,1773.97 2192.29,1773.97 
  2203.28,1773.97 2214.26,1773.98 2225.24,1773.98 2236.22,1773.98 2247.2,1773.98 2258.18,1773.98 2269.16,1773.98 2280.14,1773.98 2291.12,1773.98 2302.1,1773.99 
  2313.08,1773.99 2324.06,1773.99 2335.04,1773.99 2346.02,1773.99 2357,1773.99 2367.98,1773.99 2378.96,1773.99 2389.94,1773.99 2400.92,1773.99 2411.9,1773.99 
  2422.88,1774 2433.86,1774 2444.85,1774 2455.83,1774 2466.81,1774 2477.79,1774 2488.77,1774 2499.75,1774 2510.73,1774 2521.71,1774 
  2532.69,1774 2543.67,1774 2554.65,1774 2565.63,1774 2576.61,1774 2587.59,1774 2598.57,1774 2609.55,1774 2620.53,1774 2631.51,1774.01 
  2642.49,1774.01 2653.47,1774.01 2664.45,1774.01 2675.44,1774.01 2686.42,1774.01 2697.4,1774.01 2708.38,1774.01 2719.36,1774.01 2730.34,1774.01 2741.32,1774.01 
  2752.3,1774.01 2763.28,1774.01 2774.26,1774.01 2785.24,1774.01 2796.22,1774.01 2807.2,1774.01 2818.18,1774.01 2829.16,1774.01 2840.14,1774.01 2851.12,1774.01 
  2862.1,1774.01 2873.08,1774.01 2884.06,1774.01 2895.04,1774.01 2906.02,1774.01 2917.01,1774.01 2927.99,1774.01 2938.97,1774.01 2949.95,1774.01 2960.93,1774.01 
  2971.91,1774.01 2982.89,1774.01 2993.87,1774.01 3004.85,1774.01 3015.83,1774.01 3026.81,1774.01 3037.79,1774.02 3048.77,1774.02 3059.75,1774.02 3070.73,1774.02 
  
  "/>
<polyline clip-path="url(#clip202)" style="stroke:#c271d2; stroke-linecap:round; stroke-linejoin:round; stroke-width:4; stroke-opacity:1; fill:none" points="
  336.596,1437.62 347.577,1462.16 358.557,1487.28 369.537,1510.56 380.518,1531.35 391.498,1549.68 402.479,1565.77 413.459,1579.91 424.44,1592.37 435.42,1603.41 
  446.401,1613.23 457.381,1622.02 468.362,1629.91 479.342,1637.03 490.323,1643.49 501.303,1649.37 512.284,1654.75 523.264,1659.68 534.244,1664.22 545.225,1668.42 
  556.205,1672.31 567.186,1675.93 578.166,1679.3 589.147,1682.45 600.127,1685.4 611.108,1688.17 622.088,1690.77 633.069,1693.23 644.049,1695.55 655.03,1697.74 
  666.01,1699.82 676.991,1701.8 687.971,1703.67 698.951,1705.46 709.932,1707.16 720.912,1708.78 731.893,1710.33 742.873,1711.81 753.854,1713.23 764.834,1714.59 
  775.815,1715.89 786.795,1717.14 797.776,1718.34 808.756,1719.5 819.737,1720.61 830.717,1721.68 841.697,1722.72 852.678,1723.71 863.658,1724.67 874.639,1725.6 
  885.619,1726.5 896.6,1727.36 907.58,1728.2 918.561,1729.01 929.541,1729.8 940.522,1730.56 951.502,1731.3 962.483,1732.02 973.463,1732.71 984.444,1733.39 
  995.424,1734.04 1006.4,1734.68 1017.38,1735.3 1028.37,1735.9 1039.35,1736.48 1050.33,1737.05 1061.31,1737.61 1072.29,1738.15 1083.27,1738.68 1094.25,1739.19 
  1105.23,1739.69 1116.21,1740.18 1127.19,1740.65 1138.17,1741.12 1149.15,1741.57 1160.13,1742.01 1171.11,1742.44 1182.09,1742.87 1193.07,1743.28 1204.05,1743.68 
  1215.03,1744.08 1226.01,1744.46 1236.99,1744.84 1247.97,1745.21 1258.96,1745.57 1269.94,1745.92 1280.92,1746.27 1291.9,1746.61 1302.88,1746.94 1313.86,1747.26 
  1324.84,1747.58 1335.82,1747.89 1346.8,1748.2 1357.78,1748.5 1368.76,1748.79 1379.74,1749.08 1390.72,1749.36 1401.7,1749.64 1412.68,1749.91 1423.66,1750.18 
  1434.64,1750.44 1445.62,1750.7 1456.6,1750.96 1467.58,1751.2 1478.56,1751.45 1489.54,1751.69 1500.53,1751.92 1511.51,1752.15 1522.49,1752.38 1533.47,1752.61 
  1544.45,1752.83 1555.43,1753.04 1566.41,1753.25 1577.39,1753.46 1588.37,1753.67 1599.35,1753.87 1610.33,1754.07 1621.31,1754.27 1632.29,1754.46 1643.27,1754.65 
  1654.25,1754.84 1665.23,1755.02 1676.21,1755.2 1687.19,1755.38 1698.17,1755.56 1709.15,1755.73 1720.13,1755.9 1731.12,1756.07 1742.1,1756.23 1753.08,1756.39 
  1764.06,1756.56 1775.04,1756.71 1786.02,1756.87 1797,1757.02 1807.98,1757.17 1818.96,1757.32 1829.94,1757.47 1840.92,1757.62 1851.9,1757.76 1862.88,1757.9 
  1873.86,1758.04 1884.84,1758.18 1895.82,1758.31 1906.8,1758.45 1917.78,1758.58 1928.76,1758.71 1939.74,1758.84 1950.72,1758.96 1961.7,1759.09 1972.69,1759.21 
  1983.67,1759.34 1994.65,1759.46 2005.63,1759.57 2016.61,1759.69 2027.59,1759.81 2038.57,1759.92 2049.55,1760.04 2060.53,1760.15 2071.51,1760.26 2082.49,1760.37 
  2093.47,1760.47 2104.45,1760.58 2115.43,1760.68 2126.41,1760.79 2137.39,1760.89 2148.37,1760.99 2159.35,1761.09 2170.33,1761.19 2181.31,1761.29 2192.29,1761.39 
  2203.28,1761.48 2214.26,1761.58 2225.24,1761.67 2236.22,1761.76 2247.2,1761.85 2258.18,1761.94 2269.16,1762.03 2280.14,1762.12 2291.12,1762.21 2302.1,1762.29 
  2313.08,1762.38 2324.06,1762.46 2335.04,1762.55 2346.02,1762.63 2357,1762.71 2367.98,1762.79 2378.96,1762.87 2389.94,1762.95 2400.92,1763.03 2411.9,1763.11 
  2422.88,1763.18 2433.86,1763.26 2444.85,1763.33 2455.83,1763.41 2466.81,1763.48 2477.79,1763.55 2488.77,1763.63 2499.75,1763.7 2510.73,1763.77 2521.71,1763.84 
  2532.69,1763.91 2543.67,1763.97 2554.65,1764.04 2565.63,1764.11 2576.61,1764.18 2587.59,1764.24 2598.57,1764.31 2609.55,1764.37 2620.53,1764.43 2631.51,1764.5 
  2642.49,1764.56 2653.47,1764.62 2664.45,1764.68 2675.44,1764.74 2686.42,1764.8 2697.4,1764.86 2708.38,1764.92 2719.36,1764.98 2730.34,1765.04 2741.32,1765.1 
  2752.3,1765.15 2763.28,1765.21 2774.26,1765.27 2785.24,1765.32 2796.22,1765.38 2807.2,1765.43 2818.18,1765.49 2829.16,1765.54 2840.14,1765.59 2851.12,1765.64 
  2862.1,1765.7 2873.08,1765.75 2884.06,1765.8 2895.04,1765.85 2906.02,1765.9 2917.01,1765.95 2927.99,1766 2938.97,1766.05 2949.95,1766.1 2960.93,1766.14 
  2971.91,1766.19 2982.89,1766.24 2993.87,1766.29 3004.85,1766.33 3015.83,1766.38 3026.81,1766.42 3037.79,1766.47 3048.77,1766.51 3059.75,1766.56 3070.73,1766.6 
  
  "/>
<path clip-path="url(#clip200)" d="
M2322.28 365.68 L3056.15 365.68 L3056.15 106.48 L2322.28 106.48  Z
  " fill="#ffffff" fill-rule="evenodd" fill-opacity="1"/>
<polyline clip-path="url(#clip200)" style="stroke:#000000; stroke-linecap:round; stroke-linejoin:round; stroke-width:4; stroke-opacity:1; fill:none" points="
  2322.28,365.68 3056.15,365.68 3056.15,106.48 2322.28,106.48 2322.28,365.68 
  "/>
<polyline clip-path="url(#clip200)" style="stroke:#009af9; stroke-linecap:round; stroke-linejoin:round; stroke-width:4; stroke-opacity:1; fill:none" points="
  2354.48,158.32 2547.69,158.32 
  "/>
<path clip-path="url(#clip200)" d="M2605.45 170.669 L2605.45 161.387 L2597.81 161.387 L2597.81 157.544 L2610.08 157.544 L2610.08 172.382 Q2607.37 174.303 2604.11 175.299 Q2600.85 176.271 2597.14 176.271 Q2589.04 176.271 2584.46 171.549 Q2579.9 166.803 2579.9 158.354 Q2579.9 149.882 2584.46 145.16 Q2589.04 140.415 2597.14 140.415 Q2600.52 140.415 2603.55 141.248 Q2606.61 142.081 2609.18 143.702 L2609.18 148.678 Q2606.59 146.479 2603.67 145.368 Q2600.75 144.257 2597.53 144.257 Q2591.19 144.257 2588 147.799 Q2584.83 151.34 2584.83 158.354 Q2584.83 165.345 2588 168.887 Q2591.19 172.428 2597.53 172.428 Q2600.01 172.428 2601.96 172.012 Q2603.9 171.572 2605.45 170.669 Z" fill="#000000" fill-rule="evenodd" fill-opacity="1" /><path clip-path="url(#clip200)" d="M2633.46 153.655 Q2632.74 153.239 2631.89 153.053 Q2631.05 152.845 2630.03 152.845 Q2626.42 152.845 2624.48 155.206 Q2622.56 157.544 2622.56 161.942 L2622.56 175.6 L2618.28 175.6 L2618.28 149.674 L2622.56 149.674 L2622.56 153.702 Q2623.9 151.34 2626.05 150.206 Q2628.21 149.049 2631.28 149.049 Q2631.72 149.049 2632.26 149.118 Q2632.79 149.165 2633.44 149.28 L2633.46 153.655 Z" fill="#000000" fill-rule="evenodd" fill-opacity="1" /><path clip-path="url(#clip200)" d="M2649.71 162.567 Q2644.55 162.567 2642.56 163.748 Q2640.57 164.928 2640.57 167.776 Q2640.57 170.044 2642.05 171.387 Q2643.55 172.706 2646.12 172.706 Q2649.66 172.706 2651.79 170.206 Q2653.95 167.683 2653.95 163.516 L2653.95 162.567 L2649.71 162.567 M2658.21 160.808 L2658.21 175.6 L2653.95 175.6 L2653.95 171.664 Q2652.49 174.026 2650.31 175.16 Q2648.14 176.271 2644.99 176.271 Q2641.01 176.271 2638.65 174.049 Q2636.31 171.803 2636.31 168.053 Q2636.31 163.678 2639.22 161.456 Q2642.16 159.234 2647.97 159.234 L2653.95 159.234 L2653.95 158.817 Q2653.95 155.878 2652 154.28 Q2650.08 152.66 2646.59 152.66 Q2644.36 152.66 2642.26 153.192 Q2640.15 153.725 2638.21 154.79 L2638.21 150.854 Q2640.54 149.952 2642.74 149.512 Q2644.94 149.049 2647.03 149.049 Q2652.65 149.049 2655.43 151.965 Q2658.21 154.882 2658.21 160.808 Z" fill="#000000" fill-rule="evenodd" fill-opacity="1" /><path clip-path="url(#clip200)" d="M2684.04 153.609 L2684.04 139.581 L2688.3 139.581 L2688.3 175.6 L2684.04 175.6 L2684.04 171.711 Q2682.7 174.026 2680.64 175.16 Q2678.6 176.271 2675.73 176.271 Q2671.03 176.271 2668.07 172.521 Q2665.13 168.771 2665.13 162.66 Q2665.13 156.549 2668.07 152.799 Q2671.03 149.049 2675.73 149.049 Q2678.6 149.049 2680.64 150.183 Q2682.7 151.294 2684.04 153.609 M2669.53 162.66 Q2669.53 167.359 2671.45 170.044 Q2673.39 172.706 2676.77 172.706 Q2680.15 172.706 2682.09 170.044 Q2684.04 167.359 2684.04 162.66 Q2684.04 157.961 2682.09 155.299 Q2680.15 152.614 2676.77 152.614 Q2673.39 152.614 2671.45 155.299 Q2669.53 157.961 2669.53 162.66 Z" fill="#000000" fill-rule="evenodd" fill-opacity="1" /><path clip-path="url(#clip200)" d="M2697.07 149.674 L2701.33 149.674 L2701.33 175.6 L2697.07 175.6 L2697.07 149.674 M2697.07 139.581 L2701.33 139.581 L2701.33 144.975 L2697.07 144.975 L2697.07 139.581 Z" fill="#000000" fill-rule="evenodd" fill-opacity="1" /><path clip-path="url(#clip200)" d="M2732.42 161.572 L2732.42 163.655 L2712.84 163.655 Q2713.11 168.053 2715.47 170.368 Q2717.86 172.66 2722.09 172.66 Q2724.55 172.66 2726.84 172.058 Q2729.15 171.456 2731.42 170.252 L2731.42 174.28 Q2729.13 175.252 2726.72 175.762 Q2724.32 176.271 2721.84 176.271 Q2715.64 176.271 2712 172.66 Q2708.39 169.049 2708.39 162.891 Q2708.39 156.526 2711.82 152.799 Q2715.27 149.049 2721.1 149.049 Q2726.33 149.049 2729.36 152.428 Q2732.42 155.785 2732.42 161.572 M2728.16 160.322 Q2728.11 156.827 2726.19 154.743 Q2724.29 152.66 2721.15 152.66 Q2717.58 152.66 2715.43 154.674 Q2713.3 156.688 2712.97 160.345 L2728.16 160.322 Z" fill="#000000" fill-rule="evenodd" fill-opacity="1" /><path clip-path="url(#clip200)" d="M2760.96 159.952 L2760.96 175.6 L2756.7 175.6 L2756.7 160.09 Q2756.7 156.41 2755.27 154.581 Q2753.83 152.753 2750.96 152.753 Q2747.51 152.753 2745.52 154.952 Q2743.53 157.151 2743.53 160.947 L2743.53 175.6 L2739.25 175.6 L2739.25 149.674 L2743.53 149.674 L2743.53 153.702 Q2745.06 151.364 2747.12 150.206 Q2749.2 149.049 2751.91 149.049 Q2756.38 149.049 2758.67 151.827 Q2760.96 154.581 2760.96 159.952 Z" fill="#000000" fill-rule="evenodd" fill-opacity="1" /><path clip-path="url(#clip200)" d="M2773.67 142.313 L2773.67 149.674 L2782.44 149.674 L2782.44 152.984 L2773.67 152.984 L2773.67 167.058 Q2773.67 170.229 2774.52 171.132 Q2775.4 172.035 2778.07 172.035 L2782.44 172.035 L2782.44 175.6 L2778.07 175.6 Q2773.14 175.6 2771.26 173.771 Q2769.39 171.919 2769.39 167.058 L2769.39 152.984 L2766.26 152.984 L2766.26 149.674 L2769.39 149.674 L2769.39 142.313 L2773.67 142.313 Z" fill="#000000" fill-rule="evenodd" fill-opacity="1" /><path clip-path="url(#clip200)" d="M2807.97 144.882 L2807.97 171.757 L2813.62 171.757 Q2820.77 171.757 2824.08 168.516 Q2827.42 165.276 2827.42 158.285 Q2827.42 151.34 2824.08 148.123 Q2820.77 144.882 2813.62 144.882 L2807.97 144.882 M2803.3 141.04 L2812.9 141.04 Q2822.95 141.04 2827.65 145.229 Q2832.35 149.396 2832.35 158.285 Q2832.35 167.22 2827.63 171.41 Q2822.9 175.6 2812.9 175.6 L2803.3 175.6 L2803.3 141.04 Z" fill="#000000" fill-rule="evenodd" fill-opacity="1" /><path clip-path="url(#clip200)" d="M2861.79 161.572 L2861.79 163.655 L2842.21 163.655 Q2842.49 168.053 2844.85 170.368 Q2847.23 172.66 2851.47 172.66 Q2853.92 172.66 2856.21 172.058 Q2858.53 171.456 2860.8 170.252 L2860.8 174.28 Q2858.51 175.252 2856.1 175.762 Q2853.69 176.271 2851.21 176.271 Q2845.01 176.271 2841.38 172.66 Q2837.77 169.049 2837.77 162.891 Q2837.77 156.526 2841.19 152.799 Q2844.64 149.049 2850.47 149.049 Q2855.7 149.049 2858.74 152.428 Q2861.79 155.785 2861.79 161.572 M2857.53 160.322 Q2857.49 156.827 2855.57 154.743 Q2853.67 152.66 2850.52 152.66 Q2846.95 152.66 2844.8 154.674 Q2842.67 156.688 2842.35 160.345 L2857.53 160.322 Z" fill="#000000" fill-rule="evenodd" fill-opacity="1" /><path clip-path="url(#clip200)" d="M2885.31 150.438 L2885.31 154.465 Q2883.51 153.54 2881.56 153.077 Q2879.62 152.614 2877.53 152.614 Q2874.36 152.614 2872.76 153.586 Q2871.19 154.558 2871.19 156.502 Q2871.19 157.984 2872.33 158.84 Q2873.46 159.674 2876.89 160.438 L2878.34 160.762 Q2882.88 161.734 2884.78 163.516 Q2886.7 165.276 2886.7 168.447 Q2886.7 172.058 2883.83 174.164 Q2880.98 176.271 2875.98 176.271 Q2873.9 176.271 2871.63 175.854 Q2869.39 175.461 2866.89 174.651 L2866.89 170.252 Q2869.25 171.479 2871.54 172.104 Q2873.83 172.706 2876.08 172.706 Q2879.08 172.706 2880.7 171.688 Q2882.32 170.646 2882.32 168.771 Q2882.32 167.035 2881.14 166.109 Q2879.99 165.183 2876.03 164.327 L2874.55 163.979 Q2870.59 163.146 2868.83 161.433 Q2867.07 159.697 2867.07 156.688 Q2867.07 153.03 2869.66 151.04 Q2872.26 149.049 2877.02 149.049 Q2879.39 149.049 2881.47 149.396 Q2883.55 149.743 2885.31 150.438 Z" fill="#000000" fill-rule="evenodd" fill-opacity="1" /><path clip-path="url(#clip200)" d="M2912.14 150.669 L2912.14 154.651 Q2910.33 153.655 2908.51 153.169 Q2906.7 152.66 2904.85 152.66 Q2900.7 152.66 2898.41 155.299 Q2896.12 157.915 2896.12 162.66 Q2896.12 167.405 2898.41 170.044 Q2900.7 172.66 2904.85 172.66 Q2906.7 172.66 2908.51 172.174 Q2910.33 171.664 2912.14 170.669 L2912.14 174.604 Q2910.36 175.438 2908.44 175.854 Q2906.54 176.271 2904.39 176.271 Q2898.53 176.271 2895.08 172.59 Q2891.63 168.91 2891.63 162.66 Q2891.63 156.317 2895.1 152.683 Q2898.6 149.049 2904.66 149.049 Q2906.63 149.049 2908.51 149.466 Q2910.38 149.859 2912.14 150.669 Z" fill="#000000" fill-rule="evenodd" fill-opacity="1" /><path clip-path="url(#clip200)" d="M2941.72 161.572 L2941.72 163.655 L2922.14 163.655 Q2922.42 168.053 2924.78 170.368 Q2927.16 172.66 2931.4 172.66 Q2933.85 172.66 2936.14 172.058 Q2938.46 171.456 2940.73 170.252 L2940.73 174.28 Q2938.44 175.252 2936.03 175.762 Q2933.62 176.271 2931.14 176.271 Q2924.94 176.271 2921.31 172.66 Q2917.7 169.049 2917.7 162.891 Q2917.7 156.526 2921.12 152.799 Q2924.57 149.049 2930.4 149.049 Q2935.63 149.049 2938.67 152.428 Q2941.72 155.785 2941.72 161.572 M2937.46 160.322 Q2937.42 156.827 2935.5 154.743 Q2933.6 152.66 2930.45 152.66 Q2926.88 152.66 2924.73 154.674 Q2922.6 156.688 2922.28 160.345 L2937.46 160.322 Z" fill="#000000" fill-rule="evenodd" fill-opacity="1" /><path clip-path="url(#clip200)" d="M2970.26 159.952 L2970.26 175.6 L2966.01 175.6 L2966.01 160.09 Q2966.01 156.41 2964.57 154.581 Q2963.13 152.753 2960.26 152.753 Q2956.82 152.753 2954.82 154.952 Q2952.83 157.151 2952.83 160.947 L2952.83 175.6 L2948.55 175.6 L2948.55 149.674 L2952.83 149.674 L2952.83 153.702 Q2954.36 151.364 2956.42 150.206 Q2958.51 149.049 2961.21 149.049 Q2965.68 149.049 2967.97 151.827 Q2970.26 154.581 2970.26 159.952 Z" fill="#000000" fill-rule="evenodd" fill-opacity="1" /><path clip-path="url(#clip200)" d="M2982.97 142.313 L2982.97 149.674 L2991.75 149.674 L2991.75 152.984 L2982.97 152.984 L2982.97 167.058 Q2982.97 170.229 2983.83 171.132 Q2984.71 172.035 2987.37 172.035 L2991.75 172.035 L2991.75 175.6 L2987.37 175.6 Q2982.44 175.6 2980.57 173.771 Q2978.69 171.919 2978.69 167.058 L2978.69 152.984 L2975.57 152.984 L2975.57 149.674 L2978.69 149.674 L2978.69 142.313 L2982.97 142.313 Z" fill="#000000" fill-rule="evenodd" fill-opacity="1" /><polyline clip-path="url(#clip200)" style="stroke:#e26f46; stroke-linecap:round; stroke-linejoin:round; stroke-width:4; stroke-opacity:1; fill:none" points="
  2354.48,210.16 2547.69,210.16 
  "/>
<path clip-path="url(#clip200)" d="M2579.9 192.88 L2586.86 192.88 L2595.68 216.398 L2604.55 192.88 L2611.52 192.88 L2611.52 227.44 L2606.96 227.44 L2606.96 197.093 L2598.04 220.796 L2593.35 220.796 L2584.43 197.093 L2584.43 227.44 L2579.9 227.44 L2579.9 192.88 Z" fill="#000000" fill-rule="evenodd" fill-opacity="1" /><path clip-path="url(#clip200)" d="M2630.66 204.5 Q2627.23 204.5 2625.24 207.185 Q2623.25 209.847 2623.25 214.5 Q2623.25 219.153 2625.22 221.838 Q2627.21 224.5 2630.66 224.5 Q2634.06 224.5 2636.05 221.815 Q2638.04 219.129 2638.04 214.5 Q2638.04 209.893 2636.05 207.208 Q2634.06 204.5 2630.66 204.5 M2630.66 200.889 Q2636.22 200.889 2639.39 204.5 Q2642.56 208.111 2642.56 214.5 Q2642.56 220.866 2639.39 224.5 Q2636.22 228.111 2630.66 228.111 Q2625.08 228.111 2621.91 224.5 Q2618.76 220.866 2618.76 214.5 Q2618.76 208.111 2621.91 204.5 Q2625.08 200.889 2630.66 200.889 Z" fill="#000000" fill-rule="evenodd" fill-opacity="1" /><path clip-path="url(#clip200)" d="M2669.8 206.491 Q2671.4 203.62 2673.62 202.255 Q2675.84 200.889 2678.85 200.889 Q2682.9 200.889 2685.1 203.736 Q2687.3 206.56 2687.3 211.792 L2687.3 227.44 L2683.02 227.44 L2683.02 211.93 Q2683.02 208.204 2681.7 206.398 Q2680.38 204.593 2677.67 204.593 Q2674.36 204.593 2672.44 206.792 Q2670.52 208.991 2670.52 212.787 L2670.52 227.44 L2666.24 227.44 L2666.24 211.93 Q2666.24 208.18 2664.92 206.398 Q2663.6 204.593 2660.84 204.593 Q2657.58 204.593 2655.66 206.815 Q2653.74 209.014 2653.74 212.787 L2653.74 227.44 L2649.46 227.44 L2649.46 201.514 L2653.74 201.514 L2653.74 205.542 Q2655.2 203.157 2657.23 202.023 Q2659.27 200.889 2662.07 200.889 Q2664.9 200.889 2666.86 202.324 Q2668.85 203.759 2669.8 206.491 Z" fill="#000000" fill-rule="evenodd" fill-opacity="1" /><path clip-path="url(#clip200)" d="M2717.97 213.412 L2717.97 215.495 L2698.39 215.495 Q2698.67 219.893 2701.03 222.208 Q2703.41 224.5 2707.65 224.5 Q2710.1 224.5 2712.4 223.898 Q2714.71 223.296 2716.98 222.092 L2716.98 226.12 Q2714.69 227.092 2712.28 227.602 Q2709.87 228.111 2707.4 228.111 Q2701.19 228.111 2697.56 224.5 Q2693.95 220.889 2693.95 214.731 Q2693.95 208.366 2697.37 204.639 Q2700.82 200.889 2706.65 200.889 Q2711.89 200.889 2714.92 204.268 Q2717.97 207.625 2717.97 213.412 M2713.71 212.162 Q2713.67 208.667 2711.75 206.583 Q2709.85 204.5 2706.7 204.5 Q2703.14 204.5 2700.98 206.514 Q2698.85 208.528 2698.53 212.185 L2713.71 212.162 Z" fill="#000000" fill-rule="evenodd" fill-opacity="1" /><path clip-path="url(#clip200)" d="M2746.52 211.792 L2746.52 227.44 L2742.26 227.44 L2742.26 211.93 Q2742.26 208.25 2740.82 206.421 Q2739.39 204.593 2736.52 204.593 Q2733.07 204.593 2731.08 206.792 Q2729.09 208.991 2729.09 212.787 L2729.09 227.44 L2724.8 227.44 L2724.8 201.514 L2729.09 201.514 L2729.09 205.542 Q2730.61 203.204 2732.67 202.046 Q2734.76 200.889 2737.46 200.889 Q2741.93 200.889 2744.22 203.667 Q2746.52 206.421 2746.52 211.792 Z" fill="#000000" fill-rule="evenodd" fill-opacity="1" /><path clip-path="url(#clip200)" d="M2759.22 194.153 L2759.22 201.514 L2768 201.514 L2768 204.824 L2759.22 204.824 L2759.22 218.898 Q2759.22 222.069 2760.08 222.972 Q2760.96 223.875 2763.62 223.875 L2768 223.875 L2768 227.44 L2763.62 227.44 Q2758.69 227.44 2756.82 225.611 Q2754.94 223.759 2754.94 218.898 L2754.94 204.824 L2751.82 204.824 L2751.82 201.514 L2754.94 201.514 L2754.94 194.153 L2759.22 194.153 Z" fill="#000000" fill-rule="evenodd" fill-opacity="1" /><path clip-path="url(#clip200)" d="M2773.16 217.208 L2773.16 201.514 L2777.42 201.514 L2777.42 217.046 Q2777.42 220.727 2778.85 222.579 Q2780.29 224.407 2783.16 224.407 Q2786.61 224.407 2788.6 222.208 Q2790.61 220.009 2790.61 216.213 L2790.61 201.514 L2794.87 201.514 L2794.87 227.44 L2790.61 227.44 L2790.61 223.458 Q2789.06 225.819 2787 226.977 Q2784.96 228.111 2782.26 228.111 Q2777.79 228.111 2775.47 225.333 Q2773.16 222.555 2773.16 217.208 M2783.88 200.889 L2783.88 200.889 Z" fill="#000000" fill-rule="evenodd" fill-opacity="1" /><path clip-path="url(#clip200)" d="M2823.83 206.491 Q2825.43 203.62 2827.65 202.255 Q2829.87 200.889 2832.88 200.889 Q2836.93 200.889 2839.13 203.736 Q2841.33 206.56 2841.33 211.792 L2841.33 227.44 L2837.05 227.44 L2837.05 211.93 Q2837.05 208.204 2835.73 206.398 Q2834.41 204.593 2831.7 204.593 Q2828.39 204.593 2826.47 206.792 Q2824.55 208.991 2824.55 212.787 L2824.55 227.44 L2820.27 227.44 L2820.27 211.93 Q2820.27 208.18 2818.95 206.398 Q2817.63 204.593 2814.87 204.593 Q2811.61 204.593 2809.69 206.815 Q2807.77 209.014 2807.77 212.787 L2807.77 227.44 L2803.48 227.44 L2803.48 201.514 L2807.77 201.514 L2807.77 205.542 Q2809.22 203.157 2811.26 202.023 Q2813.3 200.889 2816.1 200.889 Q2818.92 200.889 2820.89 202.324 Q2822.88 203.759 2823.83 206.491 Z" fill="#000000" fill-rule="evenodd" fill-opacity="1" /><polyline clip-path="url(#clip200)" style="stroke:#3da44d; stroke-linecap:round; stroke-linejoin:round; stroke-width:4; stroke-opacity:1; fill:none" points="
  2354.48,262 2547.69,262 
  "/>
<path clip-path="url(#clip200)" d="M2596.28 263.076 Q2597.79 263.585 2599.2 265.252 Q2600.64 266.919 2602.07 269.835 L2606.82 279.28 L2601.79 279.28 L2597.37 270.414 Q2595.66 266.942 2594.04 265.807 Q2592.44 264.673 2589.66 264.673 L2584.57 264.673 L2584.57 279.28 L2579.9 279.28 L2579.9 244.72 L2590.45 244.72 Q2596.38 244.72 2599.29 247.196 Q2602.21 249.673 2602.21 254.673 Q2602.21 257.937 2600.68 260.09 Q2599.18 262.243 2596.28 263.076 M2584.57 248.562 L2584.57 260.831 L2590.45 260.831 Q2593.83 260.831 2595.54 259.28 Q2597.28 257.706 2597.28 254.673 Q2597.28 251.641 2595.54 250.113 Q2593.83 248.562 2590.45 248.562 L2584.57 248.562 Z" fill="#000000" fill-rule="evenodd" fill-opacity="1" /><path clip-path="url(#clip200)" d="M2612.84 244.72 L2619.8 244.72 L2628.62 268.238 L2637.49 244.72 L2644.46 244.72 L2644.46 279.28 L2639.9 279.28 L2639.9 248.933 L2630.98 272.636 L2626.28 272.636 L2617.37 248.933 L2617.37 279.28 L2612.84 279.28 L2612.84 244.72 Z" fill="#000000" fill-rule="evenodd" fill-opacity="1" /><path clip-path="url(#clip200)" d="M2674.46 245.854 L2674.46 250.414 Q2671.79 249.141 2669.43 248.516 Q2667.07 247.891 2664.87 247.891 Q2661.05 247.891 2658.97 249.372 Q2656.91 250.854 2656.91 253.585 Q2656.91 255.877 2658.28 257.058 Q2659.66 258.215 2663.51 258.933 L2666.33 259.511 Q2671.56 260.507 2674.04 263.03 Q2676.54 265.53 2676.54 269.743 Q2676.54 274.766 2673.16 277.358 Q2669.8 279.951 2663.3 279.951 Q2660.84 279.951 2658.07 279.395 Q2655.31 278.84 2652.35 277.752 L2652.35 272.937 Q2655.2 274.534 2657.93 275.344 Q2660.66 276.155 2663.3 276.155 Q2667.3 276.155 2669.48 274.581 Q2671.65 273.007 2671.65 270.09 Q2671.65 267.544 2670.08 266.108 Q2668.53 264.673 2664.97 263.956 L2662.12 263.4 Q2656.89 262.358 2654.55 260.136 Q2652.21 257.914 2652.21 253.956 Q2652.21 249.372 2655.43 246.733 Q2658.67 244.095 2664.34 244.095 Q2666.77 244.095 2669.29 244.534 Q2671.82 244.974 2674.46 245.854 Z" fill="#000000" fill-rule="evenodd" fill-opacity="1" /><path clip-path="url(#clip200)" d="M2687.77 275.391 L2687.77 289.141 L2683.48 289.141 L2683.48 253.354 L2687.77 253.354 L2687.77 257.289 Q2689.11 254.974 2691.15 253.863 Q2693.21 252.729 2696.05 252.729 Q2700.78 252.729 2703.71 256.479 Q2706.68 260.229 2706.68 266.34 Q2706.68 272.451 2703.71 276.201 Q2700.78 279.951 2696.05 279.951 Q2693.21 279.951 2691.15 278.84 Q2689.11 277.706 2687.77 275.391 M2702.26 266.34 Q2702.26 261.641 2700.31 258.979 Q2698.39 256.294 2695.01 256.294 Q2691.63 256.294 2689.69 258.979 Q2687.77 261.641 2687.77 266.34 Q2687.77 271.039 2689.69 273.724 Q2691.63 276.386 2695.01 276.386 Q2698.39 276.386 2700.31 273.724 Q2702.26 271.039 2702.26 266.34 Z" fill="#000000" fill-rule="evenodd" fill-opacity="1" /><path clip-path="url(#clip200)" d="M2728.76 257.335 Q2728.04 256.919 2727.19 256.733 Q2726.35 256.525 2725.34 256.525 Q2721.72 256.525 2719.78 258.886 Q2717.86 261.224 2717.86 265.622 L2717.86 279.28 L2713.58 279.28 L2713.58 253.354 L2717.86 253.354 L2717.86 257.382 Q2719.2 255.02 2721.35 253.886 Q2723.51 252.729 2726.59 252.729 Q2727.02 252.729 2727.56 252.798 Q2728.09 252.845 2728.74 252.96 L2728.76 257.335 Z" fill="#000000" fill-rule="evenodd" fill-opacity="1" /><path clip-path="url(#clip200)" d="M2742.23 256.34 Q2738.81 256.34 2736.82 259.025 Q2734.83 261.687 2734.83 266.34 Q2734.83 270.993 2736.79 273.678 Q2738.78 276.34 2742.23 276.34 Q2745.64 276.34 2747.63 273.655 Q2749.62 270.969 2749.62 266.34 Q2749.62 261.733 2747.63 259.048 Q2745.64 256.34 2742.23 256.34 M2742.23 252.729 Q2747.79 252.729 2750.96 256.34 Q2754.13 259.951 2754.13 266.34 Q2754.13 272.706 2750.96 276.34 Q2747.79 279.951 2742.23 279.951 Q2736.65 279.951 2733.48 276.34 Q2730.34 272.706 2730.34 266.34 Q2730.34 259.951 2733.48 256.34 Q2736.65 252.729 2742.23 252.729 Z" fill="#000000" fill-rule="evenodd" fill-opacity="1" /><path clip-path="url(#clip200)" d="M2765.31 275.391 L2765.31 289.141 L2761.03 289.141 L2761.03 253.354 L2765.31 253.354 L2765.31 257.289 Q2766.65 254.974 2768.69 253.863 Q2770.75 252.729 2773.6 252.729 Q2778.32 252.729 2781.26 256.479 Q2784.22 260.229 2784.22 266.34 Q2784.22 272.451 2781.26 276.201 Q2778.32 279.951 2773.6 279.951 Q2770.75 279.951 2768.69 278.84 Q2766.65 277.706 2765.31 275.391 M2779.8 266.34 Q2779.8 261.641 2777.86 258.979 Q2775.94 256.294 2772.56 256.294 Q2769.18 256.294 2767.23 258.979 Q2765.31 261.641 2765.31 266.34 Q2765.31 271.039 2767.23 273.724 Q2769.18 276.386 2772.56 276.386 Q2775.94 276.386 2777.86 273.724 Q2779.8 271.039 2779.8 266.34 Z" fill="#000000" fill-rule="evenodd" fill-opacity="1" /><polyline clip-path="url(#clip200)" style="stroke:#c271d2; stroke-linecap:round; stroke-linejoin:round; stroke-width:4; stroke-opacity:1; fill:none" points="
  2354.48,313.84 2547.69,313.84 
  "/>
<path clip-path="url(#clip200)" d="M2595.73 301.166 L2589.39 318.365 L2602.1 318.365 L2595.73 301.166 M2593.09 296.56 L2598.39 296.56 L2611.56 331.12 L2606.7 331.12 L2603.55 322.254 L2587.97 322.254 L2584.83 331.12 L2579.9 331.12 L2593.09 296.56 Z" fill="#000000" fill-rule="evenodd" fill-opacity="1" /><path clip-path="url(#clip200)" d="M2621.28 300.402 L2621.28 327.277 L2626.93 327.277 Q2634.09 327.277 2637.4 324.036 Q2640.73 320.796 2640.73 313.805 Q2640.73 306.86 2637.4 303.643 Q2634.09 300.402 2626.93 300.402 L2621.28 300.402 M2616.61 296.56 L2626.22 296.56 Q2636.26 296.56 2640.96 300.749 Q2645.66 304.916 2645.66 313.805 Q2645.66 322.74 2640.94 326.93 Q2636.22 331.12 2626.22 331.12 L2616.61 331.12 L2616.61 296.56 Z" fill="#000000" fill-rule="evenodd" fill-opacity="1" /><path clip-path="url(#clip200)" d="M2663.83 301.166 L2657.49 318.365 L2670.2 318.365 L2663.83 301.166 M2661.19 296.56 L2666.49 296.56 L2679.66 331.12 L2674.8 331.12 L2671.65 322.254 L2656.08 322.254 L2652.93 331.12 L2648 331.12 L2661.19 296.56 Z" fill="#000000" fill-rule="evenodd" fill-opacity="1" /><path clip-path="url(#clip200)" d="M2684.71 296.56 L2691.68 296.56 L2700.5 320.078 L2709.36 296.56 L2716.33 296.56 L2716.33 331.12 L2711.77 331.12 L2711.77 300.773 L2702.86 324.476 L2698.16 324.476 L2689.25 300.773 L2689.25 331.12 L2684.71 331.12 L2684.71 296.56 Z" fill="#000000" fill-rule="evenodd" fill-opacity="1" /></svg>
