<?xml version="1.0" encoding="utf-8"?>
<svg xmlns="http://www.w3.org/2000/svg" xmlns:xlink="http://www.w3.org/1999/xlink" width="800" height="500" viewBox="0 0 3200 2000">
<defs>
  <clipPath id="clip160">
    <rect x="0" y="0" width="3200" height="2000"/>
  </clipPath>
</defs>
<path clip-path="url(#clip160)" d="
M0 2000 L3200 2000 L3200 0 L0 0  Z
  " fill="#ffffff" fill-rule="evenodd" fill-opacity="1"/>
<defs>
  <clipPath id="clip161">
    <rect x="640" y="0" width="2241" height="2000"/>
  </clipPath>
</defs>
<path clip-path="url(#clip160)" d="
M254.572 1824.31 L3152.76 1824.31 L3152.76 47.2441 L254.572 47.2441  Z
  " fill="#ffffff" fill-rule="evenodd" fill-opacity="1"/>
<defs>
  <clipPath id="clip162">
    <rect x="254" y="47" width="2899" height="1778"/>
  </clipPath>
</defs>
<polyline clip-path="url(#clip162)" style="stroke:#000000; stroke-linecap:round; stroke-linejoin:round; stroke-width:2; stroke-opacity:0.1; fill:none" points="
  325.616,1824.31 325.616,47.2441 
  "/>
<polyline clip-path="url(#clip162)" style="stroke:#000000; stroke-linecap:round; stroke-linejoin:round; stroke-width:2; stroke-opacity:0.1; fill:none" points="
  874.639,1824.31 874.639,47.2441 
  "/>
<polyline clip-path="url(#clip162)" style="stroke:#000000; stroke-linecap:round; stroke-linejoin:round; stroke-width:2; stroke-opacity:0.1; fill:none" points="
  1423.66,1824.31 1423.66,47.2441 
  "/>
<polyline clip-path="url(#clip162)" style="stroke:#000000; stroke-linecap:round; stroke-linejoin:round; stroke-width:2; stroke-opacity:0.1; fill:none" points="
  1972.69,1824.31 1972.69,47.2441 
  "/>
<polyline clip-path="url(#clip162)" style="stroke:#000000; stroke-linecap:round; stroke-linejoin:round; stroke-width:2; stroke-opacity:0.1; fill:none" points="
  2521.71,1824.31 2521.71,47.2441 
  "/>
<polyline clip-path="url(#clip162)" style="stroke:#000000; stroke-linecap:round; stroke-linejoin:round; stroke-width:2; stroke-opacity:0.1; fill:none" points="
  3070.73,1824.31 3070.73,47.2441 
  "/>
<polyline clip-path="url(#clip160)" style="stroke:#000000; stroke-linecap:round; stroke-linejoin:round; stroke-width:4; stroke-opacity:1; fill:none" points="
  254.572,1824.31 3152.76,1824.31 
  "/>
<polyline clip-path="url(#clip160)" style="stroke:#000000; stroke-linecap:round; stroke-linejoin:round; stroke-width:4; stroke-opacity:1; fill:none" points="
  325.616,1824.31 325.616,1805.41 
  "/>
<polyline clip-path="url(#clip160)" style="stroke:#000000; stroke-linecap:round; stroke-linejoin:round; stroke-width:4; stroke-opacity:1; fill:none" points="
  874.639,1824.31 874.639,1805.41 
  "/>
<polyline clip-path="url(#clip160)" style="stroke:#000000; stroke-linecap:round; stroke-linejoin:round; stroke-width:4; stroke-opacity:1; fill:none" points="
  1423.66,1824.31 1423.66,1805.41 
  "/>
<polyline clip-path="url(#clip160)" style="stroke:#000000; stroke-linecap:round; stroke-linejoin:round; stroke-width:4; stroke-opacity:1; fill:none" points="
  1972.69,1824.31 1972.69,1805.41 
  "/>
<polyline clip-path="url(#clip160)" style="stroke:#000000; stroke-linecap:round; stroke-linejoin:round; stroke-width:4; stroke-opacity:1; fill:none" points="
  2521.71,1824.31 2521.71,1805.41 
  "/>
<polyline clip-path="url(#clip160)" style="stroke:#000000; stroke-linecap:round; stroke-linejoin:round; stroke-width:4; stroke-opacity:1; fill:none" points="
  3070.73,1824.31 3070.73,1805.41 
  "/>
<path clip-path="url(#clip160)" d="M325.616 1861.63 Q322.005 1861.63 320.176 1865.19 Q318.37 1868.73 318.37 1875.86 Q318.37 1882.97 320.176 1886.54 Q322.005 1890.08 325.616 1890.08 Q329.25 1890.08 331.055 1886.54 Q332.884 1882.97 332.884 1875.86 Q332.884 1868.73 331.055 1865.19 Q329.25 1861.63 325.616 1861.63 M325.616 1857.92 Q331.426 1857.92 334.481 1862.53 Q337.56 1867.11 337.56 1875.86 Q337.56 1884.59 334.481 1889.2 Q331.426 1893.78 325.616 1893.78 Q319.805 1893.78 316.727 1889.2 Q313.671 1884.59 313.671 1875.86 Q313.671 1867.11 316.727 1862.53 Q319.805 1857.92 325.616 1857.92 Z" fill="#000000" fill-rule="evenodd" fill-opacity="1" /><path clip-path="url(#clip160)" d="M849.338 1858.55 L867.694 1858.55 L867.694 1862.49 L853.62 1862.49 L853.62 1870.96 Q854.639 1870.61 855.657 1870.45 Q856.676 1870.26 857.695 1870.26 Q863.482 1870.26 866.861 1873.43 Q870.241 1876.61 870.241 1882.02 Q870.241 1887.6 866.769 1890.7 Q863.296 1893.78 856.977 1893.78 Q854.801 1893.78 852.533 1893.41 Q850.287 1893.04 847.88 1892.3 L847.88 1887.6 Q849.963 1888.73 852.185 1889.29 Q854.408 1889.85 856.884 1889.85 Q860.889 1889.85 863.227 1887.74 Q865.565 1885.63 865.565 1882.02 Q865.565 1878.41 863.227 1876.3 Q860.889 1874.2 856.884 1874.2 Q855.009 1874.2 853.134 1874.61 Q851.283 1875.03 849.338 1875.91 L849.338 1858.55 Z" fill="#000000" fill-rule="evenodd" fill-opacity="1" /><path clip-path="url(#clip160)" d="M889.454 1861.63 Q885.843 1861.63 884.014 1865.19 Q882.208 1868.73 882.208 1875.86 Q882.208 1882.97 884.014 1886.54 Q885.843 1890.08 889.454 1890.08 Q893.088 1890.08 894.893 1886.54 Q896.722 1882.97 896.722 1875.86 Q896.722 1868.73 894.893 1865.19 Q893.088 1861.63 889.454 1861.63 M889.454 1857.92 Q895.264 1857.92 898.319 1862.53 Q901.398 1867.11 901.398 1875.86 Q901.398 1884.59 898.319 1889.2 Q895.264 1893.78 889.454 1893.78 Q883.643 1893.78 880.565 1889.2 Q877.509 1884.59 877.509 1875.86 Q877.509 1867.11 880.565 1862.53 Q883.643 1857.92 889.454 1857.92 Z" fill="#000000" fill-rule="evenodd" fill-opacity="1" /><path clip-path="url(#clip160)" d="M1383.27 1889.17 L1390.91 1889.17 L1390.91 1862.81 L1382.6 1864.48 L1382.6 1860.22 L1390.86 1858.55 L1395.54 1858.55 L1395.54 1889.17 L1403.18 1889.17 L1403.18 1893.11 L1383.27 1893.11 L1383.27 1889.17 Z" fill="#000000" fill-rule="evenodd" fill-opacity="1" /><path clip-path="url(#clip160)" d="M1422.62 1861.63 Q1419.01 1861.63 1417.18 1865.19 Q1415.38 1868.73 1415.38 1875.86 Q1415.38 1882.97 1417.18 1886.54 Q1419.01 1890.08 1422.62 1890.08 Q1426.25 1890.08 1428.06 1886.54 Q1429.89 1882.97 1429.89 1875.86 Q1429.89 1868.73 1428.06 1865.19 Q1426.25 1861.63 1422.62 1861.63 M1422.62 1857.92 Q1428.43 1857.92 1431.49 1862.53 Q1434.56 1867.11 1434.56 1875.86 Q1434.56 1884.59 1431.49 1889.2 Q1428.43 1893.78 1422.62 1893.78 Q1416.81 1893.78 1413.73 1889.2 Q1410.68 1884.59 1410.68 1875.86 Q1410.68 1867.11 1413.73 1862.53 Q1416.81 1857.92 1422.62 1857.92 Z" fill="#000000" fill-rule="evenodd" fill-opacity="1" /><path clip-path="url(#clip160)" d="M1452.78 1861.63 Q1449.17 1861.63 1447.34 1865.19 Q1445.54 1868.73 1445.54 1875.86 Q1445.54 1882.97 1447.34 1886.54 Q1449.17 1890.08 1452.78 1890.08 Q1456.42 1890.08 1458.22 1886.54 Q1460.05 1882.97 1460.05 1875.86 Q1460.05 1868.73 1458.22 1865.19 Q1456.42 1861.63 1452.78 1861.63 M1452.78 1857.92 Q1458.59 1857.92 1461.65 1862.53 Q1464.73 1867.11 1464.73 1875.86 Q1464.73 1884.59 1461.65 1889.2 Q1458.59 1893.78 1452.78 1893.78 Q1446.97 1893.78 1443.89 1889.2 Q1440.84 1884.59 1440.84 1875.86 Q1440.84 1867.11 1443.89 1862.53 Q1446.97 1857.92 1452.78 1857.92 Z" fill="#000000" fill-rule="evenodd" fill-opacity="1" /><path clip-path="url(#clip160)" d="M1932.29 1889.17 L1939.93 1889.17 L1939.93 1862.81 L1931.62 1864.48 L1931.62 1860.22 L1939.88 1858.55 L1944.56 1858.55 L1944.56 1889.17 L1952.2 1889.17 L1952.2 1893.11 L1932.29 1893.11 L1932.29 1889.17 Z" fill="#000000" fill-rule="evenodd" fill-opacity="1" /><path clip-path="url(#clip160)" d="M1961.69 1858.55 L1980.05 1858.55 L1980.05 1862.49 L1965.97 1862.49 L1965.97 1870.96 Q1966.99 1870.61 1968.01 1870.45 Q1969.03 1870.26 1970.05 1870.26 Q1975.83 1870.26 1979.21 1873.43 Q1982.59 1876.61 1982.59 1882.02 Q1982.59 1887.6 1979.12 1890.7 Q1975.65 1893.78 1969.33 1893.78 Q1967.15 1893.78 1964.88 1893.41 Q1962.64 1893.04 1960.23 1892.3 L1960.23 1887.6 Q1962.32 1888.73 1964.54 1889.29 Q1966.76 1889.85 1969.24 1889.85 Q1973.24 1889.85 1975.58 1887.74 Q1977.92 1885.63 1977.92 1882.02 Q1977.92 1878.41 1975.58 1876.3 Q1973.24 1874.2 1969.24 1874.2 Q1967.36 1874.2 1965.49 1874.61 Q1963.63 1875.03 1961.69 1875.91 L1961.69 1858.55 Z" fill="#000000" fill-rule="evenodd" fill-opacity="1" /><path clip-path="url(#clip160)" d="M2001.81 1861.63 Q1998.19 1861.63 1996.37 1865.19 Q1994.56 1868.73 1994.56 1875.86 Q1994.56 1882.97 1996.37 1886.54 Q1998.19 1890.08 2001.81 1890.08 Q2005.44 1890.08 2007.25 1886.54 Q2009.07 1882.97 2009.07 1875.86 Q2009.07 1868.73 2007.25 1865.19 Q2005.44 1861.63 2001.81 1861.63 M2001.81 1857.92 Q2007.62 1857.92 2010.67 1862.53 Q2013.75 1867.11 2013.75 1875.86 Q2013.75 1884.59 2010.67 1889.2 Q2007.62 1893.78 2001.81 1893.78 Q1996 1893.78 1992.92 1889.2 Q1989.86 1884.59 1989.86 1875.86 Q1989.86 1867.11 1992.92 1862.53 Q1996 1857.92 2001.81 1857.92 Z" fill="#000000" fill-rule="evenodd" fill-opacity="1" /><path clip-path="url(#clip160)" d="M2485.4 1889.17 L2501.72 1889.17 L2501.72 1893.11 L2479.78 1893.11 L2479.78 1889.17 Q2482.44 1886.42 2487.02 1881.79 Q2491.63 1877.14 2492.81 1875.8 Q2495.05 1873.27 2495.93 1871.54 Q2496.84 1869.78 2496.84 1868.09 Q2496.84 1865.33 2494.89 1863.6 Q2492.97 1861.86 2489.87 1861.86 Q2487.67 1861.86 2485.22 1862.62 Q2482.79 1863.39 2480.01 1864.94 L2480.01 1860.22 Q2482.83 1859.08 2485.29 1858.5 Q2487.74 1857.92 2489.78 1857.92 Q2495.15 1857.92 2498.34 1860.61 Q2501.54 1863.3 2501.54 1867.79 Q2501.54 1869.92 2500.72 1871.84 Q2499.94 1873.73 2497.83 1876.33 Q2497.25 1877 2494.15 1880.22 Q2491.05 1883.41 2485.4 1889.17 Z" fill="#000000" fill-rule="evenodd" fill-opacity="1" /><path clip-path="url(#clip160)" d="M2521.53 1861.63 Q2517.92 1861.63 2516.1 1865.19 Q2514.29 1868.73 2514.29 1875.86 Q2514.29 1882.97 2516.1 1886.54 Q2517.92 1890.08 2521.53 1890.08 Q2525.17 1890.08 2526.97 1886.54 Q2528.8 1882.97 2528.8 1875.86 Q2528.8 1868.73 2526.97 1865.19 Q2525.17 1861.63 2521.53 1861.63 M2521.53 1857.92 Q2527.35 1857.92 2530.4 1862.53 Q2533.48 1867.11 2533.48 1875.86 Q2533.48 1884.59 2530.4 1889.2 Q2527.35 1893.78 2521.53 1893.78 Q2515.72 1893.78 2512.65 1889.2 Q2509.59 1884.59 2509.59 1875.86 Q2509.59 1867.11 2512.65 1862.53 Q2515.72 1857.92 2521.53 1857.92 Z" fill="#000000" fill-rule="evenodd" fill-opacity="1" /><path clip-path="url(#clip160)" d="M2551.7 1861.63 Q2548.09 1861.63 2546.26 1865.19 Q2544.45 1868.73 2544.45 1875.86 Q2544.45 1882.97 2546.26 1886.54 Q2548.09 1890.08 2551.7 1890.08 Q2555.33 1890.08 2557.14 1886.54 Q2558.97 1882.97 2558.97 1875.86 Q2558.97 1868.73 2557.14 1865.19 Q2555.33 1861.63 2551.7 1861.63 M2551.7 1857.92 Q2557.51 1857.92 2560.56 1862.53 Q2563.64 1867.11 2563.64 1875.86 Q2563.64 1884.59 2560.56 1889.2 Q2557.51 1893.78 2551.7 1893.78 Q2545.89 1893.78 2542.81 1889.2 Q2539.75 1884.59 2539.75 1875.86 Q2539.75 1867.11 2542.81 1862.53 Q2545.89 1857.92 2551.7 1857.92 Z" fill="#000000" fill-rule="evenodd" fill-opacity="1" /><path clip-path="url(#clip160)" d="M3034.42 1889.17 L3050.74 1889.17 L3050.74 1893.11 L3028.8 1893.11 L3028.8 1889.17 Q3031.46 1886.42 3036.04 1881.79 Q3040.65 1877.14 3041.83 1875.8 Q3044.08 1873.27 3044.96 1871.54 Q3045.86 1869.78 3045.86 1868.09 Q3045.86 1865.33 3043.91 1863.6 Q3041.99 1861.86 3038.89 1861.86 Q3036.69 1861.86 3034.24 1862.62 Q3031.81 1863.39 3029.03 1864.94 L3029.03 1860.22 Q3031.85 1859.08 3034.31 1858.5 Q3036.76 1857.92 3038.8 1857.92 Q3044.17 1857.92 3047.36 1860.61 Q3050.56 1863.3 3050.56 1867.79 Q3050.56 1869.92 3049.75 1871.84 Q3048.96 1873.73 3046.85 1876.33 Q3046.28 1877 3043.17 1880.22 Q3040.07 1883.41 3034.42 1889.17 Z" fill="#000000" fill-rule="evenodd" fill-opacity="1" /><path clip-path="url(#clip160)" d="M3060.6 1858.55 L3078.96 1858.55 L3078.96 1862.49 L3064.89 1862.49 L3064.89 1870.96 Q3065.91 1870.61 3066.92 1870.45 Q3067.94 1870.26 3068.96 1870.26 Q3074.75 1870.26 3078.13 1873.43 Q3081.51 1876.61 3081.51 1882.02 Q3081.51 1887.6 3078.04 1890.7 Q3074.56 1893.78 3068.24 1893.78 Q3066.07 1893.78 3063.8 1893.41 Q3061.55 1893.04 3059.15 1892.3 L3059.15 1887.6 Q3061.23 1888.73 3063.45 1889.29 Q3065.67 1889.85 3068.15 1889.85 Q3072.16 1889.85 3074.49 1887.74 Q3076.83 1885.63 3076.83 1882.02 Q3076.83 1878.41 3074.49 1876.3 Q3072.16 1874.2 3068.15 1874.2 Q3066.28 1874.2 3064.4 1874.61 Q3062.55 1875.03 3060.6 1875.91 L3060.6 1858.55 Z" fill="#000000" fill-rule="evenodd" fill-opacity="1" /><path clip-path="url(#clip160)" d="M3100.72 1861.63 Q3097.11 1861.63 3095.28 1865.19 Q3093.47 1868.73 3093.47 1875.86 Q3093.47 1882.97 3095.28 1886.54 Q3097.11 1890.08 3100.72 1890.08 Q3104.35 1890.08 3106.16 1886.54 Q3107.99 1882.97 3107.99 1875.86 Q3107.99 1868.73 3106.16 1865.19 Q3104.35 1861.63 3100.72 1861.63 M3100.72 1857.92 Q3106.53 1857.92 3109.59 1862.53 Q3112.66 1867.11 3112.66 1875.86 Q3112.66 1884.59 3109.59 1889.2 Q3106.53 1893.78 3100.72 1893.78 Q3094.91 1893.78 3091.83 1889.2 Q3088.78 1884.59 3088.78 1875.86 Q3088.78 1867.11 3091.83 1862.53 Q3094.91 1857.92 3100.72 1857.92 Z" fill="#000000" fill-rule="evenodd" fill-opacity="1" /><path clip-path="url(#clip160)" d="M1609.83 1933.65 L1639.88 1933.65 L1639.88 1939.06 L1616.26 1939.06 L1616.26 1953.13 L1638.89 1953.13 L1638.89 1958.54 L1616.26 1958.54 L1616.26 1975.76 L1640.45 1975.76 L1640.45 1981.17 L1609.83 1981.17 L1609.83 1933.65 Z" fill="#000000" fill-rule="evenodd" fill-opacity="1" /><path clip-path="url(#clip160)" d="M1656.43 1975.83 L1656.43 1994.73 L1650.54 1994.73 L1650.54 1945.53 L1656.43 1945.53 L1656.43 1950.94 Q1658.28 1947.75 1661.08 1946.23 Q1663.91 1944.67 1667.83 1944.67 Q1674.32 1944.67 1678.36 1949.82 Q1682.43 1954.98 1682.43 1963.38 Q1682.43 1971.78 1678.36 1976.94 Q1674.32 1982.1 1667.83 1982.1 Q1663.91 1982.1 1661.08 1980.57 Q1658.28 1979.01 1656.43 1975.83 M1676.36 1963.38 Q1676.36 1956.92 1673.68 1953.26 Q1671.04 1949.57 1666.39 1949.57 Q1661.75 1949.57 1659.07 1953.26 Q1656.43 1956.92 1656.43 1963.38 Q1656.43 1969.84 1659.07 1973.53 Q1661.75 1977.2 1666.39 1977.2 Q1671.04 1977.2 1673.68 1973.53 Q1676.36 1969.84 1676.36 1963.38 Z" fill="#000000" fill-rule="evenodd" fill-opacity="1" /><path clip-path="url(#clip160)" d="M1705.96 1949.63 Q1701.25 1949.63 1698.51 1953.32 Q1695.77 1956.98 1695.77 1963.38 Q1695.77 1969.78 1698.48 1973.47 Q1701.21 1977.13 1705.96 1977.13 Q1710.63 1977.13 1713.37 1973.44 Q1716.11 1969.75 1716.11 1963.38 Q1716.11 1957.05 1713.37 1953.36 Q1710.63 1949.63 1705.96 1949.63 M1705.96 1944.67 Q1713.59 1944.67 1717.95 1949.63 Q1722.32 1954.6 1722.32 1963.38 Q1722.32 1972.13 1717.95 1977.13 Q1713.59 1982.1 1705.96 1982.1 Q1698.28 1982.1 1693.92 1977.13 Q1689.6 1972.13 1689.6 1963.38 Q1689.6 1954.6 1693.92 1949.63 Q1698.28 1944.67 1705.96 1944.67 Z" fill="#000000" fill-rule="evenodd" fill-opacity="1" /><path clip-path="url(#clip160)" d="M1757.68 1946.89 L1757.68 1952.37 Q1755.19 1951 1752.68 1950.33 Q1750.2 1949.63 1747.65 1949.63 Q1741.95 1949.63 1738.8 1953.26 Q1735.65 1956.86 1735.65 1963.38 Q1735.65 1969.91 1738.8 1973.53 Q1741.95 1977.13 1747.65 1977.13 Q1750.2 1977.13 1752.68 1976.46 Q1755.19 1975.76 1757.68 1974.39 L1757.68 1979.81 Q1755.23 1980.95 1752.58 1981.52 Q1749.97 1982.1 1747.01 1982.1 Q1738.96 1982.1 1734.22 1977.04 Q1729.48 1971.98 1729.48 1963.38 Q1729.48 1954.66 1734.25 1949.66 Q1739.06 1944.67 1747.4 1944.67 Q1750.1 1944.67 1752.68 1945.24 Q1755.26 1945.78 1757.68 1946.89 Z" fill="#000000" fill-rule="evenodd" fill-opacity="1" /><path clip-path="url(#clip160)" d="M1797.49 1959.66 L1797.49 1981.17 L1791.64 1981.17 L1791.64 1959.85 Q1791.64 1954.79 1789.66 1952.27 Q1787.69 1949.76 1783.74 1949.76 Q1779 1949.76 1776.26 1952.78 Q1773.53 1955.81 1773.53 1961.03 L1773.53 1981.17 L1767.64 1981.17 L1767.64 1931.65 L1773.53 1931.65 L1773.53 1951.06 Q1775.63 1947.85 1778.46 1946.26 Q1781.33 1944.67 1785.05 1944.67 Q1791.19 1944.67 1794.34 1948.49 Q1797.49 1952.27 1797.49 1959.66 Z" fill="#000000" fill-rule="evenodd" fill-opacity="1" /><polyline clip-path="url(#clip162)" style="stroke:#000000; stroke-linecap:round; stroke-linejoin:round; stroke-width:2; stroke-opacity:0.1; fill:none" points="
  254.572,1672.61 3152.76,1672.61 
  "/>
<polyline clip-path="url(#clip162)" style="stroke:#000000; stroke-linecap:round; stroke-linejoin:round; stroke-width:2; stroke-opacity:0.1; fill:none" points="
  254.572,1244.99 3152.76,1244.99 
  "/>
<polyline clip-path="url(#clip162)" style="stroke:#000000; stroke-linecap:round; stroke-linejoin:round; stroke-width:2; stroke-opacity:0.1; fill:none" points="
  254.572,817.358 3152.76,817.358 
  "/>
<polyline clip-path="url(#clip162)" style="stroke:#000000; stroke-linecap:round; stroke-linejoin:round; stroke-width:2; stroke-opacity:0.1; fill:none" points="
  254.572,389.73 3152.76,389.73 
  "/>
<polyline clip-path="url(#clip160)" style="stroke:#000000; stroke-linecap:round; stroke-linejoin:round; stroke-width:4; stroke-opacity:1; fill:none" points="
  254.572,1824.31 254.572,47.2441 
  "/>
<polyline clip-path="url(#clip160)" style="stroke:#000000; stroke-linecap:round; stroke-linejoin:round; stroke-width:4; stroke-opacity:1; fill:none" points="
  254.572,1672.61 273.47,1672.61 
  "/>
<polyline clip-path="url(#clip160)" style="stroke:#000000; stroke-linecap:round; stroke-linejoin:round; stroke-width:4; stroke-opacity:1; fill:none" points="
  254.572,1244.99 273.47,1244.99 
  "/>
<polyline clip-path="url(#clip160)" style="stroke:#000000; stroke-linecap:round; stroke-linejoin:round; stroke-width:4; stroke-opacity:1; fill:none" points="
  254.572,817.358 273.47,817.358 
  "/>
<polyline clip-path="url(#clip160)" style="stroke:#000000; stroke-linecap:round; stroke-linejoin:round; stroke-width:4; stroke-opacity:1; fill:none" points="
  254.572,389.73 273.47,389.73 
  "/>
<path clip-path="url(#clip160)" d="M120.23 1658.41 Q116.619 1658.41 114.79 1661.98 Q112.985 1665.52 112.985 1672.65 Q112.985 1679.76 114.79 1683.32 Q116.619 1686.86 120.23 1686.86 Q123.864 1686.86 125.67 1683.32 Q127.498 1679.76 127.498 1672.65 Q127.498 1665.52 125.67 1661.98 Q123.864 1658.41 120.23 1658.41 M120.23 1654.71 Q126.04 1654.71 129.096 1659.32 Q132.174 1663.9 132.174 1672.65 Q132.174 1681.38 129.096 1685.98 Q126.04 1690.57 120.23 1690.57 Q114.42 1690.57 111.341 1685.98 Q108.286 1681.38 108.286 1672.65 Q108.286 1663.9 111.341 1659.32 Q114.42 1654.71 120.23 1654.71 Z" fill="#000000" fill-rule="evenodd" fill-opacity="1" /><path clip-path="url(#clip160)" d="M140.392 1684.01 L145.276 1684.01 L145.276 1689.89 L140.392 1689.89 L140.392 1684.01 Z" fill="#000000" fill-rule="evenodd" fill-opacity="1" /><path clip-path="url(#clip160)" d="M159.489 1685.96 L175.808 1685.96 L175.808 1689.89 L153.864 1689.89 L153.864 1685.96 Q156.526 1683.2 161.109 1678.57 Q165.716 1673.92 166.896 1672.58 Q169.142 1670.06 170.021 1668.32 Q170.924 1666.56 170.924 1664.87 Q170.924 1662.12 168.98 1660.38 Q167.058 1658.64 163.957 1658.64 Q161.757 1658.64 159.304 1659.41 Q156.873 1660.17 154.095 1661.72 L154.095 1657 Q156.92 1655.87 159.373 1655.29 Q161.827 1654.71 163.864 1654.71 Q169.234 1654.71 172.429 1657.39 Q175.623 1660.08 175.623 1664.57 Q175.623 1666.7 174.813 1668.62 Q174.026 1670.52 171.919 1673.11 Q171.341 1673.78 168.239 1677 Q165.137 1680.2 159.489 1685.96 Z" fill="#000000" fill-rule="evenodd" fill-opacity="1" /><path clip-path="url(#clip160)" d="M185.669 1655.33 L204.026 1655.33 L204.026 1659.27 L189.952 1659.27 L189.952 1667.74 Q190.97 1667.39 191.989 1667.23 Q193.007 1667.05 194.026 1667.05 Q199.813 1667.05 203.192 1670.22 Q206.572 1673.39 206.572 1678.81 Q206.572 1684.38 203.1 1687.49 Q199.628 1690.57 193.308 1690.57 Q191.132 1690.57 188.864 1690.2 Q186.618 1689.82 184.211 1689.08 L184.211 1684.38 Q186.294 1685.52 188.517 1686.07 Q190.739 1686.63 193.216 1686.63 Q197.22 1686.63 199.558 1684.52 Q201.896 1682.42 201.896 1678.81 Q201.896 1675.2 199.558 1673.09 Q197.22 1670.98 193.216 1670.98 Q191.341 1670.98 189.466 1671.4 Q187.614 1671.82 185.669 1672.7 L185.669 1655.33 Z" fill="#000000" fill-rule="evenodd" fill-opacity="1" /><path clip-path="url(#clip160)" d="M119.235 1230.78 Q115.623 1230.78 113.795 1234.35 Q111.989 1237.89 111.989 1245.02 Q111.989 1252.13 113.795 1255.69 Q115.623 1259.23 119.235 1259.23 Q122.869 1259.23 124.674 1255.69 Q126.503 1252.13 126.503 1245.02 Q126.503 1237.89 124.674 1234.35 Q122.869 1230.78 119.235 1230.78 M119.235 1227.08 Q125.045 1227.08 128.1 1231.69 Q131.179 1236.27 131.179 1245.02 Q131.179 1253.75 128.1 1258.35 Q125.045 1262.94 119.235 1262.94 Q113.424 1262.94 110.346 1258.35 Q107.29 1253.75 107.29 1245.02 Q107.29 1236.27 110.346 1231.69 Q113.424 1227.08 119.235 1227.08 Z" fill="#000000" fill-rule="evenodd" fill-opacity="1" /><path clip-path="url(#clip160)" d="M139.396 1256.39 L144.281 1256.39 L144.281 1262.27 L139.396 1262.27 L139.396 1256.39 Z" fill="#000000" fill-rule="evenodd" fill-opacity="1" /><path clip-path="url(#clip160)" d="M154.512 1227.71 L172.869 1227.71 L172.869 1231.64 L158.795 1231.64 L158.795 1240.11 Q159.813 1239.77 160.832 1239.6 Q161.85 1239.42 162.869 1239.42 Q168.656 1239.42 172.035 1242.59 Q175.415 1245.76 175.415 1251.18 Q175.415 1256.76 171.943 1259.86 Q168.47 1262.94 162.151 1262.94 Q159.975 1262.94 157.707 1262.57 Q155.461 1262.2 153.054 1261.46 L153.054 1256.76 Q155.137 1257.89 157.359 1258.45 Q159.582 1259 162.058 1259 Q166.063 1259 168.401 1256.9 Q170.739 1254.79 170.739 1251.18 Q170.739 1247.57 168.401 1245.46 Q166.063 1243.35 162.058 1243.35 Q160.183 1243.35 158.308 1243.77 Q156.457 1244.19 154.512 1245.07 L154.512 1227.71 Z" fill="#000000" fill-rule="evenodd" fill-opacity="1" /><path clip-path="url(#clip160)" d="M194.628 1230.78 Q191.017 1230.78 189.188 1234.35 Q187.382 1237.89 187.382 1245.02 Q187.382 1252.13 189.188 1255.69 Q191.017 1259.23 194.628 1259.23 Q198.262 1259.23 200.067 1255.69 Q201.896 1252.13 201.896 1245.02 Q201.896 1237.89 200.067 1234.35 Q198.262 1230.78 194.628 1230.78 M194.628 1227.08 Q200.438 1227.08 203.493 1231.69 Q206.572 1236.27 206.572 1245.02 Q206.572 1253.75 203.493 1258.35 Q200.438 1262.94 194.628 1262.94 Q188.817 1262.94 185.739 1258.35 Q182.683 1253.75 182.683 1245.02 Q182.683 1236.27 185.739 1231.69 Q188.817 1227.08 194.628 1227.08 Z" fill="#000000" fill-rule="evenodd" fill-opacity="1" /><path clip-path="url(#clip160)" d="M120.23 803.156 Q116.619 803.156 114.79 806.721 Q112.985 810.263 112.985 817.392 Q112.985 824.499 114.79 828.064 Q116.619 831.605 120.23 831.605 Q123.864 831.605 125.67 828.064 Q127.498 824.499 127.498 817.392 Q127.498 810.263 125.67 806.721 Q123.864 803.156 120.23 803.156 M120.23 799.453 Q126.04 799.453 129.096 804.059 Q132.174 808.643 132.174 817.392 Q132.174 826.119 129.096 830.726 Q126.04 835.309 120.23 835.309 Q114.42 835.309 111.341 830.726 Q108.286 826.119 108.286 817.392 Q108.286 808.643 111.341 804.059 Q114.42 799.453 120.23 799.453 Z" fill="#000000" fill-rule="evenodd" fill-opacity="1" /><path clip-path="url(#clip160)" d="M140.392 828.758 L145.276 828.758 L145.276 834.638 L140.392 834.638 L140.392 828.758 Z" fill="#000000" fill-rule="evenodd" fill-opacity="1" /><path clip-path="url(#clip160)" d="M154.281 800.078 L176.503 800.078 L176.503 802.068 L163.957 834.638 L159.072 834.638 L170.878 804.013 L154.281 804.013 L154.281 800.078 Z" fill="#000000" fill-rule="evenodd" fill-opacity="1" /><path clip-path="url(#clip160)" d="M185.669 800.078 L204.026 800.078 L204.026 804.013 L189.952 804.013 L189.952 812.485 Q190.97 812.138 191.989 811.976 Q193.007 811.791 194.026 811.791 Q199.813 811.791 203.192 814.962 Q206.572 818.133 206.572 823.55 Q206.572 829.129 203.1 832.23 Q199.628 835.309 193.308 835.309 Q191.132 835.309 188.864 834.939 Q186.618 834.568 184.211 833.828 L184.211 829.129 Q186.294 830.263 188.517 830.818 Q190.739 831.374 193.216 831.374 Q197.22 831.374 199.558 829.267 Q201.896 827.161 201.896 823.55 Q201.896 819.939 199.558 817.832 Q197.22 815.726 193.216 815.726 Q191.341 815.726 189.466 816.142 Q187.614 816.559 185.669 817.439 L185.669 800.078 Z" fill="#000000" fill-rule="evenodd" fill-opacity="1" /><path clip-path="url(#clip160)" d="M110.045 403.074 L117.684 403.074 L117.684 376.709 L109.373 378.375 L109.373 374.116 L117.637 372.45 L122.313 372.45 L122.313 403.074 L129.952 403.074 L129.952 407.01 L110.045 407.01 L110.045 403.074 Z" fill="#000000" fill-rule="evenodd" fill-opacity="1" /><path clip-path="url(#clip160)" d="M139.396 401.13 L144.281 401.13 L144.281 407.01 L139.396 407.01 L139.396 401.13 Z" fill="#000000" fill-rule="evenodd" fill-opacity="1" /><path clip-path="url(#clip160)" d="M164.466 375.528 Q160.855 375.528 159.026 379.093 Q157.22 382.635 157.22 389.764 Q157.22 396.871 159.026 400.435 Q160.855 403.977 164.466 403.977 Q168.1 403.977 169.906 400.435 Q171.734 396.871 171.734 389.764 Q171.734 382.635 169.906 379.093 Q168.1 375.528 164.466 375.528 M164.466 371.825 Q170.276 371.825 173.331 376.431 Q176.41 381.014 176.41 389.764 Q176.41 398.491 173.331 403.098 Q170.276 407.681 164.466 407.681 Q158.656 407.681 155.577 403.098 Q152.521 398.491 152.521 389.764 Q152.521 381.014 155.577 376.431 Q158.656 371.825 164.466 371.825 Z" fill="#000000" fill-rule="evenodd" fill-opacity="1" /><path clip-path="url(#clip160)" d="M194.628 375.528 Q191.017 375.528 189.188 379.093 Q187.382 382.635 187.382 389.764 Q187.382 396.871 189.188 400.435 Q191.017 403.977 194.628 403.977 Q198.262 403.977 200.067 400.435 Q201.896 396.871 201.896 389.764 Q201.896 382.635 200.067 379.093 Q198.262 375.528 194.628 375.528 M194.628 371.825 Q200.438 371.825 203.493 376.431 Q206.572 381.014 206.572 389.764 Q206.572 398.491 203.493 403.098 Q200.438 407.681 194.628 407.681 Q188.817 407.681 185.739 403.098 Q182.683 398.491 182.683 389.764 Q182.683 381.014 185.739 376.431 Q188.817 371.825 194.628 371.825 Z" fill="#000000" fill-rule="evenodd" fill-opacity="1" /><path clip-path="url(#clip160)" d="M1.17444 1203.61 L7.95392 1203.61 Q4.93021 1206.86 3.43426 1210.55 Q1.93832 1214.21 1.93832 1218.35 Q1.93832 1226.5 6.9354 1230.83 Q11.9007 1235.16 21.3219 1235.16 Q30.7113 1235.16 35.7084 1230.83 Q40.6736 1226.5 40.6736 1218.35 Q40.6736 1214.21 39.1777 1210.55 Q37.6818 1206.86 34.6581 1203.61 L41.3739 1203.61 Q43.6655 1206.99 44.8114 1210.78 Q45.9572 1214.53 45.9572 1218.73 Q45.9572 1229.52 39.3687 1235.73 Q32.7483 1241.94 21.3219 1241.94 Q9.86363 1241.94 3.27512 1235.73 Q-3.34521 1229.52 -3.34521 1218.73 Q-3.34521 1214.47 -2.19939 1210.71 Q-1.08539 1206.92 1.17444 1203.61 Z" fill="#000000" fill-rule="evenodd" fill-opacity="1" /><path clip-path="url(#clip160)" d="M14.8607 1173.28 Q14.2878 1174.27 14.0332 1175.45 Q13.7467 1176.59 13.7467 1177.99 Q13.7467 1182.96 16.9932 1185.63 Q20.2079 1188.27 26.2553 1188.27 L45.0342 1188.27 L45.0342 1194.16 L9.3862 1194.16 L9.3862 1188.27 L14.9244 1188.27 Q11.6779 1186.43 10.1183 1183.47 Q8.52683 1180.51 8.52683 1176.27 Q8.52683 1175.67 8.62232 1174.94 Q8.68597 1174.2 8.84512 1173.31 L14.8607 1173.28 Z" fill="#000000" fill-rule="evenodd" fill-opacity="1" /><path clip-path="url(#clip160)" d="M13.4921 1154.76 Q13.4921 1159.47 17.1842 1162.21 Q20.8445 1164.94 27.242 1164.94 Q33.6395 1164.94 37.3317 1162.24 Q40.9919 1159.5 40.9919 1154.76 Q40.9919 1150.08 37.2998 1147.34 Q33.6077 1144.6 27.242 1144.6 Q20.9081 1144.6 17.216 1147.34 Q13.4921 1150.08 13.4921 1154.76 M8.52683 1154.76 Q8.52683 1147.12 13.4921 1142.76 Q18.4573 1138.4 27.242 1138.4 Q35.9949 1138.4 40.9919 1142.76 Q45.9572 1147.12 45.9572 1154.76 Q45.9572 1162.43 40.9919 1166.79 Q35.9949 1171.12 27.242 1171.12 Q18.4573 1171.12 13.4921 1166.79 Q8.52683 1162.43 8.52683 1154.76 Z" fill="#000000" fill-rule="evenodd" fill-opacity="1" /><path clip-path="url(#clip160)" d="M10.4365 1105.96 L15.9747 1105.96 Q14.7016 1108.45 14.065 1111.12 Q13.4284 1113.79 13.4284 1116.66 Q13.4284 1121.02 14.7652 1123.22 Q16.102 1125.38 18.7756 1125.38 Q20.8126 1125.38 21.9903 1123.82 Q23.1361 1122.26 24.1865 1117.55 L24.6321 1115.54 Q25.9689 1109.31 28.4197 1106.7 Q30.8386 1104.05 35.1991 1104.05 Q40.1644 1104.05 43.0608 1108 Q45.9572 1111.92 45.9572 1118.79 Q45.9572 1121.66 45.3843 1124.77 Q44.8432 1127.86 43.7292 1131.3 L37.6818 1131.3 Q39.3687 1128.05 40.228 1124.9 Q41.0556 1121.75 41.0556 1118.66 Q41.0556 1114.53 39.6551 1112.3 Q38.2229 1110.07 35.6447 1110.07 Q33.2576 1110.07 31.9845 1111.69 Q30.7113 1113.28 29.5337 1118.73 L29.0562 1120.76 Q27.9104 1126.21 25.5551 1128.63 Q23.168 1131.05 19.0302 1131.05 Q14.0013 1131.05 11.2641 1127.48 Q8.52683 1123.92 8.52683 1117.36 Q8.52683 1114.11 9.00426 1111.25 Q9.48169 1108.38 10.4365 1105.96 Z" fill="#000000" fill-rule="evenodd" fill-opacity="1" /><path clip-path="url(#clip160)" d="M10.4365 1072 L15.9747 1072 Q14.7016 1074.49 14.065 1077.16 Q13.4284 1079.83 13.4284 1082.7 Q13.4284 1087.06 14.7652 1089.25 Q16.102 1091.42 18.7756 1091.42 Q20.8126 1091.42 21.9903 1089.86 Q23.1361 1088.3 24.1865 1083.59 L24.6321 1081.58 Q25.9689 1075.35 28.4197 1072.74 Q30.8386 1070.09 35.1991 1070.09 Q40.1644 1070.09 43.0608 1074.04 Q45.9572 1077.96 45.9572 1084.83 Q45.9572 1087.69 45.3843 1090.81 Q44.8432 1093.9 43.7292 1097.34 L37.6818 1097.34 Q39.3687 1094.09 40.228 1090.94 Q41.0556 1087.79 41.0556 1084.7 Q41.0556 1080.56 39.6551 1078.34 Q38.2229 1076.11 35.6447 1076.11 Q33.2576 1076.11 31.9845 1077.73 Q30.7113 1079.32 29.5337 1084.77 L29.0562 1086.8 Q27.9104 1092.25 25.5551 1094.67 Q23.168 1097.08 19.0302 1097.08 Q14.0013 1097.08 11.2641 1093.52 Q8.52683 1089.95 8.52683 1083.4 Q8.52683 1080.15 9.00426 1077.29 Q9.48169 1074.42 10.4365 1072 Z" fill="#000000" fill-rule="evenodd" fill-opacity="1" /><path clip-path="url(#clip160)" d="M24.5684 1063.73 L24.5684 1046.57 L29.7883 1046.57 L29.7883 1063.73 L24.5684 1063.73 Z" fill="#000000" fill-rule="evenodd" fill-opacity="1" /><path clip-path="url(#clip160)" d="M-2.48584 1036.99 L-2.48584 1006.95 L2.92501 1006.95 L2.92501 1030.56 L16.9932 1030.56 L16.9932 1007.93 L22.4041 1007.93 L22.4041 1030.56 L39.6233 1030.56 L39.6233 1006.37 L45.0342 1006.37 L45.0342 1036.99 L-2.48584 1036.99 Z" fill="#000000" fill-rule="evenodd" fill-opacity="1" /><path clip-path="url(#clip160)" d="M23.5181 966.428 L45.0342 966.428 L45.0342 972.284 L23.709 972.284 Q18.6483 972.284 16.1338 974.258 Q13.6194 976.231 13.6194 980.178 Q13.6194 984.92 16.6431 987.657 Q19.6668 990.395 24.8867 990.395 L45.0342 990.395 L45.0342 996.283 L9.3862 996.283 L9.3862 990.395 L14.9244 990.395 Q11.7097 988.294 10.1183 985.461 Q8.52683 982.597 8.52683 978.873 Q8.52683 972.73 12.3463 969.579 Q16.1338 966.428 23.5181 966.428 Z" fill="#000000" fill-rule="evenodd" fill-opacity="1" /><path clip-path="url(#clip160)" d="M-0.735273 948.954 L9.3862 948.954 L9.3862 936.891 L13.9377 936.891 L13.9377 948.954 L33.2894 948.954 Q37.6499 948.954 38.8913 947.776 Q40.1326 946.567 40.1326 942.907 L40.1326 936.891 L45.0342 936.891 L45.0342 942.907 Q45.0342 949.686 42.5197 952.264 Q39.9734 954.842 33.2894 954.842 L13.9377 954.842 L13.9377 959.139 L9.3862 959.139 L9.3862 954.842 L-0.735273 954.842 L-0.735273 948.954 Z" fill="#000000" fill-rule="evenodd" fill-opacity="1" /><path clip-path="url(#clip160)" d="M14.8607 908.532 Q14.2878 909.518 14.0332 910.696 Q13.7467 911.842 13.7467 913.242 Q13.7467 918.208 16.9932 920.881 Q20.2079 923.523 26.2553 923.523 L45.0342 923.523 L45.0342 929.411 L9.3862 929.411 L9.3862 923.523 L14.9244 923.523 Q11.6779 921.677 10.1183 918.717 Q8.52683 915.757 8.52683 911.524 Q8.52683 910.919 8.62232 910.187 Q8.68597 909.455 8.84512 908.564 L14.8607 908.532 Z" fill="#000000" fill-rule="evenodd" fill-opacity="1" /><path clip-path="url(#clip160)" d="M13.4921 890.008 Q13.4921 894.718 17.1842 897.455 Q20.8445 900.193 27.242 900.193 Q33.6395 900.193 37.3317 897.487 Q40.9919 894.75 40.9919 890.008 Q40.9919 885.329 37.2998 882.591 Q33.6077 879.854 27.242 879.854 Q20.9081 879.854 17.216 882.591 Q13.4921 885.329 13.4921 890.008 M8.52683 890.008 Q8.52683 882.369 13.4921 878.008 Q18.4573 873.648 27.242 873.648 Q35.9949 873.648 40.9919 878.008 Q45.9572 882.369 45.9572 890.008 Q45.9572 897.678 40.9919 902.039 Q35.9949 906.367 27.242 906.367 Q18.4573 906.367 13.4921 902.039 Q8.52683 897.678 8.52683 890.008 Z" fill="#000000" fill-rule="evenodd" fill-opacity="1" /><path clip-path="url(#clip160)" d="M39.687 858.274 L58.5931 858.274 L58.5931 864.163 L9.3862 864.163 L9.3862 858.274 L14.7971 858.274 Q11.6142 856.428 10.0864 853.628 Q8.52683 850.795 8.52683 846.88 Q8.52683 840.387 13.6831 836.345 Q18.8393 832.271 27.242 832.271 Q35.6447 832.271 40.801 836.345 Q45.9572 840.387 45.9572 846.88 Q45.9572 850.795 44.4294 853.628 Q42.8698 856.428 39.687 858.274 M27.242 838.35 Q20.7808 838.35 17.1205 841.023 Q13.4284 843.665 13.4284 848.312 Q13.4284 852.959 17.1205 855.633 Q20.7808 858.274 27.242 858.274 Q33.7032 858.274 37.3953 855.633 Q41.0556 852.959 41.0556 848.312 Q41.0556 843.665 37.3953 841.023 Q33.7032 838.35 27.242 838.35 Z" fill="#000000" fill-rule="evenodd" fill-opacity="1" /><path clip-path="url(#clip160)" d="M48.3443 807.731 Q54.71 810.213 56.6516 812.569 Q58.5931 814.924 58.5931 818.871 L58.5931 823.55 L53.6915 823.55 L53.6915 820.112 Q53.6915 817.693 52.5457 816.356 Q51.3999 815.02 47.1348 813.396 L44.4612 812.346 L9.3862 826.764 L9.3862 820.558 L37.268 809.418 L9.3862 798.278 L9.3862 792.071 L48.3443 807.731 Z" fill="#000000" fill-rule="evenodd" fill-opacity="1" /><path clip-path="url(#clip160)" d="M-2.48584 763.012 L-2.48584 756.582 L39.6233 756.582 L39.6233 733.443 L45.0342 733.443 L45.0342 763.012 L-2.48584 763.012 Z" fill="#000000" fill-rule="evenodd" fill-opacity="1" /><path clip-path="url(#clip160)" d="M13.4921 714.282 Q13.4921 718.993 17.1842 721.73 Q20.8445 724.467 27.242 724.467 Q33.6395 724.467 37.3317 721.762 Q40.9919 719.025 40.9919 714.282 Q40.9919 709.603 37.2998 706.866 Q33.6077 704.129 27.242 704.129 Q20.9081 704.129 17.216 706.866 Q13.4921 709.603 13.4921 714.282 M8.52683 714.282 Q8.52683 706.643 13.4921 702.283 Q18.4573 697.922 27.242 697.922 Q35.9949 697.922 40.9919 702.283 Q45.9572 706.643 45.9572 714.282 Q45.9572 721.953 40.9919 726.313 Q35.9949 730.642 27.242 730.642 Q18.4573 730.642 13.4921 726.313 Q8.52683 721.953 8.52683 714.282 Z" fill="#000000" fill-rule="evenodd" fill-opacity="1" /><path clip-path="url(#clip160)" d="M10.4365 665.489 L15.9747 665.489 Q14.7016 667.972 14.065 670.645 Q13.4284 673.319 13.4284 676.183 Q13.4284 680.544 14.7652 682.74 Q16.102 684.904 18.7756 684.904 Q20.8126 684.904 21.9903 683.345 Q23.1361 681.785 24.1865 677.075 L24.6321 675.069 Q25.9689 668.831 28.4197 666.221 Q30.8386 663.579 35.1991 663.579 Q40.1644 663.579 43.0608 667.526 Q45.9572 671.441 45.9572 678.316 Q45.9572 681.181 45.3843 684.3 Q44.8432 687.387 43.7292 690.825 L37.6818 690.825 Q39.3687 687.578 40.228 684.427 Q41.0556 681.276 41.0556 678.189 Q41.0556 674.051 39.6551 671.823 Q38.2229 669.595 35.6447 669.595 Q33.2576 669.595 31.9845 671.218 Q30.7113 672.81 29.5337 678.252 L29.0562 680.289 Q27.9104 685.732 25.5551 688.151 Q23.168 690.57 19.0302 690.57 Q14.0013 690.57 11.2641 687.005 Q8.52683 683.44 8.52683 676.884 Q8.52683 673.637 9.00426 670.773 Q9.48169 667.908 10.4365 665.489 Z" fill="#000000" fill-rule="evenodd" fill-opacity="1" /><path clip-path="url(#clip160)" d="M10.4365 631.528 L15.9747 631.528 Q14.7016 634.011 14.065 636.684 Q13.4284 639.358 13.4284 642.222 Q13.4284 646.583 14.7652 648.779 Q16.102 650.943 18.7756 650.943 Q20.8126 650.943 21.9903 649.384 Q23.1361 647.824 24.1865 643.114 L24.6321 641.108 Q25.9689 634.87 28.4197 632.26 Q30.8386 629.618 35.1991 629.618 Q40.1644 629.618 43.0608 633.565 Q45.9572 637.48 45.9572 644.355 Q45.9572 647.219 45.3843 650.339 Q44.8432 653.426 43.7292 656.864 L37.6818 656.864 Q39.3687 653.617 40.228 650.466 Q41.0556 647.315 41.0556 644.228 Q41.0556 640.09 39.6551 637.862 Q38.2229 635.634 35.6447 635.634 Q33.2576 635.634 31.9845 637.257 Q30.7113 638.849 29.5337 644.291 L29.0562 646.328 Q27.9104 651.771 25.5551 654.19 Q23.168 656.609 19.0302 656.609 Q14.0013 656.609 11.2641 653.044 Q8.52683 649.479 8.52683 642.923 Q8.52683 639.676 9.00426 636.812 Q9.48169 633.947 10.4365 631.528 Z" fill="#000000" fill-rule="evenodd" fill-opacity="1" /><polyline clip-path="url(#clip162)" style="stroke:#009af9; stroke-linecap:round; stroke-linejoin:round; stroke-width:4; stroke-opacity:1; fill:none" points="
  336.596,97.5384 347.577,117.943 358.557,138.119 369.537,158.066 380.518,177.787 391.498,197.284 402.479,216.559 413.459,235.613 424.44,254.448 435.42,273.066 
  446.401,291.469 457.381,309.659 468.362,327.637 479.342,345.406 490.323,362.967 501.303,380.322 512.284,397.474 523.264,414.424 534.244,431.174 545.225,447.725 
  556.205,464.081 567.186,480.243 578.166,496.212 589.147,511.991 600.127,527.581 611.108,542.986 622.088,558.205 633.069,573.242 644.049,588.099 655.03,602.777 
  666.01,617.278 676.991,631.604 687.971,645.757 698.951,659.74 709.932,673.553 720.912,687.199 731.893,700.68 742.873,713.997 753.854,727.153 764.834,740.149 
  775.815,752.988 786.795,765.67 797.776,778.198 808.756,790.574 819.737,802.8 830.717,814.877 841.697,826.807 852.678,838.592 863.658,850.234 874.639,861.735 
  885.619,873.095 896.6,884.318 907.58,895.404 918.561,906.356 929.541,917.174 940.522,927.862 951.502,938.42 962.483,948.85 973.463,959.153 984.444,969.333 
  995.424,979.389 1006.4,989.323 1017.38,999.138 1028.37,1008.83 1039.35,1018.41 1050.33,1027.88 1061.31,1037.23 1072.29,1046.47 1083.27,1055.59 1094.25,1064.61 
  1105.23,1073.52 1116.21,1082.33 1127.19,1091.02 1138.17,1099.62 1149.15,1108.11 1160.13,1116.5 1171.11,1124.8 1182.09,1132.99 1193.07,1141.09 1204.05,1149.09 
  1215.03,1157 1226.01,1164.81 1236.99,1172.53 1247.97,1180.17 1258.96,1187.71 1269.94,1195.16 1280.92,1202.53 1291.9,1209.81 1302.88,1217.01 1313.86,1224.12 
  1324.84,1231.15 1335.82,1238.1 1346.8,1244.97 1357.78,1251.76 1368.76,1258.48 1379.74,1265.11 1390.72,1271.67 1401.7,1278.16 1412.68,1284.57 1423.66,1290.91 
  1434.64,1297.18 1445.62,1303.37 1456.6,1309.5 1467.58,1315.55 1478.56,1321.54 1489.54,1327.46 1500.53,1333.32 1511.51,1339.11 1522.49,1344.84 1533.47,1350.5 
  1544.45,1356.1 1555.43,1361.64 1566.41,1367.11 1577.39,1372.53 1588.37,1377.89 1599.35,1383.18 1610.33,1388.42 1621.31,1393.61 1632.29,1398.73 1643.27,1403.81 
  1654.25,1408.82 1665.23,1413.79 1676.21,1418.69 1687.19,1423.55 1698.17,1428.36 1709.15,1433.11 1720.13,1437.81 1731.12,1442.46 1742.1,1447.07 1753.08,1451.62 
  1764.06,1456.13 1775.04,1460.59 1786.02,1465 1797,1469.37 1807.98,1473.69 1818.96,1477.97 1829.94,1482.2 1840.92,1486.39 1851.9,1490.53 1862.88,1494.63 
  1873.86,1498.69 1884.84,1502.71 1895.82,1506.69 1906.8,1510.63 1917.78,1514.52 1928.76,1518.38 1939.74,1522.2 1950.72,1525.98 1961.7,1529.72 1972.69,1533.43 
  1983.67,1537.1 1994.65,1540.73 2005.63,1544.32 2016.61,1547.88 2027.59,1551.41 2038.57,1554.9 2049.55,1558.35 2060.53,1561.78 2071.51,1565.16 2082.49,1568.52 
  2093.47,1571.84 2104.45,1575.13 2115.43,1578.39 2126.41,1581.62 2137.39,1584.82 2148.37,1587.98 2159.35,1591.12 2170.33,1594.22 2181.31,1597.3 2192.29,1600.35 
  2203.28,1603.36 2214.26,1606.35 2225.24,1609.31 2236.22,1612.25 2247.2,1615.15 2258.18,1618.03 2269.16,1620.89 2280.14,1623.71 2291.12,1626.51 2302.1,1629.29 
  2313.08,1632.03 2324.06,1634.76 2335.04,1637.46 2346.02,1640.13 2357,1642.78 2367.98,1645.41 2378.96,1648.01 2389.94,1650.59 2400.92,1653.14 2411.9,1655.67 
  2422.88,1658.18 2433.86,1660.67 2444.85,1663.13 2455.83,1665.58 2466.81,1668 2477.79,1670.4 2488.77,1672.78 2499.75,1675.14 2510.73,1677.47 2521.71,1679.79 
  2532.69,1682.09 2543.67,1684.36 2554.65,1686.62 2565.63,1688.86 2576.61,1691.08 2587.59,1693.28 2598.57,1695.46 2609.55,1697.62 2620.53,1699.76 2631.51,1701.89 
  2642.49,1703.99 2653.47,1706.08 2664.45,1708.15 2675.44,1710.21 2686.42,1712.25 2697.4,1714.27 2708.38,1716.27 2719.36,1718.26 2730.34,1720.23 2741.32,1722.18 
  2752.3,1724.12 2763.28,1726.04 2774.26,1727.95 2785.24,1729.84 2796.22,1731.71 2807.2,1733.57 2818.18,1735.41 2829.16,1737.24 2840.14,1739.06 2851.12,1740.86 
  2862.1,1742.64 2873.08,1744.42 2884.06,1746.17 2895.04,1747.92 2906.02,1749.65 2917.01,1751.36 2927.99,1753.06 2938.97,1754.75 2949.95,1756.43 2960.93,1758.09 
  2971.91,1759.74 2982.89,1761.37 2993.87,1763 3004.85,1764.61 3015.83,1766.21 3026.81,1767.79 3037.79,1769.37 3048.77,1770.93 3059.75,1772.48 3070.73,1774.02 
  
  "/>
</svg>
