<?xml version="1.0" encoding="utf-8"?>
<svg xmlns="http://www.w3.org/2000/svg" xmlns:xlink="http://www.w3.org/1999/xlink" width="800" height="500" viewBox="0 0 3200 2000">
<defs>
  <clipPath id="clip100">
    <rect x="0" y="0" width="3200" height="2000"/>
  </clipPath>
</defs>
<path clip-path="url(#clip100)" d="
M0 2000 L3200 2000 L3200 0 L0 0  Z
  " fill="#ffffff" fill-rule="evenodd" fill-opacity="1"/>
<defs>
  <clipPath id="clip101">
    <rect x="640" y="0" width="2241" height="2000"/>
  </clipPath>
</defs>
<path clip-path="url(#clip100)" d="
M237.419 824.31 L3152.76 824.31 L3152.76 47.2441 L237.419 47.2441  Z
  " fill="#ffffff" fill-rule="evenodd" fill-opacity="1"/>
<defs>
  <clipPath id="clip102">
    <rect x="237" y="47" width="2916" height="778"/>
  </clipPath>
</defs>
<polyline clip-path="url(#clip102)" style="stroke:#000000; stroke-linecap:round; stroke-linejoin:round; stroke-width:2; stroke-opacity:0.1; fill:none" points="
  296.817,824.31 296.817,47.2441 
  "/>
<polyline clip-path="url(#clip102)" style="stroke:#000000; stroke-linecap:round; stroke-linejoin:round; stroke-width:2; stroke-opacity:0.1; fill:none" points="
  1067.21,824.31 1067.21,47.2441 
  "/>
<polyline clip-path="url(#clip102)" style="stroke:#000000; stroke-linecap:round; stroke-linejoin:round; stroke-width:2; stroke-opacity:0.1; fill:none" points="
  1837.61,824.31 1837.61,47.2441 
  "/>
<polyline clip-path="url(#clip102)" style="stroke:#000000; stroke-linecap:round; stroke-linejoin:round; stroke-width:2; stroke-opacity:0.1; fill:none" points="
  2608.01,824.31 2608.01,47.2441 
  "/>
<polyline clip-path="url(#clip100)" style="stroke:#000000; stroke-linecap:round; stroke-linejoin:round; stroke-width:4; stroke-opacity:1; fill:none" points="
  237.419,824.31 3152.76,824.31 
  "/>
<polyline clip-path="url(#clip100)" style="stroke:#000000; stroke-linecap:round; stroke-linejoin:round; stroke-width:4; stroke-opacity:1; fill:none" points="
  296.817,824.31 296.817,805.412 
  "/>
<polyline clip-path="url(#clip100)" style="stroke:#000000; stroke-linecap:round; stroke-linejoin:round; stroke-width:4; stroke-opacity:1; fill:none" points="
  1067.21,824.31 1067.21,805.412 
  "/>
<polyline clip-path="url(#clip100)" style="stroke:#000000; stroke-linecap:round; stroke-linejoin:round; stroke-width:4; stroke-opacity:1; fill:none" points="
  1837.61,824.31 1837.61,805.412 
  "/>
<polyline clip-path="url(#clip100)" style="stroke:#000000; stroke-linecap:round; stroke-linejoin:round; stroke-width:4; stroke-opacity:1; fill:none" points="
  2608.01,824.31 2608.01,805.412 
  "/>
<path clip-path="url(#clip100)" d="M296.817 861.629 Q293.206 861.629 291.377 865.193 Q289.572 868.735 289.572 875.865 Q289.572 882.971 291.377 886.536 Q293.206 890.077 296.817 890.077 Q300.451 890.077 302.257 886.536 Q304.085 882.971 304.085 875.865 Q304.085 868.735 302.257 865.193 Q300.451 861.629 296.817 861.629 M296.817 857.925 Q302.627 857.925 305.683 862.531 Q308.761 867.115 308.761 875.865 Q308.761 884.591 305.683 889.198 Q302.627 893.781 296.817 893.781 Q291.007 893.781 287.928 889.198 Q284.873 884.591 284.873 875.865 Q284.873 867.115 287.928 862.531 Q291.007 857.925 296.817 857.925 Z" fill="#000000" fill-rule="evenodd" fill-opacity="1" /><path clip-path="url(#clip100)" d="M1026.82 889.175 L1034.46 889.175 L1034.46 862.809 L1026.15 864.476 L1026.15 860.217 L1034.41 858.55 L1039.09 858.55 L1039.09 889.175 L1046.73 889.175 L1046.73 893.11 L1026.82 893.11 L1026.82 889.175 Z" fill="#000000" fill-rule="evenodd" fill-opacity="1" /><path clip-path="url(#clip100)" d="M1066.17 861.629 Q1062.56 861.629 1060.73 865.193 Q1058.93 868.735 1058.93 875.865 Q1058.93 882.971 1060.73 886.536 Q1062.56 890.077 1066.17 890.077 Q1069.81 890.077 1071.61 886.536 Q1073.44 882.971 1073.44 875.865 Q1073.44 868.735 1071.61 865.193 Q1069.81 861.629 1066.17 861.629 M1066.17 857.925 Q1071.98 857.925 1075.04 862.531 Q1078.12 867.115 1078.12 875.865 Q1078.12 884.591 1075.04 889.198 Q1071.98 893.781 1066.17 893.781 Q1060.36 893.781 1057.28 889.198 Q1054.23 884.591 1054.23 875.865 Q1054.23 867.115 1057.28 862.531 Q1060.36 857.925 1066.17 857.925 Z" fill="#000000" fill-rule="evenodd" fill-opacity="1" /><path clip-path="url(#clip100)" d="M1096.33 861.629 Q1092.72 861.629 1090.89 865.193 Q1089.09 868.735 1089.09 875.865 Q1089.09 882.971 1090.89 886.536 Q1092.72 890.077 1096.33 890.077 Q1099.97 890.077 1101.77 886.536 Q1103.6 882.971 1103.6 875.865 Q1103.6 868.735 1101.77 865.193 Q1099.97 861.629 1096.33 861.629 M1096.33 857.925 Q1102.14 857.925 1105.2 862.531 Q1108.28 867.115 1108.28 875.865 Q1108.28 884.591 1105.2 889.198 Q1102.14 893.781 1096.33 893.781 Q1090.52 893.781 1087.45 889.198 Q1084.39 884.591 1084.39 875.865 Q1084.39 867.115 1087.45 862.531 Q1090.52 857.925 1096.33 857.925 Z" fill="#000000" fill-rule="evenodd" fill-opacity="1" /><path clip-path="url(#clip100)" d="M1801.3 889.175 L1817.62 889.175 L1817.62 893.11 L1795.68 893.11 L1795.68 889.175 Q1798.34 886.42 1802.92 881.79 Q1807.53 877.138 1808.71 875.795 Q1810.96 873.272 1811.84 871.536 Q1812.74 869.777 1812.74 868.087 Q1812.74 865.332 1810.79 863.596 Q1808.87 861.86 1805.77 861.86 Q1803.57 861.86 1801.12 862.624 Q1798.69 863.388 1795.91 864.939 L1795.91 860.217 Q1798.73 859.082 1801.19 858.504 Q1803.64 857.925 1805.68 857.925 Q1811.05 857.925 1814.24 860.61 Q1817.44 863.295 1817.44 867.786 Q1817.44 869.916 1816.63 871.837 Q1815.84 873.735 1813.73 876.328 Q1813.16 876.999 1810.05 880.216 Q1806.95 883.411 1801.3 889.175 Z" fill="#000000" fill-rule="evenodd" fill-opacity="1" /><path clip-path="url(#clip100)" d="M1837.44 861.629 Q1833.83 861.629 1832 865.193 Q1830.19 868.735 1830.19 875.865 Q1830.19 882.971 1832 886.536 Q1833.83 890.077 1837.44 890.077 Q1841.07 890.077 1842.88 886.536 Q1844.71 882.971 1844.71 875.865 Q1844.71 868.735 1842.88 865.193 Q1841.07 861.629 1837.44 861.629 M1837.44 857.925 Q1843.25 857.925 1846.3 862.531 Q1849.38 867.115 1849.38 875.865 Q1849.38 884.591 1846.3 889.198 Q1843.25 893.781 1837.44 893.781 Q1831.63 893.781 1828.55 889.198 Q1825.49 884.591 1825.49 875.865 Q1825.49 867.115 1828.55 862.531 Q1831.63 857.925 1837.44 857.925 Z" fill="#000000" fill-rule="evenodd" fill-opacity="1" /><path clip-path="url(#clip100)" d="M1867.6 861.629 Q1863.99 861.629 1862.16 865.193 Q1860.35 868.735 1860.35 875.865 Q1860.35 882.971 1862.16 886.536 Q1863.99 890.077 1867.6 890.077 Q1871.23 890.077 1873.04 886.536 Q1874.87 882.971 1874.87 875.865 Q1874.87 868.735 1873.04 865.193 Q1871.23 861.629 1867.6 861.629 M1867.6 857.925 Q1873.41 857.925 1876.47 862.531 Q1879.54 867.115 1879.54 875.865 Q1879.54 884.591 1876.47 889.198 Q1873.41 893.781 1867.6 893.781 Q1861.79 893.781 1858.71 889.198 Q1855.65 884.591 1855.65 875.865 Q1855.65 867.115 1858.71 862.531 Q1861.79 857.925 1867.6 857.925 Z" fill="#000000" fill-rule="evenodd" fill-opacity="1" /><path clip-path="url(#clip100)" d="M2581.77 874.476 Q2585.13 875.193 2587 877.462 Q2588.9 879.73 2588.9 883.064 Q2588.9 888.179 2585.38 890.98 Q2581.86 893.781 2575.38 893.781 Q2573.21 893.781 2570.89 893.341 Q2568.6 892.925 2566.14 892.068 L2566.14 887.554 Q2568.09 888.689 2570.4 889.267 Q2572.72 889.846 2575.24 889.846 Q2579.64 889.846 2581.93 888.11 Q2584.25 886.374 2584.25 883.064 Q2584.25 880.008 2582.09 878.295 Q2579.96 876.559 2576.14 876.559 L2572.12 876.559 L2572.12 872.716 L2576.33 872.716 Q2579.78 872.716 2581.61 871.351 Q2583.44 869.962 2583.44 867.369 Q2583.44 864.707 2581.54 863.295 Q2579.66 861.86 2576.14 861.86 Q2574.22 861.86 2572.02 862.277 Q2569.83 862.693 2567.19 863.573 L2567.19 859.406 Q2569.85 858.666 2572.16 858.295 Q2574.5 857.925 2576.56 857.925 Q2581.89 857.925 2584.99 860.355 Q2588.09 862.763 2588.09 866.883 Q2588.09 869.753 2586.45 871.744 Q2584.8 873.712 2581.77 874.476 Z" fill="#000000" fill-rule="evenodd" fill-opacity="1" /><path clip-path="url(#clip100)" d="M2607.77 861.629 Q2604.15 861.629 2602.33 865.193 Q2600.52 868.735 2600.52 875.865 Q2600.52 882.971 2602.33 886.536 Q2604.15 890.077 2607.77 890.077 Q2611.4 890.077 2613.2 886.536 Q2615.03 882.971 2615.03 875.865 Q2615.03 868.735 2613.2 865.193 Q2611.4 861.629 2607.77 861.629 M2607.77 857.925 Q2613.58 857.925 2616.63 862.531 Q2619.71 867.115 2619.71 875.865 Q2619.71 884.591 2616.63 889.198 Q2613.58 893.781 2607.77 893.781 Q2601.95 893.781 2598.88 889.198 Q2595.82 884.591 2595.82 875.865 Q2595.82 867.115 2598.88 862.531 Q2601.95 857.925 2607.77 857.925 Z" fill="#000000" fill-rule="evenodd" fill-opacity="1" /><path clip-path="url(#clip100)" d="M2637.93 861.629 Q2634.32 861.629 2632.49 865.193 Q2630.68 868.735 2630.68 875.865 Q2630.68 882.971 2632.49 886.536 Q2634.32 890.077 2637.93 890.077 Q2641.56 890.077 2643.37 886.536 Q2645.2 882.971 2645.2 875.865 Q2645.2 868.735 2643.37 865.193 Q2641.56 861.629 2637.93 861.629 M2637.93 857.925 Q2643.74 857.925 2646.79 862.531 Q2649.87 867.115 2649.87 875.865 Q2649.87 884.591 2646.79 889.198 Q2643.74 893.781 2637.93 893.781 Q2632.12 893.781 2629.04 889.198 Q2625.98 884.591 2625.98 875.865 Q2625.98 867.115 2629.04 862.531 Q2632.12 857.925 2637.93 857.925 Z" fill="#000000" fill-rule="evenodd" fill-opacity="1" /><path clip-path="url(#clip100)" d="M1565.26 933.654 L1605.46 933.654 L1605.46 939.065 L1588.59 939.065 L1588.59 981.174 L1582.13 981.174 L1582.13 939.065 L1565.26 939.065 L1565.26 933.654 Z" fill="#000000" fill-rule="evenodd" fill-opacity="1" /><path clip-path="url(#clip100)" d="M1609.41 945.526 L1615.26 945.526 L1615.26 981.174 L1609.41 981.174 L1609.41 945.526 M1609.41 931.649 L1615.26 931.649 L1615.26 939.065 L1609.41 939.065 L1609.41 931.649 Z" fill="#000000" fill-rule="evenodd" fill-opacity="1" /><path clip-path="url(#clip100)" d="M1655.27 952.369 Q1657.47 948.422 1660.52 946.544 Q1663.58 944.667 1667.72 944.667 Q1673.29 944.667 1676.31 948.581 Q1679.33 952.465 1679.33 959.658 L1679.33 981.174 L1673.44 981.174 L1673.44 959.849 Q1673.44 954.724 1671.63 952.242 Q1669.82 949.759 1666.09 949.759 Q1661.54 949.759 1658.9 952.783 Q1656.26 955.807 1656.26 961.026 L1656.26 981.174 L1650.37 981.174 L1650.37 959.849 Q1650.37 954.693 1648.55 952.242 Q1646.74 949.759 1642.95 949.759 Q1638.46 949.759 1635.82 952.815 Q1633.18 955.838 1633.18 961.026 L1633.18 981.174 L1627.29 981.174 L1627.29 945.526 L1633.18 945.526 L1633.18 951.064 Q1635.19 947.786 1637.99 946.226 Q1640.79 944.667 1644.64 944.667 Q1648.52 944.667 1651.23 946.64 Q1653.97 948.613 1655.27 952.369 Z" fill="#000000" fill-rule="evenodd" fill-opacity="1" /><path clip-path="url(#clip100)" d="M1721.51 961.886 L1721.51 964.75 L1694.58 964.75 Q1694.96 970.798 1698.21 973.981 Q1701.49 977.132 1707.31 977.132 Q1710.68 977.132 1713.83 976.304 Q1717.02 975.477 1720.14 973.821 L1720.14 979.36 Q1716.99 980.696 1713.68 981.397 Q1710.37 982.097 1706.96 982.097 Q1698.43 982.097 1693.43 977.132 Q1688.47 972.166 1688.47 963.7 Q1688.47 954.947 1693.18 949.823 Q1697.92 944.667 1705.94 944.667 Q1713.13 944.667 1717.3 949.313 Q1721.51 953.929 1721.51 961.886 M1715.65 960.167 Q1715.59 955.361 1712.94 952.496 Q1710.33 949.632 1706 949.632 Q1701.1 949.632 1698.14 952.401 Q1695.21 955.17 1694.77 960.199 L1715.65 960.167 Z" fill="#000000" fill-rule="evenodd" fill-opacity="1" /><path clip-path="url(#clip100)" d="M1765.91 931.712 Q1761.64 939.033 1759.57 946.194 Q1757.5 953.356 1757.5 960.708 Q1757.5 968.06 1759.57 975.286 Q1761.67 982.479 1765.91 989.768 L1760.81 989.768 Q1756.04 982.288 1753.65 975.063 Q1751.3 967.838 1751.3 960.708 Q1751.3 953.61 1753.65 946.417 Q1756.01 939.224 1760.81 931.712 L1765.91 931.712 Z" fill="#000000" fill-rule="evenodd" fill-opacity="1" /><path clip-path="url(#clip100)" d="M1799.99 946.576 L1799.99 952.114 Q1797.51 950.841 1794.84 950.205 Q1792.16 949.568 1789.3 949.568 Q1784.94 949.568 1782.74 950.905 Q1780.58 952.242 1780.58 954.915 Q1780.58 956.952 1782.14 958.13 Q1783.7 959.276 1788.41 960.326 L1790.41 960.772 Q1796.65 962.109 1799.26 964.559 Q1801.9 966.978 1801.9 971.339 Q1801.9 976.304 1797.96 979.2 Q1794.04 982.097 1787.17 982.097 Q1784.3 982.097 1781.18 981.524 Q1778.1 980.983 1774.66 979.869 L1774.66 973.821 Q1777.91 975.508 1781.06 976.368 Q1784.21 977.195 1787.29 977.195 Q1791.43 977.195 1793.66 975.795 Q1795.89 974.363 1795.89 971.784 Q1795.89 969.397 1794.27 968.124 Q1792.67 966.851 1787.23 965.673 L1785.19 965.196 Q1779.75 964.05 1777.33 961.695 Q1774.91 959.308 1774.91 955.17 Q1774.91 950.141 1778.48 947.404 Q1782.04 944.667 1788.6 944.667 Q1791.85 944.667 1794.71 945.144 Q1797.58 945.621 1799.99 946.576 Z" fill="#000000" fill-rule="evenodd" fill-opacity="1" /><path clip-path="url(#clip100)" d="M1810.31 931.712 L1815.4 931.712 Q1820.17 939.224 1822.53 946.417 Q1824.92 953.61 1824.92 960.708 Q1824.92 967.838 1822.53 975.063 Q1820.17 982.288 1815.4 989.768 L1810.31 989.768 Q1814.54 982.479 1816.61 975.286 Q1818.71 968.06 1818.71 960.708 Q1818.71 953.356 1816.61 946.194 Q1814.54 939.033 1810.31 931.712 Z" fill="#000000" fill-rule="evenodd" fill-opacity="1" /><polyline clip-path="url(#clip102)" style="stroke:#000000; stroke-linecap:round; stroke-linejoin:round; stroke-width:2; stroke-opacity:0.1; fill:none" points="
  237.419,808.479 3152.76,808.479 
  "/>
<polyline clip-path="url(#clip102)" style="stroke:#000000; stroke-linecap:round; stroke-linejoin:round; stroke-width:2; stroke-opacity:0.1; fill:none" points="
  237.419,603.143 3152.76,603.143 
  "/>
<polyline clip-path="url(#clip102)" style="stroke:#000000; stroke-linecap:round; stroke-linejoin:round; stroke-width:2; stroke-opacity:0.1; fill:none" points="
  237.419,397.806 3152.76,397.806 
  "/>
<polyline clip-path="url(#clip102)" style="stroke:#000000; stroke-linecap:round; stroke-linejoin:round; stroke-width:2; stroke-opacity:0.1; fill:none" points="
  237.419,192.47 3152.76,192.47 
  "/>
<polyline clip-path="url(#clip100)" style="stroke:#000000; stroke-linecap:round; stroke-linejoin:round; stroke-width:4; stroke-opacity:1; fill:none" points="
  237.419,824.31 237.419,47.2441 
  "/>
<polyline clip-path="url(#clip100)" style="stroke:#000000; stroke-linecap:round; stroke-linejoin:round; stroke-width:4; stroke-opacity:1; fill:none" points="
  237.419,808.479 256.317,808.479 
  "/>
<polyline clip-path="url(#clip100)" style="stroke:#000000; stroke-linecap:round; stroke-linejoin:round; stroke-width:4; stroke-opacity:1; fill:none" points="
  237.419,603.143 256.317,603.143 
  "/>
<polyline clip-path="url(#clip100)" style="stroke:#000000; stroke-linecap:round; stroke-linejoin:round; stroke-width:4; stroke-opacity:1; fill:none" points="
  237.419,397.806 256.317,397.806 
  "/>
<polyline clip-path="url(#clip100)" style="stroke:#000000; stroke-linecap:round; stroke-linejoin:round; stroke-width:4; stroke-opacity:1; fill:none" points="
  237.419,192.47 256.317,192.47 
  "/>
<path clip-path="url(#clip100)" d="M177.475 794.278 Q173.864 794.278 172.035 797.843 Q170.23 801.384 170.23 808.514 Q170.23 815.62 172.035 819.185 Q173.864 822.727 177.475 822.727 Q181.109 822.727 182.915 819.185 Q184.743 815.62 184.743 808.514 Q184.743 801.384 182.915 797.843 Q181.109 794.278 177.475 794.278 M177.475 790.574 Q183.285 790.574 186.341 795.181 Q189.419 799.764 189.419 808.514 Q189.419 817.241 186.341 821.847 Q183.285 826.43 177.475 826.43 Q171.665 826.43 168.586 821.847 Q165.531 817.241 165.531 808.514 Q165.531 799.764 168.586 795.181 Q171.665 790.574 177.475 790.574 Z" fill="#000000" fill-rule="evenodd" fill-opacity="1" /><path clip-path="url(#clip100)" d="M138.123 616.488 L145.762 616.488 L145.762 590.122 L137.452 591.789 L137.452 587.529 L145.716 585.863 L150.392 585.863 L150.392 616.488 L158.031 616.488 L158.031 620.423 L138.123 620.423 L138.123 616.488 Z" fill="#000000" fill-rule="evenodd" fill-opacity="1" /><path clip-path="url(#clip100)" d="M177.475 588.941 Q173.864 588.941 172.035 592.506 Q170.23 596.048 170.23 603.177 Q170.23 610.284 172.035 613.849 Q173.864 617.39 177.475 617.39 Q181.109 617.39 182.915 613.849 Q184.743 610.284 184.743 603.177 Q184.743 596.048 182.915 592.506 Q181.109 588.941 177.475 588.941 M177.475 585.238 Q183.285 585.238 186.341 589.844 Q189.419 594.427 189.419 603.177 Q189.419 611.904 186.341 616.511 Q183.285 621.094 177.475 621.094 Q171.665 621.094 168.586 616.511 Q165.531 611.904 165.531 603.177 Q165.531 594.427 168.586 589.844 Q171.665 585.238 177.475 585.238 Z" fill="#000000" fill-rule="evenodd" fill-opacity="1" /><path clip-path="url(#clip100)" d="M141.341 411.151 L157.66 411.151 L157.66 415.086 L135.716 415.086 L135.716 411.151 Q138.378 408.397 142.961 403.767 Q147.568 399.114 148.748 397.772 Q150.994 395.249 151.873 393.512 Q152.776 391.753 152.776 390.063 Q152.776 387.309 150.832 385.573 Q148.91 383.837 145.808 383.837 Q143.609 383.837 141.156 384.6 Q138.725 385.364 135.947 386.915 L135.947 382.193 Q138.771 381.059 141.225 380.48 Q143.679 379.901 145.716 379.901 Q151.086 379.901 154.281 382.587 Q157.475 385.272 157.475 389.762 Q157.475 391.892 156.665 393.813 Q155.878 395.711 153.771 398.304 Q153.193 398.975 150.091 402.193 Q146.989 405.387 141.341 411.151 Z" fill="#000000" fill-rule="evenodd" fill-opacity="1" /><path clip-path="url(#clip100)" d="M177.475 383.605 Q173.864 383.605 172.035 387.17 Q170.23 390.711 170.23 397.841 Q170.23 404.948 172.035 408.512 Q173.864 412.054 177.475 412.054 Q181.109 412.054 182.915 408.512 Q184.743 404.948 184.743 397.841 Q184.743 390.711 182.915 387.17 Q181.109 383.605 177.475 383.605 M177.475 379.901 Q183.285 379.901 186.341 384.508 Q189.419 389.091 189.419 397.841 Q189.419 406.568 186.341 411.174 Q183.285 415.758 177.475 415.758 Q171.665 415.758 168.586 411.174 Q165.531 406.568 165.531 397.841 Q165.531 389.091 168.586 384.508 Q171.665 379.901 177.475 379.901 Z" fill="#000000" fill-rule="evenodd" fill-opacity="1" /><path clip-path="url(#clip100)" d="M151.48 191.116 Q154.836 191.833 156.711 194.102 Q158.609 196.37 158.609 199.704 Q158.609 204.819 155.091 207.62 Q151.572 210.421 145.091 210.421 Q142.915 210.421 140.6 209.981 Q138.309 209.565 135.855 208.708 L135.855 204.194 Q137.799 205.329 140.114 205.907 Q142.429 206.486 144.952 206.486 Q149.35 206.486 151.642 204.75 Q153.957 203.014 153.957 199.704 Q153.957 196.648 151.804 194.935 Q149.674 193.199 145.855 193.199 L141.827 193.199 L141.827 189.357 L146.04 189.357 Q149.489 189.357 151.318 187.991 Q153.146 186.602 153.146 184.009 Q153.146 181.347 151.248 179.935 Q149.373 178.5 145.855 178.5 Q143.933 178.5 141.734 178.917 Q139.535 179.334 136.896 180.213 L136.896 176.046 Q139.559 175.306 141.873 174.935 Q144.211 174.565 146.271 174.565 Q151.595 174.565 154.697 176.996 Q157.799 179.403 157.799 183.523 Q157.799 186.394 156.156 188.384 Q154.512 190.352 151.48 191.116 Z" fill="#000000" fill-rule="evenodd" fill-opacity="1" /><path clip-path="url(#clip100)" d="M177.475 178.269 Q173.864 178.269 172.035 181.833 Q170.23 185.375 170.23 192.505 Q170.23 199.611 172.035 203.176 Q173.864 206.718 177.475 206.718 Q181.109 206.718 182.915 203.176 Q184.743 199.611 184.743 192.505 Q184.743 185.375 182.915 181.833 Q181.109 178.269 177.475 178.269 M177.475 174.565 Q183.285 174.565 186.341 179.171 Q189.419 183.755 189.419 192.505 Q189.419 201.232 186.341 205.838 Q183.285 210.421 177.475 210.421 Q171.665 210.421 168.586 205.838 Q165.531 201.232 165.531 192.505 Q165.531 183.755 168.586 179.171 Q171.665 174.565 177.475 174.565 Z" fill="#000000" fill-rule="evenodd" fill-opacity="1" /><path clip-path="url(#clip100)" d="M37.812 641.103 L55.1585 653.993 L73.4599 640.434 L73.4599 647.341 L59.4554 657.717 L73.4599 668.093 L73.4599 675 L54.8084 661.155 L37.812 673.823 L37.812 666.916 L50.5116 657.463 L37.812 648.01 L37.812 641.103 Z" fill="#000000" fill-rule="evenodd" fill-opacity="1" /><path clip-path="url(#clip100)" d="M31.2235 604.755 L49.0793 604.755 L49.0793 596.67 Q49.0793 592.182 46.7558 589.732 Q44.4323 587.281 40.1355 587.281 Q35.8704 587.281 33.547 589.732 Q31.2235 592.182 31.2235 596.67 L31.2235 604.755 M25.9399 611.184 L25.9399 596.67 Q25.9399 588.681 29.5684 584.607 Q33.165 580.501 40.1355 580.501 Q47.1696 580.501 50.7662 584.607 Q54.3628 588.681 54.3628 596.67 L54.3628 604.755 L73.4599 604.755 L73.4599 611.184 L25.9399 611.184 Z" fill="#000000" fill-rule="evenodd" fill-opacity="1" /><path clip-path="url(#clip100)" d="M41.9179 560.64 Q41.9179 565.351 45.61 568.088 Q49.2702 570.825 55.6678 570.825 Q62.0653 570.825 65.7574 568.12 Q69.4177 565.383 69.4177 560.64 Q69.4177 555.962 65.7256 553.224 Q62.0335 550.487 55.6678 550.487 Q49.3339 550.487 45.6418 553.224 Q41.9179 555.962 41.9179 560.64 M36.9526 560.64 Q36.9526 553.001 41.9179 548.641 Q46.8831 544.28 55.6678 544.28 Q64.4206 544.28 69.4177 548.641 Q74.383 553.001 74.383 560.64 Q74.383 568.311 69.4177 572.671 Q64.4206 577 55.6678 577 Q46.8831 577 41.9179 572.671 Q36.9526 568.311 36.9526 560.64 Z" fill="#000000" fill-rule="evenodd" fill-opacity="1" /><path clip-path="url(#clip100)" d="M38.8623 511.847 L44.4005 511.847 Q43.1273 514.33 42.4908 517.003 Q41.8542 519.677 41.8542 522.542 Q41.8542 526.902 43.191 529.098 Q44.5278 531.263 47.2014 531.263 Q49.2384 531.263 50.4161 529.703 Q51.5619 528.143 52.6122 523.433 L53.0578 521.428 Q54.3946 515.189 56.8454 512.579 Q59.2644 509.937 63.6249 509.937 Q68.5902 509.937 71.4866 513.884 Q74.383 517.799 74.383 524.674 Q74.383 527.539 73.81 530.658 Q73.269 533.745 72.155 537.183 L66.1075 537.183 Q67.7945 533.936 68.6538 530.785 Q69.4814 527.634 69.4814 524.547 Q69.4814 520.409 68.0809 518.181 Q66.6486 515.953 64.0705 515.953 Q61.6834 515.953 60.4102 517.576 Q59.1371 519.168 57.9594 524.61 L57.482 526.647 Q56.3362 532.09 53.9809 534.509 Q51.5937 536.928 47.456 536.928 Q42.4271 536.928 39.6899 533.363 Q36.9526 529.798 36.9526 523.242 Q36.9526 519.995 37.43 517.131 Q37.9075 514.266 38.8623 511.847 Z" fill="#000000" fill-rule="evenodd" fill-opacity="1" /><path clip-path="url(#clip100)" d="M37.812 500.612 L37.812 494.755 L73.4599 494.755 L73.4599 500.612 L37.812 500.612 M23.9347 500.612 L23.9347 494.755 L31.3508 494.755 L31.3508 500.612 L23.9347 500.612 Z" fill="#000000" fill-rule="evenodd" fill-opacity="1" /><path clip-path="url(#clip100)" d="M27.6905 476.708 L37.812 476.708 L37.812 464.645 L42.3635 464.645 L42.3635 476.708 L61.7152 476.708 Q66.0757 476.708 67.317 475.531 Q68.5583 474.321 68.5583 470.661 L68.5583 464.645 L73.4599 464.645 L73.4599 470.661 Q73.4599 477.441 70.9455 480.019 Q68.3992 482.597 61.7152 482.597 L42.3635 482.597 L42.3635 486.894 L37.812 486.894 L37.812 482.597 L27.6905 482.597 L27.6905 476.708 Z" fill="#000000" fill-rule="evenodd" fill-opacity="1" /><path clip-path="url(#clip100)" d="M37.812 456.943 L37.812 451.086 L73.4599 451.086 L73.4599 456.943 L37.812 456.943 M23.9347 456.943 L23.9347 451.086 L31.3508 451.086 L31.3508 456.943 L23.9347 456.943 Z" fill="#000000" fill-rule="evenodd" fill-opacity="1" /><path clip-path="url(#clip100)" d="M41.9179 425.019 Q41.9179 429.73 45.61 432.467 Q49.2702 435.204 55.6678 435.204 Q62.0653 435.204 65.7574 432.499 Q69.4177 429.761 69.4177 425.019 Q69.4177 420.34 65.7256 417.603 Q62.0335 414.866 55.6678 414.866 Q49.3339 414.866 45.6418 417.603 Q41.9179 420.34 41.9179 425.019 M36.9526 425.019 Q36.9526 417.38 41.9179 413.02 Q46.8831 408.659 55.6678 408.659 Q64.4206 408.659 69.4177 413.02 Q74.383 417.38 74.383 425.019 Q74.383 432.69 69.4177 437.05 Q64.4206 441.379 55.6678 441.379 Q46.8831 441.379 41.9179 437.05 Q36.9526 432.69 36.9526 425.019 Z" fill="#000000" fill-rule="evenodd" fill-opacity="1" /><path clip-path="url(#clip100)" d="M51.9438 369.319 L73.4599 369.319 L73.4599 375.175 L52.1348 375.175 Q47.0741 375.175 44.5596 377.149 Q42.0452 379.122 42.0452 383.069 Q42.0452 387.811 45.0689 390.549 Q48.0926 393.286 53.3125 393.286 L73.4599 393.286 L73.4599 399.174 L37.812 399.174 L37.812 393.286 L43.3501 393.286 Q40.1355 391.185 38.544 388.352 Q36.9526 385.488 36.9526 381.764 Q36.9526 375.621 40.772 372.47 Q44.5596 369.319 51.9438 369.319 Z" fill="#000000" fill-rule="evenodd" fill-opacity="1" /><path clip-path="url(#clip100)" d="M23.9984 322.849 Q31.319 327.114 38.4804 329.183 Q45.6418 331.252 52.9942 331.252 Q60.3466 331.252 67.5717 329.183 Q74.7649 327.083 82.0536 322.849 L82.0536 327.942 Q74.5739 332.716 67.3489 335.103 Q60.1238 337.459 52.9942 337.459 Q45.8964 337.459 38.7032 335.103 Q31.5099 332.748 23.9984 327.942 L23.9984 322.849 Z" fill="#000000" fill-rule="evenodd" fill-opacity="1" /><path clip-path="url(#clip100)" d="M23.9347 311.709 L23.9347 305.821 L53.1852 305.821 L37.812 288.347 L37.812 280.867 L54.4901 299.774 L73.4599 280.072 L73.4599 287.711 L56.0497 305.821 L73.4599 305.821 L73.4599 311.709 L23.9347 311.709 Z" fill="#000000" fill-rule="evenodd" fill-opacity="1" /><path clip-path="url(#clip100)" d="M44.6551 245.983 Q40.7084 243.787 38.8305 240.732 Q36.9526 237.676 36.9526 233.538 Q36.9526 227.968 40.8675 224.945 Q44.7506 221.921 51.9438 221.921 L73.4599 221.921 L73.4599 227.809 L52.1348 227.809 Q47.0104 227.809 44.5278 229.624 Q42.0452 231.438 42.0452 235.162 Q42.0452 239.713 45.0689 242.355 Q48.0926 244.997 53.3125 244.997 L73.4599 244.997 L73.4599 250.885 L52.1348 250.885 Q46.9786 250.885 44.5278 252.699 Q42.0452 254.513 42.0452 258.301 Q42.0452 262.789 45.1007 265.431 Q48.1244 268.072 53.3125 268.072 L73.4599 268.072 L73.4599 273.961 L37.812 273.961 L37.812 268.072 L43.3501 268.072 Q40.0718 266.067 38.5122 263.266 Q36.9526 260.465 36.9526 256.614 Q36.9526 252.731 38.926 250.026 Q40.8993 247.288 44.6551 245.983 Z" fill="#000000" fill-rule="evenodd" fill-opacity="1" /><path clip-path="url(#clip100)" d="M23.9984 211.163 L23.9984 206.07 Q31.5099 201.296 38.7032 198.941 Q45.8964 196.554 52.9942 196.554 Q60.1238 196.554 67.3489 198.941 Q74.5739 201.296 82.0536 206.07 L82.0536 211.163 Q74.7649 206.93 67.5717 204.861 Q60.3466 202.76 52.9942 202.76 Q45.6418 202.76 38.4804 204.861 Q31.319 206.93 23.9984 211.163 Z" fill="#000000" fill-rule="evenodd" fill-opacity="1" /><polyline clip-path="url(#clip102)" style="stroke:#009af9; stroke-linecap:round; stroke-linejoin:round; stroke-width:4; stroke-opacity:1; fill:none" points="
  319.929,802.11 343.041,796.243 366.153,790.27 389.265,783.878 412.377,777.735 435.488,771.639 458.6,765.438 481.712,759.283 504.824,753.11 527.936,746.963 
  551.048,740.775 574.16,734.527 597.272,728.379 620.384,722.203 643.496,716.06 666.608,709.898 689.719,703.718 712.831,697.546 735.943,691.421 759.055,685.252 
  782.167,679.113 805.279,672.944 828.391,666.765 851.503,660.629 874.615,654.456 897.727,648.319 920.839,642.173 943.95,635.98 967.062,629.763 990.174,623.614 
  1013.29,617.446 1036.4,611.323 1059.51,605.189 1082.62,599.031 1105.73,592.866 1128.85,586.746 1151.96,580.614 1175.07,574.44 1198.18,568.29 1221.29,562.091 
  1244.41,555.879 1267.52,549.721 1290.63,543.582 1313.74,537.443 1336.85,531.241 1359.96,525.095 1383.08,518.906 1406.19,512.778 1429.3,506.643 1452.41,500.494 
  1475.52,494.34 1498.64,488.204 1521.75,482.025 1544.86,475.855 1567.97,469.678 1591.08,463.499 1614.2,457.3 1637.31,451.203 1660.42,445.046 1683.53,438.859 
  1706.64,432.682 1729.76,426.522 1752.87,420.387 1775.98,414.25 1799.09,408.045 1822.2,401.884 1845.32,395.711 1868.43,389.527 1891.54,383.366 1914.65,377.185 
  1937.76,370.995 1960.87,364.842 1983.99,358.752 2007.1,352.632 2030.21,346.508 2053.32,340.375 2076.43,334.188 2099.55,328.03 2122.66,321.836 2145.77,315.668 
  2168.88,309.545 2191.99,303.388 2215.11,297.231 2238.22,291.052 2261.33,284.87 2284.44,278.764 2307.55,272.555 2330.67,266.39 2353.78,260.213 2376.89,254.054 
  2400,247.856 2423.11,241.685 2446.22,235.536 2469.34,229.388 2492.45,223.203 2515.56,217.078 2538.67,210.879 2561.78,204.718 2584.9,198.595 2608.01,192.374 
  2631.12,186.227 2654.23,180.058 2677.34,173.872 2700.46,167.755 2723.57,161.557 2746.68,155.373 2769.79,149.194 2792.9,143.051 2816.02,136.904 2839.13,130.719 
  2862.24,124.586 2885.35,118.494 2908.46,112.371 2931.57,106.215 2954.69,100.053 2977.8,93.9264 3000.91,87.7688 3024.02,81.6011 3047.13,75.4014 3070.25,69.2365 
  
  "/>
<polyline clip-path="url(#clip102)" style="stroke:#e26f46; stroke-linecap:round; stroke-linejoin:round; stroke-width:4; stroke-opacity:1; fill:none" stroke-dasharray="16, 10" points="
  319.929,802.317 343.041,796.157 366.153,789.995 389.265,783.836 412.377,777.676 435.488,771.516 458.6,765.356 481.712,759.194 504.824,753.036 527.936,746.874 
  551.048,740.715 574.16,734.555 597.272,728.395 620.384,722.237 643.496,716.075 666.608,709.914 689.719,703.751 712.831,697.59 735.943,691.432 759.055,685.271 
  782.167,679.112 805.279,672.953 828.391,666.792 851.503,660.633 874.615,654.474 897.727,648.316 920.839,642.155 943.95,635.994 967.062,629.833 990.174,623.673 
  1013.29,617.513 1036.4,611.351 1059.51,605.192 1082.62,599.031 1105.73,592.869 1128.85,586.709 1151.96,580.549 1175.07,574.386 1198.18,568.226 1221.29,562.068 
  1244.41,555.906 1267.52,549.744 1290.63,543.585 1313.74,537.425 1336.85,531.265 1359.96,525.106 1383.08,518.945 1406.19,512.785 1429.3,506.625 1452.41,500.464 
  1475.52,494.304 1498.64,488.146 1521.75,481.984 1544.86,475.825 1567.97,469.665 1591.08,463.505 1614.2,457.345 1637.31,451.182 1660.42,445.023 1683.53,438.862 
  1706.64,432.7 1729.76,426.538 1752.87,420.38 1775.98,414.221 1799.09,408.058 1822.2,401.896 1845.32,395.735 1868.43,389.575 1891.54,383.414 1914.65,377.254 
  1937.76,371.094 1960.87,364.933 1983.99,358.773 2007.1,352.616 2030.21,346.454 2053.32,340.293 2076.43,334.132 2099.55,327.972 2122.66,321.813 2145.77,315.653 
  2168.88,309.493 2191.99,303.335 2215.11,297.176 2238.22,291.016 2261.33,284.856 2284.44,278.696 2307.55,272.536 2330.67,266.378 2353.78,260.216 2376.89,254.056 
  2400,247.894 2423.11,241.735 2446.22,235.574 2469.34,229.416 2492.45,223.256 2515.56,217.098 2538.67,210.939 2561.78,204.78 2584.9,198.618 2608.01,192.456 
  2631.12,186.295 2654.23,180.133 2677.34,173.972 2700.46,167.813 2723.57,161.655 2746.68,155.495 2769.79,149.336 2792.9,143.175 2816.02,137.014 2839.13,130.852 
  2862.24,124.692 2885.35,118.53 2908.46,112.369 2931.57,106.207 2954.69,100.047 2977.8,93.8868 3000.91,87.7286 3024.02,81.5681 3047.13,75.4081 3070.25,69.2472 
  
  "/>
<path clip-path="url(#clip100)" d="
M2363.3 798.408 L3055.58 798.408 L3055.58 642.888 L2363.3 642.888  Z
  " fill="#ffffff" fill-rule="evenodd" fill-opacity="1"/>
<polyline clip-path="url(#clip100)" style="stroke:#000000; stroke-linecap:round; stroke-linejoin:round; stroke-width:4; stroke-opacity:1; fill:none" points="
  2363.3,798.408 3055.58,798.408 3055.58,642.888 2363.3,642.888 2363.3,798.408 
  "/>
<polyline clip-path="url(#clip100)" style="stroke:#009af9; stroke-linecap:round; stroke-linejoin:round; stroke-width:4; stroke-opacity:1; fill:none" points="
  2395.69,694.728 2590.05,694.728 
  "/>
<path clip-path="url(#clip100)" d="M2622.44 677.448 L2642.3 677.448 L2642.3 681.383 L2627.11 681.383 L2627.11 691.568 L2640.82 691.568 L2640.82 695.503 L2627.11 695.503 L2627.11 712.008 L2622.44 712.008 L2622.44 677.448 Z" fill="#000000" fill-rule="evenodd" fill-opacity="1" /><path clip-path="url(#clip100)" d="M2646.07 686.082 L2650.33 686.082 L2650.33 712.008 L2646.07 712.008 L2646.07 686.082 M2646.07 675.989 L2650.33 675.989 L2650.33 681.383 L2646.07 681.383 L2646.07 675.989 Z" fill="#000000" fill-rule="evenodd" fill-opacity="1" /><path clip-path="url(#clip100)" d="M2659.24 675.989 L2663.5 675.989 L2663.5 712.008 L2659.24 712.008 L2659.24 675.989 Z" fill="#000000" fill-rule="evenodd" fill-opacity="1" /><path clip-path="url(#clip100)" d="M2676.63 678.721 L2676.63 686.082 L2685.4 686.082 L2685.4 689.392 L2676.63 689.392 L2676.63 703.466 Q2676.63 706.637 2677.48 707.54 Q2678.36 708.443 2681.03 708.443 L2685.4 708.443 L2685.4 712.008 L2681.03 712.008 Q2676.1 712.008 2674.22 710.179 Q2672.35 708.327 2672.35 703.466 L2672.35 689.392 L2669.22 689.392 L2669.22 686.082 L2672.35 686.082 L2672.35 678.721 L2676.63 678.721 Z" fill="#000000" fill-rule="evenodd" fill-opacity="1" /><path clip-path="url(#clip100)" d="M2713.18 697.98 L2713.18 700.063 L2693.6 700.063 Q2693.87 704.461 2696.23 706.776 Q2698.62 709.068 2702.85 709.068 Q2705.31 709.068 2707.6 708.466 Q2709.91 707.864 2712.18 706.66 L2712.18 710.688 Q2709.89 711.66 2707.48 712.17 Q2705.08 712.679 2702.6 712.679 Q2696.4 712.679 2692.76 709.068 Q2689.15 705.457 2689.15 699.299 Q2689.15 692.934 2692.58 689.207 Q2696.03 685.457 2701.86 685.457 Q2707.09 685.457 2710.12 688.836 Q2713.18 692.193 2713.18 697.98 M2708.92 696.73 Q2708.87 693.235 2706.95 691.151 Q2705.05 689.068 2701.91 689.068 Q2698.34 689.068 2696.19 691.082 Q2694.06 693.096 2693.73 696.753 L2708.92 696.73 Z" fill="#000000" fill-rule="evenodd" fill-opacity="1" /><path clip-path="url(#clip100)" d="M2735.19 690.063 Q2734.47 689.647 2733.62 689.461 Q2732.78 689.253 2731.77 689.253 Q2728.16 689.253 2726.21 691.614 Q2724.29 693.952 2724.29 698.35 L2724.29 712.008 L2720.01 712.008 L2720.01 686.082 L2724.29 686.082 L2724.29 690.11 Q2725.63 687.749 2727.78 686.614 Q2729.94 685.457 2733.02 685.457 Q2733.46 685.457 2733.99 685.526 Q2734.52 685.573 2735.17 685.688 L2735.19 690.063 Z" fill="#000000" fill-rule="evenodd" fill-opacity="1" /><polyline clip-path="url(#clip100)" style="stroke:#e26f46; stroke-linecap:round; stroke-linejoin:round; stroke-width:4; stroke-opacity:1; fill:none" stroke-dasharray="16, 10" points="
  2395.69,746.568 2590.05,746.568 
  "/>
<path clip-path="url(#clip100)" d="M2638.27 733.894 L2631.93 751.093 L2644.64 751.093 L2638.27 733.894 M2635.63 729.288 L2640.93 729.288 L2654.1 763.848 L2649.24 763.848 L2646.1 754.982 L2630.52 754.982 L2627.37 763.848 L2622.44 763.848 L2635.63 729.288 Z" fill="#000000" fill-rule="evenodd" fill-opacity="1" /><path clip-path="url(#clip100)" d="M2658.97 737.922 L2663.23 737.922 L2663.23 763.848 L2658.97 763.848 L2658.97 737.922 M2658.97 727.829 L2663.23 727.829 L2663.23 733.223 L2658.97 733.223 L2658.97 727.829 Z" fill="#000000" fill-rule="evenodd" fill-opacity="1" /><path clip-path="url(#clip100)" d="M2687.16 741.903 Q2686.44 741.487 2685.59 741.301 Q2684.75 741.093 2683.73 741.093 Q2680.12 741.093 2678.18 743.454 Q2676.26 745.792 2676.26 750.19 L2676.26 763.848 L2671.98 763.848 L2671.98 737.922 L2676.26 737.922 L2676.26 741.95 Q2677.6 739.589 2679.75 738.454 Q2681.91 737.297 2684.98 737.297 Q2685.42 737.297 2685.96 737.366 Q2686.49 737.413 2687.14 737.528 L2687.16 741.903 Z" fill="#000000" fill-rule="evenodd" fill-opacity="1" /><path clip-path="url(#clip100)" d="M2709.24 738.917 L2709.24 742.899 Q2707.44 741.903 2705.61 741.417 Q2703.8 740.908 2701.95 740.908 Q2697.81 740.908 2695.52 743.547 Q2693.22 746.163 2693.22 750.908 Q2693.22 755.653 2695.52 758.292 Q2697.81 760.908 2701.95 760.908 Q2703.8 760.908 2705.61 760.422 Q2707.44 759.912 2709.24 758.917 L2709.24 762.852 Q2707.46 763.686 2705.54 764.102 Q2703.64 764.519 2701.49 764.519 Q2695.63 764.519 2692.18 760.838 Q2688.73 757.158 2688.73 750.908 Q2688.73 744.565 2692.21 740.931 Q2695.7 737.297 2701.77 737.297 Q2703.73 737.297 2705.61 737.714 Q2707.48 738.107 2709.24 738.917 Z" fill="#000000" fill-rule="evenodd" fill-opacity="1" /><path clip-path="url(#clip100)" d="M2731.67 741.903 Q2730.96 741.487 2730.1 741.301 Q2729.27 741.093 2728.25 741.093 Q2724.64 741.093 2722.69 743.454 Q2720.77 745.792 2720.77 750.19 L2720.77 763.848 L2716.49 763.848 L2716.49 737.922 L2720.77 737.922 L2720.77 741.95 Q2722.11 739.589 2724.27 738.454 Q2726.42 737.297 2729.5 737.297 Q2729.94 737.297 2730.47 737.366 Q2731 737.413 2731.65 737.528 L2731.67 741.903 Z" fill="#000000" fill-rule="evenodd" fill-opacity="1" /><path clip-path="url(#clip100)" d="M2747.92 750.815 Q2742.76 750.815 2740.77 751.996 Q2738.78 753.176 2738.78 756.024 Q2738.78 758.292 2740.26 759.635 Q2741.77 760.954 2744.34 760.954 Q2747.88 760.954 2750.01 758.454 Q2752.16 755.931 2752.16 751.764 L2752.16 750.815 L2747.92 750.815 M2756.42 749.056 L2756.42 763.848 L2752.16 763.848 L2752.16 759.912 Q2750.7 762.274 2748.53 763.408 Q2746.35 764.519 2743.2 764.519 Q2739.22 764.519 2736.86 762.297 Q2734.52 760.051 2734.52 756.301 Q2734.52 751.926 2737.44 749.704 Q2740.38 747.482 2746.19 747.482 L2752.16 747.482 L2752.16 747.065 Q2752.16 744.126 2750.22 742.528 Q2748.29 740.908 2744.8 740.908 Q2742.58 740.908 2740.47 741.44 Q2738.36 741.973 2736.42 743.038 L2736.42 739.102 Q2738.76 738.2 2740.96 737.76 Q2743.16 737.297 2745.24 737.297 Q2750.86 737.297 2753.64 740.214 Q2756.42 743.13 2756.42 749.056 Z" fill="#000000" fill-rule="evenodd" fill-opacity="1" /><path clip-path="url(#clip100)" d="M2778.32 727.829 L2778.32 731.371 L2774.24 731.371 Q2771.95 731.371 2771.05 732.297 Q2770.17 733.223 2770.17 735.63 L2770.17 737.922 L2777.18 737.922 L2777.18 741.232 L2770.17 741.232 L2770.17 763.848 L2765.89 763.848 L2765.89 741.232 L2761.81 741.232 L2761.81 737.922 L2765.89 737.922 L2765.89 736.116 Q2765.89 731.788 2767.9 729.82 Q2769.91 727.829 2774.29 727.829 L2778.32 727.829 Z" fill="#000000" fill-rule="evenodd" fill-opacity="1" /><path clip-path="url(#clip100)" d="M2785.26 730.561 L2785.26 737.922 L2794.03 737.922 L2794.03 741.232 L2785.26 741.232 L2785.26 755.306 Q2785.26 758.477 2786.12 759.38 Q2787 760.283 2789.66 760.283 L2794.03 760.283 L2794.03 763.848 L2789.66 763.848 Q2784.73 763.848 2782.85 762.019 Q2780.98 760.167 2780.98 755.306 L2780.98 741.232 L2777.85 741.232 L2777.85 737.922 L2780.98 737.922 L2780.98 730.561 L2785.26 730.561 Z" fill="#000000" fill-rule="evenodd" fill-opacity="1" /><path clip-path="url(#clip100)" d="M2819.57 733.13 L2819.57 746.116 L2825.45 746.116 Q2828.71 746.116 2830.49 744.426 Q2832.28 742.737 2832.28 739.612 Q2832.28 736.51 2830.49 734.82 Q2828.71 733.13 2825.45 733.13 L2819.57 733.13 M2814.89 729.288 L2825.45 729.288 Q2831.26 729.288 2834.22 731.927 Q2837.21 734.542 2837.21 739.612 Q2837.21 744.727 2834.22 747.343 Q2831.26 749.959 2825.45 749.959 L2819.57 749.959 L2819.57 763.848 L2814.89 763.848 L2814.89 729.288 Z" fill="#000000" fill-rule="evenodd" fill-opacity="1" /><path clip-path="url(#clip100)" d="M2851.65 740.908 Q2848.22 740.908 2846.23 743.593 Q2844.24 746.255 2844.24 750.908 Q2844.24 755.561 2846.21 758.246 Q2848.2 760.908 2851.65 760.908 Q2855.05 760.908 2857.04 758.223 Q2859.03 755.538 2859.03 750.908 Q2859.03 746.301 2857.04 743.616 Q2855.05 740.908 2851.65 740.908 M2851.65 737.297 Q2857.21 737.297 2860.38 740.908 Q2863.55 744.519 2863.55 750.908 Q2863.55 757.274 2860.38 760.908 Q2857.21 764.519 2851.65 764.519 Q2846.07 764.519 2842.9 760.908 Q2839.75 757.274 2839.75 750.908 Q2839.75 744.519 2842.9 740.908 Q2846.07 737.297 2851.65 737.297 Z" fill="#000000" fill-rule="evenodd" fill-opacity="1" /><path clip-path="url(#clip100)" d="M2887.14 738.686 L2887.14 742.714 Q2885.33 741.788 2883.39 741.325 Q2881.44 740.862 2879.36 740.862 Q2876.19 740.862 2874.59 741.834 Q2873.02 742.806 2873.02 744.751 Q2873.02 746.232 2874.15 747.088 Q2875.28 747.922 2878.71 748.686 L2880.17 749.01 Q2884.71 749.982 2886.6 751.764 Q2888.52 753.524 2888.52 756.695 Q2888.52 760.306 2885.65 762.412 Q2882.81 764.519 2877.81 764.519 Q2875.72 764.519 2873.46 764.102 Q2871.21 763.709 2868.71 762.899 L2868.71 758.5 Q2871.07 759.727 2873.36 760.352 Q2875.65 760.954 2877.9 760.954 Q2880.91 760.954 2882.53 759.936 Q2884.15 758.894 2884.15 757.019 Q2884.15 755.283 2882.97 754.357 Q2881.81 753.431 2877.85 752.575 L2876.37 752.227 Q2872.41 751.394 2870.65 749.681 Q2868.9 747.945 2868.9 744.936 Q2868.9 741.278 2871.49 739.288 Q2874.08 737.297 2878.85 737.297 Q2881.21 737.297 2883.29 737.644 Q2885.38 737.991 2887.14 738.686 Z" fill="#000000" fill-rule="evenodd" fill-opacity="1" /><path clip-path="url(#clip100)" d="M2895.31 737.922 L2899.57 737.922 L2899.57 763.848 L2895.31 763.848 L2895.31 737.922 M2895.31 727.829 L2899.57 727.829 L2899.57 733.223 L2895.31 733.223 L2895.31 727.829 Z" fill="#000000" fill-rule="evenodd" fill-opacity="1" /><path clip-path="url(#clip100)" d="M2912.69 730.561 L2912.69 737.922 L2921.46 737.922 L2921.46 741.232 L2912.69 741.232 L2912.69 755.306 Q2912.69 758.477 2913.55 759.38 Q2914.43 760.283 2917.09 760.283 L2921.46 760.283 L2921.46 763.848 L2917.09 763.848 Q2912.16 763.848 2910.28 762.019 Q2908.41 760.167 2908.41 755.306 L2908.41 741.232 L2905.28 741.232 L2905.28 737.922 L2908.41 737.922 L2908.41 730.561 L2912.69 730.561 Z" fill="#000000" fill-rule="evenodd" fill-opacity="1" /><path clip-path="url(#clip100)" d="M2927.07 737.922 L2931.33 737.922 L2931.33 763.848 L2927.07 763.848 L2927.07 737.922 M2927.07 727.829 L2931.33 727.829 L2931.33 733.223 L2927.07 733.223 L2927.07 727.829 Z" fill="#000000" fill-rule="evenodd" fill-opacity="1" /><path clip-path="url(#clip100)" d="M2950.28 740.908 Q2946.86 740.908 2944.87 743.593 Q2942.88 746.255 2942.88 750.908 Q2942.88 755.561 2944.84 758.246 Q2946.83 760.908 2950.28 760.908 Q2953.69 760.908 2955.68 758.223 Q2957.67 755.538 2957.67 750.908 Q2957.67 746.301 2955.68 743.616 Q2953.69 740.908 2950.28 740.908 M2950.28 737.297 Q2955.84 737.297 2959.01 740.908 Q2962.18 744.519 2962.18 750.908 Q2962.18 757.274 2959.01 760.908 Q2955.84 764.519 2950.28 764.519 Q2944.71 764.519 2941.53 760.908 Q2938.39 757.274 2938.39 750.908 Q2938.39 744.519 2941.53 740.908 Q2944.71 737.297 2950.28 737.297 Z" fill="#000000" fill-rule="evenodd" fill-opacity="1" /><path clip-path="url(#clip100)" d="M2990.79 748.2 L2990.79 763.848 L2986.53 763.848 L2986.53 748.338 Q2986.53 744.658 2985.1 742.829 Q2983.66 741.001 2980.79 741.001 Q2977.34 741.001 2975.35 743.2 Q2973.36 745.399 2973.36 749.195 L2973.36 763.848 L2969.08 763.848 L2969.08 737.922 L2973.36 737.922 L2973.36 741.95 Q2974.89 739.612 2976.95 738.454 Q2979.03 737.297 2981.74 737.297 Q2986.21 737.297 2988.5 740.075 Q2990.79 742.829 2990.79 748.2 Z" fill="#000000" fill-rule="evenodd" fill-opacity="1" /><path clip-path="url(#clip100)" d="
M237.419 1824.31 L3152.76 1824.31 L3152.76 1047.24 L237.419 1047.24  Z
  " fill="#ffffff" fill-rule="evenodd" fill-opacity="1"/>
<defs>
  <clipPath id="clip103">
    <rect x="237" y="1047" width="2916" height="778"/>
  </clipPath>
</defs>
<polyline clip-path="url(#clip103)" style="stroke:#000000; stroke-linecap:round; stroke-linejoin:round; stroke-width:2; stroke-opacity:0.1; fill:none" points="
  296.817,1824.31 296.817,1047.24 
  "/>
<polyline clip-path="url(#clip103)" style="stroke:#000000; stroke-linecap:round; stroke-linejoin:round; stroke-width:2; stroke-opacity:0.1; fill:none" points="
  1067.21,1824.31 1067.21,1047.24 
  "/>
<polyline clip-path="url(#clip103)" style="stroke:#000000; stroke-linecap:round; stroke-linejoin:round; stroke-width:2; stroke-opacity:0.1; fill:none" points="
  1837.61,1824.31 1837.61,1047.24 
  "/>
<polyline clip-path="url(#clip103)" style="stroke:#000000; stroke-linecap:round; stroke-linejoin:round; stroke-width:2; stroke-opacity:0.1; fill:none" points="
  2608.01,1824.31 2608.01,1047.24 
  "/>
<polyline clip-path="url(#clip100)" style="stroke:#000000; stroke-linecap:round; stroke-linejoin:round; stroke-width:4; stroke-opacity:1; fill:none" points="
  237.419,1824.31 3152.76,1824.31 
  "/>
<polyline clip-path="url(#clip100)" style="stroke:#000000; stroke-linecap:round; stroke-linejoin:round; stroke-width:4; stroke-opacity:1; fill:none" points="
  296.817,1824.31 296.817,1805.41 
  "/>
<polyline clip-path="url(#clip100)" style="stroke:#000000; stroke-linecap:round; stroke-linejoin:round; stroke-width:4; stroke-opacity:1; fill:none" points="
  1067.21,1824.31 1067.21,1805.41 
  "/>
<polyline clip-path="url(#clip100)" style="stroke:#000000; stroke-linecap:round; stroke-linejoin:round; stroke-width:4; stroke-opacity:1; fill:none" points="
  1837.61,1824.31 1837.61,1805.41 
  "/>
<polyline clip-path="url(#clip100)" style="stroke:#000000; stroke-linecap:round; stroke-linejoin:round; stroke-width:4; stroke-opacity:1; fill:none" points="
  2608.01,1824.31 2608.01,1805.41 
  "/>
<path clip-path="url(#clip100)" d="M296.817 1861.63 Q293.206 1861.63 291.377 1865.19 Q289.572 1868.73 289.572 1875.86 Q289.572 1882.97 291.377 1886.54 Q293.206 1890.08 296.817 1890.08 Q300.451 1890.08 302.257 1886.54 Q304.085 1882.97 304.085 1875.86 Q304.085 1868.73 302.257 1865.19 Q300.451 1861.63 296.817 1861.63 M296.817 1857.92 Q302.627 1857.92 305.683 1862.53 Q308.761 1867.11 308.761 1875.86 Q308.761 1884.59 305.683 1889.2 Q302.627 1893.78 296.817 1893.78 Q291.007 1893.78 287.928 1889.2 Q284.873 1884.59 284.873 1875.86 Q284.873 1867.11 287.928 1862.53 Q291.007 1857.92 296.817 1857.92 Z" fill="#000000" fill-rule="evenodd" fill-opacity="1" /><path clip-path="url(#clip100)" d="M1026.82 1889.17 L1034.46 1889.17 L1034.46 1862.81 L1026.15 1864.48 L1026.15 1860.22 L1034.41 1858.55 L1039.09 1858.55 L1039.09 1889.17 L1046.73 1889.17 L1046.73 1893.11 L1026.82 1893.11 L1026.82 1889.17 Z" fill="#000000" fill-rule="evenodd" fill-opacity="1" /><path clip-path="url(#clip100)" d="M1066.17 1861.63 Q1062.56 1861.63 1060.73 1865.19 Q1058.93 1868.73 1058.93 1875.86 Q1058.93 1882.97 1060.73 1886.54 Q1062.56 1890.08 1066.17 1890.08 Q1069.81 1890.08 1071.61 1886.54 Q1073.44 1882.97 1073.44 1875.86 Q1073.44 1868.73 1071.61 1865.19 Q1069.81 1861.63 1066.17 1861.63 M1066.17 1857.92 Q1071.98 1857.92 1075.04 1862.53 Q1078.12 1867.11 1078.12 1875.86 Q1078.12 1884.59 1075.04 1889.2 Q1071.98 1893.78 1066.17 1893.78 Q1060.36 1893.78 1057.28 1889.2 Q1054.23 1884.59 1054.23 1875.86 Q1054.23 1867.11 1057.28 1862.53 Q1060.36 1857.92 1066.17 1857.92 Z" fill="#000000" fill-rule="evenodd" fill-opacity="1" /><path clip-path="url(#clip100)" d="M1096.33 1861.63 Q1092.72 1861.63 1090.89 1865.19 Q1089.09 1868.73 1089.09 1875.86 Q1089.09 1882.97 1090.89 1886.54 Q1092.72 1890.08 1096.33 1890.08 Q1099.97 1890.08 1101.77 1886.54 Q1103.6 1882.97 1103.6 1875.86 Q1103.6 1868.73 1101.77 1865.19 Q1099.97 1861.63 1096.33 1861.63 M1096.33 1857.92 Q1102.14 1857.92 1105.2 1862.53 Q1108.28 1867.11 1108.28 1875.86 Q1108.28 1884.59 1105.2 1889.2 Q1102.14 1893.78 1096.33 1893.78 Q1090.52 1893.78 1087.45 1889.2 Q1084.39 1884.59 1084.39 1875.86 Q1084.39 1867.11 1087.45 1862.53 Q1090.52 1857.92 1096.33 1857.92 Z" fill="#000000" fill-rule="evenodd" fill-opacity="1" /><path clip-path="url(#clip100)" d="M1801.3 1889.17 L1817.62 1889.17 L1817.62 1893.11 L1795.68 1893.11 L1795.68 1889.17 Q1798.34 1886.42 1802.92 1881.79 Q1807.53 1877.14 1808.71 1875.8 Q1810.96 1873.27 1811.84 1871.54 Q1812.74 1869.78 1812.74 1868.09 Q1812.74 1865.33 1810.79 1863.6 Q1808.87 1861.86 1805.77 1861.86 Q1803.57 1861.86 1801.12 1862.62 Q1798.69 1863.39 1795.91 1864.94 L1795.91 1860.22 Q1798.73 1859.08 1801.19 1858.5 Q1803.64 1857.92 1805.68 1857.92 Q1811.05 1857.92 1814.24 1860.61 Q1817.44 1863.3 1817.44 1867.79 Q1817.44 1869.92 1816.63 1871.84 Q1815.84 1873.73 1813.73 1876.33 Q1813.16 1877 1810.05 1880.22 Q1806.95 1883.41 1801.3 1889.17 Z" fill="#000000" fill-rule="evenodd" fill-opacity="1" /><path clip-path="url(#clip100)" d="M1837.44 1861.63 Q1833.83 1861.63 1832 1865.19 Q1830.19 1868.73 1830.19 1875.86 Q1830.19 1882.97 1832 1886.54 Q1833.83 1890.08 1837.44 1890.08 Q1841.07 1890.08 1842.88 1886.54 Q1844.71 1882.97 1844.71 1875.86 Q1844.71 1868.73 1842.88 1865.19 Q1841.07 1861.63 1837.44 1861.63 M1837.44 1857.92 Q1843.25 1857.92 1846.3 1862.53 Q1849.38 1867.11 1849.38 1875.86 Q1849.38 1884.59 1846.3 1889.2 Q1843.25 1893.78 1837.44 1893.78 Q1831.63 1893.78 1828.55 1889.2 Q1825.49 1884.59 1825.49 1875.86 Q1825.49 1867.11 1828.55 1862.53 Q1831.63 1857.92 1837.44 1857.92 Z" fill="#000000" fill-rule="evenodd" fill-opacity="1" /><path clip-path="url(#clip100)" d="M1867.6 1861.63 Q1863.99 1861.63 1862.16 1865.19 Q1860.35 1868.73 1860.35 1875.86 Q1860.35 1882.97 1862.16 1886.54 Q1863.99 1890.08 1867.6 1890.08 Q1871.23 1890.08 1873.04 1886.54 Q1874.87 1882.97 1874.87 1875.86 Q1874.87 1868.73 1873.04 1865.19 Q1871.23 1861.63 1867.6 1861.63 M1867.6 1857.92 Q1873.41 1857.92 1876.47 1862.53 Q1879.54 1867.11 1879.54 1875.86 Q1879.54 1884.59 1876.47 1889.2 Q1873.41 1893.78 1867.6 1893.78 Q1861.79 1893.78 1858.71 1889.2 Q1855.65 1884.59 1855.65 1875.86 Q1855.65 1867.11 1858.71 1862.53 Q1861.79 1857.92 1867.6 1857.92 Z" fill="#000000" fill-rule="evenodd" fill-opacity="1" /><path clip-path="url(#clip100)" d="M2581.77 1874.48 Q2585.13 1875.19 2587 1877.46 Q2588.9 1879.73 2588.9 1883.06 Q2588.9 1888.18 2585.38 1890.98 Q2581.86 1893.78 2575.38 1893.78 Q2573.21 1893.78 2570.89 1893.34 Q2568.6 1892.92 2566.14 1892.07 L2566.14 1887.55 Q2568.09 1888.69 2570.4 1889.27 Q2572.72 1889.85 2575.24 1889.85 Q2579.64 1889.85 2581.93 1888.11 Q2584.25 1886.37 2584.25 1883.06 Q2584.25 1880.01 2582.09 1878.3 Q2579.96 1876.56 2576.14 1876.56 L2572.12 1876.56 L2572.12 1872.72 L2576.33 1872.72 Q2579.78 1872.72 2581.61 1871.35 Q2583.44 1869.96 2583.44 1867.37 Q2583.44 1864.71 2581.54 1863.3 Q2579.66 1861.86 2576.14 1861.86 Q2574.22 1861.86 2572.02 1862.28 Q2569.83 1862.69 2567.19 1863.57 L2567.19 1859.41 Q2569.85 1858.67 2572.16 1858.3 Q2574.5 1857.92 2576.56 1857.92 Q2581.89 1857.92 2584.99 1860.36 Q2588.09 1862.76 2588.09 1866.88 Q2588.09 1869.75 2586.45 1871.74 Q2584.8 1873.71 2581.77 1874.48 Z" fill="#000000" fill-rule="evenodd" fill-opacity="1" /><path clip-path="url(#clip100)" d="M2607.77 1861.63 Q2604.15 1861.63 2602.33 1865.19 Q2600.52 1868.73 2600.52 1875.86 Q2600.52 1882.97 2602.33 1886.54 Q2604.15 1890.08 2607.77 1890.08 Q2611.4 1890.08 2613.2 1886.54 Q2615.03 1882.97 2615.03 1875.86 Q2615.03 1868.73 2613.2 1865.19 Q2611.4 1861.63 2607.77 1861.63 M2607.77 1857.92 Q2613.58 1857.92 2616.63 1862.53 Q2619.71 1867.11 2619.71 1875.86 Q2619.71 1884.59 2616.63 1889.2 Q2613.58 1893.78 2607.77 1893.78 Q2601.95 1893.78 2598.88 1889.2 Q2595.82 1884.59 2595.82 1875.86 Q2595.82 1867.11 2598.88 1862.53 Q2601.95 1857.92 2607.77 1857.92 Z" fill="#000000" fill-rule="evenodd" fill-opacity="1" /><path clip-path="url(#clip100)" d="M2637.93 1861.63 Q2634.32 1861.63 2632.49 1865.19 Q2630.68 1868.73 2630.68 1875.86 Q2630.68 1882.97 2632.49 1886.54 Q2634.32 1890.08 2637.93 1890.08 Q2641.56 1890.08 2643.37 1886.54 Q2645.2 1882.97 2645.2 1875.86 Q2645.2 1868.73 2643.37 1865.19 Q2641.56 1861.63 2637.93 1861.63 M2637.93 1857.92 Q2643.74 1857.92 2646.79 1862.53 Q2649.87 1867.11 2649.87 1875.86 Q2649.87 1884.59 2646.79 1889.2 Q2643.74 1893.78 2637.93 1893.78 Q2632.12 1893.78 2629.04 1889.2 Q2625.98 1884.59 2625.98 1875.86 Q2625.98 1867.11 2629.04 1862.53 Q2632.12 1857.92 2637.93 1857.92 Z" fill="#000000" fill-rule="evenodd" fill-opacity="1" /><path clip-path="url(#clip100)" d="M1565.26 1933.65 L1605.46 1933.65 L1605.46 1939.06 L1588.59 1939.06 L1588.59 1981.17 L1582.13 1981.17 L1582.13 1939.06 L1565.26 1939.06 L1565.26 1933.65 Z" fill="#000000" fill-rule="evenodd" fill-opacity="1" /><path clip-path="url(#clip100)" d="M1609.41 1945.53 L1615.26 1945.53 L1615.26 1981.17 L1609.41 1981.17 L1609.41 1945.53 M1609.41 1931.65 L1615.26 1931.65 L1615.26 1939.06 L1609.41 1939.06 L1609.41 1931.65 Z" fill="#000000" fill-rule="evenodd" fill-opacity="1" /><path clip-path="url(#clip100)" d="M1655.27 1952.37 Q1657.47 1948.42 1660.52 1946.54 Q1663.58 1944.67 1667.72 1944.67 Q1673.29 1944.67 1676.31 1948.58 Q1679.33 1952.46 1679.33 1959.66 L1679.33 1981.17 L1673.44 1981.17 L1673.44 1959.85 Q1673.44 1954.72 1671.63 1952.24 Q1669.82 1949.76 1666.09 1949.76 Q1661.54 1949.76 1658.9 1952.78 Q1656.26 1955.81 1656.26 1961.03 L1656.26 1981.17 L1650.37 1981.17 L1650.37 1959.85 Q1650.37 1954.69 1648.55 1952.24 Q1646.74 1949.76 1642.95 1949.76 Q1638.46 1949.76 1635.82 1952.81 Q1633.18 1955.84 1633.18 1961.03 L1633.18 1981.17 L1627.29 1981.17 L1627.29 1945.53 L1633.18 1945.53 L1633.18 1951.06 Q1635.19 1947.79 1637.99 1946.23 Q1640.79 1944.67 1644.64 1944.67 Q1648.52 1944.67 1651.23 1946.64 Q1653.97 1948.61 1655.27 1952.37 Z" fill="#000000" fill-rule="evenodd" fill-opacity="1" /><path clip-path="url(#clip100)" d="M1721.51 1961.89 L1721.51 1964.75 L1694.58 1964.75 Q1694.96 1970.8 1698.21 1973.98 Q1701.49 1977.13 1707.31 1977.13 Q1710.68 1977.13 1713.83 1976.3 Q1717.02 1975.48 1720.14 1973.82 L1720.14 1979.36 Q1716.99 1980.7 1713.68 1981.4 Q1710.37 1982.1 1706.96 1982.1 Q1698.43 1982.1 1693.43 1977.13 Q1688.47 1972.17 1688.47 1963.7 Q1688.47 1954.95 1693.18 1949.82 Q1697.92 1944.67 1705.94 1944.67 Q1713.13 1944.67 1717.3 1949.31 Q1721.51 1953.93 1721.51 1961.89 M1715.65 1960.17 Q1715.59 1955.36 1712.94 1952.5 Q1710.33 1949.63 1706 1949.63 Q1701.1 1949.63 1698.14 1952.4 Q1695.21 1955.17 1694.77 1960.2 L1715.65 1960.17 Z" fill="#000000" fill-rule="evenodd" fill-opacity="1" /><path clip-path="url(#clip100)" d="M1765.91 1931.71 Q1761.64 1939.03 1759.57 1946.19 Q1757.5 1953.36 1757.5 1960.71 Q1757.5 1968.06 1759.57 1975.29 Q1761.67 1982.48 1765.91 1989.77 L1760.81 1989.77 Q1756.04 1982.29 1753.65 1975.06 Q1751.3 1967.84 1751.3 1960.71 Q1751.3 1953.61 1753.65 1946.42 Q1756.01 1939.22 1760.81 1931.71 L1765.91 1931.71 Z" fill="#000000" fill-rule="evenodd" fill-opacity="1" /><path clip-path="url(#clip100)" d="M1799.99 1946.58 L1799.99 1952.11 Q1797.51 1950.84 1794.84 1950.2 Q1792.16 1949.57 1789.3 1949.57 Q1784.94 1949.57 1782.74 1950.9 Q1780.58 1952.24 1780.58 1954.92 Q1780.58 1956.95 1782.14 1958.13 Q1783.7 1959.28 1788.41 1960.33 L1790.41 1960.77 Q1796.65 1962.11 1799.26 1964.56 Q1801.9 1966.98 1801.9 1971.34 Q1801.9 1976.3 1797.96 1979.2 Q1794.04 1982.1 1787.17 1982.1 Q1784.3 1982.1 1781.18 1981.52 Q1778.1 1980.98 1774.66 1979.87 L1774.66 1973.82 Q1777.91 1975.51 1781.06 1976.37 Q1784.21 1977.2 1787.29 1977.2 Q1791.43 1977.2 1793.66 1975.79 Q1795.89 1974.36 1795.89 1971.78 Q1795.89 1969.4 1794.27 1968.12 Q1792.67 1966.85 1787.23 1965.67 L1785.19 1965.2 Q1779.75 1964.05 1777.33 1961.69 Q1774.91 1959.31 1774.91 1955.17 Q1774.91 1950.14 1778.48 1947.4 Q1782.04 1944.67 1788.6 1944.67 Q1791.85 1944.67 1794.71 1945.14 Q1797.58 1945.62 1799.99 1946.58 Z" fill="#000000" fill-rule="evenodd" fill-opacity="1" /><path clip-path="url(#clip100)" d="M1810.31 1931.71 L1815.4 1931.71 Q1820.17 1939.22 1822.53 1946.42 Q1824.92 1953.61 1824.92 1960.71 Q1824.92 1967.84 1822.53 1975.06 Q1820.17 1982.29 1815.4 1989.77 L1810.31 1989.77 Q1814.54 1982.48 1816.61 1975.29 Q1818.71 1968.06 1818.71 1960.71 Q1818.71 1953.36 1816.61 1946.19 Q1814.54 1939.03 1810.31 1931.71 Z" fill="#000000" fill-rule="evenodd" fill-opacity="1" /><polyline clip-path="url(#clip103)" style="stroke:#000000; stroke-linecap:round; stroke-linejoin:round; stroke-width:2; stroke-opacity:0.1; fill:none" points="
  237.419,1730.21 3152.76,1730.21 
  "/>
<polyline clip-path="url(#clip103)" style="stroke:#000000; stroke-linecap:round; stroke-linejoin:round; stroke-width:2; stroke-opacity:0.1; fill:none" points="
  237.419,1569.2 3152.76,1569.2 
  "/>
<polyline clip-path="url(#clip103)" style="stroke:#000000; stroke-linecap:round; stroke-linejoin:round; stroke-width:2; stroke-opacity:0.1; fill:none" points="
  237.419,1408.19 3152.76,1408.19 
  "/>
<polyline clip-path="url(#clip103)" style="stroke:#000000; stroke-linecap:round; stroke-linejoin:round; stroke-width:2; stroke-opacity:0.1; fill:none" points="
  237.419,1247.18 3152.76,1247.18 
  "/>
<polyline clip-path="url(#clip103)" style="stroke:#000000; stroke-linecap:round; stroke-linejoin:round; stroke-width:2; stroke-opacity:0.1; fill:none" points="
  237.419,1086.17 3152.76,1086.17 
  "/>
<polyline clip-path="url(#clip100)" style="stroke:#000000; stroke-linecap:round; stroke-linejoin:round; stroke-width:4; stroke-opacity:1; fill:none" points="
  237.419,1824.31 237.419,1047.24 
  "/>
<polyline clip-path="url(#clip100)" style="stroke:#000000; stroke-linecap:round; stroke-linejoin:round; stroke-width:4; stroke-opacity:1; fill:none" points="
  237.419,1730.21 256.317,1730.21 
  "/>
<polyline clip-path="url(#clip100)" style="stroke:#000000; stroke-linecap:round; stroke-linejoin:round; stroke-width:4; stroke-opacity:1; fill:none" points="
  237.419,1569.2 256.317,1569.2 
  "/>
<polyline clip-path="url(#clip100)" style="stroke:#000000; stroke-linecap:round; stroke-linejoin:round; stroke-width:4; stroke-opacity:1; fill:none" points="
  237.419,1408.19 256.317,1408.19 
  "/>
<polyline clip-path="url(#clip100)" style="stroke:#000000; stroke-linecap:round; stroke-linejoin:round; stroke-width:4; stroke-opacity:1; fill:none" points="
  237.419,1247.18 256.317,1247.18 
  "/>
<polyline clip-path="url(#clip100)" style="stroke:#000000; stroke-linecap:round; stroke-linejoin:round; stroke-width:4; stroke-opacity:1; fill:none" points="
  237.419,1086.17 256.317,1086.17 
  "/>
<path clip-path="url(#clip100)" d="M139.049 1746.78 L139.049 1742.52 Q140.808 1743.35 142.614 1743.79 Q144.42 1744.23 146.156 1744.23 Q150.785 1744.23 153.216 1741.13 Q155.67 1738 156.017 1731.66 Q154.674 1733.65 152.614 1734.72 Q150.554 1735.78 148.054 1735.78 Q142.869 1735.78 139.836 1732.66 Q136.827 1729.51 136.827 1724.07 Q136.827 1718.74 139.975 1715.53 Q143.123 1712.31 148.355 1712.31 Q154.35 1712.31 157.498 1716.92 Q160.67 1721.5 160.67 1730.25 Q160.67 1738.42 156.781 1743.3 Q152.915 1748.17 146.364 1748.17 Q144.605 1748.17 142.799 1747.82 Q140.994 1747.47 139.049 1746.78 M148.355 1732.12 Q151.503 1732.12 153.332 1729.97 Q155.183 1727.82 155.183 1724.07 Q155.183 1720.34 153.332 1718.19 Q151.503 1716.01 148.355 1716.01 Q145.207 1716.01 143.355 1718.19 Q141.526 1720.34 141.526 1724.07 Q141.526 1727.82 143.355 1729.97 Q145.207 1732.12 148.355 1732.12 Z" fill="#000000" fill-rule="evenodd" fill-opacity="1" /><path clip-path="url(#clip100)" d="M173.1 1743.56 L189.419 1743.56 L189.419 1747.49 L167.475 1747.49 L167.475 1743.56 Q170.137 1740.8 174.72 1736.17 Q179.327 1731.52 180.507 1730.18 Q182.753 1727.66 183.632 1725.92 Q184.535 1724.16 184.535 1722.47 Q184.535 1719.72 182.591 1717.98 Q180.669 1716.24 177.568 1716.24 Q175.368 1716.24 172.915 1717.01 Q170.484 1717.77 167.707 1719.32 L167.707 1714.6 Q170.531 1713.47 172.984 1712.89 Q175.438 1712.31 177.475 1712.31 Q182.845 1712.31 186.04 1714.99 Q189.234 1717.68 189.234 1722.17 Q189.234 1724.3 188.424 1726.22 Q187.637 1728.12 185.53 1730.71 Q184.952 1731.38 181.85 1734.6 Q178.748 1737.8 173.1 1743.56 Z" fill="#000000" fill-rule="evenodd" fill-opacity="1" /><path clip-path="url(#clip100)" d="M136.966 1585.77 L136.966 1581.51 Q138.725 1582.34 140.531 1582.78 Q142.336 1583.22 144.072 1583.22 Q148.702 1583.22 151.133 1580.12 Q153.586 1576.99 153.933 1570.65 Q152.591 1572.64 150.531 1573.71 Q148.47 1574.77 145.971 1574.77 Q140.785 1574.77 137.753 1571.65 Q134.744 1568.5 134.744 1563.06 Q134.744 1557.73 137.892 1554.52 Q141.04 1551.3 146.271 1551.3 Q152.267 1551.3 155.415 1555.9 Q158.586 1560.49 158.586 1569.24 Q158.586 1577.41 154.697 1582.29 Q150.832 1587.15 144.281 1587.15 Q142.521 1587.15 140.716 1586.81 Q138.91 1586.46 136.966 1585.77 M146.271 1571.11 Q149.42 1571.11 151.248 1568.96 Q153.1 1566.81 153.1 1563.06 Q153.1 1559.33 151.248 1557.18 Q149.42 1555 146.271 1555 Q143.123 1555 141.271 1557.18 Q139.443 1559.33 139.443 1563.06 Q139.443 1566.81 141.271 1568.96 Q143.123 1571.11 146.271 1571.11 Z" fill="#000000" fill-rule="evenodd" fill-opacity="1" /><path clip-path="url(#clip100)" d="M179.836 1556 L168.031 1574.45 L179.836 1574.45 L179.836 1556 M178.609 1551.92 L184.489 1551.92 L184.489 1574.45 L189.419 1574.45 L189.419 1578.33 L184.489 1578.33 L184.489 1586.48 L179.836 1586.48 L179.836 1578.33 L164.234 1578.33 L164.234 1573.82 L178.609 1551.92 Z" fill="#000000" fill-rule="evenodd" fill-opacity="1" /><path clip-path="url(#clip100)" d="M137.29 1424.75 L137.29 1420.49 Q139.049 1421.33 140.855 1421.77 Q142.66 1422.21 144.396 1422.21 Q149.026 1422.21 151.457 1419.11 Q153.91 1415.98 154.257 1409.64 Q152.915 1411.63 150.855 1412.69 Q148.795 1413.76 146.295 1413.76 Q141.109 1413.76 138.077 1410.63 Q135.068 1407.49 135.068 1402.05 Q135.068 1396.72 138.216 1393.5 Q141.364 1390.29 146.596 1390.29 Q152.591 1390.29 155.739 1394.89 Q158.91 1399.48 158.91 1408.23 Q158.91 1416.4 155.021 1421.28 Q151.156 1426.14 144.605 1426.14 Q142.846 1426.14 141.04 1425.8 Q139.234 1425.45 137.29 1424.75 M146.596 1410.1 Q149.744 1410.1 151.572 1407.95 Q153.424 1405.8 153.424 1402.05 Q153.424 1398.32 151.572 1396.17 Q149.744 1393.99 146.596 1393.99 Q143.447 1393.99 141.596 1396.17 Q139.767 1398.32 139.767 1402.05 Q139.767 1405.8 141.596 1407.95 Q143.447 1410.1 146.596 1410.1 Z" fill="#000000" fill-rule="evenodd" fill-opacity="1" /><path clip-path="url(#clip100)" d="M177.892 1406.33 Q174.743 1406.33 172.892 1408.48 Q171.063 1410.63 171.063 1414.38 Q171.063 1418.11 172.892 1420.29 Q174.743 1422.44 177.892 1422.44 Q181.04 1422.44 182.868 1420.29 Q184.72 1418.11 184.72 1414.38 Q184.72 1410.63 182.868 1408.48 Q181.04 1406.33 177.892 1406.33 M187.174 1391.68 L187.174 1395.93 Q185.415 1395.1 183.609 1394.66 Q181.827 1394.22 180.068 1394.22 Q175.438 1394.22 172.984 1397.35 Q170.554 1400.47 170.206 1406.79 Q171.572 1404.78 173.632 1403.71 Q175.693 1402.62 178.169 1402.62 Q183.378 1402.62 186.387 1405.8 Q189.419 1408.94 189.419 1414.38 Q189.419 1419.71 186.271 1422.93 Q183.123 1426.14 177.892 1426.14 Q171.896 1426.14 168.725 1421.56 Q165.554 1416.95 165.554 1408.23 Q165.554 1400.03 169.443 1395.17 Q173.331 1390.29 179.882 1390.29 Q181.642 1390.29 183.424 1390.63 Q185.23 1390.98 187.174 1391.68 Z" fill="#000000" fill-rule="evenodd" fill-opacity="1" /><path clip-path="url(#clip100)" d="M137.545 1263.74 L137.545 1259.48 Q139.304 1260.32 141.109 1260.76 Q142.915 1261.2 144.651 1261.2 Q149.281 1261.2 151.711 1258.09 Q154.165 1254.97 154.512 1248.63 Q153.17 1250.62 151.109 1251.68 Q149.049 1252.75 146.549 1252.75 Q141.364 1252.75 138.332 1249.62 Q135.322 1246.47 135.322 1241.03 Q135.322 1235.71 138.471 1232.49 Q141.619 1229.28 146.85 1229.28 Q152.845 1229.28 155.994 1233.88 Q159.165 1238.46 159.165 1247.21 Q159.165 1255.39 155.276 1260.27 Q151.41 1265.13 144.859 1265.13 Q143.1 1265.13 141.295 1264.78 Q139.489 1264.44 137.545 1263.74 M146.85 1249.09 Q149.998 1249.09 151.827 1246.94 Q153.679 1244.78 153.679 1241.03 Q153.679 1237.31 151.827 1235.15 Q149.998 1232.98 146.85 1232.98 Q143.702 1232.98 141.85 1235.15 Q140.021 1237.31 140.021 1241.03 Q140.021 1244.78 141.85 1246.94 Q143.702 1249.09 146.85 1249.09 Z" fill="#000000" fill-rule="evenodd" fill-opacity="1" /><path clip-path="url(#clip100)" d="M177.568 1248.05 Q174.234 1248.05 172.313 1249.83 Q170.415 1251.61 170.415 1254.74 Q170.415 1257.86 172.313 1259.65 Q174.234 1261.43 177.568 1261.43 Q180.901 1261.43 182.822 1259.65 Q184.743 1257.84 184.743 1254.74 Q184.743 1251.61 182.822 1249.83 Q180.924 1248.05 177.568 1248.05 M172.892 1246.06 Q169.882 1245.32 168.193 1243.26 Q166.526 1241.2 166.526 1238.23 Q166.526 1234.09 169.466 1231.68 Q172.429 1229.28 177.568 1229.28 Q182.73 1229.28 185.669 1231.68 Q188.609 1234.09 188.609 1238.23 Q188.609 1241.2 186.919 1243.26 Q185.253 1245.32 182.267 1246.06 Q185.646 1246.84 187.521 1249.14 Q189.419 1251.43 189.419 1254.74 Q189.419 1259.76 186.341 1262.45 Q183.285 1265.13 177.568 1265.13 Q171.85 1265.13 168.771 1262.45 Q165.716 1259.76 165.716 1254.74 Q165.716 1251.43 167.614 1249.14 Q169.512 1246.84 172.892 1246.06 M171.179 1238.67 Q171.179 1241.36 172.845 1242.86 Q174.535 1244.37 177.568 1244.37 Q180.577 1244.37 182.267 1242.86 Q183.98 1241.36 183.98 1238.67 Q183.98 1235.99 182.267 1234.48 Q180.577 1232.98 177.568 1232.98 Q174.535 1232.98 172.845 1234.48 Q171.179 1235.99 171.179 1238.67 Z" fill="#000000" fill-rule="evenodd" fill-opacity="1" /><path clip-path="url(#clip100)" d="M107.961 1099.51 L115.6 1099.51 L115.6 1073.15 L107.29 1074.81 L107.29 1070.56 L115.554 1068.89 L120.23 1068.89 L120.23 1099.51 L127.869 1099.51 L127.869 1103.45 L107.961 1103.45 L107.961 1099.51 Z" fill="#000000" fill-rule="evenodd" fill-opacity="1" /><path clip-path="url(#clip100)" d="M147.313 1071.97 Q143.702 1071.97 141.873 1075.53 Q140.068 1079.07 140.068 1086.2 Q140.068 1093.31 141.873 1096.87 Q143.702 1100.42 147.313 1100.42 Q150.947 1100.42 152.753 1096.87 Q154.582 1093.31 154.582 1086.2 Q154.582 1079.07 152.753 1075.53 Q150.947 1071.97 147.313 1071.97 M147.313 1068.26 Q153.123 1068.26 156.179 1072.87 Q159.257 1077.45 159.257 1086.2 Q159.257 1094.93 156.179 1099.54 Q153.123 1104.12 147.313 1104.12 Q141.503 1104.12 138.424 1099.54 Q135.369 1094.93 135.369 1086.2 Q135.369 1077.45 138.424 1072.87 Q141.503 1068.26 147.313 1068.26 Z" fill="#000000" fill-rule="evenodd" fill-opacity="1" /><path clip-path="url(#clip100)" d="M177.475 1071.97 Q173.864 1071.97 172.035 1075.53 Q170.23 1079.07 170.23 1086.2 Q170.23 1093.31 172.035 1096.87 Q173.864 1100.42 177.475 1100.42 Q181.109 1100.42 182.915 1096.87 Q184.743 1093.31 184.743 1086.2 Q184.743 1079.07 182.915 1075.53 Q181.109 1071.97 177.475 1071.97 M177.475 1068.26 Q183.285 1068.26 186.341 1072.87 Q189.419 1077.45 189.419 1086.2 Q189.419 1094.93 186.341 1099.54 Q183.285 1104.12 177.475 1104.12 Q171.665 1104.12 168.586 1099.54 Q165.531 1094.93 165.531 1086.2 Q165.531 1077.45 168.586 1072.87 Q171.665 1068.26 177.475 1068.26 Z" fill="#000000" fill-rule="evenodd" fill-opacity="1" /><path clip-path="url(#clip100)" d="M9.3862 1651.14 L26.7328 1664.04 L45.0342 1650.48 L45.0342 1657.38 L31.0296 1667.76 L45.0342 1678.14 L45.0342 1685.04 L26.3826 1671.2 L9.3862 1683.86 L9.3862 1676.96 L22.0858 1667.5 L9.3862 1658.05 L9.3862 1651.14 Z" fill="#000000" fill-rule="evenodd" fill-opacity="1" /><path clip-path="url(#clip100)" d="M45.0342 1608.97 L-2.48584 1627.11 L-2.48584 1620.4 L37.5226 1605.34 L-2.48584 1590.26 L-2.48584 1583.57 L45.0342 1601.68 L45.0342 1608.97 Z" fill="#000000" fill-rule="evenodd" fill-opacity="1" /><path clip-path="url(#clip100)" d="M25.7461 1551.46 L28.6106 1551.46 L28.6106 1578.38 Q34.6581 1578 37.8409 1574.76 Q40.9919 1571.48 40.9919 1565.65 Q40.9919 1562.28 40.1644 1559.13 Q39.3369 1555.95 37.6818 1552.83 L43.2199 1552.83 Q44.5567 1555.98 45.257 1559.29 Q45.9572 1562.6 45.9572 1566 Q45.9572 1574.53 40.9919 1579.53 Q36.0267 1584.5 27.5603 1584.5 Q18.8074 1584.5 13.6831 1579.79 Q8.52683 1575.04 8.52683 1567.02 Q8.52683 1559.83 13.1738 1555.66 Q17.7889 1551.46 25.7461 1551.46 M24.0273 1557.31 Q19.2212 1557.38 16.3566 1560.02 Q13.4921 1562.63 13.4921 1566.96 Q13.4921 1571.86 16.2612 1574.82 Q19.0302 1577.75 24.0592 1578.19 L24.0273 1557.31 Z" fill="#000000" fill-rule="evenodd" fill-opacity="1" /><path clip-path="url(#clip100)" d="M-4.49104 1541.85 L-4.49104 1535.99 L45.0342 1535.99 L45.0342 1541.85 L-4.49104 1541.85 Z" fill="#000000" fill-rule="evenodd" fill-opacity="1" /><path clip-path="url(#clip100)" d="M13.4921 1509.92 Q13.4921 1514.63 17.1842 1517.37 Q20.8445 1520.11 27.242 1520.11 Q33.6395 1520.11 37.3317 1517.4 Q40.9919 1514.66 40.9919 1509.92 Q40.9919 1505.24 37.2998 1502.51 Q33.6077 1499.77 27.242 1499.77 Q20.9081 1499.77 17.216 1502.51 Q13.4921 1505.24 13.4921 1509.92 M8.52683 1509.92 Q8.52683 1502.28 13.4921 1497.92 Q18.4573 1493.56 27.242 1493.56 Q35.9949 1493.56 40.9919 1497.92 Q45.9572 1502.28 45.9572 1509.92 Q45.9572 1517.59 40.9919 1521.95 Q35.9949 1526.28 27.242 1526.28 Q18.4573 1526.28 13.4921 1521.95 Q8.52683 1517.59 8.52683 1509.92 Z" fill="#000000" fill-rule="evenodd" fill-opacity="1" /><path clip-path="url(#clip100)" d="M10.7548 1458.2 L16.2293 1458.2 Q14.8607 1460.68 14.1923 1463.2 Q13.4921 1465.68 13.4921 1468.23 Q13.4921 1473.92 17.1205 1477.07 Q20.7172 1480.23 27.242 1480.23 Q33.7669 1480.23 37.3953 1477.07 Q40.9919 1473.92 40.9919 1468.23 Q40.9919 1465.68 40.3235 1463.2 Q39.6233 1460.68 38.2547 1458.2 L43.6655 1458.2 Q44.8114 1460.65 45.3843 1463.29 Q45.9572 1465.9 45.9572 1468.86 Q45.9572 1476.92 40.8964 1481.66 Q35.8357 1486.4 27.242 1486.4 Q18.521 1486.4 13.5239 1481.63 Q8.52683 1476.82 8.52683 1468.48 Q8.52683 1465.78 9.09974 1463.2 Q9.64083 1460.62 10.7548 1458.2 Z" fill="#000000" fill-rule="evenodd" fill-opacity="1" /><path clip-path="url(#clip100)" d="M9.3862 1448.02 L9.3862 1442.16 L45.0342 1442.16 L45.0342 1448.02 L9.3862 1448.02 M-4.49104 1448.02 L-4.49104 1442.16 L2.92501 1442.16 L2.92501 1448.02 L-4.49104 1448.02 Z" fill="#000000" fill-rule="evenodd" fill-opacity="1" /><path clip-path="url(#clip100)" d="M-0.735273 1424.11 L9.3862 1424.11 L9.3862 1412.05 L13.9377 1412.05 L13.9377 1424.11 L33.2894 1424.11 Q37.6499 1424.11 38.8913 1422.93 Q40.1326 1421.72 40.1326 1418.06 L40.1326 1412.05 L45.0342 1412.05 L45.0342 1418.06 Q45.0342 1424.84 42.5197 1427.42 Q39.9734 1430 33.2894 1430 L13.9377 1430 L13.9377 1434.3 L9.3862 1434.3 L9.3862 1430 L-0.735273 1430 L-0.735273 1424.11 Z" fill="#000000" fill-rule="evenodd" fill-opacity="1" /><path clip-path="url(#clip100)" d="M48.3443 1389.51 Q54.71 1392 56.6516 1394.35 Q58.5931 1396.71 58.5931 1400.65 L58.5931 1405.33 L53.6915 1405.33 L53.6915 1401.9 Q53.6915 1399.48 52.5457 1398.14 Q51.3999 1396.8 47.1348 1395.18 L44.4612 1394.13 L9.3862 1408.55 L9.3862 1402.34 L37.268 1391.2 L9.3862 1380.06 L9.3862 1373.85 L48.3443 1389.51 Z" fill="#000000" fill-rule="evenodd" fill-opacity="1" /><path clip-path="url(#clip100)" d="M-4.42738 1330.98 Q2.89318 1335.25 10.0546 1337.32 Q17.216 1339.38 24.5684 1339.38 Q31.9208 1339.38 39.1459 1337.32 Q46.3391 1335.21 53.6279 1330.98 L53.6279 1336.07 Q46.1482 1340.85 38.9231 1343.24 Q31.698 1345.59 24.5684 1345.59 Q17.4706 1345.59 10.2774 1343.24 Q3.08415 1340.88 -4.42738 1336.07 L-4.42738 1330.98 Z" fill="#000000" fill-rule="evenodd" fill-opacity="1" /><path clip-path="url(#clip100)" d="M16.2293 1291.86 Q12.2826 1289.67 10.4047 1286.61 Q8.52683 1283.56 8.52683 1279.42 Q8.52683 1273.85 12.4417 1270.83 Q16.3248 1267.8 23.5181 1267.8 L45.0342 1267.8 L45.0342 1273.69 L23.709 1273.69 Q18.5846 1273.69 16.102 1275.5 Q13.6194 1277.32 13.6194 1281.04 Q13.6194 1285.59 16.6431 1288.24 Q19.6668 1290.88 24.8867 1290.88 L45.0342 1290.88 L45.0342 1296.77 L23.709 1296.77 Q18.5528 1296.77 16.102 1298.58 Q13.6194 1300.39 13.6194 1304.18 Q13.6194 1308.67 16.6749 1311.31 Q19.6986 1313.95 24.8867 1313.95 L45.0342 1313.95 L45.0342 1319.84 L9.3862 1319.84 L9.3862 1313.95 L14.9244 1313.95 Q11.646 1311.95 10.0864 1309.15 Q8.52683 1306.35 8.52683 1302.49 Q8.52683 1298.61 10.5002 1295.91 Q12.4736 1293.17 16.2293 1291.86 Z" fill="#000000" fill-rule="evenodd" fill-opacity="1" /><path clip-path="url(#clip100)" d="M-2.48584 1245.71 L-2.48584 1240.3 L51.0816 1256.85 L51.0816 1262.26 L-2.48584 1245.71 Z" fill="#000000" fill-rule="evenodd" fill-opacity="1" /><path clip-path="url(#clip100)" d="M10.4365 1211.43 L15.9747 1211.43 Q14.7016 1213.92 14.065 1216.59 Q13.4284 1219.26 13.4284 1222.13 Q13.4284 1226.49 14.7652 1228.68 Q16.102 1230.85 18.7756 1230.85 Q20.8126 1230.85 21.9903 1229.29 Q23.1361 1227.73 24.1865 1223.02 L24.6321 1221.01 Q25.9689 1214.78 28.4197 1212.17 Q30.8386 1209.52 35.1991 1209.52 Q40.1644 1209.52 43.0608 1213.47 Q45.9572 1217.39 45.9572 1224.26 Q45.9572 1227.13 45.3843 1230.24 Q44.8432 1233.33 43.7292 1236.77 L37.6818 1236.77 Q39.3687 1233.52 40.228 1230.37 Q41.0556 1227.22 41.0556 1224.13 Q41.0556 1220 39.6551 1217.77 Q38.2229 1215.54 35.6447 1215.54 Q33.2576 1215.54 31.9845 1217.16 Q30.7113 1218.75 29.5337 1224.2 L29.0562 1226.23 Q27.9104 1231.68 25.5551 1234.1 Q23.168 1236.51 19.0302 1236.51 Q14.0013 1236.51 11.2641 1232.95 Q8.52683 1229.38 8.52683 1222.83 Q8.52683 1219.58 9.00426 1216.72 Q9.48169 1213.85 10.4365 1211.43 Z" fill="#000000" fill-rule="evenodd" fill-opacity="1" /><path clip-path="url(#clip100)" d="M-4.42738 1201.12 L-4.42738 1196.03 Q3.08415 1191.25 10.2774 1188.9 Q17.4706 1186.51 24.5684 1186.51 Q31.698 1186.51 38.9231 1188.9 Q46.1482 1191.25 53.6279 1196.03 L53.6279 1201.12 Q46.3391 1196.89 39.1459 1194.82 Q31.9208 1192.72 24.5684 1192.72 Q17.216 1192.72 10.0546 1194.82 Q2.89318 1196.89 -4.42738 1201.12 Z" fill="#000000" fill-rule="evenodd" fill-opacity="1" /><polyline clip-path="url(#clip103)" style="stroke:#009af9; stroke-linecap:round; stroke-linejoin:round; stroke-width:4; stroke-opacity:1; fill:none" points="
  319.929,1802.32 343.041,1399.82 366.153,1300.93 389.265,1080.45 412.377,1084.12 435.488,1114.11 458.6,1091.31 481.712,1093.27 504.824,1091.27 527.936,1092.13 
  551.048,1085.06 574.16,1069.24 597.272,1075.61 620.384,1074.95 643.496,1078.77 666.608,1079.45 689.719,1075.9 712.831,1075.29 735.943,1083.39 759.055,1082.47 
  782.167,1086.61 805.279,1085.12 828.391,1082.1 851.503,1086.9 874.615,1084.61 897.727,1088.92 920.839,1090.71 943.95,1084.73 967.062,1074.93 990.174,1078.54 
  1013.29,1078.24 1036.4,1085.73 1059.51,1090.29 1082.62,1090.16 1105.73,1088.88 1128.85,1095.41 1151.96,1099.01 1175.07,1094.68 1198.18,1095.39 1221.29,1087.52 
  1244.41,1078.35 1267.52,1079.52 1290.63,1084.15 1313.74,1088.12 1336.85,1080.63 1359.96,1083.86 1383.08,1079.06 1406.19,1085.48 1429.3,1089.89 1452.41,1091.35 
  1475.52,1091.73 1498.64,1095.3 1521.75,1090.85 1544.86,1088.47 1567.97,1085.11 1591.08,1081.99 1614.2,1075.86 1637.31,1088.05 1660.42,1088.38 1683.53,1083.31 
  1706.64,1080.83 1729.76,1081.48 1752.87,1086.46 1775.98,1090.4 1799.09,1081.98 1822.2,1082.51 1845.32,1080.8 1868.43,1077.3 1891.54,1078.36 1914.65,1075.68 
  1937.76,1071.87 1960.87,1075.1 1983.99,1088.64 2007.1,1095.3 2030.21,1100.32 2053.32,1103.12 2076.43,1096.12 2099.55,1095.2 2122.66,1088.2 2145.77,1086.44 
  2168.88,1092.97 2191.99,1092.56 2215.11,1092.15 2238.22,1088.18 2261.33,1084.09 2284.44,1093.74 2307.55,1084.28 2330.67,1083.66 2353.78,1081.07 2376.89,1081.82 
  2400,1075.85 2423.11,1075.29 2446.22,1078.73 2469.34,1081.79 2492.45,1078.14 2515.56,1085.25 2538.67,1078.69 2561.78,1079.38 2584.9,1086.82 2608.01,1076.13 
  2631.12,1079.66 2654.23,1079.03 2677.34,1075.58 2700.46,1084.38 2723.57,1077.98 2746.68,1075.05 2769.79,1073.23 2792.9,1077.86 2816.02,1081.22 2839.13,1077.55 
  2862.24,1083.36 2885.35,1095.54 2908.46,1100.8 2931.57,1099.47 2954.69,1097.42 2977.8,1101.77 3000.91,1100.14 3024.02,1096.96 3047.13,1088.65 3070.25,1087.48 
  
  "/>
<polyline clip-path="url(#clip103)" style="stroke:#e26f46; stroke-linecap:round; stroke-linejoin:round; stroke-width:4; stroke-opacity:1; fill:none" stroke-dasharray="16, 10" points="
  319.929,1086.17 343.041,1086.17 366.153,1086.17 389.265,1086.17 412.377,1086.17 435.488,1086.17 458.6,1086.17 481.712,1086.17 504.824,1086.17 527.936,1086.17 
  551.048,1086.17 574.16,1086.17 597.272,1086.17 620.384,1086.17 643.496,1086.17 666.608,1086.17 689.719,1086.17 712.831,1086.17 735.943,1086.17 759.055,1086.17 
  782.167,1086.17 805.279,1086.17 828.391,1086.17 851.503,1086.17 874.615,1086.17 897.727,1086.17 920.839,1086.17 943.95,1086.17 967.062,1086.17 990.174,1086.17 
  1013.29,1086.17 1036.4,1086.17 1059.51,1086.17 1082.62,1086.17 1105.73,1086.17 1128.85,1086.17 1151.96,1086.17 1175.07,1086.17 1198.18,1086.17 1221.29,1086.17 
  1244.41,1086.17 1267.52,1086.17 1290.63,1086.17 1313.74,1086.17 1336.85,1086.17 1359.96,1086.17 1383.08,1086.17 1406.19,1086.17 1429.3,1086.17 1452.41,1086.17 
  1475.52,1086.17 1498.64,1086.17 1521.75,1086.17 1544.86,1086.17 1567.97,1086.17 1591.08,1086.17 1614.2,1086.17 1637.31,1086.17 1660.42,1086.17 1683.53,1086.17 
  1706.64,1086.17 1729.76,1086.17 1752.87,1086.17 1775.98,1086.17 1799.09,1086.17 1822.2,1086.17 1845.32,1086.17 1868.43,1086.17 1891.54,1086.17 1914.65,1086.17 
  1937.76,1086.17 1960.87,1086.17 1983.99,1086.17 2007.1,1086.17 2030.21,1086.17 2053.32,1086.17 2076.43,1086.17 2099.55,1086.17 2122.66,1086.17 2145.77,1086.17 
  2168.88,1086.17 2191.99,1086.17 2215.11,1086.17 2238.22,1086.17 2261.33,1086.17 2284.44,1086.17 2307.55,1086.17 2330.67,1086.17 2353.78,1086.17 2376.89,1086.17 
  2400,1086.17 2423.11,1086.17 2446.22,1086.17 2469.34,1086.17 2492.45,1086.17 2515.56,1086.17 2538.67,1086.17 2561.78,1086.17 2584.9,1086.17 2608.01,1086.17 
  2631.12,1086.17 2654.23,1086.17 2677.34,1086.17 2700.46,1086.17 2723.57,1086.17 2746.68,1086.17 2769.79,1086.17 2792.9,1086.17 2816.02,1086.17 2839.13,1086.17 
  2862.24,1086.17 2885.35,1086.17 2908.46,1086.17 2931.57,1086.17 2954.69,1086.17 2977.8,1086.17 3000.91,1086.17 3024.02,1086.17 3047.13,1086.17 3070.25,1086.17 
  
  "/>
<path clip-path="url(#clip100)" d="
M2359.29 1798.41 L3055.58 1798.41 L3055.58 1642.89 L2359.29 1642.89  Z
  " fill="#ffffff" fill-rule="evenodd" fill-opacity="1"/>
<polyline clip-path="url(#clip100)" style="stroke:#000000; stroke-linecap:round; stroke-linejoin:round; stroke-width:4; stroke-opacity:1; fill:none" points="
  2359.29,1798.41 3055.58,1798.41 3055.58,1642.89 2359.29,1642.89 2359.29,1798.41 
  "/>
<polyline clip-path="url(#clip100)" style="stroke:#009af9; stroke-linecap:round; stroke-linejoin:round; stroke-width:4; stroke-opacity:1; fill:none" points="
  2391.69,1694.73 2586.04,1694.73 
  "/>
<path clip-path="url(#clip100)" d="M2618.43 1677.45 L2638.29 1677.45 L2638.29 1681.38 L2623.11 1681.38 L2623.11 1691.57 L2636.81 1691.57 L2636.81 1695.5 L2623.11 1695.5 L2623.11 1712.01 L2618.43 1712.01 L2618.43 1677.45 Z" fill="#000000" fill-rule="evenodd" fill-opacity="1" /><path clip-path="url(#clip100)" d="M2642.07 1686.08 L2646.33 1686.08 L2646.33 1712.01 L2642.07 1712.01 L2642.07 1686.08 M2642.07 1675.99 L2646.33 1675.99 L2646.33 1681.38 L2642.07 1681.38 L2642.07 1675.99 Z" fill="#000000" fill-rule="evenodd" fill-opacity="1" /><path clip-path="url(#clip100)" d="M2655.24 1675.99 L2659.5 1675.99 L2659.5 1712.01 L2655.24 1712.01 L2655.24 1675.99 Z" fill="#000000" fill-rule="evenodd" fill-opacity="1" /><path clip-path="url(#clip100)" d="M2672.62 1678.72 L2672.62 1686.08 L2681.4 1686.08 L2681.4 1689.39 L2672.62 1689.39 L2672.62 1703.47 Q2672.62 1706.64 2673.48 1707.54 Q2674.36 1708.44 2677.02 1708.44 L2681.4 1708.44 L2681.4 1712.01 L2677.02 1712.01 Q2672.09 1712.01 2670.22 1710.18 Q2668.34 1708.33 2668.34 1703.47 L2668.34 1689.39 L2665.22 1689.39 L2665.22 1686.08 L2668.34 1686.08 L2668.34 1678.72 L2672.62 1678.72 Z" fill="#000000" fill-rule="evenodd" fill-opacity="1" /><path clip-path="url(#clip100)" d="M2709.17 1697.98 L2709.17 1700.06 L2689.59 1700.06 Q2689.87 1704.46 2692.23 1706.78 Q2694.61 1709.07 2698.85 1709.07 Q2701.3 1709.07 2703.6 1708.47 Q2705.91 1707.86 2708.18 1706.66 L2708.18 1710.69 Q2705.89 1711.66 2703.48 1712.17 Q2701.07 1712.68 2698.6 1712.68 Q2692.39 1712.68 2688.76 1709.07 Q2685.15 1705.46 2685.15 1699.3 Q2685.15 1692.93 2688.57 1689.21 Q2692.02 1685.46 2697.85 1685.46 Q2703.09 1685.46 2706.12 1688.84 Q2709.17 1692.19 2709.17 1697.98 M2704.91 1696.73 Q2704.87 1693.23 2702.95 1691.15 Q2701.05 1689.07 2697.9 1689.07 Q2694.34 1689.07 2692.18 1691.08 Q2690.05 1693.1 2689.73 1696.75 L2704.91 1696.73 Z" fill="#000000" fill-rule="evenodd" fill-opacity="1" /><path clip-path="url(#clip100)" d="M2731.19 1690.06 Q2730.47 1689.65 2729.61 1689.46 Q2728.78 1689.25 2727.76 1689.25 Q2724.15 1689.25 2722.21 1691.61 Q2720.28 1693.95 2720.28 1698.35 L2720.28 1712.01 L2716 1712.01 L2716 1686.08 L2720.28 1686.08 L2720.28 1690.11 Q2721.63 1687.75 2723.78 1686.61 Q2725.93 1685.46 2729.01 1685.46 Q2729.45 1685.46 2729.98 1685.53 Q2730.52 1685.57 2731.16 1685.69 L2731.19 1690.06 Z" fill="#000000" fill-rule="evenodd" fill-opacity="1" /><polyline clip-path="url(#clip100)" style="stroke:#e26f46; stroke-linecap:round; stroke-linejoin:round; stroke-width:4; stroke-opacity:1; fill:none" stroke-dasharray="16, 10" points="
  2391.69,1746.57 2586.04,1746.57 
  "/>
<path clip-path="url(#clip100)" d="M2634.27 1733.89 L2627.92 1751.09 L2640.63 1751.09 L2634.27 1733.89 M2631.63 1729.29 L2636.93 1729.29 L2650.1 1763.85 L2645.24 1763.85 L2642.09 1754.98 L2626.51 1754.98 L2623.36 1763.85 L2618.43 1763.85 L2631.63 1729.29 Z" fill="#000000" fill-rule="evenodd" fill-opacity="1" /><path clip-path="url(#clip100)" d="M2654.96 1737.92 L2659.22 1737.92 L2659.22 1763.85 L2654.96 1763.85 L2654.96 1737.92 M2654.96 1727.83 L2659.22 1727.83 L2659.22 1733.22 L2654.96 1733.22 L2654.96 1727.83 Z" fill="#000000" fill-rule="evenodd" fill-opacity="1" /><path clip-path="url(#clip100)" d="M2683.16 1741.9 Q2682.44 1741.49 2681.58 1741.3 Q2680.75 1741.09 2679.73 1741.09 Q2676.12 1741.09 2674.17 1743.45 Q2672.25 1745.79 2672.25 1750.19 L2672.25 1763.85 L2667.97 1763.85 L2667.97 1737.92 L2672.25 1737.92 L2672.25 1741.95 Q2673.6 1739.59 2675.75 1738.45 Q2677.9 1737.3 2680.98 1737.3 Q2681.42 1737.3 2681.95 1737.37 Q2682.48 1737.41 2683.13 1737.53 L2683.16 1741.9 Z" fill="#000000" fill-rule="evenodd" fill-opacity="1" /><path clip-path="url(#clip100)" d="M2705.24 1738.92 L2705.24 1742.9 Q2703.43 1741.9 2701.6 1741.42 Q2699.8 1740.91 2697.95 1740.91 Q2693.8 1740.91 2691.51 1743.55 Q2689.22 1746.16 2689.22 1750.91 Q2689.22 1755.65 2691.51 1758.29 Q2693.8 1760.91 2697.95 1760.91 Q2699.8 1760.91 2701.6 1760.42 Q2703.43 1759.91 2705.24 1758.92 L2705.24 1762.85 Q2703.46 1763.69 2701.54 1764.1 Q2699.64 1764.52 2697.48 1764.52 Q2691.63 1764.52 2688.18 1760.84 Q2684.73 1757.16 2684.73 1750.91 Q2684.73 1744.57 2688.2 1740.93 Q2691.7 1737.3 2697.76 1737.3 Q2699.73 1737.3 2701.6 1737.71 Q2703.48 1738.11 2705.24 1738.92 Z" fill="#000000" fill-rule="evenodd" fill-opacity="1" /><path clip-path="url(#clip100)" d="M2727.67 1741.9 Q2726.95 1741.49 2726.1 1741.3 Q2725.26 1741.09 2724.24 1741.09 Q2720.63 1741.09 2718.69 1743.45 Q2716.77 1745.79 2716.77 1750.19 L2716.77 1763.85 L2712.48 1763.85 L2712.48 1737.92 L2716.77 1737.92 L2716.77 1741.95 Q2718.11 1739.59 2720.26 1738.45 Q2722.41 1737.3 2725.49 1737.3 Q2725.93 1737.3 2726.47 1737.37 Q2727 1737.41 2727.65 1737.53 L2727.67 1741.9 Z" fill="#000000" fill-rule="evenodd" fill-opacity="1" /><path clip-path="url(#clip100)" d="M2743.92 1750.82 Q2738.76 1750.82 2736.77 1752 Q2734.78 1753.18 2734.78 1756.02 Q2734.78 1758.29 2736.26 1759.63 Q2737.76 1760.95 2740.33 1760.95 Q2743.87 1760.95 2746 1758.45 Q2748.16 1755.93 2748.16 1751.76 L2748.16 1750.82 L2743.92 1750.82 M2752.41 1749.06 L2752.41 1763.85 L2748.16 1763.85 L2748.16 1759.91 Q2746.7 1762.27 2744.52 1763.41 Q2742.35 1764.52 2739.2 1764.52 Q2735.22 1764.52 2732.85 1762.3 Q2730.52 1760.05 2730.52 1756.3 Q2730.52 1751.93 2733.43 1749.7 Q2736.37 1747.48 2742.18 1747.48 L2748.16 1747.48 L2748.16 1747.07 Q2748.16 1744.13 2746.21 1742.53 Q2744.29 1740.91 2740.79 1740.91 Q2738.57 1740.91 2736.47 1741.44 Q2734.36 1741.97 2732.41 1743.04 L2732.41 1739.1 Q2734.75 1738.2 2736.95 1737.76 Q2739.15 1737.3 2741.23 1737.3 Q2746.86 1737.3 2749.64 1740.21 Q2752.41 1743.13 2752.41 1749.06 Z" fill="#000000" fill-rule="evenodd" fill-opacity="1" /><path clip-path="url(#clip100)" d="M2774.31 1727.83 L2774.31 1731.37 L2770.24 1731.37 Q2767.95 1731.37 2767.04 1732.3 Q2766.16 1733.22 2766.16 1735.63 L2766.16 1737.92 L2773.18 1737.92 L2773.18 1741.23 L2766.16 1741.23 L2766.16 1763.85 L2761.88 1763.85 L2761.88 1741.23 L2757.81 1741.23 L2757.81 1737.92 L2761.88 1737.92 L2761.88 1736.12 Q2761.88 1731.79 2763.9 1729.82 Q2765.91 1727.83 2770.28 1727.83 L2774.31 1727.83 Z" fill="#000000" fill-rule="evenodd" fill-opacity="1" /><path clip-path="url(#clip100)" d="M2781.26 1730.56 L2781.26 1737.92 L2790.03 1737.92 L2790.03 1741.23 L2781.26 1741.23 L2781.26 1755.31 Q2781.26 1758.48 2782.11 1759.38 Q2782.99 1760.28 2785.65 1760.28 L2790.03 1760.28 L2790.03 1763.85 L2785.65 1763.85 Q2780.72 1763.85 2778.85 1762.02 Q2776.97 1760.17 2776.97 1755.31 L2776.97 1741.23 L2773.85 1741.23 L2773.85 1737.92 L2776.97 1737.92 L2776.97 1730.56 L2781.26 1730.56 Z" fill="#000000" fill-rule="evenodd" fill-opacity="1" /><path clip-path="url(#clip100)" d="M2819.8 1763.85 L2806.6 1729.29 L2811.49 1729.29 L2822.44 1758.38 L2833.41 1729.29 L2838.27 1729.29 L2825.1 1763.85 L2819.8 1763.85 Z" fill="#000000" fill-rule="evenodd" fill-opacity="1" /><path clip-path="url(#clip100)" d="M2861.63 1749.82 L2861.63 1751.9 L2842.04 1751.9 Q2842.32 1756.3 2844.68 1758.62 Q2847.07 1760.91 2851.3 1760.91 Q2853.76 1760.91 2856.05 1760.31 Q2858.36 1759.7 2860.63 1758.5 L2860.63 1762.53 Q2858.34 1763.5 2855.93 1764.01 Q2853.52 1764.52 2851.05 1764.52 Q2844.84 1764.52 2841.21 1760.91 Q2837.6 1757.3 2837.6 1751.14 Q2837.6 1744.77 2841.03 1741.05 Q2844.47 1737.3 2850.31 1737.3 Q2855.54 1737.3 2858.57 1740.68 Q2861.63 1744.03 2861.63 1749.82 M2857.37 1748.57 Q2857.32 1745.07 2855.4 1742.99 Q2853.5 1740.91 2850.35 1740.91 Q2846.79 1740.91 2844.64 1742.92 Q2842.51 1744.94 2842.18 1748.59 L2857.37 1748.57 Z" fill="#000000" fill-rule="evenodd" fill-opacity="1" /><path clip-path="url(#clip100)" d="M2868.62 1727.83 L2872.88 1727.83 L2872.88 1763.85 L2868.62 1763.85 L2868.62 1727.83 Z" fill="#000000" fill-rule="evenodd" fill-opacity="1" /><path clip-path="url(#clip100)" d="M2891.83 1740.91 Q2888.41 1740.91 2886.42 1743.59 Q2884.43 1746.26 2884.43 1750.91 Q2884.43 1755.56 2886.4 1758.25 Q2888.39 1760.91 2891.83 1760.91 Q2895.24 1760.91 2897.23 1758.22 Q2899.22 1755.54 2899.22 1750.91 Q2899.22 1746.3 2897.23 1743.62 Q2895.24 1740.91 2891.83 1740.91 M2891.83 1737.3 Q2897.39 1737.3 2900.56 1740.91 Q2903.73 1744.52 2903.73 1750.91 Q2903.73 1757.27 2900.56 1760.91 Q2897.39 1764.52 2891.83 1764.52 Q2886.26 1764.52 2883.09 1760.91 Q2879.94 1757.27 2879.94 1750.91 Q2879.94 1744.52 2883.09 1740.91 Q2886.26 1737.3 2891.83 1737.3 Z" fill="#000000" fill-rule="evenodd" fill-opacity="1" /><path clip-path="url(#clip100)" d="M2929.45 1738.92 L2929.45 1742.9 Q2927.64 1741.9 2925.82 1741.42 Q2924.01 1740.91 2922.16 1740.91 Q2918.02 1740.91 2915.72 1743.55 Q2913.43 1746.16 2913.43 1750.91 Q2913.43 1755.65 2915.72 1758.29 Q2918.02 1760.91 2922.16 1760.91 Q2924.01 1760.91 2925.82 1760.42 Q2927.64 1759.91 2929.45 1758.92 L2929.45 1762.85 Q2927.67 1763.69 2925.75 1764.1 Q2923.85 1764.52 2921.7 1764.52 Q2915.84 1764.52 2912.39 1760.84 Q2908.94 1757.16 2908.94 1750.91 Q2908.94 1744.57 2912.41 1740.93 Q2915.91 1737.3 2921.97 1737.3 Q2923.94 1737.3 2925.82 1737.71 Q2927.69 1738.11 2929.45 1738.92 Z" fill="#000000" fill-rule="evenodd" fill-opacity="1" /><path clip-path="url(#clip100)" d="M2936.86 1737.92 L2941.12 1737.92 L2941.12 1763.85 L2936.86 1763.85 L2936.86 1737.92 M2936.86 1727.83 L2941.12 1727.83 L2941.12 1733.22 L2936.86 1733.22 L2936.86 1727.83 Z" fill="#000000" fill-rule="evenodd" fill-opacity="1" /><path clip-path="url(#clip100)" d="M2954.24 1730.56 L2954.24 1737.92 L2963.02 1737.92 L2963.02 1741.23 L2954.24 1741.23 L2954.24 1755.31 Q2954.24 1758.48 2955.1 1759.38 Q2955.98 1760.28 2958.64 1760.28 L2963.02 1760.28 L2963.02 1763.85 L2958.64 1763.85 Q2953.71 1763.85 2951.83 1762.02 Q2949.96 1760.17 2949.96 1755.31 L2949.96 1741.23 L2946.83 1741.23 L2946.83 1737.92 L2949.96 1737.92 L2949.96 1730.56 L2954.24 1730.56 Z" fill="#000000" fill-rule="evenodd" fill-opacity="1" /><path clip-path="url(#clip100)" d="M2979.4 1766.26 Q2977.6 1770.88 2975.89 1772.3 Q2974.17 1773.71 2971.3 1773.71 L2967.9 1773.71 L2967.9 1770.14 L2970.4 1770.14 Q2972.16 1770.14 2973.13 1769.31 Q2974.1 1768.48 2975.28 1765.38 L2976.05 1763.43 L2965.56 1737.92 L2970.08 1737.92 L2978.18 1758.2 L2986.28 1737.92 L2990.79 1737.92 L2979.4 1766.26 Z" fill="#000000" fill-rule="evenodd" fill-opacity="1" /></svg>
