<?xml version="1.0" encoding="utf-8"?>
<svg xmlns="http://www.w3.org/2000/svg" xmlns:xlink="http://www.w3.org/1999/xlink" width="800" height="500" viewBox="0 0 3200 2000">
<defs>
  <clipPath id="clip760">
    <rect x="0" y="0" width="3200" height="2000"/>
  </clipPath>
</defs>
<path clip-path="url(#clip760)" d="
M0 2000 L3200 2000 L3200 0 L0 0  Z
  " fill="#ffffff" fill-rule="evenodd" fill-opacity="1"/>
<defs>
  <clipPath id="clip761">
    <rect x="640" y="0" width="2241" height="2000"/>
  </clipPath>
</defs>
<path clip-path="url(#clip760)" d="
M224.549 824.31 L3152.76 824.31 L3152.76 47.2441 L224.549 47.2441  Z
  " fill="#ffffff" fill-rule="evenodd" fill-opacity="1"/>
<defs>
  <clipPath id="clip762">
    <rect x="224" y="47" width="2929" height="778"/>
  </clipPath>
</defs>
<polyline clip-path="url(#clip762)" style="stroke:#000000; stroke-linecap:round; stroke-linejoin:round; stroke-width:2; stroke-opacity:0.1; fill:none" points="
  284.209,824.31 284.209,47.2441 
  "/>
<polyline clip-path="url(#clip762)" style="stroke:#000000; stroke-linecap:round; stroke-linejoin:round; stroke-width:2; stroke-opacity:0.1; fill:none" points="
  1058.01,824.31 1058.01,47.2441 
  "/>
<polyline clip-path="url(#clip762)" style="stroke:#000000; stroke-linecap:round; stroke-linejoin:round; stroke-width:2; stroke-opacity:0.1; fill:none" points="
  1831.81,824.31 1831.81,47.2441 
  "/>
<polyline clip-path="url(#clip762)" style="stroke:#000000; stroke-linecap:round; stroke-linejoin:round; stroke-width:2; stroke-opacity:0.1; fill:none" points="
  2605.6,824.31 2605.6,47.2441 
  "/>
<polyline clip-path="url(#clip760)" style="stroke:#000000; stroke-linecap:round; stroke-linejoin:round; stroke-width:4; stroke-opacity:1; fill:none" points="
  224.549,824.31 3152.76,824.31 
  "/>
<polyline clip-path="url(#clip760)" style="stroke:#000000; stroke-linecap:round; stroke-linejoin:round; stroke-width:4; stroke-opacity:1; fill:none" points="
  284.209,824.31 284.209,805.412 
  "/>
<polyline clip-path="url(#clip760)" style="stroke:#000000; stroke-linecap:round; stroke-linejoin:round; stroke-width:4; stroke-opacity:1; fill:none" points="
  1058.01,824.31 1058.01,805.412 
  "/>
<polyline clip-path="url(#clip760)" style="stroke:#000000; stroke-linecap:round; stroke-linejoin:round; stroke-width:4; stroke-opacity:1; fill:none" points="
  1831.81,824.31 1831.81,805.412 
  "/>
<polyline clip-path="url(#clip760)" style="stroke:#000000; stroke-linecap:round; stroke-linejoin:round; stroke-width:4; stroke-opacity:1; fill:none" points="
  2605.6,824.31 2605.6,805.412 
  "/>
<path clip-path="url(#clip760)" d="M284.209 861.629 Q280.598 861.629 278.769 865.193 Q276.964 868.735 276.964 875.865 Q276.964 882.971 278.769 886.536 Q280.598 890.077 284.209 890.077 Q287.843 890.077 289.649 886.536 Q291.477 882.971 291.477 875.865 Q291.477 868.735 289.649 865.193 Q287.843 861.629 284.209 861.629 M284.209 857.925 Q290.019 857.925 293.075 862.531 Q296.153 867.115 296.153 875.865 Q296.153 884.591 293.075 889.198 Q290.019 893.781 284.209 893.781 Q278.399 893.781 275.32 889.198 Q272.265 884.591 272.265 875.865 Q272.265 867.115 275.32 862.531 Q278.399 857.925 284.209 857.925 Z" fill="#000000" fill-rule="evenodd" fill-opacity="1" /><path clip-path="url(#clip760)" d="M1017.61 889.175 L1025.25 889.175 L1025.25 862.809 L1016.94 864.476 L1016.94 860.217 L1025.21 858.55 L1029.88 858.55 L1029.88 889.175 L1037.52 889.175 L1037.52 893.11 L1017.61 893.11 L1017.61 889.175 Z" fill="#000000" fill-rule="evenodd" fill-opacity="1" /><path clip-path="url(#clip760)" d="M1056.97 861.629 Q1053.35 861.629 1051.53 865.193 Q1049.72 868.735 1049.72 875.865 Q1049.72 882.971 1051.53 886.536 Q1053.35 890.077 1056.97 890.077 Q1060.6 890.077 1062.41 886.536 Q1064.23 882.971 1064.23 875.865 Q1064.23 868.735 1062.41 865.193 Q1060.6 861.629 1056.97 861.629 M1056.97 857.925 Q1062.78 857.925 1065.83 862.531 Q1068.91 867.115 1068.91 875.865 Q1068.91 884.591 1065.83 889.198 Q1062.78 893.781 1056.97 893.781 Q1051.16 893.781 1048.08 889.198 Q1045.02 884.591 1045.02 875.865 Q1045.02 867.115 1048.08 862.531 Q1051.16 857.925 1056.97 857.925 Z" fill="#000000" fill-rule="evenodd" fill-opacity="1" /><path clip-path="url(#clip760)" d="M1087.13 861.629 Q1083.52 861.629 1081.69 865.193 Q1079.88 868.735 1079.88 875.865 Q1079.88 882.971 1081.69 886.536 Q1083.52 890.077 1087.13 890.077 Q1090.76 890.077 1092.57 886.536 Q1094.4 882.971 1094.4 875.865 Q1094.4 868.735 1092.57 865.193 Q1090.76 861.629 1087.13 861.629 M1087.13 857.925 Q1092.94 857.925 1095.99 862.531 Q1099.07 867.115 1099.07 875.865 Q1099.07 884.591 1095.99 889.198 Q1092.94 893.781 1087.13 893.781 Q1081.32 893.781 1078.24 889.198 Q1075.18 884.591 1075.18 875.865 Q1075.18 867.115 1078.24 862.531 Q1081.32 857.925 1087.13 857.925 Z" fill="#000000" fill-rule="evenodd" fill-opacity="1" /><path clip-path="url(#clip760)" d="M1795.5 889.175 L1811.82 889.175 L1811.82 893.11 L1789.87 893.11 L1789.87 889.175 Q1792.53 886.42 1797.12 881.79 Q1801.72 877.138 1802.9 875.795 Q1805.15 873.272 1806.03 871.536 Q1806.93 869.777 1806.93 868.087 Q1806.93 865.332 1804.99 863.596 Q1803.07 861.86 1799.97 861.86 Q1797.77 861.86 1795.31 862.624 Q1792.88 863.388 1790.1 864.939 L1790.1 860.217 Q1792.93 859.082 1795.38 858.504 Q1797.84 857.925 1799.87 857.925 Q1805.24 857.925 1808.44 860.61 Q1811.63 863.295 1811.63 867.786 Q1811.63 869.916 1810.82 871.837 Q1810.03 873.735 1807.93 876.328 Q1807.35 876.999 1804.25 880.216 Q1801.15 883.411 1795.5 889.175 Z" fill="#000000" fill-rule="evenodd" fill-opacity="1" /><path clip-path="url(#clip760)" d="M1831.63 861.629 Q1828.02 861.629 1826.19 865.193 Q1824.39 868.735 1824.39 875.865 Q1824.39 882.971 1826.19 886.536 Q1828.02 890.077 1831.63 890.077 Q1835.27 890.077 1837.07 886.536 Q1838.9 882.971 1838.9 875.865 Q1838.9 868.735 1837.07 865.193 Q1835.27 861.629 1831.63 861.629 M1831.63 857.925 Q1837.44 857.925 1840.5 862.531 Q1843.58 867.115 1843.58 875.865 Q1843.58 884.591 1840.5 889.198 Q1837.44 893.781 1831.63 893.781 Q1825.82 893.781 1822.74 889.198 Q1819.69 884.591 1819.69 875.865 Q1819.69 867.115 1822.74 862.531 Q1825.82 857.925 1831.63 857.925 Z" fill="#000000" fill-rule="evenodd" fill-opacity="1" /><path clip-path="url(#clip760)" d="M1861.79 861.629 Q1858.18 861.629 1856.35 865.193 Q1854.55 868.735 1854.55 875.865 Q1854.55 882.971 1856.35 886.536 Q1858.18 890.077 1861.79 890.077 Q1865.43 890.077 1867.23 886.536 Q1869.06 882.971 1869.06 875.865 Q1869.06 868.735 1867.23 865.193 Q1865.43 861.629 1861.79 861.629 M1861.79 857.925 Q1867.6 857.925 1870.66 862.531 Q1873.74 867.115 1873.74 875.865 Q1873.74 884.591 1870.66 889.198 Q1867.6 893.781 1861.79 893.781 Q1855.98 893.781 1852.9 889.198 Q1849.85 884.591 1849.85 875.865 Q1849.85 867.115 1852.9 862.531 Q1855.98 857.925 1861.79 857.925 Z" fill="#000000" fill-rule="evenodd" fill-opacity="1" /><path clip-path="url(#clip760)" d="M2579.36 874.476 Q2582.72 875.193 2584.6 877.462 Q2586.49 879.73 2586.49 883.064 Q2586.49 888.179 2582.98 890.98 Q2579.46 893.781 2572.98 893.781 Q2570.8 893.781 2568.49 893.341 Q2566.19 892.925 2563.74 892.068 L2563.74 887.554 Q2565.68 888.689 2568 889.267 Q2570.31 889.846 2572.84 889.846 Q2577.24 889.846 2579.53 888.11 Q2581.84 886.374 2581.84 883.064 Q2581.84 880.008 2579.69 878.295 Q2577.56 876.559 2573.74 876.559 L2569.71 876.559 L2569.71 872.716 L2573.93 872.716 Q2577.37 872.716 2579.2 871.351 Q2581.03 869.962 2581.03 867.369 Q2581.03 864.707 2579.13 863.295 Q2577.26 861.86 2573.74 861.86 Q2571.82 861.86 2569.62 862.277 Q2567.42 862.693 2564.78 863.573 L2564.78 859.406 Q2567.44 858.666 2569.76 858.295 Q2572.1 857.925 2574.16 857.925 Q2579.48 857.925 2582.58 860.355 Q2585.68 862.763 2585.68 866.883 Q2585.68 869.753 2584.04 871.744 Q2582.4 873.712 2579.36 874.476 Z" fill="#000000" fill-rule="evenodd" fill-opacity="1" /><path clip-path="url(#clip760)" d="M2605.36 861.629 Q2601.75 861.629 2599.92 865.193 Q2598.11 868.735 2598.11 875.865 Q2598.11 882.971 2599.92 886.536 Q2601.75 890.077 2605.36 890.077 Q2608.99 890.077 2610.8 886.536 Q2612.63 882.971 2612.63 875.865 Q2612.63 868.735 2610.8 865.193 Q2608.99 861.629 2605.36 861.629 M2605.36 857.925 Q2611.17 857.925 2614.23 862.531 Q2617.3 867.115 2617.3 875.865 Q2617.3 884.591 2614.23 889.198 Q2611.17 893.781 2605.36 893.781 Q2599.55 893.781 2596.47 889.198 Q2593.42 884.591 2593.42 875.865 Q2593.42 867.115 2596.47 862.531 Q2599.55 857.925 2605.36 857.925 Z" fill="#000000" fill-rule="evenodd" fill-opacity="1" /><path clip-path="url(#clip760)" d="M2635.52 861.629 Q2631.91 861.629 2630.08 865.193 Q2628.28 868.735 2628.28 875.865 Q2628.28 882.971 2630.08 886.536 Q2631.91 890.077 2635.52 890.077 Q2639.16 890.077 2640.96 886.536 Q2642.79 882.971 2642.79 875.865 Q2642.79 868.735 2640.96 865.193 Q2639.16 861.629 2635.52 861.629 M2635.52 857.925 Q2641.33 857.925 2644.39 862.531 Q2647.47 867.115 2647.47 875.865 Q2647.47 884.591 2644.39 889.198 Q2641.33 893.781 2635.52 893.781 Q2629.71 893.781 2626.63 889.198 Q2623.58 884.591 2623.58 875.865 Q2623.58 867.115 2626.63 862.531 Q2629.71 857.925 2635.52 857.925 Z" fill="#000000" fill-rule="evenodd" fill-opacity="1" /><path clip-path="url(#clip760)" d="M1558.82 933.654 L1599.02 933.654 L1599.02 939.065 L1582.15 939.065 L1582.15 981.174 L1575.69 981.174 L1575.69 939.065 L1558.82 939.065 L1558.82 933.654 Z" fill="#000000" fill-rule="evenodd" fill-opacity="1" /><path clip-path="url(#clip760)" d="M1602.97 945.526 L1608.83 945.526 L1608.83 981.174 L1602.97 981.174 L1602.97 945.526 M1602.97 931.649 L1608.83 931.649 L1608.83 939.065 L1602.97 939.065 L1602.97 931.649 Z" fill="#000000" fill-rule="evenodd" fill-opacity="1" /><path clip-path="url(#clip760)" d="M1648.83 952.369 Q1651.03 948.422 1654.09 946.544 Q1657.14 944.667 1661.28 944.667 Q1666.85 944.667 1669.87 948.581 Q1672.9 952.465 1672.9 959.658 L1672.9 981.174 L1667.01 981.174 L1667.01 959.849 Q1667.01 954.724 1665.19 952.242 Q1663.38 949.759 1659.66 949.759 Q1655.11 949.759 1652.46 952.783 Q1649.82 955.807 1649.82 961.026 L1649.82 981.174 L1643.93 981.174 L1643.93 959.849 Q1643.93 954.693 1642.12 952.242 Q1640.3 949.759 1636.52 949.759 Q1632.03 949.759 1629.39 952.815 Q1626.75 955.838 1626.75 961.026 L1626.75 981.174 L1620.86 981.174 L1620.86 945.526 L1626.75 945.526 L1626.75 951.064 Q1628.75 947.786 1631.55 946.226 Q1634.35 944.667 1638.2 944.667 Q1642.09 944.667 1644.79 946.64 Q1647.53 948.613 1648.83 952.369 Z" fill="#000000" fill-rule="evenodd" fill-opacity="1" /><path clip-path="url(#clip760)" d="M1715.07 961.886 L1715.07 964.75 L1688.14 964.75 Q1688.53 970.798 1691.77 973.981 Q1695.05 977.132 1700.87 977.132 Q1704.25 977.132 1707.4 976.304 Q1710.58 975.477 1713.7 973.821 L1713.7 979.36 Q1710.55 980.696 1707.24 981.397 Q1703.93 982.097 1700.52 982.097 Q1691.99 982.097 1687 977.132 Q1682.03 972.166 1682.03 963.7 Q1682.03 954.947 1686.74 949.823 Q1691.49 944.667 1699.51 944.667 Q1706.7 944.667 1710.87 949.313 Q1715.07 953.929 1715.07 961.886 M1709.21 960.167 Q1709.15 955.361 1706.51 952.496 Q1703.9 949.632 1699.57 949.632 Q1694.67 949.632 1691.71 952.401 Q1688.78 955.17 1688.33 960.199 L1709.21 960.167 Z" fill="#000000" fill-rule="evenodd" fill-opacity="1" /><path clip-path="url(#clip760)" d="M1759.47 931.712 Q1755.21 939.033 1753.14 946.194 Q1751.07 953.356 1751.07 960.708 Q1751.07 968.06 1753.14 975.286 Q1755.24 982.479 1759.47 989.768 L1754.38 989.768 Q1749.6 982.288 1747.22 975.063 Q1744.86 967.838 1744.86 960.708 Q1744.86 953.61 1747.22 946.417 Q1749.57 939.224 1754.38 931.712 L1759.47 931.712 Z" fill="#000000" fill-rule="evenodd" fill-opacity="1" /><path clip-path="url(#clip760)" d="M1793.56 946.576 L1793.56 952.114 Q1791.08 950.841 1788.4 950.205 Q1785.73 949.568 1782.86 949.568 Q1778.5 949.568 1776.31 950.905 Q1774.14 952.242 1774.14 954.915 Q1774.14 956.952 1775.7 958.13 Q1777.26 959.276 1781.97 960.326 L1783.98 960.772 Q1790.22 962.109 1792.83 964.559 Q1795.47 966.978 1795.47 971.339 Q1795.47 976.304 1791.52 979.2 Q1787.61 982.097 1780.73 982.097 Q1777.87 982.097 1774.75 981.524 Q1771.66 980.983 1768.22 979.869 L1768.22 973.821 Q1771.47 975.508 1774.62 976.368 Q1777.77 977.195 1780.86 977.195 Q1785 977.195 1787.23 975.795 Q1789.45 974.363 1789.45 971.784 Q1789.45 969.397 1787.83 968.124 Q1786.24 966.851 1780.8 965.673 L1778.76 965.196 Q1773.32 964.05 1770.9 961.695 Q1768.48 959.308 1768.48 955.17 Q1768.48 950.141 1772.04 947.404 Q1775.61 944.667 1782.16 944.667 Q1785.41 944.667 1788.28 945.144 Q1791.14 945.621 1793.56 946.576 Z" fill="#000000" fill-rule="evenodd" fill-opacity="1" /><path clip-path="url(#clip760)" d="M1803.87 931.712 L1808.96 931.712 Q1813.74 939.224 1816.09 946.417 Q1818.48 953.61 1818.48 960.708 Q1818.48 967.838 1816.09 975.063 Q1813.74 982.288 1808.96 989.768 L1803.87 989.768 Q1808.1 982.479 1810.17 975.286 Q1812.27 968.06 1812.27 960.708 Q1812.27 953.356 1810.17 946.194 Q1808.1 939.033 1803.87 931.712 Z" fill="#000000" fill-rule="evenodd" fill-opacity="1" /><polyline clip-path="url(#clip762)" style="stroke:#000000; stroke-linecap:round; stroke-linejoin:round; stroke-width:2; stroke-opacity:0.1; fill:none" points="
  224.549,808.48 3152.76,808.48 
  "/>
<polyline clip-path="url(#clip762)" style="stroke:#000000; stroke-linecap:round; stroke-linejoin:round; stroke-width:2; stroke-opacity:0.1; fill:none" points="
  224.549,603.131 3152.76,603.131 
  "/>
<polyline clip-path="url(#clip762)" style="stroke:#000000; stroke-linecap:round; stroke-linejoin:round; stroke-width:2; stroke-opacity:0.1; fill:none" points="
  224.549,397.781 3152.76,397.781 
  "/>
<polyline clip-path="url(#clip762)" style="stroke:#000000; stroke-linecap:round; stroke-linejoin:round; stroke-width:2; stroke-opacity:0.1; fill:none" points="
  224.549,192.432 3152.76,192.432 
  "/>
<polyline clip-path="url(#clip760)" style="stroke:#000000; stroke-linecap:round; stroke-linejoin:round; stroke-width:4; stroke-opacity:1; fill:none" points="
  224.549,824.31 224.549,47.2441 
  "/>
<polyline clip-path="url(#clip760)" style="stroke:#000000; stroke-linecap:round; stroke-linejoin:round; stroke-width:4; stroke-opacity:1; fill:none" points="
  224.549,808.48 243.447,808.48 
  "/>
<polyline clip-path="url(#clip760)" style="stroke:#000000; stroke-linecap:round; stroke-linejoin:round; stroke-width:4; stroke-opacity:1; fill:none" points="
  224.549,603.131 243.447,603.131 
  "/>
<polyline clip-path="url(#clip760)" style="stroke:#000000; stroke-linecap:round; stroke-linejoin:round; stroke-width:4; stroke-opacity:1; fill:none" points="
  224.549,397.781 243.447,397.781 
  "/>
<polyline clip-path="url(#clip760)" style="stroke:#000000; stroke-linecap:round; stroke-linejoin:round; stroke-width:4; stroke-opacity:1; fill:none" points="
  224.549,192.432 243.447,192.432 
  "/>
<path clip-path="url(#clip760)" d="M164.605 794.279 Q160.994 794.279 159.165 797.844 Q157.359 801.385 157.359 808.515 Q157.359 815.621 159.165 819.186 Q160.994 822.728 164.605 822.728 Q168.239 822.728 170.044 819.186 Q171.873 815.621 171.873 808.515 Q171.873 801.385 170.044 797.844 Q168.239 794.279 164.605 794.279 M164.605 790.575 Q170.415 790.575 173.47 795.181 Q176.549 799.765 176.549 808.515 Q176.549 817.242 173.47 821.848 Q170.415 826.431 164.605 826.431 Q158.795 826.431 155.716 821.848 Q152.66 817.242 152.66 808.515 Q152.66 799.765 155.716 795.181 Q158.795 790.575 164.605 790.575 Z" fill="#000000" fill-rule="evenodd" fill-opacity="1" /><path clip-path="url(#clip760)" d="M125.253 616.476 L132.892 616.476 L132.892 590.11 L124.582 591.777 L124.582 587.517 L132.846 585.851 L137.521 585.851 L137.521 616.476 L145.16 616.476 L145.16 620.411 L125.253 620.411 L125.253 616.476 Z" fill="#000000" fill-rule="evenodd" fill-opacity="1" /><path clip-path="url(#clip760)" d="M164.605 588.929 Q160.994 588.929 159.165 592.494 Q157.359 596.036 157.359 603.165 Q157.359 610.272 159.165 613.837 Q160.994 617.378 164.605 617.378 Q168.239 617.378 170.044 613.837 Q171.873 610.272 171.873 603.165 Q171.873 596.036 170.044 592.494 Q168.239 588.929 164.605 588.929 M164.605 585.226 Q170.415 585.226 173.47 589.832 Q176.549 594.415 176.549 603.165 Q176.549 611.892 173.47 616.499 Q170.415 621.082 164.605 621.082 Q158.795 621.082 155.716 616.499 Q152.66 611.892 152.66 603.165 Q152.66 594.415 155.716 589.832 Q158.795 585.226 164.605 585.226 Z" fill="#000000" fill-rule="evenodd" fill-opacity="1" /><path clip-path="url(#clip760)" d="M128.471 411.126 L144.79 411.126 L144.79 415.061 L122.846 415.061 L122.846 411.126 Q125.508 408.372 130.091 403.742 Q134.697 399.089 135.878 397.747 Q138.123 395.224 139.003 393.487 Q139.906 391.728 139.906 390.038 Q139.906 387.284 137.961 385.548 Q136.04 383.812 132.938 383.812 Q130.739 383.812 128.285 384.575 Q125.855 385.339 123.077 386.89 L123.077 382.168 Q125.901 381.034 128.355 380.455 Q130.809 379.876 132.846 379.876 Q138.216 379.876 141.41 382.562 Q144.605 385.247 144.605 389.737 Q144.605 391.867 143.795 393.788 Q143.008 395.686 140.901 398.279 Q140.322 398.95 137.221 402.168 Q134.119 405.362 128.471 411.126 Z" fill="#000000" fill-rule="evenodd" fill-opacity="1" /><path clip-path="url(#clip760)" d="M164.605 383.58 Q160.994 383.58 159.165 387.145 Q157.359 390.686 157.359 397.816 Q157.359 404.923 159.165 408.487 Q160.994 412.029 164.605 412.029 Q168.239 412.029 170.044 408.487 Q171.873 404.923 171.873 397.816 Q171.873 390.686 170.044 387.145 Q168.239 383.58 164.605 383.58 M164.605 379.876 Q170.415 379.876 173.47 384.483 Q176.549 389.066 176.549 397.816 Q176.549 406.543 173.47 411.149 Q170.415 415.733 164.605 415.733 Q158.795 415.733 155.716 411.149 Q152.66 406.543 152.66 397.816 Q152.66 389.066 155.716 384.483 Q158.795 379.876 164.605 379.876 Z" fill="#000000" fill-rule="evenodd" fill-opacity="1" /><path clip-path="url(#clip760)" d="M138.609 191.078 Q141.966 191.795 143.841 194.064 Q145.739 196.332 145.739 199.666 Q145.739 204.782 142.221 207.582 Q138.702 210.383 132.221 210.383 Q130.045 210.383 127.73 209.944 Q125.438 209.527 122.985 208.67 L122.985 204.157 Q124.929 205.291 127.244 205.869 Q129.559 206.448 132.082 206.448 Q136.48 206.448 138.771 204.712 Q141.086 202.976 141.086 199.666 Q141.086 196.61 138.934 194.897 Q136.804 193.161 132.984 193.161 L128.957 193.161 L128.957 189.319 L133.17 189.319 Q136.619 189.319 138.447 187.953 Q140.276 186.564 140.276 183.971 Q140.276 181.309 138.378 179.897 Q136.503 178.462 132.984 178.462 Q131.063 178.462 128.864 178.879 Q126.665 179.296 124.026 180.175 L124.026 176.009 Q126.688 175.268 129.003 174.897 Q131.341 174.527 133.401 174.527 Q138.725 174.527 141.827 176.958 Q144.929 179.365 144.929 183.485 Q144.929 186.356 143.285 188.346 Q141.642 190.314 138.609 191.078 Z" fill="#000000" fill-rule="evenodd" fill-opacity="1" /><path clip-path="url(#clip760)" d="M164.605 178.231 Q160.994 178.231 159.165 181.796 Q157.359 185.337 157.359 192.467 Q157.359 199.573 159.165 203.138 Q160.994 206.68 164.605 206.68 Q168.239 206.68 170.044 203.138 Q171.873 199.573 171.873 192.467 Q171.873 185.337 170.044 181.796 Q168.239 178.231 164.605 178.231 M164.605 174.527 Q170.415 174.527 173.47 179.133 Q176.549 183.717 176.549 192.467 Q176.549 201.194 173.47 205.8 Q170.415 210.383 164.605 210.383 Q158.795 210.383 155.716 205.8 Q152.66 201.194 152.66 192.467 Q152.66 183.717 155.716 179.133 Q158.795 174.527 164.605 174.527 Z" fill="#000000" fill-rule="evenodd" fill-opacity="1" /><path clip-path="url(#clip760)" d="M24.9417 641.103 L42.2882 653.993 L60.5896 640.434 L60.5896 647.341 L46.5851 657.717 L60.5896 668.093 L60.5896 675 L41.9381 661.155 L24.9417 673.823 L24.9417 666.916 L37.6413 657.463 L24.9417 648.01 L24.9417 641.103 Z" fill="#000000" fill-rule="evenodd" fill-opacity="1" /><path clip-path="url(#clip760)" d="M18.3532 604.755 L36.209 604.755 L36.209 596.67 Q36.209 592.182 33.8855 589.732 Q31.562 587.281 27.2652 587.281 Q23.0001 587.281 20.6766 589.732 Q18.3532 592.182 18.3532 596.67 L18.3532 604.755 M13.0696 611.184 L13.0696 596.67 Q13.0696 588.681 16.6981 584.607 Q20.2947 580.501 27.2652 580.501 Q34.2993 580.501 37.8959 584.607 Q41.4925 588.681 41.4925 596.67 L41.4925 604.755 L60.5896 604.755 L60.5896 611.184 L13.0696 611.184 Z" fill="#000000" fill-rule="evenodd" fill-opacity="1" /><path clip-path="url(#clip760)" d="M29.0476 560.64 Q29.0476 565.351 32.7397 568.088 Q36.3999 570.825 42.7975 570.825 Q49.195 570.825 52.8871 568.12 Q56.5474 565.383 56.5474 560.64 Q56.5474 555.962 52.8553 553.224 Q49.1632 550.487 42.7975 550.487 Q36.4636 550.487 32.7715 553.224 Q29.0476 555.962 29.0476 560.64 M24.0823 560.64 Q24.0823 553.001 29.0476 548.641 Q34.0128 544.28 42.7975 544.28 Q51.5503 544.28 56.5474 548.641 Q61.5127 553.001 61.5127 560.64 Q61.5127 568.311 56.5474 572.671 Q51.5503 577 42.7975 577 Q34.0128 577 29.0476 572.671 Q24.0823 568.311 24.0823 560.64 Z" fill="#000000" fill-rule="evenodd" fill-opacity="1" /><path clip-path="url(#clip760)" d="M25.992 511.847 L31.5302 511.847 Q30.257 514.33 29.6205 517.003 Q28.9839 519.677 28.9839 522.542 Q28.9839 526.902 30.3207 529.098 Q31.6575 531.263 34.3311 531.263 Q36.3681 531.263 37.5458 529.703 Q38.6916 528.143 39.7419 523.433 L40.1875 521.428 Q41.5243 515.189 43.9751 512.579 Q46.3941 509.937 50.7546 509.937 Q55.7199 509.937 58.6163 513.884 Q61.5127 517.799 61.5127 524.674 Q61.5127 527.539 60.9397 530.658 Q60.3987 533.745 59.2847 537.183 L53.2372 537.183 Q54.9242 533.936 55.7835 530.785 Q56.6111 527.634 56.6111 524.547 Q56.6111 520.409 55.2106 518.181 Q53.7783 515.953 51.2002 515.953 Q48.8131 515.953 47.5399 517.576 Q46.2668 519.168 45.0891 524.61 L44.6117 526.647 Q43.4659 532.09 41.1106 534.509 Q38.7234 536.928 34.5857 536.928 Q29.5568 536.928 26.8196 533.363 Q24.0823 529.798 24.0823 523.242 Q24.0823 519.995 24.5597 517.131 Q25.0372 514.266 25.992 511.847 Z" fill="#000000" fill-rule="evenodd" fill-opacity="1" /><path clip-path="url(#clip760)" d="M24.9417 500.612 L24.9417 494.755 L60.5896 494.755 L60.5896 500.612 L24.9417 500.612 M11.0644 500.612 L11.0644 494.755 L18.4805 494.755 L18.4805 500.612 L11.0644 500.612 Z" fill="#000000" fill-rule="evenodd" fill-opacity="1" /><path clip-path="url(#clip760)" d="M14.8202 476.708 L24.9417 476.708 L24.9417 464.645 L29.4932 464.645 L29.4932 476.708 L48.8449 476.708 Q53.2054 476.708 54.4467 475.531 Q55.688 474.321 55.688 470.661 L55.688 464.645 L60.5896 464.645 L60.5896 470.661 Q60.5896 477.441 58.0752 480.019 Q55.5289 482.597 48.8449 482.597 L29.4932 482.597 L29.4932 486.894 L24.9417 486.894 L24.9417 482.597 L14.8202 482.597 L14.8202 476.708 Z" fill="#000000" fill-rule="evenodd" fill-opacity="1" /><path clip-path="url(#clip760)" d="M24.9417 456.943 L24.9417 451.086 L60.5896 451.086 L60.5896 456.943 L24.9417 456.943 M11.0644 456.943 L11.0644 451.086 L18.4805 451.086 L18.4805 456.943 L11.0644 456.943 Z" fill="#000000" fill-rule="evenodd" fill-opacity="1" /><path clip-path="url(#clip760)" d="M29.0476 425.019 Q29.0476 429.73 32.7397 432.467 Q36.3999 435.204 42.7975 435.204 Q49.195 435.204 52.8871 432.499 Q56.5474 429.761 56.5474 425.019 Q56.5474 420.34 52.8553 417.603 Q49.1632 414.866 42.7975 414.866 Q36.4636 414.866 32.7715 417.603 Q29.0476 420.34 29.0476 425.019 M24.0823 425.019 Q24.0823 417.38 29.0476 413.02 Q34.0128 408.659 42.7975 408.659 Q51.5503 408.659 56.5474 413.02 Q61.5127 417.38 61.5127 425.019 Q61.5127 432.69 56.5474 437.05 Q51.5503 441.379 42.7975 441.379 Q34.0128 441.379 29.0476 437.05 Q24.0823 432.69 24.0823 425.019 Z" fill="#000000" fill-rule="evenodd" fill-opacity="1" /><path clip-path="url(#clip760)" d="M39.0735 369.319 L60.5896 369.319 L60.5896 375.175 L39.2645 375.175 Q34.2038 375.175 31.6893 377.149 Q29.1749 379.122 29.1749 383.069 Q29.1749 387.811 32.1986 390.549 Q35.2223 393.286 40.4422 393.286 L60.5896 393.286 L60.5896 399.174 L24.9417 399.174 L24.9417 393.286 L30.4798 393.286 Q27.2652 391.185 25.6737 388.352 Q24.0823 385.488 24.0823 381.764 Q24.0823 375.621 27.9017 372.47 Q31.6893 369.319 39.0735 369.319 Z" fill="#000000" fill-rule="evenodd" fill-opacity="1" /><path clip-path="url(#clip760)" d="M11.1281 322.849 Q18.4487 327.114 25.6101 329.183 Q32.7715 331.252 40.1239 331.252 Q47.4763 331.252 54.7014 329.183 Q61.8946 327.083 69.1833 322.849 L69.1833 327.942 Q61.7036 332.716 54.4786 335.103 Q47.2535 337.459 40.1239 337.459 Q33.0261 337.459 25.8329 335.103 Q18.6396 332.748 11.1281 327.942 L11.1281 322.849 Z" fill="#000000" fill-rule="evenodd" fill-opacity="1" /><path clip-path="url(#clip760)" d="M11.0644 311.709 L11.0644 305.821 L40.3149 305.821 L24.9417 288.347 L24.9417 280.867 L41.6198 299.774 L60.5896 280.072 L60.5896 287.711 L43.1794 305.821 L60.5896 305.821 L60.5896 311.709 L11.0644 311.709 Z" fill="#000000" fill-rule="evenodd" fill-opacity="1" /><path clip-path="url(#clip760)" d="M31.7848 245.983 Q27.8381 243.787 25.9602 240.732 Q24.0823 237.676 24.0823 233.538 Q24.0823 227.968 27.9972 224.945 Q31.8803 221.921 39.0735 221.921 L60.5896 221.921 L60.5896 227.809 L39.2645 227.809 Q34.1401 227.809 31.6575 229.624 Q29.1749 231.438 29.1749 235.162 Q29.1749 239.713 32.1986 242.355 Q35.2223 244.997 40.4422 244.997 L60.5896 244.997 L60.5896 250.885 L39.2645 250.885 Q34.1083 250.885 31.6575 252.699 Q29.1749 254.513 29.1749 258.301 Q29.1749 262.789 32.2304 265.431 Q35.2541 268.072 40.4422 268.072 L60.5896 268.072 L60.5896 273.961 L24.9417 273.961 L24.9417 268.072 L30.4798 268.072 Q27.2015 266.067 25.6419 263.266 Q24.0823 260.465 24.0823 256.614 Q24.0823 252.731 26.0557 250.026 Q28.029 247.288 31.7848 245.983 Z" fill="#000000" fill-rule="evenodd" fill-opacity="1" /><path clip-path="url(#clip760)" d="M11.1281 211.163 L11.1281 206.07 Q18.6396 201.296 25.8329 198.941 Q33.0261 196.554 40.1239 196.554 Q47.2535 196.554 54.4786 198.941 Q61.7036 201.296 69.1833 206.07 L69.1833 211.163 Q61.8946 206.93 54.7014 204.861 Q47.4763 202.76 40.1239 202.76 Q32.7715 202.76 25.6101 204.861 Q18.4487 206.93 11.1281 211.163 Z" fill="#000000" fill-rule="evenodd" fill-opacity="1" /><polyline clip-path="url(#clip762)" style="stroke:#009af9; stroke-linecap:round; stroke-linejoin:round; stroke-width:4; stroke-opacity:1; fill:none" points="
  307.423,802.156 330.637,795.961 353.851,790.034 377.065,783.756 400.279,777.52 423.493,771.506 446.706,765.491 469.92,759.337 493.134,753.159 516.348,746.889 
  539.562,740.758 562.776,734.582 585.99,728.356 609.204,722.284 632.418,716.151 655.632,709.994 678.846,703.824 702.06,697.634 725.274,691.45 748.488,685.27 
  771.702,679.09 794.916,672.966 818.13,666.627 841.344,660.541 864.557,654.338 887.771,648.185 910.985,642.111 934.199,635.949 957.413,629.708 980.627,623.439 
  1003.84,617.302 1027.06,611.106 1050.27,604.972 1073.48,598.762 1096.7,592.515 1119.91,586.417 1143.12,580.321 1166.34,574.167 1189.55,568.075 1212.77,562.013 
  1235.98,555.875 1259.19,549.695 1282.41,543.523 1305.62,537.411 1328.84,531.259 1352.05,525.111 1375.26,518.908 1398.48,512.768 1421.69,506.603 1444.91,500.378 
  1468.12,494.28 1491.33,488.163 1514.55,481.909 1537.76,475.757 1560.98,469.533 1584.19,463.387 1607.4,457.25 1630.62,451.053 1653.83,444.928 1677.05,438.713 
  1700.26,432.577 1723.47,426.417 1746.69,420.351 1769.9,414.263 1793.12,408.115 1816.33,401.988 1839.54,395.797 1862.76,389.54 1885.97,383.365 1909.18,377.222 
  1932.4,371.097 1955.61,364.874 1978.83,358.671 2002.04,352.478 2025.25,346.374 2048.47,340.175 2071.68,334.058 2094.9,327.893 2118.11,321.775 2141.32,315.609 
  2164.54,309.365 2187.75,303.131 2210.97,297.008 2234.18,290.894 2257.39,284.853 2280.61,278.712 2303.82,272.497 2327.04,266.407 2350.25,260.278 2373.46,254.172 
  2396.68,247.971 2419.89,241.806 2443.11,235.673 2466.32,229.446 2489.53,223.272 2512.75,217.09 2535.96,210.793 2559.18,204.632 2582.39,198.583 2605.6,192.568 
  2628.82,186.417 2652.03,180.265 2675.25,174.021 2698.46,167.854 2721.67,161.695 2744.89,155.493 2768.1,149.299 2791.31,143.149 2814.53,136.951 2837.74,130.84 
  2860.96,124.655 2884.17,118.473 2907.38,112.281 2930.6,106.209 2953.81,100.063 2977.03,93.8962 3000.24,87.7898 3023.45,81.6844 3046.67,75.4904 3069.88,69.2469 
  
  "/>
<polyline clip-path="url(#clip762)" style="stroke:#e26f46; stroke-linecap:round; stroke-linejoin:round; stroke-width:4; stroke-opacity:1; fill:none" stroke-dasharray="16, 10" points="
  307.423,802.317 330.637,796.156 353.851,789.995 377.065,783.836 400.279,777.675 423.493,771.516 446.706,765.357 469.92,759.196 493.134,753.036 516.348,746.877 
  539.562,740.717 562.776,734.557 585.99,728.397 609.204,722.237 632.418,716.076 655.632,709.914 678.846,703.755 702.06,697.594 725.274,691.434 748.488,685.274 
  771.702,679.113 794.916,672.952 818.13,666.791 841.344,660.631 864.557,654.469 887.771,648.308 910.985,642.149 934.199,635.988 957.413,629.827 980.627,623.668 
  1003.84,617.507 1027.06,611.347 1050.27,605.186 1073.48,599.024 1096.7,592.864 1119.91,586.703 1143.12,580.542 1166.34,574.382 1189.55,568.222 1212.77,562.06 
  1235.98,555.901 1259.19,549.739 1282.41,543.576 1305.62,537.416 1328.84,531.255 1352.05,525.096 1375.26,518.936 1398.48,512.776 1421.69,506.619 1444.91,500.46 
  1468.12,494.301 1491.33,488.139 1514.55,481.974 1537.76,475.814 1560.98,469.653 1584.19,463.493 1607.4,457.334 1630.62,451.175 1653.83,445.014 1677.05,438.853 
  1700.26,432.692 1723.47,426.534 1746.69,420.373 1769.9,414.212 1793.12,408.052 1816.33,401.893 1839.54,395.732 1862.76,389.571 1885.97,383.413 1909.18,377.255 
  1932.4,371.096 1955.61,364.933 1978.83,358.773 2002.04,352.614 2025.25,346.453 2048.47,340.294 2071.68,334.134 2094.9,327.976 2118.11,321.816 2141.32,315.656 
  2164.54,309.494 2187.75,303.334 2210.97,297.174 2234.18,291.011 2257.39,284.851 2280.61,278.692 2303.82,272.53 2327.04,266.368 2350.25,260.207 2373.46,254.047 
  2396.68,247.885 2419.89,241.723 2443.11,235.563 2466.32,229.401 2489.53,223.241 2512.75,217.078 2535.96,210.921 2559.18,204.762 2582.39,198.602 2605.6,192.442 
  2628.82,186.279 2652.03,180.118 2675.25,173.958 2698.46,167.797 2721.67,161.637 2744.89,155.478 2768.1,149.319 2791.31,143.157 2814.53,136.996 2837.74,130.836 
  2860.96,124.677 2884.17,118.517 2907.38,112.356 2930.6,106.195 2953.81,100.035 2977.03,93.8743 3000.24,87.7145 3023.45,81.5546 3046.67,75.3953 3069.88,69.2365 
  
  "/>
<path clip-path="url(#clip760)" d="
M2361.44 798.408 L3055.15 798.408 L3055.15 642.888 L2361.44 642.888  Z
  " fill="#ffffff" fill-rule="evenodd" fill-opacity="1"/>
<polyline clip-path="url(#clip760)" style="stroke:#000000; stroke-linecap:round; stroke-linejoin:round; stroke-width:4; stroke-opacity:1; fill:none" points="
  2361.44,798.408 3055.15,798.408 3055.15,642.888 2361.44,642.888 2361.44,798.408 
  "/>
<polyline clip-path="url(#clip760)" style="stroke:#009af9; stroke-linecap:round; stroke-linejoin:round; stroke-width:4; stroke-opacity:1; fill:none" points="
  2393.97,694.728 2589.19,694.728 
  "/>
<path clip-path="url(#clip760)" d="M2621.72 677.448 L2641.58 677.448 L2641.58 681.383 L2626.4 681.383 L2626.4 691.568 L2640.1 691.568 L2640.1 695.503 L2626.4 695.503 L2626.4 712.008 L2621.72 712.008 L2621.72 677.448 Z" fill="#000000" fill-rule="evenodd" fill-opacity="1" /><path clip-path="url(#clip760)" d="M2645.36 686.082 L2649.62 686.082 L2649.62 712.008 L2645.36 712.008 L2645.36 686.082 M2645.36 675.989 L2649.62 675.989 L2649.62 681.383 L2645.36 681.383 L2645.36 675.989 Z" fill="#000000" fill-rule="evenodd" fill-opacity="1" /><path clip-path="url(#clip760)" d="M2658.53 675.989 L2662.79 675.989 L2662.79 712.008 L2658.53 712.008 L2658.53 675.989 Z" fill="#000000" fill-rule="evenodd" fill-opacity="1" /><path clip-path="url(#clip760)" d="M2675.91 678.721 L2675.91 686.082 L2684.69 686.082 L2684.69 689.392 L2675.91 689.392 L2675.91 703.466 Q2675.91 706.637 2676.77 707.54 Q2677.65 708.443 2680.31 708.443 L2684.69 708.443 L2684.69 712.008 L2680.31 712.008 Q2675.38 712.008 2673.51 710.179 Q2671.63 708.327 2671.63 703.466 L2671.63 689.392 L2668.51 689.392 L2668.51 686.082 L2671.63 686.082 L2671.63 678.721 L2675.91 678.721 Z" fill="#000000" fill-rule="evenodd" fill-opacity="1" /><path clip-path="url(#clip760)" d="M2712.46 697.98 L2712.46 700.063 L2692.88 700.063 Q2693.16 704.461 2695.52 706.776 Q2697.9 709.068 2702.14 709.068 Q2704.59 709.068 2706.88 708.466 Q2709.2 707.864 2711.47 706.66 L2711.47 710.688 Q2709.18 711.66 2706.77 712.17 Q2704.36 712.679 2701.88 712.679 Q2695.68 712.679 2692.05 709.068 Q2688.44 705.457 2688.44 699.299 Q2688.44 692.934 2691.86 689.207 Q2695.31 685.457 2701.14 685.457 Q2706.38 685.457 2709.41 688.836 Q2712.46 692.193 2712.46 697.98 M2708.2 696.73 Q2708.16 693.235 2706.24 691.151 Q2704.34 689.068 2701.19 689.068 Q2697.63 689.068 2695.47 691.082 Q2693.34 693.096 2693.02 696.753 L2708.2 696.73 Z" fill="#000000" fill-rule="evenodd" fill-opacity="1" /><path clip-path="url(#clip760)" d="M2734.48 690.063 Q2733.76 689.647 2732.9 689.461 Q2732.07 689.253 2731.05 689.253 Q2727.44 689.253 2725.5 691.614 Q2723.57 693.952 2723.57 698.35 L2723.57 712.008 L2719.29 712.008 L2719.29 686.082 L2723.57 686.082 L2723.57 690.11 Q2724.92 687.749 2727.07 686.614 Q2729.22 685.457 2732.3 685.457 Q2732.74 685.457 2733.27 685.526 Q2733.81 685.573 2734.45 685.688 L2734.48 690.063 Z" fill="#000000" fill-rule="evenodd" fill-opacity="1" /><polyline clip-path="url(#clip760)" style="stroke:#e26f46; stroke-linecap:round; stroke-linejoin:round; stroke-width:4; stroke-opacity:1; fill:none" stroke-dasharray="16, 10" points="
  2393.97,746.568 2589.19,746.568 
  "/>
<path clip-path="url(#clip760)" d="M2637.56 733.894 L2631.21 751.093 L2643.92 751.093 L2637.56 733.894 M2634.92 729.288 L2640.22 729.288 L2653.39 763.848 L2648.53 763.848 L2645.38 754.982 L2629.8 754.982 L2626.65 763.848 L2621.72 763.848 L2634.92 729.288 Z" fill="#000000" fill-rule="evenodd" fill-opacity="1" /><path clip-path="url(#clip760)" d="M2658.25 737.922 L2662.51 737.922 L2662.51 763.848 L2658.25 763.848 L2658.25 737.922 M2658.25 727.829 L2662.51 727.829 L2662.51 733.223 L2658.25 733.223 L2658.25 727.829 Z" fill="#000000" fill-rule="evenodd" fill-opacity="1" /><path clip-path="url(#clip760)" d="M2686.45 741.903 Q2685.73 741.487 2684.87 741.301 Q2684.04 741.093 2683.02 741.093 Q2679.41 741.093 2677.46 743.454 Q2675.54 745.792 2675.54 750.19 L2675.54 763.848 L2671.26 763.848 L2671.26 737.922 L2675.54 737.922 L2675.54 741.95 Q2676.88 739.589 2679.04 738.454 Q2681.19 737.297 2684.27 737.297 Q2684.71 737.297 2685.24 737.366 Q2685.77 737.413 2686.42 737.528 L2686.45 741.903 Z" fill="#000000" fill-rule="evenodd" fill-opacity="1" /><path clip-path="url(#clip760)" d="M2708.53 738.917 L2708.53 742.899 Q2706.72 741.903 2704.89 741.417 Q2703.09 740.908 2701.24 740.908 Q2697.09 740.908 2694.8 743.547 Q2692.51 746.163 2692.51 750.908 Q2692.51 755.653 2694.8 758.292 Q2697.09 760.908 2701.24 760.908 Q2703.09 760.908 2704.89 760.422 Q2706.72 759.912 2708.53 758.917 L2708.53 762.852 Q2706.75 763.686 2704.82 764.102 Q2702.93 764.519 2700.77 764.519 Q2694.92 764.519 2691.47 760.838 Q2688.02 757.158 2688.02 750.908 Q2688.02 744.565 2691.49 740.931 Q2694.99 737.297 2701.05 737.297 Q2703.02 737.297 2704.89 737.714 Q2706.77 738.107 2708.53 738.917 Z" fill="#000000" fill-rule="evenodd" fill-opacity="1" /><path clip-path="url(#clip760)" d="M2730.96 741.903 Q2730.24 741.487 2729.38 741.301 Q2728.55 741.093 2727.53 741.093 Q2723.92 741.093 2721.98 743.454 Q2720.06 745.792 2720.06 750.19 L2720.06 763.848 L2715.77 763.848 L2715.77 737.922 L2720.06 737.922 L2720.06 741.95 Q2721.4 739.589 2723.55 738.454 Q2725.7 737.297 2728.78 737.297 Q2729.22 737.297 2729.76 737.366 Q2730.29 737.413 2730.94 737.528 L2730.96 741.903 Z" fill="#000000" fill-rule="evenodd" fill-opacity="1" /><path clip-path="url(#clip760)" d="M2747.21 750.815 Q2742.05 750.815 2740.06 751.996 Q2738.07 753.176 2738.07 756.024 Q2738.07 758.292 2739.55 759.635 Q2741.05 760.954 2743.62 760.954 Q2747.16 760.954 2749.29 758.454 Q2751.44 755.931 2751.44 751.764 L2751.44 750.815 L2747.21 750.815 M2755.7 749.056 L2755.7 763.848 L2751.44 763.848 L2751.44 759.912 Q2749.99 762.274 2747.81 763.408 Q2745.63 764.519 2742.49 764.519 Q2738.51 764.519 2736.14 762.297 Q2733.81 760.051 2733.81 756.301 Q2733.81 751.926 2736.72 749.704 Q2739.66 747.482 2745.47 747.482 L2751.44 747.482 L2751.44 747.065 Q2751.44 744.126 2749.5 742.528 Q2747.58 740.908 2744.08 740.908 Q2741.86 740.908 2739.76 741.44 Q2737.65 741.973 2735.7 743.038 L2735.7 739.102 Q2738.04 738.2 2740.24 737.76 Q2742.44 737.297 2744.52 737.297 Q2750.15 737.297 2752.93 740.214 Q2755.7 743.13 2755.7 749.056 Z" fill="#000000" fill-rule="evenodd" fill-opacity="1" /><path clip-path="url(#clip760)" d="M2777.6 727.829 L2777.6 731.371 L2773.53 731.371 Q2771.24 731.371 2770.33 732.297 Q2769.45 733.223 2769.45 735.63 L2769.45 737.922 L2776.47 737.922 L2776.47 741.232 L2769.45 741.232 L2769.45 763.848 L2765.17 763.848 L2765.17 741.232 L2761.1 741.232 L2761.1 737.922 L2765.17 737.922 L2765.17 736.116 Q2765.17 731.788 2767.19 729.82 Q2769.2 727.829 2773.57 727.829 L2777.6 727.829 Z" fill="#000000" fill-rule="evenodd" fill-opacity="1" /><path clip-path="url(#clip760)" d="M2784.55 730.561 L2784.55 737.922 L2793.32 737.922 L2793.32 741.232 L2784.55 741.232 L2784.55 755.306 Q2784.55 758.477 2785.4 759.38 Q2786.28 760.283 2788.94 760.283 L2793.32 760.283 L2793.32 763.848 L2788.94 763.848 Q2784.01 763.848 2782.14 762.019 Q2780.26 760.167 2780.26 755.306 L2780.26 741.232 L2777.14 741.232 L2777.14 737.922 L2780.26 737.922 L2780.26 730.561 L2784.55 730.561 Z" fill="#000000" fill-rule="evenodd" fill-opacity="1" /><path clip-path="url(#clip760)" d="M2818.85 733.13 L2818.85 746.116 L2824.73 746.116 Q2828 746.116 2829.78 744.426 Q2831.56 742.737 2831.56 739.612 Q2831.56 736.51 2829.78 734.82 Q2828 733.13 2824.73 733.13 L2818.85 733.13 M2814.18 729.288 L2824.73 729.288 Q2830.54 729.288 2833.5 731.927 Q2836.49 734.542 2836.49 739.612 Q2836.49 744.727 2833.5 747.343 Q2830.54 749.959 2824.73 749.959 L2818.85 749.959 L2818.85 763.848 L2814.18 763.848 L2814.18 729.288 Z" fill="#000000" fill-rule="evenodd" fill-opacity="1" /><path clip-path="url(#clip760)" d="M2850.93 740.908 Q2847.51 740.908 2845.52 743.593 Q2843.53 746.255 2843.53 750.908 Q2843.53 755.561 2845.5 758.246 Q2847.49 760.908 2850.93 760.908 Q2854.34 760.908 2856.33 758.223 Q2858.32 755.538 2858.32 750.908 Q2858.32 746.301 2856.33 743.616 Q2854.34 740.908 2850.93 740.908 M2850.93 737.297 Q2856.49 737.297 2859.66 740.908 Q2862.83 744.519 2862.83 750.908 Q2862.83 757.274 2859.66 760.908 Q2856.49 764.519 2850.93 764.519 Q2845.36 764.519 2842.19 760.908 Q2839.04 757.274 2839.04 750.908 Q2839.04 744.519 2842.19 740.908 Q2845.36 737.297 2850.93 737.297 Z" fill="#000000" fill-rule="evenodd" fill-opacity="1" /><path clip-path="url(#clip760)" d="M2886.42 738.686 L2886.42 742.714 Q2884.62 741.788 2882.67 741.325 Q2880.73 740.862 2878.64 740.862 Q2875.47 740.862 2873.87 741.834 Q2872.3 742.806 2872.3 744.751 Q2872.3 746.232 2873.43 747.088 Q2874.57 747.922 2878 748.686 L2879.45 749.01 Q2883.99 749.982 2885.89 751.764 Q2887.81 753.524 2887.81 756.695 Q2887.81 760.306 2884.94 762.412 Q2882.09 764.519 2877.09 764.519 Q2875.01 764.519 2872.74 764.102 Q2870.5 763.709 2868 762.899 L2868 758.5 Q2870.36 759.727 2872.65 760.352 Q2874.94 760.954 2877.18 760.954 Q2880.19 760.954 2881.81 759.936 Q2883.43 758.894 2883.43 757.019 Q2883.43 755.283 2882.25 754.357 Q2881.1 753.431 2877.14 752.575 L2875.66 752.227 Q2871.7 751.394 2869.94 749.681 Q2868.18 747.945 2868.18 744.936 Q2868.18 741.278 2870.77 739.288 Q2873.37 737.297 2878.13 737.297 Q2880.5 737.297 2882.58 737.644 Q2884.66 737.991 2886.42 738.686 Z" fill="#000000" fill-rule="evenodd" fill-opacity="1" /><path clip-path="url(#clip760)" d="M2894.59 737.922 L2898.85 737.922 L2898.85 763.848 L2894.59 763.848 L2894.59 737.922 M2894.59 727.829 L2898.85 727.829 L2898.85 733.223 L2894.59 733.223 L2894.59 727.829 Z" fill="#000000" fill-rule="evenodd" fill-opacity="1" /><path clip-path="url(#clip760)" d="M2911.98 730.561 L2911.98 737.922 L2920.75 737.922 L2920.75 741.232 L2911.98 741.232 L2911.98 755.306 Q2911.98 758.477 2912.83 759.38 Q2913.71 760.283 2916.37 760.283 L2920.75 760.283 L2920.75 763.848 L2916.37 763.848 Q2911.44 763.848 2909.57 762.019 Q2907.69 760.167 2907.69 755.306 L2907.69 741.232 L2904.57 741.232 L2904.57 737.922 L2907.69 737.922 L2907.69 730.561 L2911.98 730.561 Z" fill="#000000" fill-rule="evenodd" fill-opacity="1" /><path clip-path="url(#clip760)" d="M2926.35 737.922 L2930.61 737.922 L2930.61 763.848 L2926.35 763.848 L2926.35 737.922 M2926.35 727.829 L2930.61 727.829 L2930.61 733.223 L2926.35 733.223 L2926.35 727.829 Z" fill="#000000" fill-rule="evenodd" fill-opacity="1" /><path clip-path="url(#clip760)" d="M2949.57 740.908 Q2946.14 740.908 2944.15 743.593 Q2942.16 746.255 2942.16 750.908 Q2942.16 755.561 2944.13 758.246 Q2946.12 760.908 2949.57 760.908 Q2952.97 760.908 2954.96 758.223 Q2956.95 755.538 2956.95 750.908 Q2956.95 746.301 2954.96 743.616 Q2952.97 740.908 2949.57 740.908 M2949.57 737.297 Q2955.12 737.297 2958.3 740.908 Q2961.47 744.519 2961.47 750.908 Q2961.47 757.274 2958.3 760.908 Q2955.12 764.519 2949.57 764.519 Q2943.99 764.519 2940.82 760.908 Q2937.67 757.274 2937.67 750.908 Q2937.67 744.519 2940.82 740.908 Q2943.99 737.297 2949.57 737.297 Z" fill="#000000" fill-rule="evenodd" fill-opacity="1" /><path clip-path="url(#clip760)" d="M2990.08 748.2 L2990.08 763.848 L2985.82 763.848 L2985.82 748.338 Q2985.82 744.658 2984.38 742.829 Q2982.95 741.001 2980.08 741.001 Q2976.63 741.001 2974.64 743.2 Q2972.65 745.399 2972.65 749.195 L2972.65 763.848 L2968.36 763.848 L2968.36 737.922 L2972.65 737.922 L2972.65 741.95 Q2974.18 739.612 2976.24 738.454 Q2978.32 737.297 2981.03 737.297 Q2985.49 737.297 2987.79 740.075 Q2990.08 742.829 2990.08 748.2 Z" fill="#000000" fill-rule="evenodd" fill-opacity="1" /><path clip-path="url(#clip760)" d="
M224.549 1824.31 L3152.76 1824.31 L3152.76 1047.24 L224.549 1047.24  Z
  " fill="#ffffff" fill-rule="evenodd" fill-opacity="1"/>
<defs>
  <clipPath id="clip763">
    <rect x="224" y="1047" width="2929" height="778"/>
  </clipPath>
</defs>
<polyline clip-path="url(#clip763)" style="stroke:#000000; stroke-linecap:round; stroke-linejoin:round; stroke-width:2; stroke-opacity:0.1; fill:none" points="
  284.209,1824.31 284.209,1047.24 
  "/>
<polyline clip-path="url(#clip763)" style="stroke:#000000; stroke-linecap:round; stroke-linejoin:round; stroke-width:2; stroke-opacity:0.1; fill:none" points="
  1058.01,1824.31 1058.01,1047.24 
  "/>
<polyline clip-path="url(#clip763)" style="stroke:#000000; stroke-linecap:round; stroke-linejoin:round; stroke-width:2; stroke-opacity:0.1; fill:none" points="
  1831.81,1824.31 1831.81,1047.24 
  "/>
<polyline clip-path="url(#clip763)" style="stroke:#000000; stroke-linecap:round; stroke-linejoin:round; stroke-width:2; stroke-opacity:0.1; fill:none" points="
  2605.6,1824.31 2605.6,1047.24 
  "/>
<polyline clip-path="url(#clip760)" style="stroke:#000000; stroke-linecap:round; stroke-linejoin:round; stroke-width:4; stroke-opacity:1; fill:none" points="
  224.549,1824.31 3152.76,1824.31 
  "/>
<polyline clip-path="url(#clip760)" style="stroke:#000000; stroke-linecap:round; stroke-linejoin:round; stroke-width:4; stroke-opacity:1; fill:none" points="
  284.209,1824.31 284.209,1805.41 
  "/>
<polyline clip-path="url(#clip760)" style="stroke:#000000; stroke-linecap:round; stroke-linejoin:round; stroke-width:4; stroke-opacity:1; fill:none" points="
  1058.01,1824.31 1058.01,1805.41 
  "/>
<polyline clip-path="url(#clip760)" style="stroke:#000000; stroke-linecap:round; stroke-linejoin:round; stroke-width:4; stroke-opacity:1; fill:none" points="
  1831.81,1824.31 1831.81,1805.41 
  "/>
<polyline clip-path="url(#clip760)" style="stroke:#000000; stroke-linecap:round; stroke-linejoin:round; stroke-width:4; stroke-opacity:1; fill:none" points="
  2605.6,1824.31 2605.6,1805.41 
  "/>
<path clip-path="url(#clip760)" d="M284.209 1861.63 Q280.598 1861.63 278.769 1865.19 Q276.964 1868.73 276.964 1875.86 Q276.964 1882.97 278.769 1886.54 Q280.598 1890.08 284.209 1890.08 Q287.843 1890.08 289.649 1886.54 Q291.477 1882.97 291.477 1875.86 Q291.477 1868.73 289.649 1865.19 Q287.843 1861.63 284.209 1861.63 M284.209 1857.92 Q290.019 1857.92 293.075 1862.53 Q296.153 1867.11 296.153 1875.86 Q296.153 1884.59 293.075 1889.2 Q290.019 1893.78 284.209 1893.78 Q278.399 1893.78 275.32 1889.2 Q272.265 1884.59 272.265 1875.86 Q272.265 1867.11 275.32 1862.53 Q278.399 1857.92 284.209 1857.92 Z" fill="#000000" fill-rule="evenodd" fill-opacity="1" /><path clip-path="url(#clip760)" d="M1017.61 1889.17 L1025.25 1889.17 L1025.25 1862.81 L1016.94 1864.48 L1016.94 1860.22 L1025.21 1858.55 L1029.88 1858.55 L1029.88 1889.17 L1037.52 1889.17 L1037.52 1893.11 L1017.61 1893.11 L1017.61 1889.17 Z" fill="#000000" fill-rule="evenodd" fill-opacity="1" /><path clip-path="url(#clip760)" d="M1056.97 1861.63 Q1053.35 1861.63 1051.53 1865.19 Q1049.72 1868.73 1049.72 1875.86 Q1049.72 1882.97 1051.53 1886.54 Q1053.35 1890.08 1056.97 1890.08 Q1060.6 1890.08 1062.41 1886.54 Q1064.23 1882.97 1064.23 1875.86 Q1064.23 1868.73 1062.41 1865.19 Q1060.6 1861.63 1056.97 1861.63 M1056.97 1857.92 Q1062.78 1857.92 1065.83 1862.53 Q1068.91 1867.11 1068.91 1875.86 Q1068.91 1884.59 1065.83 1889.2 Q1062.78 1893.78 1056.97 1893.78 Q1051.16 1893.78 1048.08 1889.2 Q1045.02 1884.59 1045.02 1875.86 Q1045.02 1867.11 1048.08 1862.53 Q1051.16 1857.92 1056.97 1857.92 Z" fill="#000000" fill-rule="evenodd" fill-opacity="1" /><path clip-path="url(#clip760)" d="M1087.13 1861.63 Q1083.52 1861.63 1081.69 1865.19 Q1079.88 1868.73 1079.88 1875.86 Q1079.88 1882.97 1081.69 1886.54 Q1083.52 1890.08 1087.13 1890.08 Q1090.76 1890.08 1092.57 1886.54 Q1094.4 1882.97 1094.4 1875.86 Q1094.4 1868.73 1092.57 1865.19 Q1090.76 1861.63 1087.13 1861.63 M1087.13 1857.92 Q1092.94 1857.92 1095.99 1862.53 Q1099.07 1867.11 1099.07 1875.86 Q1099.07 1884.59 1095.99 1889.2 Q1092.94 1893.78 1087.13 1893.78 Q1081.32 1893.78 1078.24 1889.2 Q1075.18 1884.59 1075.18 1875.86 Q1075.18 1867.11 1078.24 1862.53 Q1081.32 1857.92 1087.13 1857.92 Z" fill="#000000" fill-rule="evenodd" fill-opacity="1" /><path clip-path="url(#clip760)" d="M1795.5 1889.17 L1811.82 1889.17 L1811.82 1893.11 L1789.87 1893.11 L1789.87 1889.17 Q1792.53 1886.42 1797.12 1881.79 Q1801.72 1877.14 1802.9 1875.8 Q1805.15 1873.27 1806.03 1871.54 Q1806.93 1869.78 1806.93 1868.09 Q1806.93 1865.33 1804.99 1863.6 Q1803.07 1861.86 1799.97 1861.86 Q1797.77 1861.86 1795.31 1862.62 Q1792.88 1863.39 1790.1 1864.94 L1790.1 1860.22 Q1792.93 1859.08 1795.38 1858.5 Q1797.84 1857.92 1799.87 1857.92 Q1805.24 1857.92 1808.44 1860.61 Q1811.63 1863.3 1811.63 1867.79 Q1811.63 1869.92 1810.82 1871.84 Q1810.03 1873.73 1807.93 1876.33 Q1807.35 1877 1804.25 1880.22 Q1801.15 1883.41 1795.5 1889.17 Z" fill="#000000" fill-rule="evenodd" fill-opacity="1" /><path clip-path="url(#clip760)" d="M1831.63 1861.63 Q1828.02 1861.63 1826.19 1865.19 Q1824.39 1868.73 1824.39 1875.86 Q1824.39 1882.97 1826.19 1886.54 Q1828.02 1890.08 1831.63 1890.08 Q1835.27 1890.08 1837.07 1886.54 Q1838.9 1882.97 1838.9 1875.86 Q1838.9 1868.73 1837.07 1865.19 Q1835.27 1861.63 1831.63 1861.63 M1831.63 1857.92 Q1837.44 1857.92 1840.5 1862.53 Q1843.58 1867.11 1843.58 1875.86 Q1843.58 1884.59 1840.5 1889.2 Q1837.44 1893.78 1831.63 1893.78 Q1825.82 1893.78 1822.74 1889.2 Q1819.69 1884.59 1819.69 1875.86 Q1819.69 1867.11 1822.74 1862.53 Q1825.82 1857.92 1831.63 1857.92 Z" fill="#000000" fill-rule="evenodd" fill-opacity="1" /><path clip-path="url(#clip760)" d="M1861.79 1861.63 Q1858.18 1861.63 1856.35 1865.19 Q1854.55 1868.73 1854.55 1875.86 Q1854.55 1882.97 1856.35 1886.54 Q1858.18 1890.08 1861.79 1890.08 Q1865.43 1890.08 1867.23 1886.54 Q1869.06 1882.97 1869.06 1875.86 Q1869.06 1868.73 1867.23 1865.19 Q1865.43 1861.63 1861.79 1861.63 M1861.79 1857.92 Q1867.6 1857.92 1870.66 1862.53 Q1873.74 1867.11 1873.74 1875.86 Q1873.74 1884.59 1870.66 1889.2 Q1867.6 1893.78 1861.79 1893.78 Q1855.98 1893.78 1852.9 1889.2 Q1849.85 1884.59 1849.85 1875.86 Q1849.85 1867.11 1852.9 1862.53 Q1855.98 1857.92 1861.79 1857.92 Z" fill="#000000" fill-rule="evenodd" fill-opacity="1" /><path clip-path="url(#clip760)" d="M2579.36 1874.48 Q2582.72 1875.19 2584.6 1877.46 Q2586.49 1879.73 2586.49 1883.06 Q2586.49 1888.18 2582.98 1890.98 Q2579.46 1893.78 2572.98 1893.78 Q2570.8 1893.78 2568.49 1893.34 Q2566.19 1892.92 2563.74 1892.07 L2563.74 1887.55 Q2565.68 1888.69 2568 1889.27 Q2570.31 1889.85 2572.84 1889.85 Q2577.24 1889.85 2579.53 1888.11 Q2581.84 1886.37 2581.84 1883.06 Q2581.84 1880.01 2579.69 1878.3 Q2577.56 1876.56 2573.74 1876.56 L2569.71 1876.56 L2569.71 1872.72 L2573.93 1872.72 Q2577.37 1872.72 2579.2 1871.35 Q2581.03 1869.96 2581.03 1867.37 Q2581.03 1864.71 2579.13 1863.3 Q2577.26 1861.86 2573.74 1861.86 Q2571.82 1861.86 2569.62 1862.28 Q2567.42 1862.69 2564.78 1863.57 L2564.78 1859.41 Q2567.44 1858.67 2569.76 1858.3 Q2572.1 1857.92 2574.16 1857.92 Q2579.48 1857.92 2582.58 1860.36 Q2585.68 1862.76 2585.68 1866.88 Q2585.68 1869.75 2584.04 1871.74 Q2582.4 1873.71 2579.36 1874.48 Z" fill="#000000" fill-rule="evenodd" fill-opacity="1" /><path clip-path="url(#clip760)" d="M2605.36 1861.63 Q2601.75 1861.63 2599.92 1865.19 Q2598.11 1868.73 2598.11 1875.86 Q2598.11 1882.97 2599.92 1886.54 Q2601.75 1890.08 2605.36 1890.08 Q2608.99 1890.08 2610.8 1886.54 Q2612.63 1882.97 2612.63 1875.86 Q2612.63 1868.73 2610.8 1865.19 Q2608.99 1861.63 2605.36 1861.63 M2605.36 1857.92 Q2611.17 1857.92 2614.23 1862.53 Q2617.3 1867.11 2617.3 1875.86 Q2617.3 1884.59 2614.23 1889.2 Q2611.17 1893.78 2605.36 1893.78 Q2599.55 1893.78 2596.47 1889.2 Q2593.42 1884.59 2593.42 1875.86 Q2593.42 1867.11 2596.47 1862.53 Q2599.55 1857.92 2605.36 1857.92 Z" fill="#000000" fill-rule="evenodd" fill-opacity="1" /><path clip-path="url(#clip760)" d="M2635.52 1861.63 Q2631.91 1861.63 2630.08 1865.19 Q2628.28 1868.73 2628.28 1875.86 Q2628.28 1882.97 2630.08 1886.54 Q2631.91 1890.08 2635.52 1890.08 Q2639.16 1890.08 2640.96 1886.54 Q2642.79 1882.97 2642.79 1875.86 Q2642.79 1868.73 2640.96 1865.19 Q2639.16 1861.63 2635.52 1861.63 M2635.52 1857.92 Q2641.33 1857.92 2644.39 1862.53 Q2647.47 1867.11 2647.47 1875.86 Q2647.47 1884.59 2644.39 1889.2 Q2641.33 1893.78 2635.52 1893.78 Q2629.71 1893.78 2626.63 1889.2 Q2623.58 1884.59 2623.58 1875.86 Q2623.58 1867.11 2626.63 1862.53 Q2629.71 1857.92 2635.52 1857.92 Z" fill="#000000" fill-rule="evenodd" fill-opacity="1" /><path clip-path="url(#clip760)" d="M1558.82 1933.65 L1599.02 1933.65 L1599.02 1939.06 L1582.15 1939.06 L1582.15 1981.17 L1575.69 1981.17 L1575.69 1939.06 L1558.82 1939.06 L1558.82 1933.65 Z" fill="#000000" fill-rule="evenodd" fill-opacity="1" /><path clip-path="url(#clip760)" d="M1602.97 1945.53 L1608.83 1945.53 L1608.83 1981.17 L1602.97 1981.17 L1602.97 1945.53 M1602.97 1931.65 L1608.83 1931.65 L1608.83 1939.06 L1602.97 1939.06 L1602.97 1931.65 Z" fill="#000000" fill-rule="evenodd" fill-opacity="1" /><path clip-path="url(#clip760)" d="M1648.83 1952.37 Q1651.03 1948.42 1654.09 1946.54 Q1657.14 1944.67 1661.28 1944.67 Q1666.85 1944.67 1669.87 1948.58 Q1672.9 1952.46 1672.9 1959.66 L1672.9 1981.17 L1667.01 1981.17 L1667.01 1959.85 Q1667.01 1954.72 1665.19 1952.24 Q1663.38 1949.76 1659.66 1949.76 Q1655.11 1949.76 1652.46 1952.78 Q1649.82 1955.81 1649.82 1961.03 L1649.82 1981.17 L1643.93 1981.17 L1643.93 1959.85 Q1643.93 1954.69 1642.12 1952.24 Q1640.3 1949.76 1636.52 1949.76 Q1632.03 1949.76 1629.39 1952.81 Q1626.75 1955.84 1626.75 1961.03 L1626.75 1981.17 L1620.86 1981.17 L1620.86 1945.53 L1626.75 1945.53 L1626.75 1951.06 Q1628.75 1947.79 1631.55 1946.23 Q1634.35 1944.67 1638.2 1944.67 Q1642.09 1944.67 1644.79 1946.64 Q1647.53 1948.61 1648.83 1952.37 Z" fill="#000000" fill-rule="evenodd" fill-opacity="1" /><path clip-path="url(#clip760)" d="M1715.07 1961.89 L1715.07 1964.75 L1688.14 1964.75 Q1688.53 1970.8 1691.77 1973.98 Q1695.05 1977.13 1700.87 1977.13 Q1704.25 1977.13 1707.4 1976.3 Q1710.58 1975.48 1713.7 1973.82 L1713.7 1979.36 Q1710.55 1980.7 1707.24 1981.4 Q1703.93 1982.1 1700.52 1982.1 Q1691.99 1982.1 1687 1977.13 Q1682.03 1972.17 1682.03 1963.7 Q1682.03 1954.95 1686.74 1949.82 Q1691.49 1944.67 1699.51 1944.67 Q1706.7 1944.67 1710.87 1949.31 Q1715.07 1953.93 1715.07 1961.89 M1709.21 1960.17 Q1709.15 1955.36 1706.51 1952.5 Q1703.9 1949.63 1699.57 1949.63 Q1694.67 1949.63 1691.71 1952.4 Q1688.78 1955.17 1688.33 1960.2 L1709.21 1960.17 Z" fill="#000000" fill-rule="evenodd" fill-opacity="1" /><path clip-path="url(#clip760)" d="M1759.47 1931.71 Q1755.21 1939.03 1753.14 1946.19 Q1751.07 1953.36 1751.07 1960.71 Q1751.07 1968.06 1753.14 1975.29 Q1755.24 1982.48 1759.47 1989.77 L1754.38 1989.77 Q1749.6 1982.29 1747.22 1975.06 Q1744.86 1967.84 1744.86 1960.71 Q1744.86 1953.61 1747.22 1946.42 Q1749.57 1939.22 1754.38 1931.71 L1759.47 1931.71 Z" fill="#000000" fill-rule="evenodd" fill-opacity="1" /><path clip-path="url(#clip760)" d="M1793.56 1946.58 L1793.56 1952.11 Q1791.08 1950.84 1788.4 1950.2 Q1785.73 1949.57 1782.86 1949.57 Q1778.5 1949.57 1776.31 1950.9 Q1774.14 1952.24 1774.14 1954.92 Q1774.14 1956.95 1775.7 1958.13 Q1777.26 1959.28 1781.97 1960.33 L1783.98 1960.77 Q1790.22 1962.11 1792.83 1964.56 Q1795.47 1966.98 1795.47 1971.34 Q1795.47 1976.3 1791.52 1979.2 Q1787.61 1982.1 1780.73 1982.1 Q1777.87 1982.1 1774.75 1981.52 Q1771.66 1980.98 1768.22 1979.87 L1768.22 1973.82 Q1771.47 1975.51 1774.62 1976.37 Q1777.77 1977.2 1780.86 1977.2 Q1785 1977.2 1787.23 1975.79 Q1789.45 1974.36 1789.45 1971.78 Q1789.45 1969.4 1787.83 1968.12 Q1786.24 1966.85 1780.8 1965.67 L1778.76 1965.2 Q1773.32 1964.05 1770.9 1961.69 Q1768.48 1959.31 1768.48 1955.17 Q1768.48 1950.14 1772.04 1947.4 Q1775.61 1944.67 1782.16 1944.67 Q1785.41 1944.67 1788.28 1945.14 Q1791.14 1945.62 1793.56 1946.58 Z" fill="#000000" fill-rule="evenodd" fill-opacity="1" /><path clip-path="url(#clip760)" d="M1803.87 1931.71 L1808.96 1931.71 Q1813.74 1939.22 1816.09 1946.42 Q1818.48 1953.61 1818.48 1960.71 Q1818.48 1967.84 1816.09 1975.06 Q1813.74 1982.29 1808.96 1989.77 L1803.87 1989.77 Q1808.1 1982.48 1810.17 1975.29 Q1812.27 1968.06 1812.27 1960.71 Q1812.27 1953.36 1810.17 1946.19 Q1808.1 1939.03 1803.87 1931.71 Z" fill="#000000" fill-rule="evenodd" fill-opacity="1" /><polyline clip-path="url(#clip763)" style="stroke:#000000; stroke-linecap:round; stroke-linejoin:round; stroke-width:2; stroke-opacity:0.1; fill:none" points="
  224.549,1698.02 3152.76,1698.02 
  "/>
<polyline clip-path="url(#clip763)" style="stroke:#000000; stroke-linecap:round; stroke-linejoin:round; stroke-width:2; stroke-opacity:0.1; fill:none" points="
  224.549,1556.06 3152.76,1556.06 
  "/>
<polyline clip-path="url(#clip763)" style="stroke:#000000; stroke-linecap:round; stroke-linejoin:round; stroke-width:2; stroke-opacity:0.1; fill:none" points="
  224.549,1414.09 3152.76,1414.09 
  "/>
<polyline clip-path="url(#clip763)" style="stroke:#000000; stroke-linecap:round; stroke-linejoin:round; stroke-width:2; stroke-opacity:0.1; fill:none" points="
  224.549,1272.13 3152.76,1272.13 
  "/>
<polyline clip-path="url(#clip763)" style="stroke:#000000; stroke-linecap:round; stroke-linejoin:round; stroke-width:2; stroke-opacity:0.1; fill:none" points="
  224.549,1130.17 3152.76,1130.17 
  "/>
<polyline clip-path="url(#clip760)" style="stroke:#000000; stroke-linecap:round; stroke-linejoin:round; stroke-width:4; stroke-opacity:1; fill:none" points="
  224.549,1824.31 224.549,1047.24 
  "/>
<polyline clip-path="url(#clip760)" style="stroke:#000000; stroke-linecap:round; stroke-linejoin:round; stroke-width:4; stroke-opacity:1; fill:none" points="
  224.549,1698.02 243.447,1698.02 
  "/>
<polyline clip-path="url(#clip760)" style="stroke:#000000; stroke-linecap:round; stroke-linejoin:round; stroke-width:4; stroke-opacity:1; fill:none" points="
  224.549,1556.06 243.447,1556.06 
  "/>
<polyline clip-path="url(#clip760)" style="stroke:#000000; stroke-linecap:round; stroke-linejoin:round; stroke-width:4; stroke-opacity:1; fill:none" points="
  224.549,1414.09 243.447,1414.09 
  "/>
<polyline clip-path="url(#clip760)" style="stroke:#000000; stroke-linecap:round; stroke-linejoin:round; stroke-width:4; stroke-opacity:1; fill:none" points="
  224.549,1272.13 243.447,1272.13 
  "/>
<polyline clip-path="url(#clip760)" style="stroke:#000000; stroke-linecap:round; stroke-linejoin:round; stroke-width:4; stroke-opacity:1; fill:none" points="
  224.549,1130.17 243.447,1130.17 
  "/>
<path clip-path="url(#clip760)" d="M111.781 1711.36 L119.42 1711.36 L119.42 1685 L111.11 1686.66 L111.11 1682.4 L119.373 1680.74 L124.049 1680.74 L124.049 1711.36 L131.688 1711.36 L131.688 1715.3 L111.781 1715.3 L111.781 1711.36 Z" fill="#000000" fill-rule="evenodd" fill-opacity="1" /><path clip-path="url(#clip760)" d="M141.133 1709.42 L146.017 1709.42 L146.017 1715.3 L141.133 1715.3 L141.133 1709.42 Z" fill="#000000" fill-rule="evenodd" fill-opacity="1" /><path clip-path="url(#clip760)" d="M160.23 1711.36 L176.549 1711.36 L176.549 1715.3 L154.605 1715.3 L154.605 1711.36 Q157.267 1708.61 161.85 1703.98 Q166.457 1699.32 167.637 1697.98 Q169.882 1695.46 170.762 1693.72 Q171.665 1691.96 171.665 1690.27 Q171.665 1687.52 169.72 1685.78 Q167.799 1684.05 164.697 1684.05 Q162.498 1684.05 160.045 1684.81 Q157.614 1685.57 154.836 1687.13 L154.836 1682.4 Q157.66 1681.27 160.114 1680.69 Q162.568 1680.11 164.605 1680.11 Q169.975 1680.11 173.169 1682.8 Q176.364 1685.48 176.364 1689.97 Q176.364 1692.1 175.554 1694.02 Q174.767 1695.92 172.66 1698.51 Q172.081 1699.19 168.98 1702.4 Q165.878 1705.6 160.23 1711.36 Z" fill="#000000" fill-rule="evenodd" fill-opacity="1" /><path clip-path="url(#clip760)" d="M111.179 1569.4 L118.818 1569.4 L118.818 1543.03 L110.508 1544.7 L110.508 1540.44 L118.772 1538.78 L123.447 1538.78 L123.447 1569.4 L131.086 1569.4 L131.086 1573.34 L111.179 1573.34 L111.179 1569.4 Z" fill="#000000" fill-rule="evenodd" fill-opacity="1" /><path clip-path="url(#clip760)" d="M140.531 1567.46 L145.415 1567.46 L145.415 1573.34 L140.531 1573.34 L140.531 1567.46 Z" fill="#000000" fill-rule="evenodd" fill-opacity="1" /><path clip-path="url(#clip760)" d="M155.646 1538.78 L174.003 1538.78 L174.003 1542.71 L159.929 1542.71 L159.929 1551.18 Q160.947 1550.84 161.966 1550.67 Q162.984 1550.49 164.003 1550.49 Q169.79 1550.49 173.169 1553.66 Q176.549 1556.83 176.549 1562.25 Q176.549 1567.83 173.077 1570.93 Q169.605 1574.01 163.285 1574.01 Q161.109 1574.01 158.841 1573.64 Q156.595 1573.27 154.188 1572.53 L154.188 1567.83 Q156.271 1568.96 158.494 1569.52 Q160.716 1570.07 163.193 1570.07 Q167.197 1570.07 169.535 1567.97 Q171.873 1565.86 171.873 1562.25 Q171.873 1558.64 169.535 1556.53 Q167.197 1554.42 163.193 1554.42 Q161.318 1554.42 159.443 1554.84 Q157.591 1555.26 155.646 1556.14 L155.646 1538.78 Z" fill="#000000" fill-rule="evenodd" fill-opacity="1" /><path clip-path="url(#clip760)" d="M110.276 1427.44 L117.915 1427.44 L117.915 1401.07 L109.605 1402.74 L109.605 1398.48 L117.869 1396.81 L122.545 1396.81 L122.545 1427.44 L130.184 1427.44 L130.184 1431.37 L110.276 1431.37 L110.276 1427.44 Z" fill="#000000" fill-rule="evenodd" fill-opacity="1" /><path clip-path="url(#clip760)" d="M139.628 1425.49 L144.512 1425.49 L144.512 1431.37 L139.628 1431.37 L139.628 1425.49 Z" fill="#000000" fill-rule="evenodd" fill-opacity="1" /><path clip-path="url(#clip760)" d="M164.697 1414.96 Q161.364 1414.96 159.443 1416.74 Q157.545 1418.53 157.545 1421.65 Q157.545 1424.78 159.443 1426.56 Q161.364 1428.34 164.697 1428.34 Q168.031 1428.34 169.952 1426.56 Q171.873 1424.75 171.873 1421.65 Q171.873 1418.53 169.952 1416.74 Q168.054 1414.96 164.697 1414.96 M160.021 1412.97 Q157.012 1412.23 155.322 1410.17 Q153.656 1408.11 153.656 1405.15 Q153.656 1401 156.595 1398.6 Q159.558 1396.19 164.697 1396.19 Q169.859 1396.19 172.799 1398.6 Q175.739 1401 175.739 1405.15 Q175.739 1408.11 174.049 1410.17 Q172.382 1412.23 169.396 1412.97 Q172.776 1413.76 174.651 1416.05 Q176.549 1418.34 176.549 1421.65 Q176.549 1426.68 173.47 1429.36 Q170.415 1432.05 164.697 1432.05 Q158.98 1432.05 155.901 1429.36 Q152.845 1426.68 152.845 1421.65 Q152.845 1418.34 154.744 1416.05 Q156.642 1413.76 160.021 1412.97 M158.308 1405.59 Q158.308 1408.27 159.975 1409.78 Q161.665 1411.28 164.697 1411.28 Q167.707 1411.28 169.396 1409.78 Q171.109 1408.27 171.109 1405.59 Q171.109 1402.9 169.396 1401.4 Q167.707 1399.89 164.697 1399.89 Q161.665 1399.89 159.975 1401.4 Q158.308 1402.9 158.308 1405.59 Z" fill="#000000" fill-rule="evenodd" fill-opacity="1" /><path clip-path="url(#clip760)" d="M114.628 1285.48 L130.947 1285.48 L130.947 1289.41 L109.003 1289.41 L109.003 1285.48 Q111.665 1282.72 116.248 1278.09 Q120.855 1273.44 122.035 1272.1 Q124.281 1269.58 125.16 1267.84 Q126.063 1266.08 126.063 1264.39 Q126.063 1261.64 124.119 1259.9 Q122.197 1258.16 119.096 1258.16 Q116.897 1258.16 114.443 1258.93 Q112.012 1259.69 109.235 1261.24 L109.235 1256.52 Q112.059 1255.39 114.512 1254.81 Q116.966 1254.23 119.003 1254.23 Q124.373 1254.23 127.568 1256.91 Q130.762 1259.6 130.762 1264.09 Q130.762 1266.22 129.952 1268.14 Q129.165 1270.04 127.059 1272.63 Q126.48 1273.3 123.378 1276.52 Q120.276 1279.71 114.628 1285.48 Z" fill="#000000" fill-rule="evenodd" fill-opacity="1" /><path clip-path="url(#clip760)" d="M140.762 1283.53 L145.646 1283.53 L145.646 1289.41 L140.762 1289.41 L140.762 1283.53 Z" fill="#000000" fill-rule="evenodd" fill-opacity="1" /><path clip-path="url(#clip760)" d="M156.642 1285.48 L164.281 1285.48 L164.281 1259.11 L155.97 1260.78 L155.97 1256.52 L164.234 1254.85 L168.91 1254.85 L168.91 1285.48 L176.549 1285.48 L176.549 1289.41 L156.642 1289.41 L156.642 1285.48 Z" fill="#000000" fill-rule="evenodd" fill-opacity="1" /><path clip-path="url(#clip760)" d="M112.915 1143.52 L129.234 1143.52 L129.234 1147.45 L107.29 1147.45 L107.29 1143.52 Q109.952 1140.76 114.535 1136.13 Q119.142 1131.48 120.322 1130.14 Q122.568 1127.61 123.447 1125.88 Q124.35 1124.12 124.35 1122.43 Q124.35 1119.67 122.406 1117.94 Q120.485 1116.2 117.383 1116.2 Q115.184 1116.2 112.73 1116.97 Q110.299 1117.73 107.522 1119.28 L107.522 1114.56 Q110.346 1113.42 112.799 1112.85 Q115.253 1112.27 117.29 1112.27 Q122.66 1112.27 125.855 1114.95 Q129.049 1117.64 129.049 1122.13 Q129.049 1124.26 128.239 1126.18 Q127.452 1128.08 125.346 1130.67 Q124.767 1131.34 121.665 1134.56 Q118.563 1137.75 112.915 1143.52 Z" fill="#000000" fill-rule="evenodd" fill-opacity="1" /><path clip-path="url(#clip760)" d="M139.049 1141.57 L143.933 1141.57 L143.933 1147.45 L139.049 1147.45 L139.049 1141.57 Z" fill="#000000" fill-rule="evenodd" fill-opacity="1" /><path clip-path="url(#clip760)" d="M166.966 1116.97 L155.16 1135.41 L166.966 1135.41 L166.966 1116.97 M165.739 1112.89 L171.619 1112.89 L171.619 1135.41 L176.549 1135.41 L176.549 1139.3 L171.619 1139.3 L171.619 1147.45 L166.966 1147.45 L166.966 1139.3 L151.364 1139.3 L151.364 1134.79 L165.739 1112.89 Z" fill="#000000" fill-rule="evenodd" fill-opacity="1" /><path clip-path="url(#clip760)" d="M48.3443 1637.06 Q54.71 1639.54 56.6516 1641.9 Q58.5931 1644.25 58.5931 1648.2 L58.5931 1652.88 L53.6915 1652.88 L53.6915 1649.44 Q53.6915 1647.02 52.5457 1645.69 Q51.3999 1644.35 47.1348 1642.73 L44.4612 1641.68 L9.3862 1656.09 L9.3862 1649.89 L37.268 1638.75 L9.3862 1627.61 L9.3862 1621.4 L48.3443 1637.06 Z" fill="#000000" fill-rule="evenodd" fill-opacity="1" /><path clip-path="url(#clip760)" d="M2.79769 1585.91 L20.6535 1585.91 L20.6535 1577.83 Q20.6535 1573.34 18.33 1570.89 Q16.0065 1568.44 11.7097 1568.44 Q7.44466 1568.44 5.12118 1570.89 Q2.79769 1573.34 2.79769 1577.83 L2.79769 1585.91 M-2.48584 1592.34 L-2.48584 1577.83 Q-2.48584 1569.84 1.14261 1565.76 Q4.73923 1561.66 11.7097 1561.66 Q18.7438 1561.66 22.3404 1565.76 Q25.937 1569.84 25.937 1577.83 L25.937 1585.91 L45.0342 1585.91 L45.0342 1592.34 L-2.48584 1592.34 Z" fill="#000000" fill-rule="evenodd" fill-opacity="1" /><path clip-path="url(#clip760)" d="M13.4921 1541.8 Q13.4921 1546.51 17.1842 1549.25 Q20.8445 1551.98 27.242 1551.98 Q33.6395 1551.98 37.3317 1549.28 Q40.9919 1546.54 40.9919 1541.8 Q40.9919 1537.12 37.2998 1534.38 Q33.6077 1531.64 27.242 1531.64 Q20.9081 1531.64 17.216 1534.38 Q13.4921 1537.12 13.4921 1541.8 M8.52683 1541.8 Q8.52683 1534.16 13.4921 1529.8 Q18.4573 1525.44 27.242 1525.44 Q35.9949 1525.44 40.9919 1529.8 Q45.9572 1534.16 45.9572 1541.8 Q45.9572 1549.47 40.9919 1553.83 Q35.9949 1558.16 27.242 1558.16 Q18.4573 1558.16 13.4921 1553.83 Q8.52683 1549.47 8.52683 1541.8 Z" fill="#000000" fill-rule="evenodd" fill-opacity="1" /><path clip-path="url(#clip760)" d="M10.4365 1493 L15.9747 1493 Q14.7016 1495.49 14.065 1498.16 Q13.4284 1500.83 13.4284 1503.7 Q13.4284 1508.06 14.7652 1510.26 Q16.102 1512.42 18.7756 1512.42 Q20.8126 1512.42 21.9903 1510.86 Q23.1361 1509.3 24.1865 1504.59 L24.6321 1502.59 Q25.9689 1496.35 28.4197 1493.74 Q30.8386 1491.09 35.1991 1491.09 Q40.1644 1491.09 43.0608 1495.04 Q45.9572 1498.96 45.9572 1505.83 Q45.9572 1508.7 45.3843 1511.82 Q44.8432 1514.9 43.7292 1518.34 L37.6818 1518.34 Q39.3687 1515.09 40.228 1511.94 Q41.0556 1508.79 41.0556 1505.7 Q41.0556 1501.57 39.6551 1499.34 Q38.2229 1497.11 35.6447 1497.11 Q33.2576 1497.11 31.9845 1498.73 Q30.7113 1500.33 29.5337 1505.77 L29.0562 1507.8 Q27.9104 1513.25 25.5551 1515.67 Q23.168 1518.09 19.0302 1518.09 Q14.0013 1518.09 11.2641 1514.52 Q8.52683 1510.96 8.52683 1504.4 Q8.52683 1501.15 9.00426 1498.29 Q9.48169 1495.42 10.4365 1493 Z" fill="#000000" fill-rule="evenodd" fill-opacity="1" /><path clip-path="url(#clip760)" d="M9.3862 1481.77 L9.3862 1475.91 L45.0342 1475.91 L45.0342 1481.77 L9.3862 1481.77 M-4.49104 1481.77 L-4.49104 1475.91 L2.92501 1475.91 L2.92501 1481.77 L-4.49104 1481.77 Z" fill="#000000" fill-rule="evenodd" fill-opacity="1" /><path clip-path="url(#clip760)" d="M-0.735273 1457.87 L9.3862 1457.87 L9.3862 1445.8 L13.9377 1445.8 L13.9377 1457.87 L33.2894 1457.87 Q37.6499 1457.87 38.8913 1456.69 Q40.1326 1455.48 40.1326 1451.82 L40.1326 1445.8 L45.0342 1445.8 L45.0342 1451.82 Q45.0342 1458.6 42.5197 1461.18 Q39.9734 1463.75 33.2894 1463.75 L13.9377 1463.75 L13.9377 1468.05 L9.3862 1468.05 L9.3862 1463.75 L-0.735273 1463.75 L-0.735273 1457.87 Z" fill="#000000" fill-rule="evenodd" fill-opacity="1" /><path clip-path="url(#clip760)" d="M9.3862 1438.1 L9.3862 1432.24 L45.0342 1432.24 L45.0342 1438.1 L9.3862 1438.1 M-4.49104 1438.1 L-4.49104 1432.24 L2.92501 1432.24 L2.92501 1438.1 L-4.49104 1438.1 Z" fill="#000000" fill-rule="evenodd" fill-opacity="1" /><path clip-path="url(#clip760)" d="M13.4921 1406.18 Q13.4921 1410.89 17.1842 1413.62 Q20.8445 1416.36 27.242 1416.36 Q33.6395 1416.36 37.3317 1413.66 Q40.9919 1410.92 40.9919 1406.18 Q40.9919 1401.5 37.2998 1398.76 Q33.6077 1396.02 27.242 1396.02 Q20.9081 1396.02 17.216 1398.76 Q13.4921 1401.5 13.4921 1406.18 M8.52683 1406.18 Q8.52683 1398.54 13.4921 1394.18 Q18.4573 1389.82 27.242 1389.82 Q35.9949 1389.82 40.9919 1394.18 Q45.9572 1398.54 45.9572 1406.18 Q45.9572 1413.85 40.9919 1418.21 Q35.9949 1422.54 27.242 1422.54 Q18.4573 1422.54 13.4921 1418.21 Q8.52683 1413.85 8.52683 1406.18 Z" fill="#000000" fill-rule="evenodd" fill-opacity="1" /><path clip-path="url(#clip760)" d="M23.5181 1350.48 L45.0342 1350.48 L45.0342 1356.33 L23.709 1356.33 Q18.6483 1356.33 16.1338 1358.31 Q13.6194 1360.28 13.6194 1364.23 Q13.6194 1368.97 16.6431 1371.71 Q19.6668 1374.44 24.8867 1374.44 L45.0342 1374.44 L45.0342 1380.33 L9.3862 1380.33 L9.3862 1374.44 L14.9244 1374.44 Q11.7097 1372.34 10.1183 1369.51 Q8.52683 1366.65 8.52683 1362.92 Q8.52683 1356.78 12.3463 1353.63 Q16.1338 1350.48 23.5181 1350.48 Z" fill="#000000" fill-rule="evenodd" fill-opacity="1" /><path clip-path="url(#clip760)" d="M-4.42738 1304.01 Q2.89318 1308.27 10.0546 1310.34 Q17.216 1312.41 24.5684 1312.41 Q31.9208 1312.41 39.1459 1310.34 Q46.3391 1308.24 53.6279 1304.01 L53.6279 1309.1 Q46.1482 1313.87 38.9231 1316.26 Q31.698 1318.62 24.5684 1318.62 Q17.4706 1318.62 10.2774 1316.26 Q3.08415 1313.91 -4.42738 1309.1 L-4.42738 1304.01 Z" fill="#000000" fill-rule="evenodd" fill-opacity="1" /><path clip-path="url(#clip760)" d="M16.2293 1264.89 Q12.2826 1262.69 10.4047 1259.64 Q8.52683 1256.58 8.52683 1252.44 Q8.52683 1246.87 12.4417 1243.85 Q16.3248 1240.83 23.5181 1240.83 L45.0342 1240.83 L45.0342 1246.72 L23.709 1246.72 Q18.5846 1246.72 16.102 1248.53 Q13.6194 1250.34 13.6194 1254.07 Q13.6194 1258.62 16.6431 1261.26 Q19.6668 1263.9 24.8867 1263.9 L45.0342 1263.9 L45.0342 1269.79 L23.709 1269.79 Q18.5528 1269.79 16.102 1271.61 Q13.6194 1273.42 13.6194 1277.21 Q13.6194 1281.7 16.6749 1284.34 Q19.6986 1286.98 24.8867 1286.98 L45.0342 1286.98 L45.0342 1292.87 L9.3862 1292.87 L9.3862 1286.98 L14.9244 1286.98 Q11.646 1284.97 10.0864 1282.17 Q8.52683 1279.37 8.52683 1275.52 Q8.52683 1271.64 10.5002 1268.93 Q12.4736 1266.19 16.2293 1264.89 Z" fill="#000000" fill-rule="evenodd" fill-opacity="1" /><path clip-path="url(#clip760)" d="M-4.42738 1230.07 L-4.42738 1224.98 Q3.08415 1220.2 10.2774 1217.85 Q17.4706 1215.46 24.5684 1215.46 Q31.698 1215.46 38.9231 1217.85 Q46.1482 1220.2 53.6279 1224.98 L53.6279 1230.07 Q46.3391 1225.84 39.1459 1223.77 Q31.9208 1221.67 24.5684 1221.67 Q17.216 1221.67 10.0546 1223.77 Q2.89318 1225.84 -4.42738 1230.07 Z" fill="#000000" fill-rule="evenodd" fill-opacity="1" /><polyline clip-path="url(#clip763)" style="stroke:#009af9; stroke-linecap:round; stroke-linejoin:round; stroke-width:4; stroke-opacity:1; fill:none" points="
  307.423,1802.32 330.637,1794.42 353.851,1792.38 377.065,1793.31 400.279,1793.75 423.493,1789.03 446.706,1787.09 469.92,1783.69 493.134,1783.43 516.348,1786.87 
  539.562,1786.01 562.776,1791.71 585.99,1792.68 609.204,1789.86 632.418,1792.71 655.632,1788.65 678.846,1785.33 702.06,1782.15 725.274,1784.08 748.488,1785.57 
  771.702,1786.31 794.916,1783.01 818.13,1780.5 841.344,1768.6 864.557,1763.77 887.771,1756.15 910.985,1753.09 934.199,1741.93 957.413,1744.37 980.627,1742.65 
  1003.84,1735.8 1027.06,1730.58 1050.27,1729.26 1073.48,1715.89 1096.7,1714.27 1119.91,1708.79 1143.12,1700.99 1166.34,1702.63 1189.55,1689.11 1212.77,1673.71 
  1235.98,1658.25 1259.19,1647.91 1282.41,1637.34 1305.62,1620.62 1328.84,1620.42 1352.05,1615.38 1375.26,1612.67 1398.48,1609.1 1421.69,1593.7 1444.91,1589.07 
  1468.12,1575.54 1491.33,1568.4 1514.55,1571.44 1537.76,1560.87 1560.98,1555.61 1584.19,1550.48 1607.4,1539.57 1630.62,1533.23 1653.83,1522.82 1677.05,1519 
  1700.26,1504.4 1723.47,1505.07 1746.69,1491.22 1769.9,1486.55 1793.12,1479.35 1816.33,1467.69 1839.54,1459.76 1862.76,1452.31 1885.97,1437.17 1909.18,1435.14 
  1932.4,1431.53 1955.61,1429.37 1978.83,1419.55 2002.04,1419.01 2025.25,1418.42 2048.47,1421.51 2071.68,1407.71 2094.9,1403.4 2118.11,1392.93 2141.32,1390.08 
  2164.54,1394.07 2187.75,1390.6 2210.97,1374.44 2234.18,1348.11 2257.39,1329.91 2280.61,1318.41 2303.82,1306.93 2327.04,1286.41 2350.25,1289.41 2373.46,1289.04 
  2396.68,1292.18 2419.89,1268.29 2443.11,1262.29 2466.32,1267.24 2489.53,1252.84 2512.75,1247.92 2535.96,1252.67 2559.18,1249.04 2582.39,1220.56 2605.6,1193.65 
  2628.82,1192.57 2652.03,1178.33 2675.25,1170.11 2698.46,1171.43 2721.67,1166.62 2744.89,1178.49 2768.1,1171.11 2791.31,1169.39 2814.53,1151.43 2837.74,1156.79 
  2860.96,1151.29 2884.17,1151.68 2907.38,1155.82 2930.6,1132.38 2953.81,1117.32 2977.03,1118.85 3000.24,1095.19 3023.45,1083.12 3046.67,1069.24 3069.88,1069.47 
  
  "/>
<polyline clip-path="url(#clip763)" style="stroke:#e26f46; stroke-linecap:round; stroke-linejoin:round; stroke-width:4; stroke-opacity:1; fill:none" stroke-dasharray="16, 10" points="
  307.423,1792.64 330.637,1792.63 353.851,1792.62 377.065,1792.59 400.279,1792.56 423.493,1792.57 446.706,1792.57 469.92,1792.54 493.134,1792.53 516.348,1792.49 
  539.562,1792.52 562.776,1792.55 585.99,1792.51 609.204,1792.5 632.418,1792.55 655.632,1792.57 678.846,1792.58 702.06,1792.59 725.274,1792.59 748.488,1785.48 
  771.702,1778.41 794.916,1771.35 818.13,1764.31 841.344,1757.24 864.557,1750.15 887.771,1743.04 910.985,1735.94 934.199,1728.84 957.413,1721.73 980.627,1714.64 
  1003.84,1707.56 1027.06,1700.43 1050.27,1693.33 1073.48,1686.22 1096.7,1679.1 1119.91,1671.93 1143.12,1664.81 1166.34,1657.72 1189.55,1650.6 1212.77,1643.48 
  1235.98,1636.34 1259.19,1629.24 1282.41,1622.16 1305.62,1615.09 1328.84,1607.95 1352.05,1600.87 1375.26,1593.82 1398.48,1586.66 1421.69,1579.55 1444.91,1572.45 
  1468.12,1565.36 1491.33,1558.27 1514.55,1551.23 1537.76,1544.14 1560.98,1537.05 1584.19,1529.99 1607.4,1522.88 1630.62,1515.81 1653.83,1508.74 1677.05,1501.62 
  1700.26,1494.57 1723.47,1487.47 1746.69,1480.36 1769.9,1473.28 1793.12,1466.19 1816.33,1459.07 1839.54,1451.97 1862.76,1444.82 1885.97,1437.73 1909.18,1430.64 
  1932.4,1423.56 1955.61,1416.49 1978.83,1409.37 2002.04,1402.23 2025.25,1395.12 2048.47,1388.02 2071.68,1380.9 2094.9,1373.8 2118.11,1366.69 2141.32,1359.59 
  2164.54,1352.52 2187.75,1345.44 2210.97,1338.39 2234.18,1331.23 2257.39,1324.1 2280.61,1316.99 2303.82,1309.91 2327.04,1302.8 2350.25,1295.7 2373.46,1288.55 
  2396.68,1281.5 2419.89,1274.41 2443.11,1267.33 2466.32,1260.24 2489.53,1253.15 2512.75,1246.06 2535.96,1238.97 2559.18,1231.87 2582.39,1224.8 2605.6,1217.7 
  2628.82,1210.59 2652.03,1203.5 2675.25,1196.38 2698.46,1189.33 2721.67,1182.18 2744.89,1175.08 2768.1,1167.99 2791.31,1160.93 2814.53,1153.83 2837.74,1146.71 
  2860.96,1139.59 2884.17,1132.46 2907.38,1125.39 2930.6,1118.25 2953.81,1111.13 2977.03,1104.05 3000.24,1096.96 3023.45,1089.84 3046.67,1082.76 3069.88,1075.7 
  
  "/>
<path clip-path="url(#clip760)" d="
M2361.44 1798.41 L3055.15 1798.41 L3055.15 1642.89 L2361.44 1642.89  Z
  " fill="#ffffff" fill-rule="evenodd" fill-opacity="1"/>
<polyline clip-path="url(#clip760)" style="stroke:#000000; stroke-linecap:round; stroke-linejoin:round; stroke-width:4; stroke-opacity:1; fill:none" points="
  2361.44,1798.41 3055.15,1798.41 3055.15,1642.89 2361.44,1642.89 2361.44,1798.41 
  "/>
<polyline clip-path="url(#clip760)" style="stroke:#009af9; stroke-linecap:round; stroke-linejoin:round; stroke-width:4; stroke-opacity:1; fill:none" points="
  2393.97,1694.73 2589.19,1694.73 
  "/>
<path clip-path="url(#clip760)" d="M2621.72 1677.45 L2641.58 1677.45 L2641.58 1681.38 L2626.4 1681.38 L2626.4 1691.57 L2640.1 1691.57 L2640.1 1695.5 L2626.4 1695.5 L2626.4 1712.01 L2621.72 1712.01 L2621.72 1677.45 Z" fill="#000000" fill-rule="evenodd" fill-opacity="1" /><path clip-path="url(#clip760)" d="M2645.36 1686.08 L2649.62 1686.08 L2649.62 1712.01 L2645.36 1712.01 L2645.36 1686.08 M2645.36 1675.99 L2649.62 1675.99 L2649.62 1681.38 L2645.36 1681.38 L2645.36 1675.99 Z" fill="#000000" fill-rule="evenodd" fill-opacity="1" /><path clip-path="url(#clip760)" d="M2658.53 1675.99 L2662.79 1675.99 L2662.79 1712.01 L2658.53 1712.01 L2658.53 1675.99 Z" fill="#000000" fill-rule="evenodd" fill-opacity="1" /><path clip-path="url(#clip760)" d="M2675.91 1678.72 L2675.91 1686.08 L2684.69 1686.08 L2684.69 1689.39 L2675.91 1689.39 L2675.91 1703.47 Q2675.91 1706.64 2676.77 1707.54 Q2677.65 1708.44 2680.31 1708.44 L2684.69 1708.44 L2684.69 1712.01 L2680.31 1712.01 Q2675.38 1712.01 2673.51 1710.18 Q2671.63 1708.33 2671.63 1703.47 L2671.63 1689.39 L2668.51 1689.39 L2668.51 1686.08 L2671.63 1686.08 L2671.63 1678.72 L2675.91 1678.72 Z" fill="#000000" fill-rule="evenodd" fill-opacity="1" /><path clip-path="url(#clip760)" d="M2712.46 1697.98 L2712.46 1700.06 L2692.88 1700.06 Q2693.16 1704.46 2695.52 1706.78 Q2697.9 1709.07 2702.14 1709.07 Q2704.59 1709.07 2706.88 1708.47 Q2709.2 1707.86 2711.47 1706.66 L2711.47 1710.69 Q2709.18 1711.66 2706.77 1712.17 Q2704.36 1712.68 2701.88 1712.68 Q2695.68 1712.68 2692.05 1709.07 Q2688.44 1705.46 2688.44 1699.3 Q2688.44 1692.93 2691.86 1689.21 Q2695.31 1685.46 2701.14 1685.46 Q2706.38 1685.46 2709.41 1688.84 Q2712.46 1692.19 2712.46 1697.98 M2708.2 1696.73 Q2708.16 1693.23 2706.24 1691.15 Q2704.34 1689.07 2701.19 1689.07 Q2697.63 1689.07 2695.47 1691.08 Q2693.34 1693.1 2693.02 1696.75 L2708.2 1696.73 Z" fill="#000000" fill-rule="evenodd" fill-opacity="1" /><path clip-path="url(#clip760)" d="M2734.48 1690.06 Q2733.76 1689.65 2732.9 1689.46 Q2732.07 1689.25 2731.05 1689.25 Q2727.44 1689.25 2725.5 1691.61 Q2723.57 1693.95 2723.57 1698.35 L2723.57 1712.01 L2719.29 1712.01 L2719.29 1686.08 L2723.57 1686.08 L2723.57 1690.11 Q2724.92 1687.75 2727.07 1686.61 Q2729.22 1685.46 2732.3 1685.46 Q2732.74 1685.46 2733.27 1685.53 Q2733.81 1685.57 2734.45 1685.69 L2734.48 1690.06 Z" fill="#000000" fill-rule="evenodd" fill-opacity="1" /><polyline clip-path="url(#clip760)" style="stroke:#e26f46; stroke-linecap:round; stroke-linejoin:round; stroke-width:4; stroke-opacity:1; fill:none" stroke-dasharray="16, 10" points="
  2393.97,1746.57 2589.19,1746.57 
  "/>
<path clip-path="url(#clip760)" d="M2637.56 1733.89 L2631.21 1751.09 L2643.92 1751.09 L2637.56 1733.89 M2634.92 1729.29 L2640.22 1729.29 L2653.39 1763.85 L2648.53 1763.85 L2645.38 1754.98 L2629.8 1754.98 L2626.65 1763.85 L2621.72 1763.85 L2634.92 1729.29 Z" fill="#000000" fill-rule="evenodd" fill-opacity="1" /><path clip-path="url(#clip760)" d="M2658.25 1737.92 L2662.51 1737.92 L2662.51 1763.85 L2658.25 1763.85 L2658.25 1737.92 M2658.25 1727.83 L2662.51 1727.83 L2662.51 1733.22 L2658.25 1733.22 L2658.25 1727.83 Z" fill="#000000" fill-rule="evenodd" fill-opacity="1" /><path clip-path="url(#clip760)" d="M2686.45 1741.9 Q2685.73 1741.49 2684.87 1741.3 Q2684.04 1741.09 2683.02 1741.09 Q2679.41 1741.09 2677.46 1743.45 Q2675.54 1745.79 2675.54 1750.19 L2675.54 1763.85 L2671.26 1763.85 L2671.26 1737.92 L2675.54 1737.92 L2675.54 1741.95 Q2676.88 1739.59 2679.04 1738.45 Q2681.19 1737.3 2684.27 1737.3 Q2684.71 1737.3 2685.24 1737.37 Q2685.77 1737.41 2686.42 1737.53 L2686.45 1741.9 Z" fill="#000000" fill-rule="evenodd" fill-opacity="1" /><path clip-path="url(#clip760)" d="M2708.53 1738.92 L2708.53 1742.9 Q2706.72 1741.9 2704.89 1741.42 Q2703.09 1740.91 2701.24 1740.91 Q2697.09 1740.91 2694.8 1743.55 Q2692.51 1746.16 2692.51 1750.91 Q2692.51 1755.65 2694.8 1758.29 Q2697.09 1760.91 2701.24 1760.91 Q2703.09 1760.91 2704.89 1760.42 Q2706.72 1759.91 2708.53 1758.92 L2708.53 1762.85 Q2706.75 1763.69 2704.82 1764.1 Q2702.93 1764.52 2700.77 1764.52 Q2694.92 1764.52 2691.47 1760.84 Q2688.02 1757.16 2688.02 1750.91 Q2688.02 1744.57 2691.49 1740.93 Q2694.99 1737.3 2701.05 1737.3 Q2703.02 1737.3 2704.89 1737.71 Q2706.77 1738.11 2708.53 1738.92 Z" fill="#000000" fill-rule="evenodd" fill-opacity="1" /><path clip-path="url(#clip760)" d="M2730.96 1741.9 Q2730.24 1741.49 2729.38 1741.3 Q2728.55 1741.09 2727.53 1741.09 Q2723.92 1741.09 2721.98 1743.45 Q2720.06 1745.79 2720.06 1750.19 L2720.06 1763.85 L2715.77 1763.85 L2715.77 1737.92 L2720.06 1737.92 L2720.06 1741.95 Q2721.4 1739.59 2723.55 1738.45 Q2725.7 1737.3 2728.78 1737.3 Q2729.22 1737.3 2729.76 1737.37 Q2730.29 1737.41 2730.94 1737.53 L2730.96 1741.9 Z" fill="#000000" fill-rule="evenodd" fill-opacity="1" /><path clip-path="url(#clip760)" d="M2747.21 1750.82 Q2742.05 1750.82 2740.06 1752 Q2738.07 1753.18 2738.07 1756.02 Q2738.07 1758.29 2739.55 1759.63 Q2741.05 1760.95 2743.62 1760.95 Q2747.16 1760.95 2749.29 1758.45 Q2751.44 1755.93 2751.44 1751.76 L2751.44 1750.82 L2747.21 1750.82 M2755.7 1749.06 L2755.7 1763.85 L2751.44 1763.85 L2751.44 1759.91 Q2749.99 1762.27 2747.81 1763.41 Q2745.63 1764.52 2742.49 1764.52 Q2738.51 1764.52 2736.14 1762.3 Q2733.81 1760.05 2733.81 1756.3 Q2733.81 1751.93 2736.72 1749.7 Q2739.66 1747.48 2745.47 1747.48 L2751.44 1747.48 L2751.44 1747.07 Q2751.44 1744.13 2749.5 1742.53 Q2747.58 1740.91 2744.08 1740.91 Q2741.86 1740.91 2739.76 1741.44 Q2737.65 1741.97 2735.7 1743.04 L2735.7 1739.1 Q2738.04 1738.2 2740.24 1737.76 Q2742.44 1737.3 2744.52 1737.3 Q2750.15 1737.3 2752.93 1740.21 Q2755.7 1743.13 2755.7 1749.06 Z" fill="#000000" fill-rule="evenodd" fill-opacity="1" /><path clip-path="url(#clip760)" d="M2777.6 1727.83 L2777.6 1731.37 L2773.53 1731.37 Q2771.24 1731.37 2770.33 1732.3 Q2769.45 1733.22 2769.45 1735.63 L2769.45 1737.92 L2776.47 1737.92 L2776.47 1741.23 L2769.45 1741.23 L2769.45 1763.85 L2765.17 1763.85 L2765.17 1741.23 L2761.1 1741.23 L2761.1 1737.92 L2765.17 1737.92 L2765.17 1736.12 Q2765.17 1731.79 2767.19 1729.82 Q2769.2 1727.83 2773.57 1727.83 L2777.6 1727.83 Z" fill="#000000" fill-rule="evenodd" fill-opacity="1" /><path clip-path="url(#clip760)" d="M2784.55 1730.56 L2784.55 1737.92 L2793.32 1737.92 L2793.32 1741.23 L2784.55 1741.23 L2784.55 1755.31 Q2784.55 1758.48 2785.4 1759.38 Q2786.28 1760.28 2788.94 1760.28 L2793.32 1760.28 L2793.32 1763.85 L2788.94 1763.85 Q2784.01 1763.85 2782.14 1762.02 Q2780.26 1760.17 2780.26 1755.31 L2780.26 1741.23 L2777.14 1741.23 L2777.14 1737.92 L2780.26 1737.92 L2780.26 1730.56 L2784.55 1730.56 Z" fill="#000000" fill-rule="evenodd" fill-opacity="1" /><path clip-path="url(#clip760)" d="M2818.85 1733.13 L2818.85 1746.12 L2824.73 1746.12 Q2828 1746.12 2829.78 1744.43 Q2831.56 1742.74 2831.56 1739.61 Q2831.56 1736.51 2829.78 1734.82 Q2828 1733.13 2824.73 1733.13 L2818.85 1733.13 M2814.18 1729.29 L2824.73 1729.29 Q2830.54 1729.29 2833.5 1731.93 Q2836.49 1734.54 2836.49 1739.61 Q2836.49 1744.73 2833.5 1747.34 Q2830.54 1749.96 2824.73 1749.96 L2818.85 1749.96 L2818.85 1763.85 L2814.18 1763.85 L2814.18 1729.29 Z" fill="#000000" fill-rule="evenodd" fill-opacity="1" /><path clip-path="url(#clip760)" d="M2850.93 1740.91 Q2847.51 1740.91 2845.52 1743.59 Q2843.53 1746.26 2843.53 1750.91 Q2843.53 1755.56 2845.5 1758.25 Q2847.49 1760.91 2850.93 1760.91 Q2854.34 1760.91 2856.33 1758.22 Q2858.32 1755.54 2858.32 1750.91 Q2858.32 1746.3 2856.33 1743.62 Q2854.34 1740.91 2850.93 1740.91 M2850.93 1737.3 Q2856.49 1737.3 2859.66 1740.91 Q2862.83 1744.52 2862.83 1750.91 Q2862.83 1757.27 2859.66 1760.91 Q2856.49 1764.52 2850.93 1764.52 Q2845.36 1764.52 2842.19 1760.91 Q2839.04 1757.27 2839.04 1750.91 Q2839.04 1744.52 2842.19 1740.91 Q2845.36 1737.3 2850.93 1737.3 Z" fill="#000000" fill-rule="evenodd" fill-opacity="1" /><path clip-path="url(#clip760)" d="M2886.42 1738.69 L2886.42 1742.71 Q2884.62 1741.79 2882.67 1741.32 Q2880.73 1740.86 2878.64 1740.86 Q2875.47 1740.86 2873.87 1741.83 Q2872.3 1742.81 2872.3 1744.75 Q2872.3 1746.23 2873.43 1747.09 Q2874.57 1747.92 2878 1748.69 L2879.45 1749.01 Q2883.99 1749.98 2885.89 1751.76 Q2887.81 1753.52 2887.81 1756.69 Q2887.81 1760.31 2884.94 1762.41 Q2882.09 1764.52 2877.09 1764.52 Q2875.01 1764.52 2872.74 1764.1 Q2870.5 1763.71 2868 1762.9 L2868 1758.5 Q2870.36 1759.73 2872.65 1760.35 Q2874.94 1760.95 2877.18 1760.95 Q2880.19 1760.95 2881.81 1759.94 Q2883.43 1758.89 2883.43 1757.02 Q2883.43 1755.28 2882.25 1754.36 Q2881.1 1753.43 2877.14 1752.57 L2875.66 1752.23 Q2871.7 1751.39 2869.94 1749.68 Q2868.18 1747.94 2868.18 1744.94 Q2868.18 1741.28 2870.77 1739.29 Q2873.37 1737.3 2878.13 1737.3 Q2880.5 1737.3 2882.58 1737.64 Q2884.66 1737.99 2886.42 1738.69 Z" fill="#000000" fill-rule="evenodd" fill-opacity="1" /><path clip-path="url(#clip760)" d="M2894.59 1737.92 L2898.85 1737.92 L2898.85 1763.85 L2894.59 1763.85 L2894.59 1737.92 M2894.59 1727.83 L2898.85 1727.83 L2898.85 1733.22 L2894.59 1733.22 L2894.59 1727.83 Z" fill="#000000" fill-rule="evenodd" fill-opacity="1" /><path clip-path="url(#clip760)" d="M2911.98 1730.56 L2911.98 1737.92 L2920.75 1737.92 L2920.75 1741.23 L2911.98 1741.23 L2911.98 1755.31 Q2911.98 1758.48 2912.83 1759.38 Q2913.71 1760.28 2916.37 1760.28 L2920.75 1760.28 L2920.75 1763.85 L2916.37 1763.85 Q2911.44 1763.85 2909.57 1762.02 Q2907.69 1760.17 2907.69 1755.31 L2907.69 1741.23 L2904.57 1741.23 L2904.57 1737.92 L2907.69 1737.92 L2907.69 1730.56 L2911.98 1730.56 Z" fill="#000000" fill-rule="evenodd" fill-opacity="1" /><path clip-path="url(#clip760)" d="M2926.35 1737.92 L2930.61 1737.92 L2930.61 1763.85 L2926.35 1763.85 L2926.35 1737.92 M2926.35 1727.83 L2930.61 1727.83 L2930.61 1733.22 L2926.35 1733.22 L2926.35 1727.83 Z" fill="#000000" fill-rule="evenodd" fill-opacity="1" /><path clip-path="url(#clip760)" d="M2949.57 1740.91 Q2946.14 1740.91 2944.15 1743.59 Q2942.16 1746.26 2942.16 1750.91 Q2942.16 1755.56 2944.13 1758.25 Q2946.12 1760.91 2949.57 1760.91 Q2952.97 1760.91 2954.96 1758.22 Q2956.95 1755.54 2956.95 1750.91 Q2956.95 1746.3 2954.96 1743.62 Q2952.97 1740.91 2949.57 1740.91 M2949.57 1737.3 Q2955.12 1737.3 2958.3 1740.91 Q2961.47 1744.52 2961.47 1750.91 Q2961.47 1757.27 2958.3 1760.91 Q2955.12 1764.52 2949.57 1764.52 Q2943.99 1764.52 2940.82 1760.91 Q2937.67 1757.27 2937.67 1750.91 Q2937.67 1744.52 2940.82 1740.91 Q2943.99 1737.3 2949.57 1737.3 Z" fill="#000000" fill-rule="evenodd" fill-opacity="1" /><path clip-path="url(#clip760)" d="M2990.08 1748.2 L2990.08 1763.85 L2985.82 1763.85 L2985.82 1748.34 Q2985.82 1744.66 2984.38 1742.83 Q2982.95 1741 2980.08 1741 Q2976.63 1741 2974.64 1743.2 Q2972.65 1745.4 2972.65 1749.19 L2972.65 1763.85 L2968.36 1763.85 L2968.36 1737.92 L2972.65 1737.92 L2972.65 1741.95 Q2974.18 1739.61 2976.24 1738.45 Q2978.32 1737.3 2981.03 1737.3 Q2985.49 1737.3 2987.79 1740.07 Q2990.08 1742.83 2990.08 1748.2 Z" fill="#000000" fill-rule="evenodd" fill-opacity="1" /></svg>
