<?xml version="1.0" encoding="utf-8"?>
<svg xmlns="http://www.w3.org/2000/svg" xmlns:xlink="http://www.w3.org/1999/xlink" width="700" height="500" viewBox="0 0 2800 2000">
<defs>
  <clipPath id="clip020">
    <rect x="0" y="0" width="2800" height="2000"/>
  </clipPath>
</defs>
<path clip-path="url(#clip020)" d="
M0 2000 L2800 2000 L2800 0 L0 0  Z
  " fill="#ffffff" fill-rule="evenodd" fill-opacity="1"/>
<defs>
  <clipPath id="clip021">
    <rect x="560" y="0" width="1961" height="1961"/>
  </clipPath>
</defs>
<path clip-path="url(#clip020)" d="
M212.515 1813.32 L2752.76 1813.32 L2752.76 47.2441 L212.515 47.2441  Z
  " fill="#ffffff" fill-rule="evenodd" fill-opacity="1"/>
<defs>
  <clipPath id="clip022">
    <rect x="212" y="47" width="2541" height="1767"/>
  </clipPath>
</defs>
<polyline clip-path="url(#clip022)" style="stroke:#000000; stroke-linecap:round; stroke-linejoin:round; stroke-width:2; stroke-opacity:0.1; fill:none" points="
  235.502,1813.32 235.502,47.2441 
  "/>
<polyline clip-path="url(#clip022)" style="stroke:#000000; stroke-linecap:round; stroke-linejoin:round; stroke-width:2; stroke-opacity:0.1; fill:none" points="
  724.574,1813.32 724.574,47.2441 
  "/>
<polyline clip-path="url(#clip022)" style="stroke:#000000; stroke-linecap:round; stroke-linejoin:round; stroke-width:2; stroke-opacity:0.1; fill:none" points="
  1213.65,1813.32 1213.65,47.2441 
  "/>
<polyline clip-path="url(#clip022)" style="stroke:#000000; stroke-linecap:round; stroke-linejoin:round; stroke-width:2; stroke-opacity:0.1; fill:none" points="
  1702.72,1813.32 1702.72,47.2441 
  "/>
<polyline clip-path="url(#clip022)" style="stroke:#000000; stroke-linecap:round; stroke-linejoin:round; stroke-width:2; stroke-opacity:0.1; fill:none" points="
  2191.79,1813.32 2191.79,47.2441 
  "/>
<polyline clip-path="url(#clip022)" style="stroke:#000000; stroke-linecap:round; stroke-linejoin:round; stroke-width:2; stroke-opacity:0.1; fill:none" points="
  2680.86,1813.32 2680.86,47.2441 
  "/>
<polyline clip-path="url(#clip020)" style="stroke:#000000; stroke-linecap:round; stroke-linejoin:round; stroke-width:4; stroke-opacity:1; fill:none" points="
  212.515,1813.32 2752.76,1813.32 
  "/>
<polyline clip-path="url(#clip020)" style="stroke:#000000; stroke-linecap:round; stroke-linejoin:round; stroke-width:4; stroke-opacity:1; fill:none" points="
  235.502,1813.32 235.502,1794.42 
  "/>
<polyline clip-path="url(#clip020)" style="stroke:#000000; stroke-linecap:round; stroke-linejoin:round; stroke-width:4; stroke-opacity:1; fill:none" points="
  724.574,1813.32 724.574,1794.42 
  "/>
<polyline clip-path="url(#clip020)" style="stroke:#000000; stroke-linecap:round; stroke-linejoin:round; stroke-width:4; stroke-opacity:1; fill:none" points="
  1213.65,1813.32 1213.65,1794.42 
  "/>
<polyline clip-path="url(#clip020)" style="stroke:#000000; stroke-linecap:round; stroke-linejoin:round; stroke-width:4; stroke-opacity:1; fill:none" points="
  1702.72,1813.32 1702.72,1794.42 
  "/>
<polyline clip-path="url(#clip020)" style="stroke:#000000; stroke-linecap:round; stroke-linejoin:round; stroke-width:4; stroke-opacity:1; fill:none" points="
  2191.79,1813.32 2191.79,1794.42 
  "/>
<polyline clip-path="url(#clip020)" style="stroke:#000000; stroke-linecap:round; stroke-linejoin:round; stroke-width:4; stroke-opacity:1; fill:none" points="
  2680.86,1813.32 2680.86,1794.42 
  "/>
<path clip-path="url(#clip020)" d="M235.502 1847.44 Q231.891 1847.44 230.062 1851 Q228.256 1854.54 228.256 1861.67 Q228.256 1868.78 230.062 1872.34 Q231.891 1875.88 235.502 1875.88 Q239.136 1875.88 240.941 1872.34 Q242.77 1868.78 242.77 1861.67 Q242.77 1854.54 240.941 1851 Q239.136 1847.44 235.502 1847.44 M235.502 1843.73 Q241.312 1843.73 244.367 1848.34 Q247.446 1852.92 247.446 1861.67 Q247.446 1870.4 244.367 1875 Q241.312 1879.59 235.502 1879.59 Q229.691 1879.59 226.613 1875 Q223.557 1870.4 223.557 1861.67 Q223.557 1852.92 226.613 1848.34 Q229.691 1843.73 235.502 1843.73 Z" fill="#000000" fill-rule="evenodd" fill-opacity="1" /><path clip-path="url(#clip020)" d="M699.261 1874.98 L706.9 1874.98 L706.9 1848.62 L698.59 1850.28 L698.59 1846.02 L706.854 1844.36 L711.53 1844.36 L711.53 1874.98 L719.169 1874.98 L719.169 1878.92 L699.261 1878.92 L699.261 1874.98 Z" fill="#000000" fill-rule="evenodd" fill-opacity="1" /><path clip-path="url(#clip020)" d="M738.613 1847.44 Q735.002 1847.44 733.173 1851 Q731.368 1854.54 731.368 1861.67 Q731.368 1868.78 733.173 1872.34 Q735.002 1875.88 738.613 1875.88 Q742.247 1875.88 744.053 1872.34 Q745.882 1868.78 745.882 1861.67 Q745.882 1854.54 744.053 1851 Q742.247 1847.44 738.613 1847.44 M738.613 1843.73 Q744.423 1843.73 747.479 1848.34 Q750.557 1852.92 750.557 1861.67 Q750.557 1870.4 747.479 1875 Q744.423 1879.59 738.613 1879.59 Q732.803 1879.59 729.724 1875 Q726.669 1870.4 726.669 1861.67 Q726.669 1852.92 729.724 1848.34 Q732.803 1843.73 738.613 1843.73 Z" fill="#000000" fill-rule="evenodd" fill-opacity="1" /><path clip-path="url(#clip020)" d="M1192.42 1874.98 L1208.74 1874.98 L1208.74 1878.92 L1186.79 1878.92 L1186.79 1874.98 Q1189.46 1872.23 1194.04 1867.6 Q1198.65 1862.94 1199.83 1861.6 Q1202.07 1859.08 1202.95 1857.34 Q1203.85 1855.58 1203.85 1853.89 Q1203.85 1851.14 1201.91 1849.4 Q1199.99 1847.67 1196.89 1847.67 Q1194.69 1847.67 1192.23 1848.43 Q1189.8 1849.19 1187.03 1850.75 L1187.03 1846.02 Q1189.85 1844.89 1192.3 1844.31 Q1194.76 1843.73 1196.79 1843.73 Q1202.16 1843.73 1205.36 1846.42 Q1208.55 1849.1 1208.55 1853.59 Q1208.55 1855.72 1207.74 1857.64 Q1206.96 1859.54 1204.85 1862.13 Q1204.27 1862.81 1201.17 1866.02 Q1198.07 1869.22 1192.42 1874.98 Z" fill="#000000" fill-rule="evenodd" fill-opacity="1" /><path clip-path="url(#clip020)" d="M1228.55 1847.44 Q1224.94 1847.44 1223.11 1851 Q1221.31 1854.54 1221.31 1861.67 Q1221.31 1868.78 1223.11 1872.34 Q1224.94 1875.88 1228.55 1875.88 Q1232.19 1875.88 1233.99 1872.34 Q1235.82 1868.78 1235.82 1861.67 Q1235.82 1854.54 1233.99 1851 Q1232.19 1847.44 1228.55 1847.44 M1228.55 1843.73 Q1234.36 1843.73 1237.42 1848.34 Q1240.5 1852.92 1240.5 1861.67 Q1240.5 1870.4 1237.42 1875 Q1234.36 1879.59 1228.55 1879.59 Q1222.74 1879.59 1219.66 1875 Q1216.61 1870.4 1216.61 1861.67 Q1216.61 1852.92 1219.66 1848.34 Q1222.74 1843.73 1228.55 1843.73 Z" fill="#000000" fill-rule="evenodd" fill-opacity="1" /><path clip-path="url(#clip020)" d="M1691.56 1860.28 Q1694.92 1861 1696.79 1863.27 Q1698.69 1865.54 1698.69 1868.87 Q1698.69 1873.99 1695.17 1876.79 Q1691.65 1879.59 1685.17 1879.59 Q1683 1879.59 1680.68 1879.15 Q1678.39 1878.73 1675.94 1877.88 L1675.94 1873.36 Q1677.88 1874.5 1680.2 1875.07 Q1682.51 1875.65 1685.03 1875.65 Q1689.43 1875.65 1691.72 1873.92 Q1694.04 1872.18 1694.04 1868.87 Q1694.04 1865.82 1691.88 1864.1 Q1689.76 1862.37 1685.94 1862.37 L1681.91 1862.37 L1681.91 1858.52 L1686.12 1858.52 Q1689.57 1858.52 1691.4 1857.16 Q1693.23 1855.77 1693.23 1853.18 Q1693.23 1850.51 1691.33 1849.1 Q1689.45 1847.67 1685.94 1847.67 Q1684.01 1847.67 1681.82 1848.08 Q1679.62 1848.5 1676.98 1849.38 L1676.98 1845.21 Q1679.64 1844.47 1681.95 1844.1 Q1684.29 1843.73 1686.35 1843.73 Q1691.68 1843.73 1694.78 1846.16 Q1697.88 1848.57 1697.88 1852.69 Q1697.88 1855.56 1696.24 1857.55 Q1694.59 1859.52 1691.56 1860.28 Z" fill="#000000" fill-rule="evenodd" fill-opacity="1" /><path clip-path="url(#clip020)" d="M1717.56 1847.44 Q1713.94 1847.44 1712.12 1851 Q1710.31 1854.54 1710.31 1861.67 Q1710.31 1868.78 1712.12 1872.34 Q1713.94 1875.88 1717.56 1875.88 Q1721.19 1875.88 1723 1872.34 Q1724.82 1868.78 1724.82 1861.67 Q1724.82 1854.54 1723 1851 Q1721.19 1847.44 1717.56 1847.44 M1717.56 1843.73 Q1723.37 1843.73 1726.42 1848.34 Q1729.5 1852.92 1729.5 1861.67 Q1729.5 1870.4 1726.42 1875 Q1723.37 1879.59 1717.56 1879.59 Q1711.75 1879.59 1708.67 1875 Q1705.61 1870.4 1705.61 1861.67 Q1705.61 1852.92 1708.67 1848.34 Q1711.75 1843.73 1717.56 1843.73 Z" fill="#000000" fill-rule="evenodd" fill-opacity="1" /><path clip-path="url(#clip020)" d="M2179.96 1848.43 L2168.16 1866.88 L2179.96 1866.88 L2179.96 1848.43 M2178.73 1844.36 L2184.61 1844.36 L2184.61 1866.88 L2189.54 1866.88 L2189.54 1870.77 L2184.61 1870.77 L2184.61 1878.92 L2179.96 1878.92 L2179.96 1870.77 L2164.36 1870.77 L2164.36 1866.26 L2178.73 1844.36 Z" fill="#000000" fill-rule="evenodd" fill-opacity="1" /><path clip-path="url(#clip020)" d="M2207.28 1847.44 Q2203.67 1847.44 2201.84 1851 Q2200.03 1854.54 2200.03 1861.67 Q2200.03 1868.78 2201.84 1872.34 Q2203.67 1875.88 2207.28 1875.88 Q2210.91 1875.88 2212.72 1872.34 Q2214.54 1868.78 2214.54 1861.67 Q2214.54 1854.54 2212.72 1851 Q2210.91 1847.44 2207.28 1847.44 M2207.28 1843.73 Q2213.09 1843.73 2216.14 1848.34 Q2219.22 1852.92 2219.22 1861.67 Q2219.22 1870.4 2216.14 1875 Q2213.09 1879.59 2207.28 1879.59 Q2201.47 1879.59 2198.39 1875 Q2195.33 1870.4 2195.33 1861.67 Q2195.33 1852.92 2198.39 1848.34 Q2201.47 1843.73 2207.28 1843.73 Z" fill="#000000" fill-rule="evenodd" fill-opacity="1" /><path clip-path="url(#clip020)" d="M2655.56 1844.36 L2673.92 1844.36 L2673.92 1848.29 L2659.84 1848.29 L2659.84 1856.76 Q2660.86 1856.42 2661.88 1856.26 Q2662.9 1856.07 2663.92 1856.07 Q2669.7 1856.07 2673.08 1859.24 Q2676.46 1862.41 2676.46 1867.83 Q2676.46 1873.41 2672.99 1876.51 Q2669.52 1879.59 2663.2 1879.59 Q2661.02 1879.59 2658.76 1879.22 Q2656.51 1878.85 2654.1 1878.11 L2654.1 1873.41 Q2656.19 1874.54 2658.41 1875.1 Q2660.63 1875.65 2663.11 1875.65 Q2667.11 1875.65 2669.45 1873.55 Q2671.79 1871.44 2671.79 1867.83 Q2671.79 1864.22 2669.45 1862.11 Q2667.11 1860.01 2663.11 1860.01 Q2661.23 1860.01 2659.36 1860.42 Q2657.51 1860.84 2655.56 1861.72 L2655.56 1844.36 Z" fill="#000000" fill-rule="evenodd" fill-opacity="1" /><path clip-path="url(#clip020)" d="M2695.68 1847.44 Q2692.07 1847.44 2690.24 1851 Q2688.43 1854.54 2688.43 1861.67 Q2688.43 1868.78 2690.24 1872.34 Q2692.07 1875.88 2695.68 1875.88 Q2699.31 1875.88 2701.12 1872.34 Q2702.95 1868.78 2702.95 1861.67 Q2702.95 1854.54 2701.12 1851 Q2699.31 1847.44 2695.68 1847.44 M2695.68 1843.73 Q2701.49 1843.73 2704.54 1848.34 Q2707.62 1852.92 2707.62 1861.67 Q2707.62 1870.4 2704.54 1875 Q2701.49 1879.59 2695.68 1879.59 Q2689.87 1879.59 2686.79 1875 Q2683.73 1870.4 2683.73 1861.67 Q2683.73 1852.92 2686.79 1848.34 Q2689.87 1843.73 2695.68 1843.73 Z" fill="#000000" fill-rule="evenodd" fill-opacity="1" /><path clip-path="url(#clip020)" d="M1352.81 1916.66 L1393.01 1916.66 L1393.01 1922.07 L1376.14 1922.07 L1376.14 1964.18 L1369.68 1964.18 L1369.68 1922.07 L1352.81 1922.07 L1352.81 1916.66 Z" fill="#000000" fill-rule="evenodd" fill-opacity="1" /><path clip-path="url(#clip020)" d="M1396.95 1928.53 L1402.81 1928.53 L1402.81 1964.18 L1396.95 1964.18 L1396.95 1928.53 M1396.95 1914.66 L1402.81 1914.66 L1402.81 1922.07 L1396.95 1922.07 L1396.95 1914.66 Z" fill="#000000" fill-rule="evenodd" fill-opacity="1" /><path clip-path="url(#clip020)" d="M1442.82 1935.38 Q1445.01 1931.43 1448.07 1929.55 Q1451.13 1927.67 1455.26 1927.67 Q1460.83 1927.67 1463.86 1931.59 Q1466.88 1935.47 1466.88 1942.66 L1466.88 1964.18 L1460.99 1964.18 L1460.99 1942.86 Q1460.99 1937.73 1459.18 1935.25 Q1457.36 1932.77 1453.64 1932.77 Q1449.09 1932.77 1446.45 1935.79 Q1443.8 1938.81 1443.8 1944.03 L1443.8 1964.18 L1437.92 1964.18 L1437.92 1942.86 Q1437.92 1937.7 1436.1 1935.25 Q1434.29 1932.77 1430.5 1932.77 Q1426.01 1932.77 1423.37 1935.82 Q1420.73 1938.85 1420.73 1944.03 L1420.73 1964.18 L1414.84 1964.18 L1414.84 1928.53 L1420.73 1928.53 L1420.73 1934.07 Q1422.73 1930.79 1425.54 1929.23 Q1428.34 1927.67 1432.19 1927.67 Q1436.07 1927.67 1438.78 1929.65 Q1441.51 1931.62 1442.82 1935.38 Z" fill="#000000" fill-rule="evenodd" fill-opacity="1" /><path clip-path="url(#clip020)" d="M1509.05 1944.89 L1509.05 1947.76 L1482.13 1947.76 Q1482.51 1953.8 1485.75 1956.99 Q1489.03 1960.14 1494.86 1960.14 Q1498.23 1960.14 1501.38 1959.31 Q1504.57 1958.48 1507.68 1956.83 L1507.68 1962.37 Q1504.53 1963.7 1501.22 1964.4 Q1497.91 1965.1 1494.51 1965.1 Q1485.98 1965.1 1480.98 1960.14 Q1476.02 1955.17 1476.02 1946.71 Q1476.02 1937.95 1480.73 1932.83 Q1485.47 1927.67 1493.49 1927.67 Q1500.68 1927.67 1504.85 1932.32 Q1509.05 1936.94 1509.05 1944.89 M1503.2 1943.17 Q1503.13 1938.37 1500.49 1935.5 Q1497.88 1932.64 1493.55 1932.64 Q1488.65 1932.64 1485.69 1935.41 Q1482.76 1938.18 1482.32 1943.21 L1503.2 1943.17 Z" fill="#000000" fill-rule="evenodd" fill-opacity="1" /><path clip-path="url(#clip020)" d="M1553.45 1914.72 Q1549.19 1922.04 1547.12 1929.2 Q1545.05 1936.36 1545.05 1943.72 Q1545.05 1951.07 1547.12 1958.29 Q1549.22 1965.49 1553.45 1972.77 L1548.36 1972.77 Q1543.59 1965.29 1541.2 1958.07 Q1538.84 1950.84 1538.84 1943.72 Q1538.84 1936.62 1541.2 1929.42 Q1543.56 1922.23 1548.36 1914.72 L1553.45 1914.72 Z" fill="#000000" fill-rule="evenodd" fill-opacity="1" /><path clip-path="url(#clip020)" d="M1587.54 1929.58 L1587.54 1935.12 Q1585.06 1933.85 1582.39 1933.21 Q1579.71 1932.58 1576.85 1932.58 Q1572.49 1932.58 1570.29 1933.91 Q1568.13 1935.25 1568.13 1937.92 Q1568.13 1939.96 1569.69 1941.14 Q1571.25 1942.28 1575.96 1943.33 L1577.96 1943.78 Q1584.2 1945.12 1586.81 1947.57 Q1589.45 1949.99 1589.45 1954.35 Q1589.45 1959.31 1585.51 1962.21 Q1581.59 1965.1 1574.72 1965.1 Q1571.85 1965.1 1568.73 1964.53 Q1565.64 1963.99 1562.21 1962.88 L1562.21 1956.83 Q1565.45 1958.52 1568.6 1959.37 Q1571.76 1960.2 1574.84 1960.2 Q1578.98 1960.2 1581.21 1958.8 Q1583.44 1957.37 1583.44 1954.79 Q1583.44 1952.4 1581.81 1951.13 Q1580.22 1949.86 1574.78 1948.68 L1572.74 1948.2 Q1567.3 1947.06 1564.88 1944.7 Q1562.46 1942.31 1562.46 1938.18 Q1562.46 1933.15 1566.03 1930.41 Q1569.59 1927.67 1576.15 1927.67 Q1579.39 1927.67 1582.26 1928.15 Q1585.12 1928.63 1587.54 1929.58 Z" fill="#000000" fill-rule="evenodd" fill-opacity="1" /><path clip-path="url(#clip020)" d="M1597.85 1914.72 L1602.95 1914.72 Q1607.72 1922.23 1610.08 1929.42 Q1612.46 1936.62 1612.46 1943.72 Q1612.46 1950.84 1610.08 1958.07 Q1607.72 1965.29 1602.95 1972.77 L1597.85 1972.77 Q1602.09 1965.49 1604.16 1958.29 Q1606.26 1951.07 1606.26 1943.72 Q1606.26 1936.36 1604.16 1929.2 Q1602.09 1922.04 1597.85 1914.72 Z" fill="#000000" fill-rule="evenodd" fill-opacity="1" /><polyline clip-path="url(#clip022)" style="stroke:#000000; stroke-linecap:round; stroke-linejoin:round; stroke-width:2; stroke-opacity:0.1; fill:none" points="
  212.515,1630.5 2752.76,1630.5 
  "/>
<polyline clip-path="url(#clip022)" style="stroke:#000000; stroke-linecap:round; stroke-linejoin:round; stroke-width:2; stroke-opacity:0.1; fill:none" points="
  212.515,1332.72 2752.76,1332.72 
  "/>
<polyline clip-path="url(#clip022)" style="stroke:#000000; stroke-linecap:round; stroke-linejoin:round; stroke-width:2; stroke-opacity:0.1; fill:none" points="
  212.515,1034.95 2752.76,1034.95 
  "/>
<polyline clip-path="url(#clip022)" style="stroke:#000000; stroke-linecap:round; stroke-linejoin:round; stroke-width:2; stroke-opacity:0.1; fill:none" points="
  212.515,737.175 2752.76,737.175 
  "/>
<polyline clip-path="url(#clip022)" style="stroke:#000000; stroke-linecap:round; stroke-linejoin:round; stroke-width:2; stroke-opacity:0.1; fill:none" points="
  212.515,439.401 2752.76,439.401 
  "/>
<polyline clip-path="url(#clip022)" style="stroke:#000000; stroke-linecap:round; stroke-linejoin:round; stroke-width:2; stroke-opacity:0.1; fill:none" points="
  212.515,141.627 2752.76,141.627 
  "/>
<polyline clip-path="url(#clip020)" style="stroke:#000000; stroke-linecap:round; stroke-linejoin:round; stroke-width:4; stroke-opacity:1; fill:none" points="
  212.515,1813.32 212.515,47.2441 
  "/>
<polyline clip-path="url(#clip020)" style="stroke:#000000; stroke-linecap:round; stroke-linejoin:round; stroke-width:4; stroke-opacity:1; fill:none" points="
  212.515,1630.5 231.413,1630.5 
  "/>
<polyline clip-path="url(#clip020)" style="stroke:#000000; stroke-linecap:round; stroke-linejoin:round; stroke-width:4; stroke-opacity:1; fill:none" points="
  212.515,1332.72 231.413,1332.72 
  "/>
<polyline clip-path="url(#clip020)" style="stroke:#000000; stroke-linecap:round; stroke-linejoin:round; stroke-width:4; stroke-opacity:1; fill:none" points="
  212.515,1034.95 231.413,1034.95 
  "/>
<polyline clip-path="url(#clip020)" style="stroke:#000000; stroke-linecap:round; stroke-linejoin:round; stroke-width:4; stroke-opacity:1; fill:none" points="
  212.515,737.175 231.413,737.175 
  "/>
<polyline clip-path="url(#clip020)" style="stroke:#000000; stroke-linecap:round; stroke-linejoin:round; stroke-width:4; stroke-opacity:1; fill:none" points="
  212.515,439.401 231.413,439.401 
  "/>
<polyline clip-path="url(#clip020)" style="stroke:#000000; stroke-linecap:round; stroke-linejoin:round; stroke-width:4; stroke-opacity:1; fill:none" points="
  212.515,141.627 231.413,141.627 
  "/>
<path clip-path="url(#clip020)" d="M158.571 1616.3 Q154.96 1616.3 153.131 1619.86 Q151.326 1623.4 151.326 1630.53 Q151.326 1637.64 153.131 1641.2 Q154.96 1644.74 158.571 1644.74 Q162.205 1644.74 164.011 1641.2 Q165.839 1637.64 165.839 1630.53 Q165.839 1623.4 164.011 1619.86 Q162.205 1616.3 158.571 1616.3 M158.571 1612.59 Q164.381 1612.59 167.437 1617.2 Q170.515 1621.78 170.515 1630.53 Q170.515 1639.26 167.437 1643.87 Q164.381 1648.45 158.571 1648.45 Q152.761 1648.45 149.682 1643.87 Q146.626 1639.26 146.626 1630.53 Q146.626 1621.78 149.682 1617.2 Q152.761 1612.59 158.571 1612.59 Z" fill="#000000" fill-rule="evenodd" fill-opacity="1" /><path clip-path="url(#clip020)" d="M119.219 1346.07 L126.858 1346.07 L126.858 1319.7 L118.548 1321.37 L118.548 1317.11 L126.812 1315.44 L131.488 1315.44 L131.488 1346.07 L139.127 1346.07 L139.127 1350 L119.219 1350 L119.219 1346.07 Z" fill="#000000" fill-rule="evenodd" fill-opacity="1" /><path clip-path="url(#clip020)" d="M158.571 1318.52 Q154.96 1318.52 153.131 1322.09 Q151.326 1325.63 151.326 1332.76 Q151.326 1339.86 153.131 1343.43 Q154.96 1346.97 158.571 1346.97 Q162.205 1346.97 164.011 1343.43 Q165.839 1339.86 165.839 1332.76 Q165.839 1325.63 164.011 1322.09 Q162.205 1318.52 158.571 1318.52 M158.571 1314.82 Q164.381 1314.82 167.437 1319.42 Q170.515 1324.01 170.515 1332.76 Q170.515 1341.48 167.437 1346.09 Q164.381 1350.67 158.571 1350.67 Q152.761 1350.67 149.682 1346.09 Q146.626 1341.48 146.626 1332.76 Q146.626 1324.01 149.682 1319.42 Q152.761 1314.82 158.571 1314.82 Z" fill="#000000" fill-rule="evenodd" fill-opacity="1" /><path clip-path="url(#clip020)" d="M122.437 1048.29 L138.756 1048.29 L138.756 1052.23 L116.812 1052.23 L116.812 1048.29 Q119.474 1045.54 124.057 1040.91 Q128.664 1036.26 129.844 1034.91 Q132.09 1032.39 132.969 1030.66 Q133.872 1028.9 133.872 1027.21 Q133.872 1024.45 131.928 1022.72 Q130.006 1020.98 126.904 1020.98 Q124.705 1020.98 122.252 1021.74 Q119.821 1022.51 117.043 1024.06 L117.043 1019.34 Q119.867 1018.2 122.321 1017.62 Q124.775 1017.04 126.812 1017.04 Q132.182 1017.04 135.377 1019.73 Q138.571 1022.41 138.571 1026.91 Q138.571 1029.03 137.761 1030.96 Q136.974 1032.85 134.867 1035.45 Q134.289 1036.12 131.187 1039.34 Q128.085 1042.53 122.437 1048.29 Z" fill="#000000" fill-rule="evenodd" fill-opacity="1" /><path clip-path="url(#clip020)" d="M158.571 1020.75 Q154.96 1020.75 153.131 1024.31 Q151.326 1027.85 151.326 1034.98 Q151.326 1042.09 153.131 1045.65 Q154.96 1049.2 158.571 1049.2 Q162.205 1049.2 164.011 1045.65 Q165.839 1042.09 165.839 1034.98 Q165.839 1027.85 164.011 1024.31 Q162.205 1020.75 158.571 1020.75 M158.571 1017.04 Q164.381 1017.04 167.437 1021.65 Q170.515 1026.23 170.515 1034.98 Q170.515 1043.71 167.437 1048.32 Q164.381 1052.9 158.571 1052.9 Q152.761 1052.9 149.682 1048.32 Q146.626 1043.71 146.626 1034.98 Q146.626 1026.23 149.682 1021.65 Q152.761 1017.04 158.571 1017.04 Z" fill="#000000" fill-rule="evenodd" fill-opacity="1" /><path clip-path="url(#clip020)" d="M132.576 735.821 Q135.932 736.538 137.807 738.807 Q139.705 741.075 139.705 744.409 Q139.705 749.524 136.187 752.325 Q132.668 755.126 126.187 755.126 Q124.011 755.126 121.696 754.686 Q119.404 754.27 116.951 753.413 L116.951 748.899 Q118.895 750.034 121.21 750.612 Q123.525 751.191 126.048 751.191 Q130.446 751.191 132.738 749.455 Q135.052 747.719 135.052 744.409 Q135.052 741.353 132.9 739.64 Q130.77 737.904 126.951 737.904 L122.923 737.904 L122.923 734.061 L127.136 734.061 Q130.585 734.061 132.414 732.696 Q134.242 731.307 134.242 728.714 Q134.242 726.052 132.344 724.64 Q130.469 723.205 126.951 723.205 Q125.029 723.205 122.83 723.622 Q120.631 724.038 117.992 724.918 L117.992 720.751 Q120.654 720.011 122.969 719.64 Q125.307 719.27 127.367 719.27 Q132.691 719.27 135.793 721.7 Q138.895 724.108 138.895 728.228 Q138.895 731.099 137.252 733.089 Q135.608 735.057 132.576 735.821 Z" fill="#000000" fill-rule="evenodd" fill-opacity="1" /><path clip-path="url(#clip020)" d="M158.571 722.974 Q154.96 722.974 153.131 726.538 Q151.326 730.08 151.326 737.21 Q151.326 744.316 153.131 747.881 Q154.96 751.422 158.571 751.422 Q162.205 751.422 164.011 747.881 Q165.839 744.316 165.839 737.21 Q165.839 730.08 164.011 726.538 Q162.205 722.974 158.571 722.974 M158.571 719.27 Q164.381 719.27 167.437 723.876 Q170.515 728.46 170.515 737.21 Q170.515 745.936 167.437 750.543 Q164.381 755.126 158.571 755.126 Q152.761 755.126 149.682 750.543 Q146.626 745.936 146.626 737.21 Q146.626 728.46 149.682 723.876 Q152.761 719.27 158.571 719.27 Z" fill="#000000" fill-rule="evenodd" fill-opacity="1" /><path clip-path="url(#clip020)" d="M131.256 426.195 L119.451 444.644 L131.256 444.644 L131.256 426.195 M130.029 422.121 L135.909 422.121 L135.909 444.644 L140.839 444.644 L140.839 448.533 L135.909 448.533 L135.909 456.681 L131.256 456.681 L131.256 448.533 L115.654 448.533 L115.654 444.019 L130.029 422.121 Z" fill="#000000" fill-rule="evenodd" fill-opacity="1" /><path clip-path="url(#clip020)" d="M158.571 425.199 Q154.96 425.199 153.131 428.764 Q151.326 432.306 151.326 439.435 Q151.326 446.542 153.131 450.107 Q154.96 453.648 158.571 453.648 Q162.205 453.648 164.011 450.107 Q165.839 446.542 165.839 439.435 Q165.839 432.306 164.011 428.764 Q162.205 425.199 158.571 425.199 M158.571 421.496 Q164.381 421.496 167.437 426.102 Q170.515 430.686 170.515 439.435 Q170.515 448.162 167.437 452.769 Q164.381 457.352 158.571 457.352 Q152.761 457.352 149.682 452.769 Q146.626 448.162 146.626 439.435 Q146.626 430.686 149.682 426.102 Q152.761 421.496 158.571 421.496 Z" fill="#000000" fill-rule="evenodd" fill-opacity="1" /><path clip-path="url(#clip020)" d="M118.455 124.347 L136.812 124.347 L136.812 128.282 L122.738 128.282 L122.738 136.754 Q123.756 136.407 124.775 136.245 Q125.793 136.06 126.812 136.06 Q132.599 136.06 135.978 139.231 Q139.358 142.402 139.358 147.819 Q139.358 153.397 135.886 156.499 Q132.414 159.578 126.094 159.578 Q123.918 159.578 121.65 159.208 Q119.404 158.837 116.997 158.096 L116.997 153.397 Q119.08 154.532 121.303 155.087 Q123.525 155.643 126.002 155.643 Q130.006 155.643 132.344 153.536 Q134.682 151.43 134.682 147.819 Q134.682 144.208 132.344 142.101 Q130.006 139.995 126.002 139.995 Q124.127 139.995 122.252 140.411 Q120.4 140.828 118.455 141.708 L118.455 124.347 Z" fill="#000000" fill-rule="evenodd" fill-opacity="1" /><path clip-path="url(#clip020)" d="M158.571 127.425 Q154.96 127.425 153.131 130.99 Q151.326 134.532 151.326 141.661 Q151.326 148.768 153.131 152.333 Q154.96 155.874 158.571 155.874 Q162.205 155.874 164.011 152.333 Q165.839 148.768 165.839 141.661 Q165.839 134.532 164.011 130.99 Q162.205 127.425 158.571 127.425 M158.571 123.722 Q164.381 123.722 167.437 128.328 Q170.515 132.911 170.515 141.661 Q170.515 150.388 167.437 154.995 Q164.381 159.578 158.571 159.578 Q152.761 159.578 149.682 154.995 Q146.626 150.388 146.626 141.661 Q146.626 132.911 149.682 128.328 Q152.761 123.722 158.571 123.722 Z" fill="#000000" fill-rule="evenodd" fill-opacity="1" /><path clip-path="url(#clip020)" d="M17.162 1112.29 L35.0178 1112.29 L35.0178 1104.21 Q35.0178 1099.72 32.6943 1097.27 Q30.3708 1094.82 26.074 1094.82 Q21.8089 1094.82 19.4855 1097.27 Q17.162 1099.72 17.162 1104.21 L17.162 1112.29 M11.8784 1118.72 L11.8784 1104.21 Q11.8784 1096.22 15.5069 1092.14 Q19.1035 1088.04 26.074 1088.04 Q33.1081 1088.04 36.7047 1092.14 Q40.3013 1096.22 40.3013 1104.21 L40.3013 1112.29 L59.3984 1112.29 L59.3984 1118.72 L11.8784 1118.72 Z" fill="#000000" fill-rule="evenodd" fill-opacity="1" /><path clip-path="url(#clip020)" d="M27.8564 1068.18 Q27.8564 1072.89 31.5485 1075.63 Q35.2088 1078.36 41.6063 1078.36 Q48.0038 1078.36 51.6959 1075.66 Q55.3562 1072.92 55.3562 1068.18 Q55.3562 1063.5 51.6641 1060.76 Q47.972 1058.02 41.6063 1058.02 Q35.2724 1058.02 31.5803 1060.76 Q27.8564 1063.5 27.8564 1068.18 M22.8911 1068.18 Q22.8911 1060.54 27.8564 1056.18 Q32.8216 1051.82 41.6063 1051.82 Q50.3591 1051.82 55.3562 1056.18 Q60.3215 1060.54 60.3215 1068.18 Q60.3215 1075.85 55.3562 1080.21 Q50.3591 1084.54 41.6063 1084.54 Q32.8216 1084.54 27.8564 1080.21 Q22.8911 1075.85 22.8911 1068.18 Z" fill="#000000" fill-rule="evenodd" fill-opacity="1" /><path clip-path="url(#clip020)" d="M24.8008 1019.38 L30.339 1019.38 Q29.0659 1021.87 28.4293 1024.54 Q27.7927 1027.21 27.7927 1030.08 Q27.7927 1034.44 29.1295 1036.64 Q30.4663 1038.8 33.1399 1038.8 Q35.1769 1038.8 36.3546 1037.24 Q37.5004 1035.68 38.5508 1030.97 L38.9964 1028.96 Q40.3332 1022.73 42.7839 1020.12 Q45.2029 1017.47 49.5634 1017.47 Q54.5287 1017.47 57.4251 1021.42 Q60.3215 1025.34 60.3215 1032.21 Q60.3215 1035.08 59.7486 1038.2 Q59.2075 1041.28 58.0935 1044.72 L52.0461 1044.72 Q53.733 1041.47 54.5923 1038.32 Q55.4199 1035.17 55.4199 1032.08 Q55.4199 1027.95 54.0194 1025.72 Q52.5871 1023.49 50.009 1023.49 Q47.6219 1023.49 46.3487 1025.11 Q45.0756 1026.71 43.8979 1032.15 L43.4205 1034.18 Q42.2747 1039.63 39.9194 1042.05 Q37.5322 1044.47 33.3945 1044.47 Q28.3656 1044.47 25.6284 1040.9 Q22.8911 1037.34 22.8911 1030.78 Q22.8911 1027.53 23.3685 1024.67 Q23.846 1021.8 24.8008 1019.38 Z" fill="#000000" fill-rule="evenodd" fill-opacity="1" /><path clip-path="url(#clip020)" d="M23.7505 1008.15 L23.7505 1002.29 L59.3984 1002.29 L59.3984 1008.15 L23.7505 1008.15 M9.87325 1008.15 L9.87325 1002.29 L17.2893 1002.29 L17.2893 1008.15 L9.87325 1008.15 Z" fill="#000000" fill-rule="evenodd" fill-opacity="1" /><path clip-path="url(#clip020)" d="M13.629 984.246 L23.7505 984.246 L23.7505 972.183 L28.302 972.183 L28.302 984.246 L47.6537 984.246 Q52.0142 984.246 53.2555 983.068 Q54.4968 981.859 54.4968 978.198 L54.4968 972.183 L59.3984 972.183 L59.3984 978.198 Q59.3984 984.978 56.884 987.556 Q54.3377 990.134 47.6537 990.134 L28.302 990.134 L28.302 994.431 L23.7505 994.431 L23.7505 990.134 L13.629 990.134 L13.629 984.246 Z" fill="#000000" fill-rule="evenodd" fill-opacity="1" /><path clip-path="url(#clip020)" d="M23.7505 964.48 L23.7505 958.624 L59.3984 958.624 L59.3984 964.48 L23.7505 964.48 M9.87325 964.48 L9.87325 958.624 L17.2893 958.624 L17.2893 964.48 L9.87325 964.48 Z" fill="#000000" fill-rule="evenodd" fill-opacity="1" /><path clip-path="url(#clip020)" d="M27.8564 932.556 Q27.8564 937.267 31.5485 940.004 Q35.2088 942.741 41.6063 942.741 Q48.0038 942.741 51.6959 940.036 Q55.3562 937.299 55.3562 932.556 Q55.3562 927.877 51.6641 925.14 Q47.972 922.403 41.6063 922.403 Q35.2724 922.403 31.5803 925.14 Q27.8564 927.877 27.8564 932.556 M22.8911 932.556 Q22.8911 924.917 27.8564 920.557 Q32.8216 916.196 41.6063 916.196 Q50.3591 916.196 55.3562 920.557 Q60.3215 924.917 60.3215 932.556 Q60.3215 940.227 55.3562 944.587 Q50.3591 948.916 41.6063 948.916 Q32.8216 948.916 27.8564 944.587 Q22.8911 940.227 22.8911 932.556 Z" fill="#000000" fill-rule="evenodd" fill-opacity="1" /><path clip-path="url(#clip020)" d="M37.8824 876.856 L59.3984 876.856 L59.3984 882.713 L38.0733 882.713 Q33.0126 882.713 30.4981 884.686 Q27.9837 886.66 27.9837 890.606 Q27.9837 895.349 31.0074 898.086 Q34.0311 900.823 39.251 900.823 L59.3984 900.823 L59.3984 906.712 L23.7505 906.712 L23.7505 900.823 L29.2887 900.823 Q26.074 898.723 24.4825 895.89 Q22.8911 893.025 22.8911 889.301 Q22.8911 883.158 26.7105 880.007 Q30.4981 876.856 37.8824 876.856 Z" fill="#000000" fill-rule="evenodd" fill-opacity="1" /><path clip-path="url(#clip020)" d="M9.9369 830.387 Q17.2575 834.652 24.4189 836.721 Q31.5803 838.789 38.9327 838.789 Q46.2851 838.789 53.5102 836.721 Q60.7034 834.62 67.9921 830.387 L67.9921 835.479 Q60.5124 840.254 53.2874 842.641 Q46.0623 844.996 38.9327 844.996 Q31.8349 844.996 24.6417 842.641 Q17.4484 840.285 9.9369 835.479 L9.9369 830.387 Z" fill="#000000" fill-rule="evenodd" fill-opacity="1" /><path clip-path="url(#clip020)" d="M30.5936 791.269 Q26.6469 789.073 24.769 786.018 Q22.8911 782.962 22.8911 778.824 Q22.8911 773.254 26.806 770.231 Q30.6891 767.207 37.8824 767.207 L59.3984 767.207 L59.3984 773.095 L38.0733 773.095 Q32.9489 773.095 30.4663 774.91 Q27.9837 776.724 27.9837 780.448 Q27.9837 784.999 31.0074 787.641 Q34.0311 790.283 39.251 790.283 L59.3984 790.283 L59.3984 796.171 L38.0733 796.171 Q32.9171 796.171 30.4663 797.985 Q27.9837 799.799 27.9837 803.587 Q27.9837 808.075 31.0392 810.717 Q34.0629 813.358 39.251 813.358 L59.3984 813.358 L59.3984 819.247 L23.7505 819.247 L23.7505 813.358 L29.2887 813.358 Q26.0103 811.353 24.4507 808.552 Q22.8911 805.751 22.8911 801.9 Q22.8911 798.017 24.8645 795.312 Q26.8379 792.574 30.5936 791.269 Z" fill="#000000" fill-rule="evenodd" fill-opacity="1" /><path clip-path="url(#clip020)" d="M9.9369 756.449 L9.9369 751.356 Q17.4484 746.582 24.6417 744.227 Q31.8349 741.84 38.9327 741.84 Q46.0623 741.84 53.2874 744.227 Q60.5124 746.582 67.9921 751.356 L67.9921 756.449 Q60.7034 752.216 53.5102 750.147 Q46.2851 748.046 38.9327 748.046 Q31.5803 748.046 24.4189 750.147 Q17.2575 752.216 9.9369 756.449 Z" fill="#000000" fill-rule="evenodd" fill-opacity="1" /><path clip-path="url(#clip022)" d="
M284.409 1691.42 L333.316 1654.45 L382.223 1616.99 L431.131 1579.27 L480.038 1543.74 L528.945 1506.39 L577.852 1473.04 L626.759 1443.64 L675.667 1406.56 L724.574 1376.18 
  L773.481 1349.88 L822.388 1316.2 L871.295 1278.48 L920.203 1251.22 L969.11 1226.03 L1018.02 1195.05 L1066.92 1160.22 L1115.83 1134.42 L1164.74 1108.41 L1213.65 1079.58 
  L1262.55 1046.77 L1311.46 1022.96 L1360.37 995.695 L1409.27 965.627 L1458.18 930.254 L1507.09 904.834 L1556 876.45 L1604.9 842.867 L1653.81 812.166 L1702.72 781.554 
  L1751.63 751.798 L1800.53 719.283 L1849.44 688.901 L1898.35 662.462 L1947.25 634.197 L1996.16 611.023 L2045.07 580.477 L2093.98 551.375 L2142.88 521.917 L2191.79 495.063 
  L2240.7 459.816 L2289.6 431.226 L2338.51 399.801 L2387.42 372.026 L2436.33 341.845 L2485.23 309.208 L2534.14 282.159 L2583.05 247.892 L2631.96 215.275 L2680.86 186.39 
  L2680.86 97.2273 L2631.96 126.112 L2583.05 158.729 L2534.14 192.995 L2485.23 220.043 L2436.33 252.68 L2387.42 282.86 L2338.51 310.634 L2289.6 342.056 L2240.7 370.644 
  L2191.79 405.889 L2142.88 432.74 L2093.98 462.196 L2045.07 491.294 L1996.16 521.838 L1947.25 545.011 L1898.35 573.274 L1849.44 599.712 L1800.53 630.094 L1751.63 662.609 
  L1702.72 692.364 L1653.81 722.971 L1604.9 753.66 L1556 787.219 L1507.09 815.559 L1458.18 840.905 L1409.27 876.159 L1360.37 906.046 L1311.46 933.052 L1262.55 956.488 
  L1213.65 988.79 L1164.74 1016.95 L1115.83 1042.08 L1066.92 1066.76 L1018.02 1100.2 L969.11 1129.47 L920.203 1152.58 L871.295 1177.38 L822.388 1212.18 L773.481 1242.43 
  L724.574 1264.72 L675.667 1290.41 L626.759 1322.02 L577.852 1344.99 L528.945 1370.75 L480.038 1399.11 L431.131 1424.15 L382.223 1450.58 L333.316 1480.9 L284.409 1504.78 
   Z
  " fill="#009af9" fill-rule="evenodd" fill-opacity="0.5"/>
<polyline clip-path="url(#clip022)" style="stroke:#009af9; stroke-linecap:round; stroke-linejoin:round; stroke-width:4; stroke-opacity:1; fill:none" stroke-dasharray="16, 10" points="
  284.409,1598.1 333.316,1567.67 382.223,1533.79 431.131,1501.71 480.038,1471.43 528.945,1438.57 577.852,1409.02 626.759,1382.83 675.667,1348.49 724.574,1320.45 
  773.481,1296.15 822.388,1264.19 871.295,1227.93 920.203,1201.9 969.11,1177.75 1018.02,1147.63 1066.92,1113.49 1115.83,1088.25 1164.74,1062.68 1213.65,1034.19 
  1262.55,1001.63 1311.46,978.008 1360.37,950.871 1409.27,920.893 1458.18,885.58 1507.09,860.197 1556,831.835 1604.9,798.264 1653.81,767.569 1702.72,736.959 
  1751.63,707.204 1800.53,674.688 1849.44,644.307 1898.35,617.868 1947.25,589.604 1996.16,566.43 2045.07,535.886 2093.98,506.785 2142.88,477.328 2191.79,450.476 
  2240.7,415.23 2289.6,386.641 2338.51,355.217 2387.42,327.443 2436.33,297.263 2485.23,264.626 2534.14,237.577 2583.05,203.311 2631.96,170.694 2680.86,141.809 
  
  "/>
<polyline clip-path="url(#clip022)" style="stroke:#e26f46; stroke-linecap:round; stroke-linejoin:round; stroke-width:4; stroke-opacity:1; fill:none" points="
  284.409,1760.96 333.316,1679.59 382.223,1635.53 431.131,1454.45 480.038,1455.71 528.945,1479.66 577.852,1432.74 626.759,1334.14 675.667,1363.26 724.574,1420.14 
  773.481,1388.32 822.388,1311.79 871.295,1252.58 920.203,1218.07 969.11,1170.87 1018.02,1118.37 1066.92,1126.3 1115.83,1055.43 1164.74,1047.06 1213.65,1010.19 
  1262.55,983.388 1311.46,984.439 1360.37,930.234 1409.27,930.049 1458.18,903.717 1507.09,882.412 1556,865.956 1604.9,838.441 1653.81,813.436 1702.72,773.137 
  1751.63,698.315 1800.53,640.46 1849.44,646.124 1898.35,628.704 1947.25,601.638 1996.16,587.093 2045.07,555.821 2093.98,534.527 2142.88,524.354 2191.79,498.901 
  2240.7,436.851 2289.6,410.42 2338.51,371.352 2387.42,334.435 2436.33,271.672 2485.23,258.959 2534.14,230.382 2583.05,236.162 2631.96,186.743 2680.86,144.983 
  
  "/>
<line clip-path="url(#clip022)" x1="284.409" y1="1763.33" x2="284.409" y2="1747.33" style="stroke:#3da44d; stroke-width:4; stroke-opacity:1"/>
<line clip-path="url(#clip022)" x1="284.409" y1="1763.33" x2="268.409" y2="1763.33" style="stroke:#3da44d; stroke-width:4; stroke-opacity:1"/>
<line clip-path="url(#clip022)" x1="284.409" y1="1763.33" x2="284.409" y2="1779.33" style="stroke:#3da44d; stroke-width:4; stroke-opacity:1"/>
<line clip-path="url(#clip022)" x1="284.409" y1="1763.33" x2="300.409" y2="1763.33" style="stroke:#3da44d; stroke-width:4; stroke-opacity:1"/>
<line clip-path="url(#clip022)" x1="333.316" y1="1663.07" x2="333.316" y2="1647.07" style="stroke:#3da44d; stroke-width:4; stroke-opacity:1"/>
<line clip-path="url(#clip022)" x1="333.316" y1="1663.07" x2="317.316" y2="1663.07" style="stroke:#3da44d; stroke-width:4; stroke-opacity:1"/>
<line clip-path="url(#clip022)" x1="333.316" y1="1663.07" x2="333.316" y2="1679.07" style="stroke:#3da44d; stroke-width:4; stroke-opacity:1"/>
<line clip-path="url(#clip022)" x1="333.316" y1="1663.07" x2="349.316" y2="1663.07" style="stroke:#3da44d; stroke-width:4; stroke-opacity:1"/>
<line clip-path="url(#clip022)" x1="382.223" y1="1641.03" x2="382.223" y2="1625.03" style="stroke:#3da44d; stroke-width:4; stroke-opacity:1"/>
<line clip-path="url(#clip022)" x1="382.223" y1="1641.03" x2="366.223" y2="1641.03" style="stroke:#3da44d; stroke-width:4; stroke-opacity:1"/>
<line clip-path="url(#clip022)" x1="382.223" y1="1641.03" x2="382.223" y2="1657.03" style="stroke:#3da44d; stroke-width:4; stroke-opacity:1"/>
<line clip-path="url(#clip022)" x1="382.223" y1="1641.03" x2="398.223" y2="1641.03" style="stroke:#3da44d; stroke-width:4; stroke-opacity:1"/>
<line clip-path="url(#clip022)" x1="431.131" y1="1393.51" x2="431.131" y2="1377.51" style="stroke:#3da44d; stroke-width:4; stroke-opacity:1"/>
<line clip-path="url(#clip022)" x1="431.131" y1="1393.51" x2="415.131" y2="1393.51" style="stroke:#3da44d; stroke-width:4; stroke-opacity:1"/>
<line clip-path="url(#clip022)" x1="431.131" y1="1393.51" x2="431.131" y2="1409.51" style="stroke:#3da44d; stroke-width:4; stroke-opacity:1"/>
<line clip-path="url(#clip022)" x1="431.131" y1="1393.51" x2="447.131" y2="1393.51" style="stroke:#3da44d; stroke-width:4; stroke-opacity:1"/>
<line clip-path="url(#clip022)" x1="480.038" y1="1530.6" x2="480.038" y2="1514.6" style="stroke:#3da44d; stroke-width:4; stroke-opacity:1"/>
<line clip-path="url(#clip022)" x1="480.038" y1="1530.6" x2="464.038" y2="1530.6" style="stroke:#3da44d; stroke-width:4; stroke-opacity:1"/>
<line clip-path="url(#clip022)" x1="480.038" y1="1530.6" x2="480.038" y2="1546.6" style="stroke:#3da44d; stroke-width:4; stroke-opacity:1"/>
<line clip-path="url(#clip022)" x1="480.038" y1="1530.6" x2="496.038" y2="1530.6" style="stroke:#3da44d; stroke-width:4; stroke-opacity:1"/>
<line clip-path="url(#clip022)" x1="528.945" y1="1567.65" x2="528.945" y2="1551.65" style="stroke:#3da44d; stroke-width:4; stroke-opacity:1"/>
<line clip-path="url(#clip022)" x1="528.945" y1="1567.65" x2="512.945" y2="1567.65" style="stroke:#3da44d; stroke-width:4; stroke-opacity:1"/>
<line clip-path="url(#clip022)" x1="528.945" y1="1567.65" x2="528.945" y2="1583.65" style="stroke:#3da44d; stroke-width:4; stroke-opacity:1"/>
<line clip-path="url(#clip022)" x1="528.945" y1="1567.65" x2="544.945" y2="1567.65" style="stroke:#3da44d; stroke-width:4; stroke-opacity:1"/>
<line clip-path="url(#clip022)" x1="577.852" y1="1430.64" x2="577.852" y2="1414.64" style="stroke:#3da44d; stroke-width:4; stroke-opacity:1"/>
<line clip-path="url(#clip022)" x1="577.852" y1="1430.64" x2="561.852" y2="1430.64" style="stroke:#3da44d; stroke-width:4; stroke-opacity:1"/>
<line clip-path="url(#clip022)" x1="577.852" y1="1430.64" x2="577.852" y2="1446.64" style="stroke:#3da44d; stroke-width:4; stroke-opacity:1"/>
<line clip-path="url(#clip022)" x1="577.852" y1="1430.64" x2="593.852" y2="1430.64" style="stroke:#3da44d; stroke-width:4; stroke-opacity:1"/>
<line clip-path="url(#clip022)" x1="626.759" y1="1259.98" x2="626.759" y2="1243.98" style="stroke:#3da44d; stroke-width:4; stroke-opacity:1"/>
<line clip-path="url(#clip022)" x1="626.759" y1="1259.98" x2="610.759" y2="1259.98" style="stroke:#3da44d; stroke-width:4; stroke-opacity:1"/>
<line clip-path="url(#clip022)" x1="626.759" y1="1259.98" x2="626.759" y2="1275.98" style="stroke:#3da44d; stroke-width:4; stroke-opacity:1"/>
<line clip-path="url(#clip022)" x1="626.759" y1="1259.98" x2="642.759" y2="1259.98" style="stroke:#3da44d; stroke-width:4; stroke-opacity:1"/>
<line clip-path="url(#clip022)" x1="675.667" y1="1502.42" x2="675.667" y2="1486.42" style="stroke:#3da44d; stroke-width:4; stroke-opacity:1"/>
<line clip-path="url(#clip022)" x1="675.667" y1="1502.42" x2="659.667" y2="1502.42" style="stroke:#3da44d; stroke-width:4; stroke-opacity:1"/>
<line clip-path="url(#clip022)" x1="675.667" y1="1502.42" x2="675.667" y2="1518.42" style="stroke:#3da44d; stroke-width:4; stroke-opacity:1"/>
<line clip-path="url(#clip022)" x1="675.667" y1="1502.42" x2="691.667" y2="1502.42" style="stroke:#3da44d; stroke-width:4; stroke-opacity:1"/>
<line clip-path="url(#clip022)" x1="724.574" y1="1601.38" x2="724.574" y2="1585.38" style="stroke:#3da44d; stroke-width:4; stroke-opacity:1"/>
<line clip-path="url(#clip022)" x1="724.574" y1="1601.38" x2="708.574" y2="1601.38" style="stroke:#3da44d; stroke-width:4; stroke-opacity:1"/>
<line clip-path="url(#clip022)" x1="724.574" y1="1601.38" x2="724.574" y2="1617.38" style="stroke:#3da44d; stroke-width:4; stroke-opacity:1"/>
<line clip-path="url(#clip022)" x1="724.574" y1="1601.38" x2="740.574" y2="1601.38" style="stroke:#3da44d; stroke-width:4; stroke-opacity:1"/>
<line clip-path="url(#clip022)" x1="773.481" y1="1373.61" x2="773.481" y2="1357.61" style="stroke:#3da44d; stroke-width:4; stroke-opacity:1"/>
<line clip-path="url(#clip022)" x1="773.481" y1="1373.61" x2="757.481" y2="1373.61" style="stroke:#3da44d; stroke-width:4; stroke-opacity:1"/>
<line clip-path="url(#clip022)" x1="773.481" y1="1373.61" x2="773.481" y2="1389.61" style="stroke:#3da44d; stroke-width:4; stroke-opacity:1"/>
<line clip-path="url(#clip022)" x1="773.481" y1="1373.61" x2="789.481" y2="1373.61" style="stroke:#3da44d; stroke-width:4; stroke-opacity:1"/>
<line clip-path="url(#clip022)" x1="822.388" y1="1196.22" x2="822.388" y2="1180.22" style="stroke:#3da44d; stroke-width:4; stroke-opacity:1"/>
<line clip-path="url(#clip022)" x1="822.388" y1="1196.22" x2="806.388" y2="1196.22" style="stroke:#3da44d; stroke-width:4; stroke-opacity:1"/>
<line clip-path="url(#clip022)" x1="822.388" y1="1196.22" x2="822.388" y2="1212.22" style="stroke:#3da44d; stroke-width:4; stroke-opacity:1"/>
<line clip-path="url(#clip022)" x1="822.388" y1="1196.22" x2="838.388" y2="1196.22" style="stroke:#3da44d; stroke-width:4; stroke-opacity:1"/>
<line clip-path="url(#clip022)" x1="871.295" y1="1188" x2="871.295" y2="1172" style="stroke:#3da44d; stroke-width:4; stroke-opacity:1"/>
<line clip-path="url(#clip022)" x1="871.295" y1="1188" x2="855.295" y2="1188" style="stroke:#3da44d; stroke-width:4; stroke-opacity:1"/>
<line clip-path="url(#clip022)" x1="871.295" y1="1188" x2="871.295" y2="1204" style="stroke:#3da44d; stroke-width:4; stroke-opacity:1"/>
<line clip-path="url(#clip022)" x1="871.295" y1="1188" x2="887.295" y2="1188" style="stroke:#3da44d; stroke-width:4; stroke-opacity:1"/>
<line clip-path="url(#clip022)" x1="920.203" y1="1223.65" x2="920.203" y2="1207.65" style="stroke:#3da44d; stroke-width:4; stroke-opacity:1"/>
<line clip-path="url(#clip022)" x1="920.203" y1="1223.65" x2="904.203" y2="1223.65" style="stroke:#3da44d; stroke-width:4; stroke-opacity:1"/>
<line clip-path="url(#clip022)" x1="920.203" y1="1223.65" x2="920.203" y2="1239.65" style="stroke:#3da44d; stroke-width:4; stroke-opacity:1"/>
<line clip-path="url(#clip022)" x1="920.203" y1="1223.65" x2="936.203" y2="1223.65" style="stroke:#3da44d; stroke-width:4; stroke-opacity:1"/>
<line clip-path="url(#clip022)" x1="969.11" y1="1140.43" x2="969.11" y2="1124.43" style="stroke:#3da44d; stroke-width:4; stroke-opacity:1"/>
<line clip-path="url(#clip022)" x1="969.11" y1="1140.43" x2="953.11" y2="1140.43" style="stroke:#3da44d; stroke-width:4; stroke-opacity:1"/>
<line clip-path="url(#clip022)" x1="969.11" y1="1140.43" x2="969.11" y2="1156.43" style="stroke:#3da44d; stroke-width:4; stroke-opacity:1"/>
<line clip-path="url(#clip022)" x1="969.11" y1="1140.43" x2="985.11" y2="1140.43" style="stroke:#3da44d; stroke-width:4; stroke-opacity:1"/>
<line clip-path="url(#clip022)" x1="1018.02" y1="1074.91" x2="1018.02" y2="1058.91" style="stroke:#3da44d; stroke-width:4; stroke-opacity:1"/>
<line clip-path="url(#clip022)" x1="1018.02" y1="1074.91" x2="1002.02" y2="1074.91" style="stroke:#3da44d; stroke-width:4; stroke-opacity:1"/>
<line clip-path="url(#clip022)" x1="1018.02" y1="1074.91" x2="1018.02" y2="1090.91" style="stroke:#3da44d; stroke-width:4; stroke-opacity:1"/>
<line clip-path="url(#clip022)" x1="1018.02" y1="1074.91" x2="1034.02" y2="1074.91" style="stroke:#3da44d; stroke-width:4; stroke-opacity:1"/>
<line clip-path="url(#clip022)" x1="1066.92" y1="1271.71" x2="1066.92" y2="1255.71" style="stroke:#3da44d; stroke-width:4; stroke-opacity:1"/>
<line clip-path="url(#clip022)" x1="1066.92" y1="1271.71" x2="1050.92" y2="1271.71" style="stroke:#3da44d; stroke-width:4; stroke-opacity:1"/>
<line clip-path="url(#clip022)" x1="1066.92" y1="1271.71" x2="1066.92" y2="1287.71" style="stroke:#3da44d; stroke-width:4; stroke-opacity:1"/>
<line clip-path="url(#clip022)" x1="1066.92" y1="1271.71" x2="1082.92" y2="1271.71" style="stroke:#3da44d; stroke-width:4; stroke-opacity:1"/>
<line clip-path="url(#clip022)" x1="1115.83" y1="938.02" x2="1115.83" y2="922.02" style="stroke:#3da44d; stroke-width:4; stroke-opacity:1"/>
<line clip-path="url(#clip022)" x1="1115.83" y1="938.02" x2="1099.83" y2="938.02" style="stroke:#3da44d; stroke-width:4; stroke-opacity:1"/>
<line clip-path="url(#clip022)" x1="1115.83" y1="938.02" x2="1115.83" y2="954.02" style="stroke:#3da44d; stroke-width:4; stroke-opacity:1"/>
<line clip-path="url(#clip022)" x1="1115.83" y1="938.02" x2="1131.83" y2="938.02" style="stroke:#3da44d; stroke-width:4; stroke-opacity:1"/>
<line clip-path="url(#clip022)" x1="1164.74" y1="1143.92" x2="1164.74" y2="1127.92" style="stroke:#3da44d; stroke-width:4; stroke-opacity:1"/>
<line clip-path="url(#clip022)" x1="1164.74" y1="1143.92" x2="1148.74" y2="1143.92" style="stroke:#3da44d; stroke-width:4; stroke-opacity:1"/>
<line clip-path="url(#clip022)" x1="1164.74" y1="1143.92" x2="1164.74" y2="1159.92" style="stroke:#3da44d; stroke-width:4; stroke-opacity:1"/>
<line clip-path="url(#clip022)" x1="1164.74" y1="1143.92" x2="1180.74" y2="1143.92" style="stroke:#3da44d; stroke-width:4; stroke-opacity:1"/>
<line clip-path="url(#clip022)" x1="1213.65" y1="1002.71" x2="1213.65" y2="986.709" style="stroke:#3da44d; stroke-width:4; stroke-opacity:1"/>
<line clip-path="url(#clip022)" x1="1213.65" y1="1002.71" x2="1197.65" y2="1002.71" style="stroke:#3da44d; stroke-width:4; stroke-opacity:1"/>
<line clip-path="url(#clip022)" x1="1213.65" y1="1002.71" x2="1213.65" y2="1018.71" style="stroke:#3da44d; stroke-width:4; stroke-opacity:1"/>
<line clip-path="url(#clip022)" x1="1213.65" y1="1002.71" x2="1229.65" y2="1002.71" style="stroke:#3da44d; stroke-width:4; stroke-opacity:1"/>
<line clip-path="url(#clip022)" x1="1262.55" y1="1010.48" x2="1262.55" y2="994.483" style="stroke:#3da44d; stroke-width:4; stroke-opacity:1"/>
<line clip-path="url(#clip022)" x1="1262.55" y1="1010.48" x2="1246.55" y2="1010.48" style="stroke:#3da44d; stroke-width:4; stroke-opacity:1"/>
<line clip-path="url(#clip022)" x1="1262.55" y1="1010.48" x2="1262.55" y2="1026.48" style="stroke:#3da44d; stroke-width:4; stroke-opacity:1"/>
<line clip-path="url(#clip022)" x1="1262.55" y1="1010.48" x2="1278.55" y2="1010.48" style="stroke:#3da44d; stroke-width:4; stroke-opacity:1"/>
<line clip-path="url(#clip022)" x1="1311.46" y1="1102.81" x2="1311.46" y2="1086.81" style="stroke:#3da44d; stroke-width:4; stroke-opacity:1"/>
<line clip-path="url(#clip022)" x1="1311.46" y1="1102.81" x2="1295.46" y2="1102.81" style="stroke:#3da44d; stroke-width:4; stroke-opacity:1"/>
<line clip-path="url(#clip022)" x1="1311.46" y1="1102.81" x2="1311.46" y2="1118.81" style="stroke:#3da44d; stroke-width:4; stroke-opacity:1"/>
<line clip-path="url(#clip022)" x1="1311.46" y1="1102.81" x2="1327.46" y2="1102.81" style="stroke:#3da44d; stroke-width:4; stroke-opacity:1"/>
<line clip-path="url(#clip022)" x1="1360.37" y1="846.27" x2="1360.37" y2="830.27" style="stroke:#3da44d; stroke-width:4; stroke-opacity:1"/>
<line clip-path="url(#clip022)" x1="1360.37" y1="846.27" x2="1344.37" y2="846.27" style="stroke:#3da44d; stroke-width:4; stroke-opacity:1"/>
<line clip-path="url(#clip022)" x1="1360.37" y1="846.27" x2="1360.37" y2="862.27" style="stroke:#3da44d; stroke-width:4; stroke-opacity:1"/>
<line clip-path="url(#clip022)" x1="1360.37" y1="846.27" x2="1376.37" y2="846.27" style="stroke:#3da44d; stroke-width:4; stroke-opacity:1"/>
<line clip-path="url(#clip022)" x1="1409.27" y1="1041.38" x2="1409.27" y2="1025.38" style="stroke:#3da44d; stroke-width:4; stroke-opacity:1"/>
<line clip-path="url(#clip022)" x1="1409.27" y1="1041.38" x2="1393.27" y2="1041.38" style="stroke:#3da44d; stroke-width:4; stroke-opacity:1"/>
<line clip-path="url(#clip022)" x1="1409.27" y1="1041.38" x2="1409.27" y2="1057.38" style="stroke:#3da44d; stroke-width:4; stroke-opacity:1"/>
<line clip-path="url(#clip022)" x1="1409.27" y1="1041.38" x2="1425.27" y2="1041.38" style="stroke:#3da44d; stroke-width:4; stroke-opacity:1"/>
<line clip-path="url(#clip022)" x1="1458.18" y1="911.622" x2="1458.18" y2="895.622" style="stroke:#3da44d; stroke-width:4; stroke-opacity:1"/>
<line clip-path="url(#clip022)" x1="1458.18" y1="911.622" x2="1442.18" y2="911.622" style="stroke:#3da44d; stroke-width:4; stroke-opacity:1"/>
<line clip-path="url(#clip022)" x1="1458.18" y1="911.622" x2="1458.18" y2="927.622" style="stroke:#3da44d; stroke-width:4; stroke-opacity:1"/>
<line clip-path="url(#clip022)" x1="1458.18" y1="911.622" x2="1474.18" y2="911.622" style="stroke:#3da44d; stroke-width:4; stroke-opacity:1"/>
<line clip-path="url(#clip022)" x1="1507.09" y1="906.7" x2="1507.09" y2="890.7" style="stroke:#3da44d; stroke-width:4; stroke-opacity:1"/>
<line clip-path="url(#clip022)" x1="1507.09" y1="906.7" x2="1491.09" y2="906.7" style="stroke:#3da44d; stroke-width:4; stroke-opacity:1"/>
<line clip-path="url(#clip022)" x1="1507.09" y1="906.7" x2="1507.09" y2="922.7" style="stroke:#3da44d; stroke-width:4; stroke-opacity:1"/>
<line clip-path="url(#clip022)" x1="1507.09" y1="906.7" x2="1523.09" y2="906.7" style="stroke:#3da44d; stroke-width:4; stroke-opacity:1"/>
<line clip-path="url(#clip022)" x1="1556" y1="904.008" x2="1556" y2="888.008" style="stroke:#3da44d; stroke-width:4; stroke-opacity:1"/>
<line clip-path="url(#clip022)" x1="1556" y1="904.008" x2="1540" y2="904.008" style="stroke:#3da44d; stroke-width:4; stroke-opacity:1"/>
<line clip-path="url(#clip022)" x1="1556" y1="904.008" x2="1556" y2="920.008" style="stroke:#3da44d; stroke-width:4; stroke-opacity:1"/>
<line clip-path="url(#clip022)" x1="1556" y1="904.008" x2="1572" y2="904.008" style="stroke:#3da44d; stroke-width:4; stroke-opacity:1"/>
<line clip-path="url(#clip022)" x1="1604.9" y1="833.567" x2="1604.9" y2="817.567" style="stroke:#3da44d; stroke-width:4; stroke-opacity:1"/>
<line clip-path="url(#clip022)" x1="1604.9" y1="833.567" x2="1588.9" y2="833.567" style="stroke:#3da44d; stroke-width:4; stroke-opacity:1"/>
<line clip-path="url(#clip022)" x1="1604.9" y1="833.567" x2="1604.9" y2="849.567" style="stroke:#3da44d; stroke-width:4; stroke-opacity:1"/>
<line clip-path="url(#clip022)" x1="1604.9" y1="833.567" x2="1620.9" y2="833.567" style="stroke:#3da44d; stroke-width:4; stroke-opacity:1"/>
<line clip-path="url(#clip022)" x1="1653.81" y1="817.847" x2="1653.81" y2="801.847" style="stroke:#3da44d; stroke-width:4; stroke-opacity:1"/>
<line clip-path="url(#clip022)" x1="1653.81" y1="817.847" x2="1637.81" y2="817.847" style="stroke:#3da44d; stroke-width:4; stroke-opacity:1"/>
<line clip-path="url(#clip022)" x1="1653.81" y1="817.847" x2="1653.81" y2="833.847" style="stroke:#3da44d; stroke-width:4; stroke-opacity:1"/>
<line clip-path="url(#clip022)" x1="1653.81" y1="817.847" x2="1669.81" y2="817.847" style="stroke:#3da44d; stroke-width:4; stroke-opacity:1"/>
<line clip-path="url(#clip022)" x1="1702.72" y1="724.106" x2="1702.72" y2="708.106" style="stroke:#3da44d; stroke-width:4; stroke-opacity:1"/>
<line clip-path="url(#clip022)" x1="1702.72" y1="724.106" x2="1686.72" y2="724.106" style="stroke:#3da44d; stroke-width:4; stroke-opacity:1"/>
<line clip-path="url(#clip022)" x1="1702.72" y1="724.106" x2="1702.72" y2="740.106" style="stroke:#3da44d; stroke-width:4; stroke-opacity:1"/>
<line clip-path="url(#clip022)" x1="1702.72" y1="724.106" x2="1718.72" y2="724.106" style="stroke:#3da44d; stroke-width:4; stroke-opacity:1"/>
<line clip-path="url(#clip022)" x1="1751.63" y1="535.968" x2="1751.63" y2="519.968" style="stroke:#3da44d; stroke-width:4; stroke-opacity:1"/>
<line clip-path="url(#clip022)" x1="1751.63" y1="535.968" x2="1735.63" y2="535.968" style="stroke:#3da44d; stroke-width:4; stroke-opacity:1"/>
<line clip-path="url(#clip022)" x1="1751.63" y1="535.968" x2="1751.63" y2="551.968" style="stroke:#3da44d; stroke-width:4; stroke-opacity:1"/>
<line clip-path="url(#clip022)" x1="1751.63" y1="535.968" x2="1767.63" y2="535.968" style="stroke:#3da44d; stroke-width:4; stroke-opacity:1"/>
<line clip-path="url(#clip022)" x1="1800.53" y1="556.99" x2="1800.53" y2="540.99" style="stroke:#3da44d; stroke-width:4; stroke-opacity:1"/>
<line clip-path="url(#clip022)" x1="1800.53" y1="556.99" x2="1784.53" y2="556.99" style="stroke:#3da44d; stroke-width:4; stroke-opacity:1"/>
<line clip-path="url(#clip022)" x1="1800.53" y1="556.99" x2="1800.53" y2="572.99" style="stroke:#3da44d; stroke-width:4; stroke-opacity:1"/>
<line clip-path="url(#clip022)" x1="1800.53" y1="556.99" x2="1816.53" y2="556.99" style="stroke:#3da44d; stroke-width:4; stroke-opacity:1"/>
<line clip-path="url(#clip022)" x1="1849.44" y1="792.725" x2="1849.44" y2="776.725" style="stroke:#3da44d; stroke-width:4; stroke-opacity:1"/>
<line clip-path="url(#clip022)" x1="1849.44" y1="792.725" x2="1833.44" y2="792.725" style="stroke:#3da44d; stroke-width:4; stroke-opacity:1"/>
<line clip-path="url(#clip022)" x1="1849.44" y1="792.725" x2="1849.44" y2="808.725" style="stroke:#3da44d; stroke-width:4; stroke-opacity:1"/>
<line clip-path="url(#clip022)" x1="1849.44" y1="792.725" x2="1865.44" y2="792.725" style="stroke:#3da44d; stroke-width:4; stroke-opacity:1"/>
<line clip-path="url(#clip022)" x1="1898.35" y1="677.238" x2="1898.35" y2="661.238" style="stroke:#3da44d; stroke-width:4; stroke-opacity:1"/>
<line clip-path="url(#clip022)" x1="1898.35" y1="677.238" x2="1882.35" y2="677.238" style="stroke:#3da44d; stroke-width:4; stroke-opacity:1"/>
<line clip-path="url(#clip022)" x1="1898.35" y1="677.238" x2="1898.35" y2="693.238" style="stroke:#3da44d; stroke-width:4; stroke-opacity:1"/>
<line clip-path="url(#clip022)" x1="1898.35" y1="677.238" x2="1914.35" y2="677.238" style="stroke:#3da44d; stroke-width:4; stroke-opacity:1"/>
<line clip-path="url(#clip022)" x1="1947.25" y1="610.771" x2="1947.25" y2="594.771" style="stroke:#3da44d; stroke-width:4; stroke-opacity:1"/>
<line clip-path="url(#clip022)" x1="1947.25" y1="610.771" x2="1931.25" y2="610.771" style="stroke:#3da44d; stroke-width:4; stroke-opacity:1"/>
<line clip-path="url(#clip022)" x1="1947.25" y1="610.771" x2="1947.25" y2="626.771" style="stroke:#3da44d; stroke-width:4; stroke-opacity:1"/>
<line clip-path="url(#clip022)" x1="1947.25" y1="610.771" x2="1963.25" y2="610.771" style="stroke:#3da44d; stroke-width:4; stroke-opacity:1"/>
<line clip-path="url(#clip022)" x1="1996.16" y1="638.403" x2="1996.16" y2="622.403" style="stroke:#3da44d; stroke-width:4; stroke-opacity:1"/>
<line clip-path="url(#clip022)" x1="1996.16" y1="638.403" x2="1980.16" y2="638.403" style="stroke:#3da44d; stroke-width:4; stroke-opacity:1"/>
<line clip-path="url(#clip022)" x1="1996.16" y1="638.403" x2="1996.16" y2="654.403" style="stroke:#3da44d; stroke-width:4; stroke-opacity:1"/>
<line clip-path="url(#clip022)" x1="1996.16" y1="638.403" x2="2012.16" y2="638.403" style="stroke:#3da44d; stroke-width:4; stroke-opacity:1"/>
<line clip-path="url(#clip022)" x1="2045.07" y1="542.892" x2="2045.07" y2="526.892" style="stroke:#3da44d; stroke-width:4; stroke-opacity:1"/>
<line clip-path="url(#clip022)" x1="2045.07" y1="542.892" x2="2029.07" y2="542.892" style="stroke:#3da44d; stroke-width:4; stroke-opacity:1"/>
<line clip-path="url(#clip022)" x1="2045.07" y1="542.892" x2="2045.07" y2="558.892" style="stroke:#3da44d; stroke-width:4; stroke-opacity:1"/>
<line clip-path="url(#clip022)" x1="2045.07" y1="542.892" x2="2061.07" y2="542.892" style="stroke:#3da44d; stroke-width:4; stroke-opacity:1"/>
<line clip-path="url(#clip022)" x1="2093.98" y1="557.726" x2="2093.98" y2="541.726" style="stroke:#3da44d; stroke-width:4; stroke-opacity:1"/>
<line clip-path="url(#clip022)" x1="2093.98" y1="557.726" x2="2077.98" y2="557.726" style="stroke:#3da44d; stroke-width:4; stroke-opacity:1"/>
<line clip-path="url(#clip022)" x1="2093.98" y1="557.726" x2="2093.98" y2="573.726" style="stroke:#3da44d; stroke-width:4; stroke-opacity:1"/>
<line clip-path="url(#clip022)" x1="2093.98" y1="557.726" x2="2109.98" y2="557.726" style="stroke:#3da44d; stroke-width:4; stroke-opacity:1"/>
<line clip-path="url(#clip022)" x1="2142.88" y1="583.148" x2="2142.88" y2="567.148" style="stroke:#3da44d; stroke-width:4; stroke-opacity:1"/>
<line clip-path="url(#clip022)" x1="2142.88" y1="583.148" x2="2126.88" y2="583.148" style="stroke:#3da44d; stroke-width:4; stroke-opacity:1"/>
<line clip-path="url(#clip022)" x1="2142.88" y1="583.148" x2="2142.88" y2="599.148" style="stroke:#3da44d; stroke-width:4; stroke-opacity:1"/>
<line clip-path="url(#clip022)" x1="2142.88" y1="583.148" x2="2158.88" y2="583.148" style="stroke:#3da44d; stroke-width:4; stroke-opacity:1"/>
<line clip-path="url(#clip022)" x1="2191.79" y1="497.519" x2="2191.79" y2="481.519" style="stroke:#3da44d; stroke-width:4; stroke-opacity:1"/>
<line clip-path="url(#clip022)" x1="2191.79" y1="497.519" x2="2175.79" y2="497.519" style="stroke:#3da44d; stroke-width:4; stroke-opacity:1"/>
<line clip-path="url(#clip022)" x1="2191.79" y1="497.519" x2="2191.79" y2="513.519" style="stroke:#3da44d; stroke-width:4; stroke-opacity:1"/>
<line clip-path="url(#clip022)" x1="2191.79" y1="497.519" x2="2207.79" y2="497.519" style="stroke:#3da44d; stroke-width:4; stroke-opacity:1"/>
<line clip-path="url(#clip022)" x1="2240.7" y1="309" x2="2240.7" y2="293" style="stroke:#3da44d; stroke-width:4; stroke-opacity:1"/>
<line clip-path="url(#clip022)" x1="2240.7" y1="309" x2="2224.7" y2="309" style="stroke:#3da44d; stroke-width:4; stroke-opacity:1"/>
<line clip-path="url(#clip022)" x1="2240.7" y1="309" x2="2240.7" y2="325" style="stroke:#3da44d; stroke-width:4; stroke-opacity:1"/>
<line clip-path="url(#clip022)" x1="2240.7" y1="309" x2="2256.7" y2="309" style="stroke:#3da44d; stroke-width:4; stroke-opacity:1"/>
<line clip-path="url(#clip022)" x1="2289.6" y1="421.716" x2="2289.6" y2="405.716" style="stroke:#3da44d; stroke-width:4; stroke-opacity:1"/>
<line clip-path="url(#clip022)" x1="2289.6" y1="421.716" x2="2273.6" y2="421.716" style="stroke:#3da44d; stroke-width:4; stroke-opacity:1"/>
<line clip-path="url(#clip022)" x1="2289.6" y1="421.716" x2="2289.6" y2="437.716" style="stroke:#3da44d; stroke-width:4; stroke-opacity:1"/>
<line clip-path="url(#clip022)" x1="2289.6" y1="421.716" x2="2305.6" y2="421.716" style="stroke:#3da44d; stroke-width:4; stroke-opacity:1"/>
<line clip-path="url(#clip022)" x1="2338.51" y1="337.507" x2="2338.51" y2="321.507" style="stroke:#3da44d; stroke-width:4; stroke-opacity:1"/>
<line clip-path="url(#clip022)" x1="2338.51" y1="337.507" x2="2322.51" y2="337.507" style="stroke:#3da44d; stroke-width:4; stroke-opacity:1"/>
<line clip-path="url(#clip022)" x1="2338.51" y1="337.507" x2="2338.51" y2="353.507" style="stroke:#3da44d; stroke-width:4; stroke-opacity:1"/>
<line clip-path="url(#clip022)" x1="2338.51" y1="337.507" x2="2354.51" y2="337.507" style="stroke:#3da44d; stroke-width:4; stroke-opacity:1"/>
<line clip-path="url(#clip022)" x1="2387.42" y1="312.243" x2="2387.42" y2="296.243" style="stroke:#3da44d; stroke-width:4; stroke-opacity:1"/>
<line clip-path="url(#clip022)" x1="2387.42" y1="312.243" x2="2371.42" y2="312.243" style="stroke:#3da44d; stroke-width:4; stroke-opacity:1"/>
<line clip-path="url(#clip022)" x1="2387.42" y1="312.243" x2="2387.42" y2="328.243" style="stroke:#3da44d; stroke-width:4; stroke-opacity:1"/>
<line clip-path="url(#clip022)" x1="2387.42" y1="312.243" x2="2403.42" y2="312.243" style="stroke:#3da44d; stroke-width:4; stroke-opacity:1"/>
<line clip-path="url(#clip022)" x1="2436.33" y1="162.777" x2="2436.33" y2="146.777" style="stroke:#3da44d; stroke-width:4; stroke-opacity:1"/>
<line clip-path="url(#clip022)" x1="2436.33" y1="162.777" x2="2420.33" y2="162.777" style="stroke:#3da44d; stroke-width:4; stroke-opacity:1"/>
<line clip-path="url(#clip022)" x1="2436.33" y1="162.777" x2="2436.33" y2="178.777" style="stroke:#3da44d; stroke-width:4; stroke-opacity:1"/>
<line clip-path="url(#clip022)" x1="2436.33" y1="162.777" x2="2452.33" y2="162.777" style="stroke:#3da44d; stroke-width:4; stroke-opacity:1"/>
<line clip-path="url(#clip022)" x1="2485.23" y1="336.828" x2="2485.23" y2="320.828" style="stroke:#3da44d; stroke-width:4; stroke-opacity:1"/>
<line clip-path="url(#clip022)" x1="2485.23" y1="336.828" x2="2469.23" y2="336.828" style="stroke:#3da44d; stroke-width:4; stroke-opacity:1"/>
<line clip-path="url(#clip022)" x1="2485.23" y1="336.828" x2="2485.23" y2="352.828" style="stroke:#3da44d; stroke-width:4; stroke-opacity:1"/>
<line clip-path="url(#clip022)" x1="2485.23" y1="336.828" x2="2501.23" y2="336.828" style="stroke:#3da44d; stroke-width:4; stroke-opacity:1"/>
<line clip-path="url(#clip022)" x1="2534.14" y1="243.67" x2="2534.14" y2="227.67" style="stroke:#3da44d; stroke-width:4; stroke-opacity:1"/>
<line clip-path="url(#clip022)" x1="2534.14" y1="243.67" x2="2518.14" y2="243.67" style="stroke:#3da44d; stroke-width:4; stroke-opacity:1"/>
<line clip-path="url(#clip022)" x1="2534.14" y1="243.67" x2="2534.14" y2="259.67" style="stroke:#3da44d; stroke-width:4; stroke-opacity:1"/>
<line clip-path="url(#clip022)" x1="2534.14" y1="243.67" x2="2550.14" y2="243.67" style="stroke:#3da44d; stroke-width:4; stroke-opacity:1"/>
<line clip-path="url(#clip022)" x1="2583.05" y1="366.715" x2="2583.05" y2="350.715" style="stroke:#3da44d; stroke-width:4; stroke-opacity:1"/>
<line clip-path="url(#clip022)" x1="2583.05" y1="366.715" x2="2567.05" y2="366.715" style="stroke:#3da44d; stroke-width:4; stroke-opacity:1"/>
<line clip-path="url(#clip022)" x1="2583.05" y1="366.715" x2="2583.05" y2="382.715" style="stroke:#3da44d; stroke-width:4; stroke-opacity:1"/>
<line clip-path="url(#clip022)" x1="2583.05" y1="366.715" x2="2599.05" y2="366.715" style="stroke:#3da44d; stroke-width:4; stroke-opacity:1"/>
<line clip-path="url(#clip022)" x1="2631.96" y1="110.014" x2="2631.96" y2="94.0142" style="stroke:#3da44d; stroke-width:4; stroke-opacity:1"/>
<line clip-path="url(#clip022)" x1="2631.96" y1="110.014" x2="2615.96" y2="110.014" style="stroke:#3da44d; stroke-width:4; stroke-opacity:1"/>
<line clip-path="url(#clip022)" x1="2631.96" y1="110.014" x2="2631.96" y2="126.014" style="stroke:#3da44d; stroke-width:4; stroke-opacity:1"/>
<line clip-path="url(#clip022)" x1="2631.96" y1="110.014" x2="2647.96" y2="110.014" style="stroke:#3da44d; stroke-width:4; stroke-opacity:1"/>
<line clip-path="url(#clip022)" x1="2680.86" y1="104.296" x2="2680.86" y2="88.2959" style="stroke:#3da44d; stroke-width:4; stroke-opacity:1"/>
<line clip-path="url(#clip022)" x1="2680.86" y1="104.296" x2="2664.86" y2="104.296" style="stroke:#3da44d; stroke-width:4; stroke-opacity:1"/>
<line clip-path="url(#clip022)" x1="2680.86" y1="104.296" x2="2680.86" y2="120.296" style="stroke:#3da44d; stroke-width:4; stroke-opacity:1"/>
<line clip-path="url(#clip022)" x1="2680.86" y1="104.296" x2="2696.86" y2="104.296" style="stroke:#3da44d; stroke-width:4; stroke-opacity:1"/>
<path clip-path="url(#clip020)" d="
M2042.64 1754.45 L2668.08 1754.45 L2668.08 1547.09 L2042.64 1547.09  Z
  " fill="#ffffff" fill-rule="evenodd" fill-opacity="1"/>
<polyline clip-path="url(#clip020)" style="stroke:#000000; stroke-linecap:round; stroke-linejoin:round; stroke-width:4; stroke-opacity:1; fill:none" points="
  2042.64,1754.45 2668.08,1754.45 2668.08,1547.09 2042.64,1547.09 2042.64,1754.45 
  "/>
<polyline clip-path="url(#clip020)" style="stroke:#009af9; stroke-linecap:round; stroke-linejoin:round; stroke-width:4; stroke-opacity:1; fill:none" stroke-dasharray="16, 10" points="
  2070.86,1598.93 2240.21,1598.93 
  "/>
<path clip-path="url(#clip020)" d="M2268.44 1581.65 L2297.67 1581.65 L2297.67 1585.58 L2285.41 1585.58 L2285.41 1616.21 L2280.71 1616.21 L2280.71 1585.58 L2268.44 1585.58 L2268.44 1581.65 Z" fill="#000000" fill-rule="evenodd" fill-opacity="1" /><path clip-path="url(#clip020)" d="M2310.06 1594.26 Q2309.34 1593.85 2308.48 1593.66 Q2307.65 1593.45 2306.63 1593.45 Q2303.02 1593.45 2301.08 1595.81 Q2299.16 1598.15 2299.16 1602.55 L2299.16 1616.21 L2294.87 1616.21 L2294.87 1590.28 L2299.16 1590.28 L2299.16 1594.31 Q2300.5 1591.95 2302.65 1590.81 Q2304.8 1589.66 2307.88 1589.66 Q2308.32 1589.66 2308.86 1589.73 Q2309.39 1589.77 2310.04 1589.89 L2310.06 1594.26 Z" fill="#000000" fill-rule="evenodd" fill-opacity="1" /><path clip-path="url(#clip020)" d="M2326.31 1603.18 Q2321.15 1603.18 2319.16 1604.36 Q2317.17 1605.54 2317.17 1608.38 Q2317.17 1610.65 2318.65 1611.99 Q2320.15 1613.31 2322.72 1613.31 Q2326.26 1613.31 2328.39 1610.81 Q2330.54 1608.29 2330.54 1604.12 L2330.54 1603.18 L2326.31 1603.18 M2334.8 1601.42 L2334.8 1616.21 L2330.54 1616.21 L2330.54 1612.27 Q2329.09 1614.63 2326.91 1615.77 Q2324.73 1616.88 2321.59 1616.88 Q2317.61 1616.88 2315.24 1614.66 Q2312.91 1612.41 2312.91 1608.66 Q2312.91 1604.29 2315.82 1602.06 Q2318.76 1599.84 2324.57 1599.84 L2330.54 1599.84 L2330.54 1599.43 Q2330.54 1596.49 2328.6 1594.89 Q2326.68 1593.27 2323.18 1593.27 Q2320.96 1593.27 2318.86 1593.8 Q2316.75 1594.33 2314.8 1595.4 L2314.8 1591.46 Q2317.14 1590.56 2319.34 1590.12 Q2321.54 1589.66 2323.62 1589.66 Q2329.25 1589.66 2332.03 1592.57 Q2334.8 1595.49 2334.8 1601.42 Z" fill="#000000" fill-rule="evenodd" fill-opacity="1" /><path clip-path="url(#clip020)" d="M2362.23 1591.28 L2362.23 1595.26 Q2360.43 1594.26 2358.6 1593.78 Q2356.79 1593.27 2354.94 1593.27 Q2350.8 1593.27 2348.51 1595.91 Q2346.22 1598.52 2346.22 1603.27 Q2346.22 1608.01 2348.51 1610.65 Q2350.8 1613.27 2354.94 1613.27 Q2356.79 1613.27 2358.6 1612.78 Q2360.43 1612.27 2362.23 1611.28 L2362.23 1615.21 Q2360.45 1616.05 2358.53 1616.46 Q2356.63 1616.88 2354.48 1616.88 Q2348.62 1616.88 2345.17 1613.2 Q2341.73 1609.52 2341.73 1603.27 Q2341.73 1596.93 2345.2 1593.29 Q2348.69 1589.66 2354.76 1589.66 Q2356.73 1589.66 2358.6 1590.07 Q2360.48 1590.47 2362.23 1591.28 Z" fill="#000000" fill-rule="evenodd" fill-opacity="1" /><path clip-path="url(#clip020)" d="M2369.48 1580.19 L2373.76 1580.19 L2373.76 1601.46 L2386.47 1590.28 L2391.91 1590.28 L2378.16 1602.41 L2392.49 1616.21 L2386.93 1616.21 L2373.76 1603.55 L2373.76 1616.21 L2369.48 1616.21 L2369.48 1580.19 Z" fill="#000000" fill-rule="evenodd" fill-opacity="1" /><polyline clip-path="url(#clip020)" style="stroke:#e26f46; stroke-linecap:round; stroke-linejoin:round; stroke-width:4; stroke-opacity:1; fill:none" points="
  2070.86,1650.77 2240.21,1650.77 
  "/>
<path clip-path="url(#clip020)" d="M2268.44 1633.49 L2288.3 1633.49 L2288.3 1637.42 L2273.11 1637.42 L2273.11 1647.61 L2286.82 1647.61 L2286.82 1651.54 L2273.11 1651.54 L2273.11 1668.05 L2268.44 1668.05 L2268.44 1633.49 Z" fill="#000000" fill-rule="evenodd" fill-opacity="1" /><path clip-path="url(#clip020)" d="M2292.07 1642.12 L2296.33 1642.12 L2296.33 1668.05 L2292.07 1668.05 L2292.07 1642.12 M2292.07 1632.03 L2296.33 1632.03 L2296.33 1637.42 L2292.07 1637.42 L2292.07 1632.03 Z" fill="#000000" fill-rule="evenodd" fill-opacity="1" /><path clip-path="url(#clip020)" d="M2305.24 1632.03 L2309.5 1632.03 L2309.5 1668.05 L2305.24 1668.05 L2305.24 1632.03 Z" fill="#000000" fill-rule="evenodd" fill-opacity="1" /><path clip-path="url(#clip020)" d="M2322.63 1634.76 L2322.63 1642.12 L2331.4 1642.12 L2331.4 1645.43 L2322.63 1645.43 L2322.63 1659.51 Q2322.63 1662.68 2323.48 1663.58 Q2324.36 1664.48 2327.03 1664.48 L2331.4 1664.48 L2331.4 1668.05 L2327.03 1668.05 Q2322.1 1668.05 2320.22 1666.22 Q2318.35 1664.37 2318.35 1659.51 L2318.35 1645.43 L2315.22 1645.43 L2315.22 1642.12 L2318.35 1642.12 L2318.35 1634.76 L2322.63 1634.76 Z" fill="#000000" fill-rule="evenodd" fill-opacity="1" /><path clip-path="url(#clip020)" d="M2359.18 1654.02 L2359.18 1656.1 L2339.6 1656.1 Q2339.87 1660.5 2342.23 1662.82 Q2344.62 1665.11 2348.86 1665.11 Q2351.31 1665.11 2353.6 1664.51 Q2355.92 1663.9 2358.18 1662.7 L2358.18 1666.73 Q2355.89 1667.7 2353.48 1668.21 Q2351.08 1668.72 2348.6 1668.72 Q2342.4 1668.72 2338.76 1665.11 Q2335.15 1661.5 2335.15 1655.34 Q2335.15 1648.97 2338.58 1645.25 Q2342.03 1641.5 2347.86 1641.5 Q2353.09 1641.5 2356.12 1644.88 Q2359.18 1648.23 2359.18 1654.02 M2354.92 1652.77 Q2354.87 1649.27 2352.95 1647.19 Q2351.05 1645.11 2347.91 1645.11 Q2344.34 1645.11 2342.19 1647.12 Q2340.06 1649.14 2339.73 1652.79 L2354.92 1652.77 Z" fill="#000000" fill-rule="evenodd" fill-opacity="1" /><path clip-path="url(#clip020)" d="M2381.19 1646.1 Q2380.48 1645.69 2379.62 1645.5 Q2378.79 1645.29 2377.77 1645.29 Q2374.16 1645.29 2372.21 1647.65 Q2370.29 1649.99 2370.29 1654.39 L2370.29 1668.05 L2366.01 1668.05 L2366.01 1642.12 L2370.29 1642.12 L2370.29 1646.15 Q2371.63 1643.79 2373.79 1642.65 Q2375.94 1641.5 2379.02 1641.5 Q2379.46 1641.5 2379.99 1641.57 Q2380.52 1641.61 2381.17 1641.73 L2381.19 1646.1 Z" fill="#000000" fill-rule="evenodd" fill-opacity="1" /><line clip-path="url(#clip020)" x1="2155.54" y1="1702.61" x2="2155.54" y2="1677.01" style="stroke:#3da44d; stroke-width:6.4; stroke-opacity:1"/>
<line clip-path="url(#clip020)" x1="2155.54" y1="1702.61" x2="2129.94" y2="1702.61" style="stroke:#3da44d; stroke-width:6.4; stroke-opacity:1"/>
<line clip-path="url(#clip020)" x1="2155.54" y1="1702.61" x2="2155.54" y2="1728.21" style="stroke:#3da44d; stroke-width:6.4; stroke-opacity:1"/>
<line clip-path="url(#clip020)" x1="2155.54" y1="1702.61" x2="2181.14" y2="1702.61" style="stroke:#3da44d; stroke-width:6.4; stroke-opacity:1"/>
<path clip-path="url(#clip020)" d="M2268.44 1685.33 L2275.41 1685.33 L2284.23 1708.85 L2293.09 1685.33 L2300.06 1685.33 L2300.06 1719.89 L2295.5 1719.89 L2295.5 1689.54 L2286.59 1713.24 L2281.89 1713.24 L2272.98 1689.54 L2272.98 1719.89 L2268.44 1719.89 L2268.44 1685.33 Z" fill="#000000" fill-rule="evenodd" fill-opacity="1" /><path clip-path="url(#clip020)" d="M2331.33 1705.86 L2331.33 1707.94 L2311.75 1707.94 Q2312.03 1712.34 2314.39 1714.66 Q2316.77 1716.95 2321.01 1716.95 Q2323.46 1716.95 2325.75 1716.35 Q2328.07 1715.74 2330.34 1714.54 L2330.34 1718.57 Q2328.04 1719.54 2325.64 1720.05 Q2323.23 1720.56 2320.75 1720.56 Q2314.55 1720.56 2310.92 1716.95 Q2307.3 1713.34 2307.3 1707.18 Q2307.3 1700.81 2310.73 1697.09 Q2314.18 1693.34 2320.01 1693.34 Q2325.24 1693.34 2328.28 1696.72 Q2331.33 1700.07 2331.33 1705.86 M2327.07 1704.61 Q2327.03 1701.11 2325.11 1699.03 Q2323.21 1696.95 2320.06 1696.95 Q2316.49 1696.95 2314.34 1698.96 Q2312.21 1700.98 2311.89 1704.63 L2327.07 1704.61 Z" fill="#000000" fill-rule="evenodd" fill-opacity="1" /><path clip-path="url(#clip020)" d="M2350.11 1706.86 Q2344.94 1706.86 2342.95 1708.04 Q2340.96 1709.22 2340.96 1712.06 Q2340.96 1714.33 2342.44 1715.67 Q2343.95 1716.99 2346.52 1716.99 Q2350.06 1716.99 2352.19 1714.49 Q2354.34 1711.97 2354.34 1707.8 L2354.34 1706.86 L2350.11 1706.86 M2358.6 1705.1 L2358.6 1719.89 L2354.34 1719.89 L2354.34 1715.95 Q2352.88 1718.31 2350.71 1719.45 Q2348.53 1720.56 2345.38 1720.56 Q2341.4 1720.56 2339.04 1718.34 Q2336.7 1716.09 2336.7 1712.34 Q2336.7 1707.97 2339.62 1705.74 Q2342.56 1703.52 2348.37 1703.52 L2354.34 1703.52 L2354.34 1703.11 Q2354.34 1700.17 2352.4 1698.57 Q2350.48 1696.95 2346.98 1696.95 Q2344.76 1696.95 2342.65 1697.48 Q2340.54 1698.01 2338.6 1699.08 L2338.6 1695.14 Q2340.94 1694.24 2343.14 1693.8 Q2345.34 1693.34 2347.42 1693.34 Q2353.04 1693.34 2355.82 1696.25 Q2358.6 1699.17 2358.6 1705.1 Z" fill="#000000" fill-rule="evenodd" fill-opacity="1" /><path clip-path="url(#clip020)" d="M2383.9 1694.73 L2383.9 1698.75 Q2382.1 1697.83 2380.15 1697.36 Q2378.21 1696.9 2376.12 1696.9 Q2372.95 1696.9 2371.35 1697.87 Q2369.78 1698.85 2369.78 1700.79 Q2369.78 1702.27 2370.92 1703.13 Q2372.05 1703.96 2375.48 1704.73 L2376.93 1705.05 Q2381.47 1706.02 2383.37 1707.8 Q2385.29 1709.56 2385.29 1712.74 Q2385.29 1716.35 2382.42 1718.45 Q2379.57 1720.56 2374.57 1720.56 Q2372.49 1720.56 2370.22 1720.14 Q2367.98 1719.75 2365.48 1718.94 L2365.48 1714.54 Q2367.84 1715.77 2370.13 1716.39 Q2372.42 1716.99 2374.67 1716.99 Q2377.67 1716.99 2379.29 1715.98 Q2380.92 1714.93 2380.92 1713.06 Q2380.92 1711.32 2379.73 1710.4 Q2378.58 1709.47 2374.62 1708.61 L2373.14 1708.27 Q2369.18 1707.43 2367.42 1705.72 Q2365.66 1703.99 2365.66 1700.98 Q2365.66 1697.32 2368.25 1695.33 Q2370.85 1693.34 2375.61 1693.34 Q2377.98 1693.34 2380.06 1693.68 Q2382.14 1694.03 2383.9 1694.73 Z" fill="#000000" fill-rule="evenodd" fill-opacity="1" /><path clip-path="url(#clip020)" d="M2391.63 1709.66 L2391.63 1693.96 L2395.89 1693.96 L2395.89 1709.49 Q2395.89 1713.17 2397.33 1715.03 Q2398.76 1716.86 2401.63 1716.86 Q2405.08 1716.86 2407.07 1714.66 Q2409.09 1712.46 2409.09 1708.66 L2409.09 1693.96 L2413.35 1693.96 L2413.35 1719.89 L2409.09 1719.89 L2409.09 1715.91 Q2407.54 1718.27 2405.48 1719.42 Q2403.44 1720.56 2400.73 1720.56 Q2396.26 1720.56 2393.95 1717.78 Q2391.63 1715 2391.63 1709.66 M2402.35 1693.34 L2402.35 1693.34 Z" fill="#000000" fill-rule="evenodd" fill-opacity="1" /><path clip-path="url(#clip020)" d="M2437.14 1697.94 Q2436.42 1697.53 2435.57 1697.34 Q2434.73 1697.13 2433.72 1697.13 Q2430.1 1697.13 2428.16 1699.49 Q2426.24 1701.83 2426.24 1706.23 L2426.24 1719.89 L2421.96 1719.89 L2421.96 1693.96 L2426.24 1693.96 L2426.24 1697.99 Q2427.58 1695.63 2429.73 1694.49 Q2431.89 1693.34 2434.97 1693.34 Q2435.41 1693.34 2435.94 1693.41 Q2436.47 1693.45 2437.12 1693.57 L2437.14 1697.94 Z" fill="#000000" fill-rule="evenodd" fill-opacity="1" /><path clip-path="url(#clip020)" d="M2462.74 1705.86 L2462.74 1707.94 L2443.16 1707.94 Q2443.44 1712.34 2445.8 1714.66 Q2448.18 1716.95 2452.42 1716.95 Q2454.87 1716.95 2457.16 1716.35 Q2459.48 1715.74 2461.75 1714.54 L2461.75 1718.57 Q2459.46 1719.54 2457.05 1720.05 Q2454.64 1720.56 2452.16 1720.56 Q2445.96 1720.56 2442.33 1716.95 Q2438.72 1713.34 2438.72 1707.18 Q2438.72 1700.81 2442.14 1697.09 Q2445.59 1693.34 2451.42 1693.34 Q2456.66 1693.34 2459.69 1696.72 Q2462.74 1700.07 2462.74 1705.86 M2458.48 1704.61 Q2458.44 1701.11 2456.52 1699.03 Q2454.62 1696.95 2451.47 1696.95 Q2447.91 1696.95 2445.75 1698.96 Q2443.62 1700.98 2443.3 1704.63 L2458.48 1704.61 Z" fill="#000000" fill-rule="evenodd" fill-opacity="1" /><path clip-path="url(#clip020)" d="M2489.92 1698.94 Q2491.52 1696.07 2493.74 1694.7 Q2495.96 1693.34 2498.97 1693.34 Q2503.02 1693.34 2505.22 1696.18 Q2507.42 1699.01 2507.42 1704.24 L2507.42 1719.89 L2503.14 1719.89 L2503.14 1704.38 Q2503.14 1700.65 2501.82 1698.85 Q2500.5 1697.04 2497.79 1697.04 Q2494.48 1697.04 2492.56 1699.24 Q2490.64 1701.44 2490.64 1705.24 L2490.64 1719.89 L2486.35 1719.89 L2486.35 1704.38 Q2486.35 1700.63 2485.03 1698.85 Q2483.72 1697.04 2480.96 1697.04 Q2477.7 1697.04 2475.78 1699.26 Q2473.85 1701.46 2473.85 1705.24 L2473.85 1719.89 L2469.57 1719.89 L2469.57 1693.96 L2473.85 1693.96 L2473.85 1697.99 Q2475.31 1695.61 2477.35 1694.47 Q2479.39 1693.34 2482.19 1693.34 Q2485.01 1693.34 2486.98 1694.77 Q2488.97 1696.21 2489.92 1698.94 Z" fill="#000000" fill-rule="evenodd" fill-opacity="1" /><path clip-path="url(#clip020)" d="M2538.09 1705.86 L2538.09 1707.94 L2518.51 1707.94 Q2518.78 1712.34 2521.15 1714.66 Q2523.53 1716.95 2527.77 1716.95 Q2530.22 1716.95 2532.51 1716.35 Q2534.83 1715.74 2537.09 1714.54 L2537.09 1718.57 Q2534.8 1719.54 2532.4 1720.05 Q2529.99 1720.56 2527.51 1720.56 Q2521.31 1720.56 2517.67 1716.95 Q2514.06 1713.34 2514.06 1707.18 Q2514.06 1700.81 2517.49 1697.09 Q2520.94 1693.34 2526.77 1693.34 Q2532 1693.34 2535.03 1696.72 Q2538.09 1700.07 2538.09 1705.86 M2533.83 1704.61 Q2533.78 1701.11 2531.86 1699.03 Q2529.97 1696.95 2526.82 1696.95 Q2523.25 1696.95 2521.1 1698.96 Q2518.97 1700.98 2518.65 1704.63 L2533.83 1704.61 Z" fill="#000000" fill-rule="evenodd" fill-opacity="1" /><path clip-path="url(#clip020)" d="M2566.63 1704.24 L2566.63 1719.89 L2562.37 1719.89 L2562.37 1704.38 Q2562.37 1700.7 2560.94 1698.87 Q2559.5 1697.04 2556.63 1697.04 Q2553.18 1697.04 2551.19 1699.24 Q2549.2 1701.44 2549.2 1705.24 L2549.2 1719.89 L2544.92 1719.89 L2544.92 1693.96 L2549.2 1693.96 L2549.2 1697.99 Q2550.73 1695.65 2552.79 1694.49 Q2554.87 1693.34 2557.58 1693.34 Q2562.05 1693.34 2564.34 1696.11 Q2566.63 1698.87 2566.63 1704.24 Z" fill="#000000" fill-rule="evenodd" fill-opacity="1" /><path clip-path="url(#clip020)" d="M2579.34 1686.6 L2579.34 1693.96 L2588.11 1693.96 L2588.11 1697.27 L2579.34 1697.27 L2579.34 1711.35 Q2579.34 1714.52 2580.2 1715.42 Q2581.08 1716.32 2583.74 1716.32 L2588.11 1716.32 L2588.11 1719.89 L2583.74 1719.89 Q2578.81 1719.89 2576.93 1718.06 Q2575.06 1716.21 2575.06 1711.35 L2575.06 1697.27 L2571.93 1697.27 L2571.93 1693.96 L2575.06 1693.96 L2575.06 1686.6 L2579.34 1686.6 Z" fill="#000000" fill-rule="evenodd" fill-opacity="1" /><path clip-path="url(#clip020)" d="M2610.24 1694.73 L2610.24 1698.75 Q2608.44 1697.83 2606.49 1697.36 Q2604.55 1696.9 2602.46 1696.9 Q2599.29 1696.9 2597.7 1697.87 Q2596.12 1698.85 2596.12 1700.79 Q2596.12 1702.27 2597.26 1703.13 Q2598.39 1703.96 2601.82 1704.73 L2603.27 1705.05 Q2607.81 1706.02 2609.71 1707.8 Q2611.63 1709.56 2611.63 1712.74 Q2611.63 1716.35 2608.76 1718.45 Q2605.91 1720.56 2600.91 1720.56 Q2598.83 1720.56 2596.56 1720.14 Q2594.32 1719.75 2591.82 1718.94 L2591.82 1714.54 Q2594.18 1715.77 2596.47 1716.39 Q2598.76 1716.99 2601.01 1716.99 Q2604.02 1716.99 2605.64 1715.98 Q2607.26 1714.93 2607.26 1713.06 Q2607.26 1711.32 2606.08 1710.4 Q2604.92 1709.47 2600.96 1708.61 L2599.48 1708.27 Q2595.52 1707.43 2593.76 1705.72 Q2592 1703.99 2592 1700.98 Q2592 1697.32 2594.59 1695.33 Q2597.19 1693.34 2601.96 1693.34 Q2604.32 1693.34 2606.4 1693.68 Q2608.48 1694.03 2610.24 1694.73 Z" fill="#000000" fill-rule="evenodd" fill-opacity="1" /></svg>
