<?xml version="1.0" encoding="utf-8"?>
<svg xmlns="http://www.w3.org/2000/svg" xmlns:xlink="http://www.w3.org/1999/xlink" width="800" height="400" viewBox="0 0 3200 1600">
<defs>
  <clipPath id="clip060">
    <rect x="0" y="0" width="3200" height="1600"/>
  </clipPath>
</defs>
<path clip-path="url(#clip060)" d="
M0 1600 L3200 1600 L3200 0 L0 0  Z
  " fill="#ffffff" fill-rule="evenodd" fill-opacity="1"/>
<defs>
  <clipPath id="clip061">
    <rect x="640" y="0" width="2241" height="1600"/>
  </clipPath>
</defs>
<path clip-path="url(#clip060)" d="
M254.639 1443.7 L1582.02 1443.7 L1582.02 108.352 L254.639 108.352  Z
  " fill="#ffffff" fill-rule="evenodd" fill-opacity="1"/>
<defs>
  <clipPath id="clip062">
    <rect x="254" y="108" width="1328" height="1336"/>
  </clipPath>
</defs>
<polyline clip-path="url(#clip062)" style="stroke:#000000; stroke-linecap:round; stroke-linejoin:round; stroke-width:2; stroke-opacity:0.1; fill:none" points="
  266.65,1443.7 266.65,108.352 
  "/>
<polyline clip-path="url(#clip062)" style="stroke:#000000; stroke-linecap:round; stroke-linejoin:round; stroke-width:2; stroke-opacity:0.1; fill:none" points="
  522.212,1443.7 522.212,108.352 
  "/>
<polyline clip-path="url(#clip062)" style="stroke:#000000; stroke-linecap:round; stroke-linejoin:round; stroke-width:2; stroke-opacity:0.1; fill:none" points="
  777.773,1443.7 777.773,108.352 
  "/>
<polyline clip-path="url(#clip062)" style="stroke:#000000; stroke-linecap:round; stroke-linejoin:round; stroke-width:2; stroke-opacity:0.1; fill:none" points="
  1033.33,1443.7 1033.33,108.352 
  "/>
<polyline clip-path="url(#clip062)" style="stroke:#000000; stroke-linecap:round; stroke-linejoin:round; stroke-width:2; stroke-opacity:0.1; fill:none" points="
  1288.89,1443.7 1288.89,108.352 
  "/>
<polyline clip-path="url(#clip062)" style="stroke:#000000; stroke-linecap:round; stroke-linejoin:round; stroke-width:2; stroke-opacity:0.1; fill:none" points="
  1544.46,1443.7 1544.46,108.352 
  "/>
<polyline clip-path="url(#clip062)" style="stroke:#000000; stroke-linecap:round; stroke-linejoin:round; stroke-width:2; stroke-opacity:0.05; fill:none" points="
  317.763,1443.7 317.763,108.352 
  "/>
<polyline clip-path="url(#clip062)" style="stroke:#000000; stroke-linecap:round; stroke-linejoin:round; stroke-width:2; stroke-opacity:0.05; fill:none" points="
  368.875,1443.7 368.875,108.352 
  "/>
<polyline clip-path="url(#clip062)" style="stroke:#000000; stroke-linecap:round; stroke-linejoin:round; stroke-width:2; stroke-opacity:0.05; fill:none" points="
  419.987,1443.7 419.987,108.352 
  "/>
<polyline clip-path="url(#clip062)" style="stroke:#000000; stroke-linecap:round; stroke-linejoin:round; stroke-width:2; stroke-opacity:0.05; fill:none" points="
  471.099,1443.7 471.099,108.352 
  "/>
<polyline clip-path="url(#clip062)" style="stroke:#000000; stroke-linecap:round; stroke-linejoin:round; stroke-width:2; stroke-opacity:0.05; fill:none" points="
  573.324,1443.7 573.324,108.352 
  "/>
<polyline clip-path="url(#clip062)" style="stroke:#000000; stroke-linecap:round; stroke-linejoin:round; stroke-width:2; stroke-opacity:0.05; fill:none" points="
  624.436,1443.7 624.436,108.352 
  "/>
<polyline clip-path="url(#clip062)" style="stroke:#000000; stroke-linecap:round; stroke-linejoin:round; stroke-width:2; stroke-opacity:0.05; fill:none" points="
  675.548,1443.7 675.548,108.352 
  "/>
<polyline clip-path="url(#clip062)" style="stroke:#000000; stroke-linecap:round; stroke-linejoin:round; stroke-width:2; stroke-opacity:0.05; fill:none" points="
  726.66,1443.7 726.66,108.352 
  "/>
<polyline clip-path="url(#clip062)" style="stroke:#000000; stroke-linecap:round; stroke-linejoin:round; stroke-width:2; stroke-opacity:0.05; fill:none" points="
  828.885,1443.7 828.885,108.352 
  "/>
<polyline clip-path="url(#clip062)" style="stroke:#000000; stroke-linecap:round; stroke-linejoin:round; stroke-width:2; stroke-opacity:0.05; fill:none" points="
  879.997,1443.7 879.997,108.352 
  "/>
<polyline clip-path="url(#clip062)" style="stroke:#000000; stroke-linecap:round; stroke-linejoin:round; stroke-width:2; stroke-opacity:0.05; fill:none" points="
  931.109,1443.7 931.109,108.352 
  "/>
<polyline clip-path="url(#clip062)" style="stroke:#000000; stroke-linecap:round; stroke-linejoin:round; stroke-width:2; stroke-opacity:0.05; fill:none" points="
  982.222,1443.7 982.222,108.352 
  "/>
<polyline clip-path="url(#clip062)" style="stroke:#000000; stroke-linecap:round; stroke-linejoin:round; stroke-width:2; stroke-opacity:0.05; fill:none" points="
  1084.45,1443.7 1084.45,108.352 
  "/>
<polyline clip-path="url(#clip062)" style="stroke:#000000; stroke-linecap:round; stroke-linejoin:round; stroke-width:2; stroke-opacity:0.05; fill:none" points="
  1135.56,1443.7 1135.56,108.352 
  "/>
<polyline clip-path="url(#clip062)" style="stroke:#000000; stroke-linecap:round; stroke-linejoin:round; stroke-width:2; stroke-opacity:0.05; fill:none" points="
  1186.67,1443.7 1186.67,108.352 
  "/>
<polyline clip-path="url(#clip062)" style="stroke:#000000; stroke-linecap:round; stroke-linejoin:round; stroke-width:2; stroke-opacity:0.05; fill:none" points="
  1237.78,1443.7 1237.78,108.352 
  "/>
<polyline clip-path="url(#clip062)" style="stroke:#000000; stroke-linecap:round; stroke-linejoin:round; stroke-width:2; stroke-opacity:0.05; fill:none" points="
  1340.01,1443.7 1340.01,108.352 
  "/>
<polyline clip-path="url(#clip062)" style="stroke:#000000; stroke-linecap:round; stroke-linejoin:round; stroke-width:2; stroke-opacity:0.05; fill:none" points="
  1391.12,1443.7 1391.12,108.352 
  "/>
<polyline clip-path="url(#clip062)" style="stroke:#000000; stroke-linecap:round; stroke-linejoin:round; stroke-width:2; stroke-opacity:0.05; fill:none" points="
  1442.23,1443.7 1442.23,108.352 
  "/>
<polyline clip-path="url(#clip062)" style="stroke:#000000; stroke-linecap:round; stroke-linejoin:round; stroke-width:2; stroke-opacity:0.05; fill:none" points="
  1493.34,1443.7 1493.34,108.352 
  "/>
<polyline clip-path="url(#clip060)" style="stroke:#000000; stroke-linecap:round; stroke-linejoin:round; stroke-width:4; stroke-opacity:1; fill:none" points="
  254.639,1443.7 1582.02,1443.7 
  "/>
<polyline clip-path="url(#clip060)" style="stroke:#000000; stroke-linecap:round; stroke-linejoin:round; stroke-width:4; stroke-opacity:1; fill:none" points="
  266.65,1443.7 266.65,1424.8 
  "/>
<polyline clip-path="url(#clip060)" style="stroke:#000000; stroke-linecap:round; stroke-linejoin:round; stroke-width:4; stroke-opacity:1; fill:none" points="
  522.212,1443.7 522.212,1424.8 
  "/>
<polyline clip-path="url(#clip060)" style="stroke:#000000; stroke-linecap:round; stroke-linejoin:round; stroke-width:4; stroke-opacity:1; fill:none" points="
  777.773,1443.7 777.773,1424.8 
  "/>
<polyline clip-path="url(#clip060)" style="stroke:#000000; stroke-linecap:round; stroke-linejoin:round; stroke-width:4; stroke-opacity:1; fill:none" points="
  1033.33,1443.7 1033.33,1424.8 
  "/>
<polyline clip-path="url(#clip060)" style="stroke:#000000; stroke-linecap:round; stroke-linejoin:round; stroke-width:4; stroke-opacity:1; fill:none" points="
  1288.89,1443.7 1288.89,1424.8 
  "/>
<polyline clip-path="url(#clip060)" style="stroke:#000000; stroke-linecap:round; stroke-linejoin:round; stroke-width:4; stroke-opacity:1; fill:none" points="
  1544.46,1443.7 1544.46,1424.8 
  "/>
<polyline clip-path="url(#clip060)" style="stroke:#000000; stroke-linecap:round; stroke-linejoin:round; stroke-width:4; stroke-opacity:1; fill:none" points="
  317.763,1443.7 317.763,1434.25 
  "/>
<polyline clip-path="url(#clip060)" style="stroke:#000000; stroke-linecap:round; stroke-linejoin:round; stroke-width:4; stroke-opacity:1; fill:none" points="
  368.875,1443.7 368.875,1434.25 
  "/>
<polyline clip-path="url(#clip060)" style="stroke:#000000; stroke-linecap:round; stroke-linejoin:round; stroke-width:4; stroke-opacity:1; fill:none" points="
  419.987,1443.7 419.987,1434.25 
  "/>
<polyline clip-path="url(#clip060)" style="stroke:#000000; stroke-linecap:round; stroke-linejoin:round; stroke-width:4; stroke-opacity:1; fill:none" points="
  471.099,1443.7 471.099,1434.25 
  "/>
<polyline clip-path="url(#clip060)" style="stroke:#000000; stroke-linecap:round; stroke-linejoin:round; stroke-width:4; stroke-opacity:1; fill:none" points="
  573.324,1443.7 573.324,1434.25 
  "/>
<polyline clip-path="url(#clip060)" style="stroke:#000000; stroke-linecap:round; stroke-linejoin:round; stroke-width:4; stroke-opacity:1; fill:none" points="
  624.436,1443.7 624.436,1434.25 
  "/>
<polyline clip-path="url(#clip060)" style="stroke:#000000; stroke-linecap:round; stroke-linejoin:round; stroke-width:4; stroke-opacity:1; fill:none" points="
  675.548,1443.7 675.548,1434.25 
  "/>
<polyline clip-path="url(#clip060)" style="stroke:#000000; stroke-linecap:round; stroke-linejoin:round; stroke-width:4; stroke-opacity:1; fill:none" points="
  726.66,1443.7 726.66,1434.25 
  "/>
<polyline clip-path="url(#clip060)" style="stroke:#000000; stroke-linecap:round; stroke-linejoin:round; stroke-width:4; stroke-opacity:1; fill:none" points="
  828.885,1443.7 828.885,1434.25 
  "/>
<polyline clip-path="url(#clip060)" style="stroke:#000000; stroke-linecap:round; stroke-linejoin:round; stroke-width:4; stroke-opacity:1; fill:none" points="
  879.997,1443.7 879.997,1434.25 
  "/>
<polyline clip-path="url(#clip060)" style="stroke:#000000; stroke-linecap:round; stroke-linejoin:round; stroke-width:4; stroke-opacity:1; fill:none" points="
  931.109,1443.7 931.109,1434.25 
  "/>
<polyline clip-path="url(#clip060)" style="stroke:#000000; stroke-linecap:round; stroke-linejoin:round; stroke-width:4; stroke-opacity:1; fill:none" points="
  982.222,1443.7 982.222,1434.25 
  "/>
<polyline clip-path="url(#clip060)" style="stroke:#000000; stroke-linecap:round; stroke-linejoin:round; stroke-width:4; stroke-opacity:1; fill:none" points="
  1084.45,1443.7 1084.45,1434.25 
  "/>
<polyline clip-path="url(#clip060)" style="stroke:#000000; stroke-linecap:round; stroke-linejoin:round; stroke-width:4; stroke-opacity:1; fill:none" points="
  1135.56,1443.7 1135.56,1434.25 
  "/>
<polyline clip-path="url(#clip060)" style="stroke:#000000; stroke-linecap:round; stroke-linejoin:round; stroke-width:4; stroke-opacity:1; fill:none" points="
  1186.67,1443.7 1186.67,1434.25 
  "/>
<polyline clip-path="url(#clip060)" style="stroke:#000000; stroke-linecap:round; stroke-linejoin:round; stroke-width:4; stroke-opacity:1; fill:none" points="
  1237.78,1443.7 1237.78,1434.25 
  "/>
<polyline clip-path="url(#clip060)" style="stroke:#000000; stroke-linecap:round; stroke-linejoin:round; stroke-width:4; stroke-opacity:1; fill:none" points="
  1340.01,1443.7 1340.01,1434.25 
  "/>
<polyline clip-path="url(#clip060)" style="stroke:#000000; stroke-linecap:round; stroke-linejoin:round; stroke-width:4; stroke-opacity:1; fill:none" points="
  1391.12,1443.7 1391.12,1434.25 
  "/>
<polyline clip-path="url(#clip060)" style="stroke:#000000; stroke-linecap:round; stroke-linejoin:round; stroke-width:4; stroke-opacity:1; fill:none" points="
  1442.23,1443.7 1442.23,1434.25 
  "/>
<polyline clip-path="url(#clip060)" style="stroke:#000000; stroke-linecap:round; stroke-linejoin:round; stroke-width:4; stroke-opacity:1; fill:none" points="
  1493.34,1443.7 1493.34,1434.25 
  "/>
<path clip-path="url(#clip060)" d="M266.65 1481.02 Q263.039 1481.02 261.211 1484.58 Q259.405 1488.12 259.405 1495.25 Q259.405 1502.36 261.211 1505.93 Q263.039 1509.47 266.65 1509.47 Q270.285 1509.47 272.09 1505.93 Q273.919 1502.36 273.919 1495.25 Q273.919 1488.12 272.09 1484.58 Q270.285 1481.02 266.65 1481.02 M266.65 1477.31 Q272.461 1477.31 275.516 1481.92 Q278.595 1486.5 278.595 1495.25 Q278.595 1503.98 275.516 1508.59 Q272.461 1513.17 266.65 1513.17 Q260.84 1513.17 257.762 1508.59 Q254.706 1503.98 254.706 1495.25 Q254.706 1486.5 257.762 1481.92 Q260.84 1477.31 266.65 1477.31 Z" fill="#000000" fill-rule="evenodd" fill-opacity="1" /><path clip-path="url(#clip060)" d="M496.899 1508.56 L504.538 1508.56 L504.538 1482.2 L496.228 1483.87 L496.228 1479.61 L504.492 1477.94 L509.168 1477.94 L509.168 1508.56 L516.807 1508.56 L516.807 1512.5 L496.899 1512.5 L496.899 1508.56 Z" fill="#000000" fill-rule="evenodd" fill-opacity="1" /><path clip-path="url(#clip060)" d="M536.251 1481.02 Q532.64 1481.02 530.811 1484.58 Q529.006 1488.12 529.006 1495.25 Q529.006 1502.36 530.811 1505.93 Q532.64 1509.47 536.251 1509.47 Q539.885 1509.47 541.691 1505.93 Q543.519 1502.36 543.519 1495.25 Q543.519 1488.12 541.691 1484.58 Q539.885 1481.02 536.251 1481.02 M536.251 1477.31 Q542.061 1477.31 545.117 1481.92 Q548.195 1486.5 548.195 1495.25 Q548.195 1503.98 545.117 1508.59 Q542.061 1513.17 536.251 1513.17 Q530.441 1513.17 527.362 1508.59 Q524.306 1503.98 524.306 1495.25 Q524.306 1486.5 527.362 1481.92 Q530.441 1477.31 536.251 1477.31 Z" fill="#000000" fill-rule="evenodd" fill-opacity="1" /><path clip-path="url(#clip060)" d="M756.546 1508.56 L772.865 1508.56 L772.865 1512.5 L750.921 1512.5 L750.921 1508.56 Q753.583 1505.81 758.166 1501.18 Q762.773 1496.53 763.953 1495.19 Q766.199 1492.66 767.078 1490.93 Q767.981 1489.17 767.981 1487.48 Q767.981 1484.72 766.037 1482.99 Q764.115 1481.25 761.013 1481.25 Q758.814 1481.25 756.361 1482.01 Q753.93 1482.78 751.152 1484.33 L751.152 1479.61 Q753.976 1478.47 756.43 1477.89 Q758.884 1477.31 760.921 1477.31 Q766.291 1477.31 769.486 1480 Q772.68 1482.69 772.68 1487.18 Q772.68 1489.31 771.87 1491.23 Q771.083 1493.12 768.976 1495.72 Q768.398 1496.39 765.296 1499.61 Q762.194 1502.8 756.546 1508.56 Z" fill="#000000" fill-rule="evenodd" fill-opacity="1" /><path clip-path="url(#clip060)" d="M792.68 1481.02 Q789.069 1481.02 787.24 1484.58 Q785.435 1488.12 785.435 1495.25 Q785.435 1502.36 787.24 1505.93 Q789.069 1509.47 792.68 1509.47 Q796.314 1509.47 798.12 1505.93 Q799.948 1502.36 799.948 1495.25 Q799.948 1488.12 798.12 1484.58 Q796.314 1481.02 792.68 1481.02 M792.68 1477.31 Q798.49 1477.31 801.546 1481.92 Q804.624 1486.5 804.624 1495.25 Q804.624 1503.98 801.546 1508.59 Q798.49 1513.17 792.68 1513.17 Q786.87 1513.17 783.791 1508.59 Q780.736 1503.98 780.736 1495.25 Q780.736 1486.5 783.791 1481.92 Q786.87 1477.31 792.68 1477.31 Z" fill="#000000" fill-rule="evenodd" fill-opacity="1" /><path clip-path="url(#clip060)" d="M1022.18 1493.87 Q1025.53 1494.58 1027.41 1496.85 Q1029.31 1499.12 1029.31 1502.45 Q1029.31 1507.57 1025.79 1510.37 Q1022.27 1513.17 1015.79 1513.17 Q1013.61 1513.17 1011.3 1512.73 Q1009.01 1512.31 1006.55 1511.46 L1006.55 1506.94 Q1008.5 1508.08 1010.81 1508.66 Q1013.13 1509.24 1015.65 1509.24 Q1020.05 1509.24 1022.34 1507.5 Q1024.65 1505.76 1024.65 1502.45 Q1024.65 1499.4 1022.5 1497.69 Q1020.37 1495.95 1016.55 1495.95 L1012.52 1495.95 L1012.52 1492.11 L1016.74 1492.11 Q1020.19 1492.11 1022.01 1490.74 Q1023.84 1489.35 1023.84 1486.76 Q1023.84 1484.1 1021.94 1482.69 Q1020.07 1481.25 1016.55 1481.25 Q1014.63 1481.25 1012.43 1481.67 Q1010.23 1482.08 1007.59 1482.96 L1007.59 1478.8 Q1010.26 1478.06 1012.57 1477.69 Q1014.91 1477.31 1016.97 1477.31 Q1022.29 1477.31 1025.39 1479.75 Q1028.5 1482.15 1028.5 1486.27 Q1028.5 1489.14 1026.85 1491.13 Q1025.21 1493.1 1022.18 1493.87 Z" fill="#000000" fill-rule="evenodd" fill-opacity="1" /><path clip-path="url(#clip060)" d="M1048.17 1481.02 Q1044.56 1481.02 1042.73 1484.58 Q1040.93 1488.12 1040.93 1495.25 Q1040.93 1502.36 1042.73 1505.93 Q1044.56 1509.47 1048.17 1509.47 Q1051.81 1509.47 1053.61 1505.93 Q1055.44 1502.36 1055.44 1495.25 Q1055.44 1488.12 1053.61 1484.58 Q1051.81 1481.02 1048.17 1481.02 M1048.17 1477.31 Q1053.98 1477.31 1057.04 1481.92 Q1060.12 1486.5 1060.12 1495.25 Q1060.12 1503.98 1057.04 1508.59 Q1053.98 1513.17 1048.17 1513.17 Q1042.36 1513.17 1039.28 1508.59 Q1036.23 1503.98 1036.23 1495.25 Q1036.23 1486.5 1039.28 1481.92 Q1042.36 1477.31 1048.17 1477.31 Z" fill="#000000" fill-rule="evenodd" fill-opacity="1" /><path clip-path="url(#clip060)" d="M1277.07 1482.01 L1265.26 1500.46 L1277.07 1500.46 L1277.07 1482.01 M1275.84 1477.94 L1281.72 1477.94 L1281.72 1500.46 L1286.65 1500.46 L1286.65 1504.35 L1281.72 1504.35 L1281.72 1512.5 L1277.07 1512.5 L1277.07 1504.35 L1261.46 1504.35 L1261.46 1499.84 L1275.84 1477.94 Z" fill="#000000" fill-rule="evenodd" fill-opacity="1" /><path clip-path="url(#clip060)" d="M1304.38 1481.02 Q1300.77 1481.02 1298.94 1484.58 Q1297.14 1488.12 1297.14 1495.25 Q1297.14 1502.36 1298.94 1505.93 Q1300.77 1509.47 1304.38 1509.47 Q1308.02 1509.47 1309.82 1505.93 Q1311.65 1502.36 1311.65 1495.25 Q1311.65 1488.12 1309.82 1484.58 Q1308.02 1481.02 1304.38 1481.02 M1304.38 1477.31 Q1310.19 1477.31 1313.25 1481.92 Q1316.33 1486.5 1316.33 1495.25 Q1316.33 1503.98 1313.25 1508.59 Q1310.19 1513.17 1304.38 1513.17 Q1298.57 1513.17 1295.49 1508.59 Q1292.44 1503.98 1292.44 1495.25 Q1292.44 1486.5 1295.49 1481.92 Q1298.57 1477.31 1304.38 1477.31 Z" fill="#000000" fill-rule="evenodd" fill-opacity="1" /><path clip-path="url(#clip060)" d="M1519.16 1477.94 L1537.51 1477.94 L1537.51 1481.88 L1523.44 1481.88 L1523.44 1490.35 Q1524.46 1490 1525.47 1489.84 Q1526.49 1489.65 1527.51 1489.65 Q1533.3 1489.65 1536.68 1492.82 Q1540.06 1496 1540.06 1501.41 Q1540.06 1506.99 1536.59 1510.09 Q1533.11 1513.17 1526.79 1513.17 Q1524.62 1513.17 1522.35 1512.8 Q1520.1 1512.43 1517.7 1511.69 L1517.7 1506.99 Q1519.78 1508.12 1522 1508.68 Q1524.22 1509.24 1526.7 1509.24 Q1530.71 1509.24 1533.04 1507.13 Q1535.38 1505.02 1535.38 1501.41 Q1535.38 1497.8 1533.04 1495.69 Q1530.71 1493.59 1526.7 1493.59 Q1524.83 1493.59 1522.95 1494 Q1521.1 1494.42 1519.16 1495.3 L1519.16 1477.94 Z" fill="#000000" fill-rule="evenodd" fill-opacity="1" /><path clip-path="url(#clip060)" d="M1559.27 1481.02 Q1555.66 1481.02 1553.83 1484.58 Q1552.03 1488.12 1552.03 1495.25 Q1552.03 1502.36 1553.83 1505.93 Q1555.66 1509.47 1559.27 1509.47 Q1562.9 1509.47 1564.71 1505.93 Q1566.54 1502.36 1566.54 1495.25 Q1566.54 1488.12 1564.71 1484.58 Q1562.9 1481.02 1559.27 1481.02 M1559.27 1477.31 Q1565.08 1477.31 1568.14 1481.92 Q1571.22 1486.5 1571.22 1495.25 Q1571.22 1503.98 1568.14 1508.59 Q1565.08 1513.17 1559.27 1513.17 Q1553.46 1513.17 1550.38 1508.59 Q1547.33 1503.98 1547.33 1495.25 Q1547.33 1486.5 1550.38 1481.92 Q1553.46 1477.31 1559.27 1477.31 Z" fill="#000000" fill-rule="evenodd" fill-opacity="1" /><path clip-path="url(#clip060)" d="M788.503 1553.04 L828.702 1553.04 L828.702 1558.45 L811.833 1558.45 L811.833 1600.56 L805.372 1600.56 L805.372 1558.45 L788.503 1558.45 L788.503 1553.04 Z" fill="#000000" fill-rule="evenodd" fill-opacity="1" /><path clip-path="url(#clip060)" d="M832.649 1564.92 L838.505 1564.92 L838.505 1600.56 L832.649 1600.56 L832.649 1564.92 M832.649 1551.04 L838.505 1551.04 L838.505 1558.45 L832.649 1558.45 L832.649 1551.04 Z" fill="#000000" fill-rule="evenodd" fill-opacity="1" /><path clip-path="url(#clip060)" d="M878.514 1571.76 Q880.71 1567.81 883.765 1565.93 Q886.821 1564.06 890.959 1564.06 Q896.529 1564.06 899.552 1567.97 Q902.576 1571.85 902.576 1579.05 L902.576 1600.56 L896.688 1600.56 L896.688 1579.24 Q896.688 1574.11 894.874 1571.63 Q893.059 1569.15 889.335 1569.15 Q884.784 1569.15 882.142 1572.17 Q879.5 1575.2 879.5 1580.42 L879.5 1600.56 L873.612 1600.56 L873.612 1579.24 Q873.612 1574.08 871.798 1571.63 Q869.984 1569.15 866.196 1569.15 Q861.708 1569.15 859.067 1572.2 Q856.425 1575.23 856.425 1580.42 L856.425 1600.56 L850.536 1600.56 L850.536 1564.92 L856.425 1564.92 L856.425 1570.45 Q858.43 1567.18 861.231 1565.62 Q864.032 1564.06 867.883 1564.06 Q871.766 1564.06 874.472 1566.03 Q877.209 1568 878.514 1571.76 Z" fill="#000000" fill-rule="evenodd" fill-opacity="1" /><path clip-path="url(#clip060)" d="M944.749 1581.28 L944.749 1584.14 L917.822 1584.14 Q918.204 1590.19 921.45 1593.37 Q924.729 1596.52 930.553 1596.52 Q933.927 1596.52 937.078 1595.69 Q940.261 1594.87 943.38 1593.21 L943.38 1598.75 Q940.229 1600.09 936.919 1600.79 Q933.609 1601.49 930.203 1601.49 Q921.673 1601.49 916.676 1596.52 Q911.711 1591.56 911.711 1583.09 Q911.711 1574.34 916.422 1569.21 Q921.164 1564.06 929.185 1564.06 Q936.378 1564.06 940.548 1568.7 Q944.749 1573.32 944.749 1581.28 M938.892 1579.56 Q938.829 1574.75 936.187 1571.89 Q933.577 1569.02 929.248 1569.02 Q924.347 1569.02 921.387 1571.79 Q918.459 1574.56 918.013 1579.59 L938.892 1579.56 Z" fill="#000000" fill-rule="evenodd" fill-opacity="1" /><path clip-path="url(#clip060)" d="M989.15 1551.1 Q984.885 1558.42 982.816 1565.58 Q980.747 1572.75 980.747 1580.1 Q980.747 1587.45 982.816 1594.68 Q984.917 1601.87 989.15 1609.16 L984.057 1609.16 Q979.283 1601.68 976.896 1594.45 Q974.54 1587.23 974.54 1580.1 Q974.54 1573 976.896 1565.81 Q979.251 1558.61 984.057 1551.1 L989.15 1551.1 Z" fill="#000000" fill-rule="evenodd" fill-opacity="1" /><path clip-path="url(#clip060)" d="M1023.24 1565.97 L1023.24 1571.5 Q1020.76 1570.23 1018.08 1569.59 Q1015.41 1568.96 1012.54 1568.96 Q1008.18 1568.96 1005.99 1570.29 Q1003.82 1571.63 1003.82 1574.31 Q1003.82 1576.34 1005.38 1577.52 Q1006.94 1578.67 1011.65 1579.72 L1013.66 1580.16 Q1019.9 1581.5 1022.51 1583.95 Q1025.15 1586.37 1025.15 1590.73 Q1025.15 1595.69 1021.2 1598.59 Q1017.29 1601.49 1010.41 1601.49 Q1007.55 1601.49 1004.43 1600.91 Q1001.34 1600.37 997.903 1599.26 L997.903 1593.21 Q1001.15 1594.9 1004.3 1595.76 Q1007.45 1596.59 1010.54 1596.59 Q1014.68 1596.59 1016.9 1595.18 Q1019.13 1593.75 1019.13 1591.17 Q1019.13 1588.79 1017.51 1587.51 Q1015.92 1586.24 1010.47 1585.06 L1008.44 1584.59 Q1003 1583.44 1000.58 1581.08 Q998.157 1578.7 998.157 1574.56 Q998.157 1569.53 1001.72 1566.79 Q1005.29 1564.06 1011.84 1564.06 Q1015.09 1564.06 1017.95 1564.53 Q1020.82 1565.01 1023.24 1565.97 Z" fill="#000000" fill-rule="evenodd" fill-opacity="1" /><path clip-path="url(#clip060)" d="M1033.55 1551.1 L1038.64 1551.1 Q1043.42 1558.61 1045.77 1565.81 Q1048.16 1573 1048.16 1580.1 Q1048.16 1587.23 1045.77 1594.45 Q1043.42 1601.68 1038.64 1609.16 L1033.55 1609.16 Q1037.78 1601.87 1039.85 1594.68 Q1041.95 1587.45 1041.95 1580.1 Q1041.95 1572.75 1039.85 1565.58 Q1037.78 1558.42 1033.55 1551.1 Z" fill="#000000" fill-rule="evenodd" fill-opacity="1" /><polyline clip-path="url(#clip062)" style="stroke:#000000; stroke-linecap:round; stroke-linejoin:round; stroke-width:2; stroke-opacity:0.1; fill:none" points="
  254.639,916.106 1582.02,916.106 
  "/>
<polyline clip-path="url(#clip062)" style="stroke:#000000; stroke-linecap:round; stroke-linejoin:round; stroke-width:2; stroke-opacity:0.1; fill:none" points="
  254.639,327.092 1582.02,327.092 
  "/>
<polyline clip-path="url(#clip060)" style="stroke:#000000; stroke-linecap:round; stroke-linejoin:round; stroke-width:4; stroke-opacity:1; fill:none" points="
  254.639,1443.7 254.639,108.352 
  "/>
<polyline clip-path="url(#clip060)" style="stroke:#000000; stroke-linecap:round; stroke-linejoin:round; stroke-width:4; stroke-opacity:1; fill:none" points="
  254.639,916.106 273.537,916.106 
  "/>
<polyline clip-path="url(#clip060)" style="stroke:#000000; stroke-linecap:round; stroke-linejoin:round; stroke-width:4; stroke-opacity:1; fill:none" points="
  254.639,327.092 273.537,327.092 
  "/>
<path clip-path="url(#clip060)" d="M99.0515 935.898 L106.69 935.898 L106.69 909.533 L98.3802 911.199 L98.3802 906.94 L106.644 905.274 L111.32 905.274 L111.32 935.898 L118.959 935.898 L118.959 939.834 L99.0515 939.834 L99.0515 935.898 Z" fill="#000000" fill-rule="evenodd" fill-opacity="1" /><path clip-path="url(#clip060)" d="M138.403 908.352 Q134.792 908.352 132.963 911.917 Q131.158 915.459 131.158 922.588 Q131.158 929.695 132.963 933.259 Q134.792 936.801 138.403 936.801 Q142.037 936.801 143.843 933.259 Q145.672 929.695 145.672 922.588 Q145.672 915.459 143.843 911.917 Q142.037 908.352 138.403 908.352 M138.403 904.649 Q144.213 904.649 147.269 909.255 Q150.347 913.838 150.347 922.588 Q150.347 931.315 147.269 935.921 Q144.213 940.505 138.403 940.505 Q132.593 940.505 129.514 935.921 Q126.459 931.315 126.459 922.588 Q126.459 913.838 129.514 909.255 Q132.593 904.649 138.403 904.649 Z" fill="#000000" fill-rule="evenodd" fill-opacity="1" /><path clip-path="url(#clip060)" d="M160.052 886.845 Q157.118 886.845 155.632 889.741 Q154.165 892.619 154.165 898.411 Q154.165 904.185 155.632 907.082 Q157.118 909.959 160.052 909.959 Q163.005 909.959 164.472 907.082 Q165.958 904.185 165.958 898.411 Q165.958 892.619 164.472 889.741 Q163.005 886.845 160.052 886.845 M160.052 883.835 Q164.773 883.835 167.256 887.578 Q169.757 891.302 169.757 898.411 Q169.757 905.502 167.256 909.245 Q164.773 912.969 160.052 912.969 Q155.332 912.969 152.83 909.245 Q150.347 905.502 150.347 898.411 Q150.347 891.302 152.83 887.578 Q155.332 883.835 160.052 883.835 Z" fill="#000000" fill-rule="evenodd" fill-opacity="1" /><path clip-path="url(#clip060)" d="M176.434 907.646 L180.402 907.646 L180.402 912.423 L176.434 912.423 L176.434 907.646 Z" fill="#000000" fill-rule="evenodd" fill-opacity="1" /><path clip-path="url(#clip060)" d="M197.273 896.869 Q194.715 896.869 193.21 898.618 Q191.725 900.367 191.725 903.414 Q191.725 906.442 193.21 908.21 Q194.715 909.959 197.273 909.959 Q199.831 909.959 201.317 908.21 Q202.821 906.442 202.821 903.414 Q202.821 900.367 201.317 898.618 Q199.831 896.869 197.273 896.869 M204.815 884.964 L204.815 888.424 Q203.385 887.747 201.918 887.39 Q200.47 887.033 199.041 887.033 Q195.279 887.033 193.286 889.572 Q191.311 892.111 191.029 897.245 Q192.138 895.609 193.812 894.744 Q195.486 893.86 197.499 893.86 Q201.73 893.86 204.175 896.437 Q206.639 898.994 206.639 903.414 Q206.639 907.74 204.081 910.354 Q201.523 912.969 197.273 912.969 Q192.402 912.969 189.825 909.245 Q187.248 905.502 187.248 898.411 Q187.248 891.753 190.408 887.804 Q193.568 883.835 198.89 883.835 Q200.32 883.835 201.768 884.117 Q203.235 884.4 204.815 884.964 Z" fill="#000000" fill-rule="evenodd" fill-opacity="1" /><path clip-path="url(#clip060)" d="M99.3336 346.884 L106.972 346.884 L106.972 320.518 L98.6623 322.185 L98.6623 317.926 L106.926 316.259 L111.602 316.259 L111.602 346.884 L119.241 346.884 L119.241 350.819 L99.3336 350.819 L99.3336 346.884 Z" fill="#000000" fill-rule="evenodd" fill-opacity="1" /><path clip-path="url(#clip060)" d="M138.685 319.338 Q135.074 319.338 133.245 322.903 Q131.44 326.444 131.44 333.574 Q131.44 340.68 133.245 344.245 Q135.074 347.787 138.685 347.787 Q142.319 347.787 144.125 344.245 Q145.954 340.68 145.954 333.574 Q145.954 326.444 144.125 322.903 Q142.319 319.338 138.685 319.338 M138.685 315.634 Q144.495 315.634 147.551 320.241 Q150.63 324.824 150.63 333.574 Q150.63 342.301 147.551 346.907 Q144.495 351.49 138.685 351.49 Q132.875 351.49 129.796 346.907 Q126.741 342.301 126.741 333.574 Q126.741 324.824 129.796 320.241 Q132.875 315.634 138.685 315.634 Z" fill="#000000" fill-rule="evenodd" fill-opacity="1" /><path clip-path="url(#clip060)" d="M160.334 297.83 Q157.4 297.83 155.915 300.727 Q154.448 303.604 154.448 309.397 Q154.448 315.171 155.915 318.067 Q157.4 320.945 160.334 320.945 Q163.287 320.945 164.754 318.067 Q166.24 315.171 166.24 309.397 Q166.24 303.604 164.754 300.727 Q163.287 297.83 160.334 297.83 M160.334 294.821 Q165.055 294.821 167.538 298.564 Q170.039 302.288 170.039 309.397 Q170.039 316.487 167.538 320.23 Q165.055 323.954 160.334 323.954 Q155.614 323.954 153.112 320.23 Q150.63 316.487 150.63 309.397 Q150.63 302.288 153.112 298.564 Q155.614 294.821 160.334 294.821 Z" fill="#000000" fill-rule="evenodd" fill-opacity="1" /><path clip-path="url(#clip060)" d="M176.716 318.632 L180.684 318.632 L180.684 323.409 L176.716 323.409 L176.716 318.632 Z" fill="#000000" fill-rule="evenodd" fill-opacity="1" /><path clip-path="url(#clip060)" d="M189.073 322.826 L189.073 319.365 Q190.502 320.042 191.969 320.399 Q193.436 320.757 194.847 320.757 Q198.608 320.757 200.583 318.237 Q202.577 315.698 202.859 310.544 Q201.768 312.162 200.094 313.027 Q198.42 313.892 196.389 313.892 Q192.176 313.892 189.712 311.353 Q187.267 308.795 187.267 304.375 Q187.267 300.049 189.825 297.435 Q192.383 294.821 196.633 294.821 Q201.505 294.821 204.062 298.564 Q206.639 302.288 206.639 309.397 Q206.639 316.036 203.479 320.005 Q200.339 323.954 195.016 323.954 Q193.587 323.954 192.12 323.672 Q190.653 323.39 189.073 322.826 M196.633 310.92 Q199.191 310.92 200.677 309.171 Q202.182 307.422 202.182 304.375 Q202.182 301.347 200.677 299.598 Q199.191 297.83 196.633 297.83 Q194.076 297.83 192.571 299.598 Q191.085 301.347 191.085 304.375 Q191.085 307.422 192.571 309.171 Q194.076 310.92 196.633 310.92 Z" fill="#000000" fill-rule="evenodd" fill-opacity="1" /><path clip-path="url(#clip060)" d="M5.12317 789.537 Q5.12317 794.375 8.6243 796.985 Q12.2846 799.722 18.332 799.722 Q24.7295 799.722 28.4217 797.017 Q32.0819 794.28 32.0819 789.537 Q32.0819 784.858 28.3898 782.121 Q24.6977 779.384 18.332 779.384 Q12.5074 779.384 8.6243 782.121 Q5.12317 784.636 5.12317 789.537 M0.4762 789.537 L0.4762 770.09 L6.33265 770.09 L6.33265 776.647 Q11.2979 773.177 18.332 773.177 Q27.0849 773.177 32.0501 777.538 Q37.0472 781.898 37.0472 789.537 Q37.0472 797.208 32.0501 801.537 Q27.0849 805.897 18.332 805.897 Q9.5155 805.897 4.58208 801.537 Q0.4762 797.94 0.4762 789.537 Z" fill="#000000" fill-rule="evenodd" fill-opacity="1" /><path clip-path="url(#clip060)" d="M11.2342 759.65 L11.2342 746.155 L14.8627 746.155 L14.8627 765.188 L11.3616 765.188 Q10.3749 764.106 8.59248 762.101 Q-1.11523 751.152 -4.10711 751.152 Q-6.20779 751.152 -7.48093 752.807 Q-8.7859 754.462 -8.7859 757.168 Q-8.7859 758.823 -8.21299 760.764 Q-7.6719 762.706 -6.55791 764.997 L-10.4728 764.997 Q-11.364 762.547 -11.8096 760.446 Q-12.2552 758.313 -12.2552 756.499 Q-12.2552 751.884 -10.1545 749.115 Q-8.05385 746.346 -4.61636 746.346 Q-0.192199 746.346 8.8471 756.881 Q10.3749 758.664 11.2342 759.65 Z" fill="#000000" fill-rule="evenodd" fill-opacity="1" /><path clip-path="url(#clip060)" d="M578.906 18.8205 L578.906 41.5461 L589.195 41.5461 Q594.907 41.5461 598.026 38.5889 Q601.145 35.6318 601.145 30.163 Q601.145 24.7348 598.026 21.7777 Q594.907 18.8205 589.195 18.8205 L578.906 18.8205 M570.723 12.096 L589.195 12.096 Q599.363 12.096 604.548 16.714 Q609.774 21.2916 609.774 30.163 Q609.774 39.1155 604.548 43.6931 Q599.363 48.2706 589.195 48.2706 L578.906 48.2706 L578.906 72.576 L570.723 72.576 L570.723 12.096 Z" fill="#000000" fill-rule="evenodd" fill-opacity="1" /><path clip-path="url(#clip060)" d="M635.052 32.4315 Q629.056 32.4315 625.572 37.1306 Q622.089 41.7891 622.089 49.9314 Q622.089 58.0738 625.532 62.7728 Q629.016 67.4314 635.052 67.4314 Q641.006 67.4314 644.49 62.7323 Q647.974 58.0333 647.974 49.9314 Q647.974 41.8701 644.49 37.1711 Q641.006 32.4315 635.052 32.4315 M635.052 26.1121 Q644.774 26.1121 650.323 32.4315 Q655.873 38.7509 655.873 49.9314 Q655.873 61.0714 650.323 67.4314 Q644.774 73.7508 635.052 73.7508 Q625.289 73.7508 619.739 67.4314 Q614.23 61.0714 614.23 49.9314 Q614.23 38.7509 619.739 32.4315 Q625.289 26.1121 635.052 26.1121 Z" fill="#000000" fill-rule="evenodd" fill-opacity="1" /><path clip-path="url(#clip060)" d="M697.152 28.5427 L697.152 35.5912 Q693.992 33.9709 690.589 33.1607 Q687.187 32.3505 683.541 32.3505 Q677.991 32.3505 675.196 34.0519 Q672.441 35.7533 672.441 39.156 Q672.441 41.7486 674.426 43.2475 Q676.411 44.7058 682.407 46.0426 L684.959 46.6097 Q692.898 48.3111 696.22 51.4303 Q699.582 54.509 699.582 60.0587 Q699.582 66.3781 694.559 70.0644 Q689.577 73.7508 680.827 73.7508 Q677.181 73.7508 673.211 73.0216 Q669.282 72.3329 664.907 70.9151 L664.907 63.2184 Q669.039 65.3654 673.049 66.4591 Q677.059 67.5124 680.989 67.5124 Q686.255 67.5124 689.091 65.73 Q691.926 63.9071 691.926 60.6258 Q691.926 57.5877 689.86 55.9673 Q687.835 54.3469 680.908 52.8481 L678.315 52.2405 Q671.388 50.7821 668.309 47.7845 Q665.231 44.7463 665.231 39.4801 Q665.231 33.0797 669.768 29.5959 Q674.305 26.1121 682.65 26.1121 Q686.782 26.1121 690.427 26.7198 Q694.073 27.3274 697.152 28.5427 Z" fill="#000000" fill-rule="evenodd" fill-opacity="1" /><path clip-path="url(#clip060)" d="M711.452 27.2059 L718.905 27.2059 L718.905 72.576 L711.452 72.576 L711.452 27.2059 M711.452 9.54393 L718.905 9.54393 L718.905 18.9825 L711.452 18.9825 L711.452 9.54393 Z" fill="#000000" fill-rule="evenodd" fill-opacity="1" /><path clip-path="url(#clip060)" d="M741.874 14.324 L741.874 27.2059 L757.227 27.2059 L757.227 32.9987 L741.874 32.9987 L741.874 57.6282 Q741.874 63.1779 743.373 64.7578 Q744.912 66.3376 749.571 66.3376 L757.227 66.3376 L757.227 72.576 L749.571 72.576 Q740.942 72.576 737.661 69.3758 Q734.38 66.1351 734.38 57.6282 L734.38 32.9987 L728.911 32.9987 L728.911 27.2059 L734.38 27.2059 L734.38 14.324 L741.874 14.324 Z" fill="#000000" fill-rule="evenodd" fill-opacity="1" /><path clip-path="url(#clip060)" d="M767.03 27.2059 L774.484 27.2059 L774.484 72.576 L767.03 72.576 L767.03 27.2059 M767.03 9.54393 L774.484 9.54393 L774.484 18.9825 L767.03 18.9825 L767.03 9.54393 Z" fill="#000000" fill-rule="evenodd" fill-opacity="1" /><path clip-path="url(#clip060)" d="M807.661 32.4315 Q801.665 32.4315 798.181 37.1306 Q794.698 41.7891 794.698 49.9314 Q794.698 58.0738 798.141 62.7728 Q801.625 67.4314 807.661 67.4314 Q813.615 67.4314 817.099 62.7323 Q820.583 58.0333 820.583 49.9314 Q820.583 41.8701 817.099 37.1711 Q813.615 32.4315 807.661 32.4315 M807.661 26.1121 Q817.383 26.1121 822.932 32.4315 Q828.482 38.7509 828.482 49.9314 Q828.482 61.0714 822.932 67.4314 Q817.383 73.7508 807.661 73.7508 Q797.898 73.7508 792.348 67.4314 Q786.839 61.0714 786.839 49.9314 Q786.839 38.7509 792.348 32.4315 Q797.898 26.1121 807.661 26.1121 Z" fill="#000000" fill-rule="evenodd" fill-opacity="1" /><path clip-path="url(#clip060)" d="M878.551 45.1919 L878.551 72.576 L871.098 72.576 L871.098 45.4349 Q871.098 38.994 868.586 35.7938 Q866.075 32.5936 861.051 32.5936 Q855.016 32.5936 851.532 36.4419 Q848.048 40.2903 848.048 46.9338 L848.048 72.576 L840.554 72.576 L840.554 27.2059 L848.048 27.2059 L848.048 34.2544 Q850.722 30.163 854.327 28.1376 Q857.973 26.1121 862.712 26.1121 Q870.531 26.1121 874.541 30.9732 Q878.551 35.7938 878.551 45.1919 Z" fill="#000000" fill-rule="evenodd" fill-opacity="1" /><path clip-path="url(#clip060)" d="M935.71 72.576 L912.619 12.096 L921.167 12.096 L940.328 63.0159 L959.529 12.096 L968.036 12.096 L944.986 72.576 L935.71 72.576 Z" fill="#000000" fill-rule="evenodd" fill-opacity="1" /><path clip-path="url(#clip060)" d="M990.721 49.7694 Q981.687 49.7694 978.204 51.8354 Q974.72 53.9013 974.72 58.8839 Q974.72 62.8538 977.312 65.2034 Q979.946 67.5124 984.442 67.5124 Q990.64 67.5124 994.367 63.1374 Q998.134 58.7219 998.134 51.4303 L998.134 49.7694 L990.721 49.7694 M1005.59 46.6907 L1005.59 72.576 L998.134 72.576 L998.134 65.6895 Q995.582 69.8214 991.774 71.8063 Q987.966 73.7508 982.457 73.7508 Q975.49 73.7508 971.358 69.8619 Q967.266 65.9325 967.266 59.3701 Q967.266 51.7138 972.37 47.825 Q977.515 43.9361 987.683 43.9361 L998.134 43.9361 L998.134 43.2069 Q998.134 38.0623 994.731 35.2672 Q991.369 32.4315 985.252 32.4315 Q981.363 32.4315 977.677 33.3632 Q973.991 34.295 970.588 36.1584 L970.588 29.2718 Q974.679 27.692 978.528 26.9223 Q982.376 26.1121 986.022 26.1121 Q995.866 26.1121 1000.73 31.2163 Q1005.59 36.3204 1005.59 46.6907 Z" fill="#000000" fill-rule="evenodd" fill-opacity="1" /><path clip-path="url(#clip060)" d="M1047.23 34.1734 Q1045.98 33.4443 1044.48 33.1202 Q1043.02 32.7556 1041.24 32.7556 Q1034.92 32.7556 1031.51 36.8875 Q1028.15 40.9789 1028.15 48.6757 L1028.15 72.576 L1020.66 72.576 L1020.66 27.2059 L1028.15 27.2059 L1028.15 34.2544 Q1030.5 30.1225 1034.27 28.1376 Q1038.04 26.1121 1043.42 26.1121 Q1044.19 26.1121 1045.12 26.2337 Q1046.06 26.3147 1047.19 26.5172 L1047.23 34.1734 Z" fill="#000000" fill-rule="evenodd" fill-opacity="1" /><path clip-path="url(#clip060)" d="M1055.05 27.2059 L1062.5 27.2059 L1062.5 72.576 L1055.05 72.576 L1055.05 27.2059 M1055.05 9.54393 L1062.5 9.54393 L1062.5 18.9825 L1055.05 18.9825 L1055.05 9.54393 Z" fill="#000000" fill-rule="evenodd" fill-opacity="1" /><path clip-path="url(#clip060)" d="M1098.72 49.7694 Q1089.68 49.7694 1086.2 51.8354 Q1082.72 53.9013 1082.72 58.8839 Q1082.72 62.8538 1085.31 65.2034 Q1087.94 67.5124 1092.44 67.5124 Q1098.64 67.5124 1102.36 63.1374 Q1106.13 58.7219 1106.13 51.4303 L1106.13 49.7694 L1098.72 49.7694 M1113.58 46.6907 L1113.58 72.576 L1106.13 72.576 L1106.13 65.6895 Q1103.58 69.8214 1099.77 71.8063 Q1095.96 73.7508 1090.45 73.7508 Q1083.49 73.7508 1079.35 69.8619 Q1075.26 65.9325 1075.26 59.3701 Q1075.26 51.7138 1080.37 47.825 Q1085.51 43.9361 1095.68 43.9361 L1106.13 43.9361 L1106.13 43.2069 Q1106.13 38.0623 1102.73 35.2672 Q1099.37 32.4315 1093.25 32.4315 Q1089.36 32.4315 1085.67 33.3632 Q1081.99 34.295 1078.59 36.1584 L1078.59 29.2718 Q1082.68 27.692 1086.52 26.9223 Q1090.37 26.1121 1094.02 26.1121 Q1103.86 26.1121 1108.72 31.2163 Q1113.58 36.3204 1113.58 46.6907 Z" fill="#000000" fill-rule="evenodd" fill-opacity="1" /><path clip-path="url(#clip060)" d="M1166.65 45.1919 L1166.65 72.576 L1159.2 72.576 L1159.2 45.4349 Q1159.2 38.994 1156.69 35.7938 Q1154.17 32.5936 1149.15 32.5936 Q1143.12 32.5936 1139.63 36.4419 Q1136.15 40.2903 1136.15 46.9338 L1136.15 72.576 L1128.65 72.576 L1128.65 27.2059 L1136.15 27.2059 L1136.15 34.2544 Q1138.82 30.163 1142.43 28.1376 Q1146.07 26.1121 1150.81 26.1121 Q1158.63 26.1121 1162.64 30.9732 Q1166.65 35.7938 1166.65 45.1919 Z" fill="#000000" fill-rule="evenodd" fill-opacity="1" /><path clip-path="url(#clip060)" d="M1214.17 28.9478 L1214.17 35.9153 Q1211.01 34.1734 1207.81 33.3227 Q1204.65 32.4315 1201.41 32.4315 Q1194.16 32.4315 1190.15 37.0496 Q1186.14 41.6271 1186.14 49.9314 Q1186.14 58.2358 1190.15 62.8538 Q1194.16 67.4314 1201.41 67.4314 Q1204.65 67.4314 1207.81 66.5807 Q1211.01 65.6895 1214.17 63.9476 L1214.17 70.8341 Q1211.05 72.2924 1207.69 73.0216 Q1204.37 73.7508 1200.6 73.7508 Q1190.35 73.7508 1184.31 67.3098 Q1178.28 60.8689 1178.28 49.9314 Q1178.28 38.832 1184.35 32.472 Q1190.47 26.1121 1201.08 26.1121 Q1204.53 26.1121 1207.81 26.8413 Q1211.09 27.5299 1214.17 28.9478 Z" fill="#000000" fill-rule="evenodd" fill-opacity="1" /><path clip-path="url(#clip060)" d="M1265.94 48.0275 L1265.94 51.6733 L1231.67 51.6733 Q1232.15 59.3701 1236.29 63.421 Q1240.46 67.4314 1247.87 67.4314 Q1252.17 67.4314 1256.18 66.3781 Q1260.23 65.3249 1264.2 63.2184 L1264.2 70.267 Q1260.19 71.9684 1255.97 72.8596 Q1251.76 73.7508 1247.43 73.7508 Q1236.57 73.7508 1230.21 67.4314 Q1223.89 61.1119 1223.89 50.3365 Q1223.89 39.1965 1229.89 32.6746 Q1235.92 26.1121 1246.13 26.1121 Q1255.29 26.1121 1260.59 32.0264 Q1265.94 37.9003 1265.94 48.0275 M1258.49 45.84 Q1258.4 39.7232 1255.04 36.0774 Q1251.72 32.4315 1246.21 32.4315 Q1239.97 32.4315 1236.21 35.9558 Q1232.48 39.4801 1231.91 45.8805 L1258.49 45.84 Z" fill="#000000" fill-rule="evenodd" fill-opacity="1" /><polyline clip-path="url(#clip062)" style="stroke:#009af9; stroke-linecap:round; stroke-linejoin:round; stroke-width:4; stroke-opacity:1; fill:none" points="
  292.207,146.145 317.763,270.166 343.319,341.698 368.875,461.66 394.431,581.086 419.987,690.376 445.543,788.565 471.099,876.456 496.655,955.066 522.212,1025.27 
  547.768,1087.76 573.324,1143.06 598.88,1191.6 624.436,1233.75 649.992,1269.87 675.548,1300.34 701.104,1325.59 726.66,1346.11 752.217,1362.41 777.773,1375.06 
  803.329,1384.62 828.885,1391.64 854.441,1396.63 879.997,1400.07 905.553,1402.33 931.109,1403.76 956.665,1404.6 982.222,1405.06 1007.78,1405.28 1033.33,1405.37 
  1058.89,1405.4 1084.45,1405.4 1110,1405.41 1135.56,1405.42 1161.11,1405.44 1186.67,1405.48 1212.23,1405.53 1237.78,1405.58 1263.34,1405.64 1288.89,1405.69 
  1314.45,1405.73 1340.01,1405.77 1365.56,1405.81 1391.12,1405.84 1416.68,1405.86 1442.23,1405.88 1467.79,1405.89 1493.34,1405.9 1518.9,1405.9 1544.46,1405.91 
  
  "/>
<path clip-path="url(#clip060)" d="
M1825.37 1443.7 L3152.76 1443.7 L3152.76 108.352 L1825.37 108.352  Z
  " fill="#ffffff" fill-rule="evenodd" fill-opacity="1"/>
<defs>
  <clipPath id="clip063">
    <rect x="1825" y="108" width="1328" height="1336"/>
  </clipPath>
</defs>
<polyline clip-path="url(#clip063)" style="stroke:#000000; stroke-linecap:round; stroke-linejoin:round; stroke-width:2; stroke-opacity:0.1; fill:none" points="
  1837.38,1443.7 1837.38,108.352 
  "/>
<polyline clip-path="url(#clip063)" style="stroke:#000000; stroke-linecap:round; stroke-linejoin:round; stroke-width:2; stroke-opacity:0.1; fill:none" points="
  2092.94,1443.7 2092.94,108.352 
  "/>
<polyline clip-path="url(#clip063)" style="stroke:#000000; stroke-linecap:round; stroke-linejoin:round; stroke-width:2; stroke-opacity:0.1; fill:none" points="
  2348.51,1443.7 2348.51,108.352 
  "/>
<polyline clip-path="url(#clip063)" style="stroke:#000000; stroke-linecap:round; stroke-linejoin:round; stroke-width:2; stroke-opacity:0.1; fill:none" points="
  2604.07,1443.7 2604.07,108.352 
  "/>
<polyline clip-path="url(#clip063)" style="stroke:#000000; stroke-linecap:round; stroke-linejoin:round; stroke-width:2; stroke-opacity:0.1; fill:none" points="
  2859.63,1443.7 2859.63,108.352 
  "/>
<polyline clip-path="url(#clip063)" style="stroke:#000000; stroke-linecap:round; stroke-linejoin:round; stroke-width:2; stroke-opacity:0.1; fill:none" points="
  3115.19,1443.7 3115.19,108.352 
  "/>
<polyline clip-path="url(#clip063)" style="stroke:#000000; stroke-linecap:round; stroke-linejoin:round; stroke-width:2; stroke-opacity:0.05; fill:none" points="
  1888.5,1443.7 1888.5,108.352 
  "/>
<polyline clip-path="url(#clip063)" style="stroke:#000000; stroke-linecap:round; stroke-linejoin:round; stroke-width:2; stroke-opacity:0.05; fill:none" points="
  1939.61,1443.7 1939.61,108.352 
  "/>
<polyline clip-path="url(#clip063)" style="stroke:#000000; stroke-linecap:round; stroke-linejoin:round; stroke-width:2; stroke-opacity:0.05; fill:none" points="
  1990.72,1443.7 1990.72,108.352 
  "/>
<polyline clip-path="url(#clip063)" style="stroke:#000000; stroke-linecap:round; stroke-linejoin:round; stroke-width:2; stroke-opacity:0.05; fill:none" points="
  2041.83,1443.7 2041.83,108.352 
  "/>
<polyline clip-path="url(#clip063)" style="stroke:#000000; stroke-linecap:round; stroke-linejoin:round; stroke-width:2; stroke-opacity:0.05; fill:none" points="
  2144.06,1443.7 2144.06,108.352 
  "/>
<polyline clip-path="url(#clip063)" style="stroke:#000000; stroke-linecap:round; stroke-linejoin:round; stroke-width:2; stroke-opacity:0.05; fill:none" points="
  2195.17,1443.7 2195.17,108.352 
  "/>
<polyline clip-path="url(#clip063)" style="stroke:#000000; stroke-linecap:round; stroke-linejoin:round; stroke-width:2; stroke-opacity:0.05; fill:none" points="
  2246.28,1443.7 2246.28,108.352 
  "/>
<polyline clip-path="url(#clip063)" style="stroke:#000000; stroke-linecap:round; stroke-linejoin:round; stroke-width:2; stroke-opacity:0.05; fill:none" points="
  2297.39,1443.7 2297.39,108.352 
  "/>
<polyline clip-path="url(#clip063)" style="stroke:#000000; stroke-linecap:round; stroke-linejoin:round; stroke-width:2; stroke-opacity:0.05; fill:none" points="
  2399.62,1443.7 2399.62,108.352 
  "/>
<polyline clip-path="url(#clip063)" style="stroke:#000000; stroke-linecap:round; stroke-linejoin:round; stroke-width:2; stroke-opacity:0.05; fill:none" points="
  2450.73,1443.7 2450.73,108.352 
  "/>
<polyline clip-path="url(#clip063)" style="stroke:#000000; stroke-linecap:round; stroke-linejoin:round; stroke-width:2; stroke-opacity:0.05; fill:none" points="
  2501.84,1443.7 2501.84,108.352 
  "/>
<polyline clip-path="url(#clip063)" style="stroke:#000000; stroke-linecap:round; stroke-linejoin:round; stroke-width:2; stroke-opacity:0.05; fill:none" points="
  2552.95,1443.7 2552.95,108.352 
  "/>
<polyline clip-path="url(#clip063)" style="stroke:#000000; stroke-linecap:round; stroke-linejoin:round; stroke-width:2; stroke-opacity:0.05; fill:none" points="
  2655.18,1443.7 2655.18,108.352 
  "/>
<polyline clip-path="url(#clip063)" style="stroke:#000000; stroke-linecap:round; stroke-linejoin:round; stroke-width:2; stroke-opacity:0.05; fill:none" points="
  2706.29,1443.7 2706.29,108.352 
  "/>
<polyline clip-path="url(#clip063)" style="stroke:#000000; stroke-linecap:round; stroke-linejoin:round; stroke-width:2; stroke-opacity:0.05; fill:none" points="
  2757.4,1443.7 2757.4,108.352 
  "/>
<polyline clip-path="url(#clip063)" style="stroke:#000000; stroke-linecap:round; stroke-linejoin:round; stroke-width:2; stroke-opacity:0.05; fill:none" points="
  2808.52,1443.7 2808.52,108.352 
  "/>
<polyline clip-path="url(#clip063)" style="stroke:#000000; stroke-linecap:round; stroke-linejoin:round; stroke-width:2; stroke-opacity:0.05; fill:none" points="
  2910.74,1443.7 2910.74,108.352 
  "/>
<polyline clip-path="url(#clip063)" style="stroke:#000000; stroke-linecap:round; stroke-linejoin:round; stroke-width:2; stroke-opacity:0.05; fill:none" points="
  2961.85,1443.7 2961.85,108.352 
  "/>
<polyline clip-path="url(#clip063)" style="stroke:#000000; stroke-linecap:round; stroke-linejoin:round; stroke-width:2; stroke-opacity:0.05; fill:none" points="
  3012.96,1443.7 3012.96,108.352 
  "/>
<polyline clip-path="url(#clip063)" style="stroke:#000000; stroke-linecap:round; stroke-linejoin:round; stroke-width:2; stroke-opacity:0.05; fill:none" points="
  3064.08,1443.7 3064.08,108.352 
  "/>
<polyline clip-path="url(#clip060)" style="stroke:#000000; stroke-linecap:round; stroke-linejoin:round; stroke-width:4; stroke-opacity:1; fill:none" points="
  1825.37,1443.7 3152.76,1443.7 
  "/>
<polyline clip-path="url(#clip060)" style="stroke:#000000; stroke-linecap:round; stroke-linejoin:round; stroke-width:4; stroke-opacity:1; fill:none" points="
  1837.38,1443.7 1837.38,1424.8 
  "/>
<polyline clip-path="url(#clip060)" style="stroke:#000000; stroke-linecap:round; stroke-linejoin:round; stroke-width:4; stroke-opacity:1; fill:none" points="
  2092.94,1443.7 2092.94,1424.8 
  "/>
<polyline clip-path="url(#clip060)" style="stroke:#000000; stroke-linecap:round; stroke-linejoin:round; stroke-width:4; stroke-opacity:1; fill:none" points="
  2348.51,1443.7 2348.51,1424.8 
  "/>
<polyline clip-path="url(#clip060)" style="stroke:#000000; stroke-linecap:round; stroke-linejoin:round; stroke-width:4; stroke-opacity:1; fill:none" points="
  2604.07,1443.7 2604.07,1424.8 
  "/>
<polyline clip-path="url(#clip060)" style="stroke:#000000; stroke-linecap:round; stroke-linejoin:round; stroke-width:4; stroke-opacity:1; fill:none" points="
  2859.63,1443.7 2859.63,1424.8 
  "/>
<polyline clip-path="url(#clip060)" style="stroke:#000000; stroke-linecap:round; stroke-linejoin:round; stroke-width:4; stroke-opacity:1; fill:none" points="
  3115.19,1443.7 3115.19,1424.8 
  "/>
<polyline clip-path="url(#clip060)" style="stroke:#000000; stroke-linecap:round; stroke-linejoin:round; stroke-width:4; stroke-opacity:1; fill:none" points="
  1888.5,1443.7 1888.5,1434.25 
  "/>
<polyline clip-path="url(#clip060)" style="stroke:#000000; stroke-linecap:round; stroke-linejoin:round; stroke-width:4; stroke-opacity:1; fill:none" points="
  1939.61,1443.7 1939.61,1434.25 
  "/>
<polyline clip-path="url(#clip060)" style="stroke:#000000; stroke-linecap:round; stroke-linejoin:round; stroke-width:4; stroke-opacity:1; fill:none" points="
  1990.72,1443.7 1990.72,1434.25 
  "/>
<polyline clip-path="url(#clip060)" style="stroke:#000000; stroke-linecap:round; stroke-linejoin:round; stroke-width:4; stroke-opacity:1; fill:none" points="
  2041.83,1443.7 2041.83,1434.25 
  "/>
<polyline clip-path="url(#clip060)" style="stroke:#000000; stroke-linecap:round; stroke-linejoin:round; stroke-width:4; stroke-opacity:1; fill:none" points="
  2144.06,1443.7 2144.06,1434.25 
  "/>
<polyline clip-path="url(#clip060)" style="stroke:#000000; stroke-linecap:round; stroke-linejoin:round; stroke-width:4; stroke-opacity:1; fill:none" points="
  2195.17,1443.7 2195.17,1434.25 
  "/>
<polyline clip-path="url(#clip060)" style="stroke:#000000; stroke-linecap:round; stroke-linejoin:round; stroke-width:4; stroke-opacity:1; fill:none" points="
  2246.28,1443.7 2246.28,1434.25 
  "/>
<polyline clip-path="url(#clip060)" style="stroke:#000000; stroke-linecap:round; stroke-linejoin:round; stroke-width:4; stroke-opacity:1; fill:none" points="
  2297.39,1443.7 2297.39,1434.25 
  "/>
<polyline clip-path="url(#clip060)" style="stroke:#000000; stroke-linecap:round; stroke-linejoin:round; stroke-width:4; stroke-opacity:1; fill:none" points="
  2399.62,1443.7 2399.62,1434.25 
  "/>
<polyline clip-path="url(#clip060)" style="stroke:#000000; stroke-linecap:round; stroke-linejoin:round; stroke-width:4; stroke-opacity:1; fill:none" points="
  2450.73,1443.7 2450.73,1434.25 
  "/>
<polyline clip-path="url(#clip060)" style="stroke:#000000; stroke-linecap:round; stroke-linejoin:round; stroke-width:4; stroke-opacity:1; fill:none" points="
  2501.84,1443.7 2501.84,1434.25 
  "/>
<polyline clip-path="url(#clip060)" style="stroke:#000000; stroke-linecap:round; stroke-linejoin:round; stroke-width:4; stroke-opacity:1; fill:none" points="
  2552.95,1443.7 2552.95,1434.25 
  "/>
<polyline clip-path="url(#clip060)" style="stroke:#000000; stroke-linecap:round; stroke-linejoin:round; stroke-width:4; stroke-opacity:1; fill:none" points="
  2655.18,1443.7 2655.18,1434.25 
  "/>
<polyline clip-path="url(#clip060)" style="stroke:#000000; stroke-linecap:round; stroke-linejoin:round; stroke-width:4; stroke-opacity:1; fill:none" points="
  2706.29,1443.7 2706.29,1434.25 
  "/>
<polyline clip-path="url(#clip060)" style="stroke:#000000; stroke-linecap:round; stroke-linejoin:round; stroke-width:4; stroke-opacity:1; fill:none" points="
  2757.4,1443.7 2757.4,1434.25 
  "/>
<polyline clip-path="url(#clip060)" style="stroke:#000000; stroke-linecap:round; stroke-linejoin:round; stroke-width:4; stroke-opacity:1; fill:none" points="
  2808.52,1443.7 2808.52,1434.25 
  "/>
<polyline clip-path="url(#clip060)" style="stroke:#000000; stroke-linecap:round; stroke-linejoin:round; stroke-width:4; stroke-opacity:1; fill:none" points="
  2910.74,1443.7 2910.74,1434.25 
  "/>
<polyline clip-path="url(#clip060)" style="stroke:#000000; stroke-linecap:round; stroke-linejoin:round; stroke-width:4; stroke-opacity:1; fill:none" points="
  2961.85,1443.7 2961.85,1434.25 
  "/>
<polyline clip-path="url(#clip060)" style="stroke:#000000; stroke-linecap:round; stroke-linejoin:round; stroke-width:4; stroke-opacity:1; fill:none" points="
  3012.96,1443.7 3012.96,1434.25 
  "/>
<polyline clip-path="url(#clip060)" style="stroke:#000000; stroke-linecap:round; stroke-linejoin:round; stroke-width:4; stroke-opacity:1; fill:none" points="
  3064.08,1443.7 3064.08,1434.25 
  "/>
<path clip-path="url(#clip060)" d="M1837.38 1481.02 Q1833.77 1481.02 1831.94 1484.58 Q1830.14 1488.12 1830.14 1495.25 Q1830.14 1502.36 1831.94 1505.93 Q1833.77 1509.47 1837.38 1509.47 Q1841.02 1509.47 1842.82 1505.93 Q1844.65 1502.36 1844.65 1495.25 Q1844.65 1488.12 1842.82 1484.58 Q1841.02 1481.02 1837.38 1481.02 M1837.38 1477.31 Q1843.19 1477.31 1846.25 1481.92 Q1849.33 1486.5 1849.33 1495.25 Q1849.33 1503.98 1846.25 1508.59 Q1843.19 1513.17 1837.38 1513.17 Q1831.57 1513.17 1828.49 1508.59 Q1825.44 1503.98 1825.44 1495.25 Q1825.44 1486.5 1828.49 1481.92 Q1831.57 1477.31 1837.38 1477.31 Z" fill="#000000" fill-rule="evenodd" fill-opacity="1" /><path clip-path="url(#clip060)" d="M2067.63 1508.56 L2075.27 1508.56 L2075.27 1482.2 L2066.96 1483.87 L2066.96 1479.61 L2075.22 1477.94 L2079.9 1477.94 L2079.9 1508.56 L2087.54 1508.56 L2087.54 1512.5 L2067.63 1512.5 L2067.63 1508.56 Z" fill="#000000" fill-rule="evenodd" fill-opacity="1" /><path clip-path="url(#clip060)" d="M2106.98 1481.02 Q2103.37 1481.02 2101.54 1484.58 Q2099.74 1488.12 2099.74 1495.25 Q2099.74 1502.36 2101.54 1505.93 Q2103.37 1509.47 2106.98 1509.47 Q2110.62 1509.47 2112.42 1505.93 Q2114.25 1502.36 2114.25 1495.25 Q2114.25 1488.12 2112.42 1484.58 Q2110.62 1481.02 2106.98 1481.02 M2106.98 1477.31 Q2112.79 1477.31 2115.85 1481.92 Q2118.93 1486.5 2118.93 1495.25 Q2118.93 1503.98 2115.85 1508.59 Q2112.79 1513.17 2106.98 1513.17 Q2101.17 1513.17 2098.09 1508.59 Q2095.04 1503.98 2095.04 1495.25 Q2095.04 1486.5 2098.09 1481.92 Q2101.17 1477.31 2106.98 1477.31 Z" fill="#000000" fill-rule="evenodd" fill-opacity="1" /><path clip-path="url(#clip060)" d="M2327.28 1508.56 L2343.6 1508.56 L2343.6 1512.5 L2321.65 1512.5 L2321.65 1508.56 Q2324.32 1505.81 2328.9 1501.18 Q2333.51 1496.53 2334.69 1495.19 Q2336.93 1492.66 2337.81 1490.93 Q2338.71 1489.17 2338.71 1487.48 Q2338.71 1484.72 2336.77 1482.99 Q2334.85 1481.25 2331.75 1481.25 Q2329.55 1481.25 2327.09 1482.01 Q2324.66 1482.78 2321.88 1484.33 L2321.88 1479.61 Q2324.71 1478.47 2327.16 1477.89 Q2329.62 1477.31 2331.65 1477.31 Q2337.02 1477.31 2340.22 1480 Q2343.41 1482.69 2343.41 1487.18 Q2343.41 1489.31 2342.6 1491.23 Q2341.82 1493.12 2339.71 1495.72 Q2339.13 1496.39 2336.03 1499.61 Q2332.93 1502.8 2327.28 1508.56 Z" fill="#000000" fill-rule="evenodd" fill-opacity="1" /><path clip-path="url(#clip060)" d="M2363.41 1481.02 Q2359.8 1481.02 2357.97 1484.58 Q2356.17 1488.12 2356.17 1495.25 Q2356.17 1502.36 2357.97 1505.93 Q2359.8 1509.47 2363.41 1509.47 Q2367.05 1509.47 2368.85 1505.93 Q2370.68 1502.36 2370.68 1495.25 Q2370.68 1488.12 2368.85 1484.58 Q2367.05 1481.02 2363.41 1481.02 M2363.41 1477.31 Q2369.22 1477.31 2372.28 1481.92 Q2375.36 1486.5 2375.36 1495.25 Q2375.36 1503.98 2372.28 1508.59 Q2369.22 1513.17 2363.41 1513.17 Q2357.6 1513.17 2354.52 1508.59 Q2351.47 1503.98 2351.47 1495.25 Q2351.47 1486.5 2354.52 1481.92 Q2357.6 1477.31 2363.41 1477.31 Z" fill="#000000" fill-rule="evenodd" fill-opacity="1" /><path clip-path="url(#clip060)" d="M2592.91 1493.87 Q2596.27 1494.58 2598.14 1496.85 Q2600.04 1499.12 2600.04 1502.45 Q2600.04 1507.57 2596.52 1510.37 Q2593 1513.17 2586.52 1513.17 Q2584.34 1513.17 2582.03 1512.73 Q2579.74 1512.31 2577.28 1511.46 L2577.28 1506.94 Q2579.23 1508.08 2581.54 1508.66 Q2583.86 1509.24 2586.38 1509.24 Q2590.78 1509.24 2593.07 1507.5 Q2595.39 1505.76 2595.39 1502.45 Q2595.39 1499.4 2593.23 1497.69 Q2591.1 1495.95 2587.28 1495.95 L2583.26 1495.95 L2583.26 1492.11 L2587.47 1492.11 Q2590.92 1492.11 2592.75 1490.74 Q2594.58 1489.35 2594.58 1486.76 Q2594.58 1484.1 2592.68 1482.69 Q2590.8 1481.25 2587.28 1481.25 Q2585.36 1481.25 2583.16 1481.67 Q2580.96 1482.08 2578.33 1482.96 L2578.33 1478.8 Q2580.99 1478.06 2583.3 1477.69 Q2585.64 1477.31 2587.7 1477.31 Q2593.02 1477.31 2596.13 1479.75 Q2599.23 1482.15 2599.23 1486.27 Q2599.23 1489.14 2597.58 1491.13 Q2595.94 1493.1 2592.91 1493.87 Z" fill="#000000" fill-rule="evenodd" fill-opacity="1" /><path clip-path="url(#clip060)" d="M2618.9 1481.02 Q2615.29 1481.02 2613.46 1484.58 Q2611.66 1488.12 2611.66 1495.25 Q2611.66 1502.36 2613.46 1505.93 Q2615.29 1509.47 2618.9 1509.47 Q2622.54 1509.47 2624.34 1505.93 Q2626.17 1502.36 2626.17 1495.25 Q2626.17 1488.12 2624.34 1484.58 Q2622.54 1481.02 2618.9 1481.02 M2618.9 1477.31 Q2624.71 1477.31 2627.77 1481.92 Q2630.85 1486.5 2630.85 1495.25 Q2630.85 1503.98 2627.77 1508.59 Q2624.71 1513.17 2618.9 1513.17 Q2613.09 1513.17 2610.02 1508.59 Q2606.96 1503.98 2606.96 1495.25 Q2606.96 1486.5 2610.02 1481.92 Q2613.09 1477.31 2618.9 1477.31 Z" fill="#000000" fill-rule="evenodd" fill-opacity="1" /><path clip-path="url(#clip060)" d="M2847.8 1482.01 L2835.99 1500.46 L2847.8 1500.46 L2847.8 1482.01 M2846.57 1477.94 L2852.45 1477.94 L2852.45 1500.46 L2857.38 1500.46 L2857.38 1504.35 L2852.45 1504.35 L2852.45 1512.5 L2847.8 1512.5 L2847.8 1504.35 L2832.2 1504.35 L2832.2 1499.84 L2846.57 1477.94 Z" fill="#000000" fill-rule="evenodd" fill-opacity="1" /><path clip-path="url(#clip060)" d="M2875.11 1481.02 Q2871.5 1481.02 2869.67 1484.58 Q2867.87 1488.12 2867.87 1495.25 Q2867.87 1502.36 2869.67 1505.93 Q2871.5 1509.47 2875.11 1509.47 Q2878.75 1509.47 2880.55 1505.93 Q2882.38 1502.36 2882.38 1495.25 Q2882.38 1488.12 2880.55 1484.58 Q2878.75 1481.02 2875.11 1481.02 M2875.11 1477.31 Q2880.92 1477.31 2883.98 1481.92 Q2887.06 1486.5 2887.06 1495.25 Q2887.06 1503.98 2883.98 1508.59 Q2880.92 1513.17 2875.11 1513.17 Q2869.3 1513.17 2866.22 1508.59 Q2863.17 1503.98 2863.17 1495.25 Q2863.17 1486.5 2866.22 1481.92 Q2869.3 1477.31 2875.11 1477.31 Z" fill="#000000" fill-rule="evenodd" fill-opacity="1" /><path clip-path="url(#clip060)" d="M3089.89 1477.94 L3108.24 1477.94 L3108.24 1481.88 L3094.17 1481.88 L3094.17 1490.35 Q3095.19 1490 3096.21 1489.84 Q3097.23 1489.65 3098.24 1489.65 Q3104.03 1489.65 3107.41 1492.82 Q3110.79 1496 3110.79 1501.41 Q3110.79 1506.99 3107.32 1510.09 Q3103.85 1513.17 3097.53 1513.17 Q3095.35 1513.17 3093.08 1512.8 Q3090.84 1512.43 3088.43 1511.69 L3088.43 1506.99 Q3090.51 1508.12 3092.73 1508.68 Q3094.96 1509.24 3097.43 1509.24 Q3101.44 1509.24 3103.78 1507.13 Q3106.11 1505.02 3106.11 1501.41 Q3106.11 1497.8 3103.78 1495.69 Q3101.44 1493.59 3097.43 1493.59 Q3095.56 1493.59 3093.68 1494 Q3091.83 1494.42 3089.89 1495.3 L3089.89 1477.94 Z" fill="#000000" fill-rule="evenodd" fill-opacity="1" /><path clip-path="url(#clip060)" d="M3130 1481.02 Q3126.39 1481.02 3124.56 1484.58 Q3122.76 1488.12 3122.76 1495.25 Q3122.76 1502.36 3124.56 1505.93 Q3126.39 1509.47 3130 1509.47 Q3133.64 1509.47 3135.44 1505.93 Q3137.27 1502.36 3137.27 1495.25 Q3137.27 1488.12 3135.44 1484.58 Q3133.64 1481.02 3130 1481.02 M3130 1477.31 Q3135.81 1477.31 3138.87 1481.92 Q3141.95 1486.5 3141.95 1495.25 Q3141.95 1503.98 3138.87 1508.59 Q3135.81 1513.17 3130 1513.17 Q3124.19 1513.17 3121.11 1508.59 Q3118.06 1503.98 3118.06 1495.25 Q3118.06 1486.5 3121.11 1481.92 Q3124.19 1477.31 3130 1477.31 Z" fill="#000000" fill-rule="evenodd" fill-opacity="1" /><path clip-path="url(#clip060)" d="M2359.24 1553.04 L2399.43 1553.04 L2399.43 1558.45 L2382.57 1558.45 L2382.57 1600.56 L2376.1 1600.56 L2376.1 1558.45 L2359.24 1558.45 L2359.24 1553.04 Z" fill="#000000" fill-rule="evenodd" fill-opacity="1" /><path clip-path="url(#clip060)" d="M2403.38 1564.92 L2409.24 1564.92 L2409.24 1600.56 L2403.38 1600.56 L2403.38 1564.92 M2403.38 1551.04 L2409.24 1551.04 L2409.24 1558.45 L2403.38 1558.45 L2403.38 1551.04 Z" fill="#000000" fill-rule="evenodd" fill-opacity="1" /><path clip-path="url(#clip060)" d="M2449.25 1571.76 Q2451.44 1567.81 2454.5 1565.93 Q2457.55 1564.06 2461.69 1564.06 Q2467.26 1564.06 2470.28 1567.97 Q2473.31 1571.85 2473.31 1579.05 L2473.31 1600.56 L2467.42 1600.56 L2467.42 1579.24 Q2467.42 1574.11 2465.61 1571.63 Q2463.79 1569.15 2460.07 1569.15 Q2455.52 1569.15 2452.87 1572.17 Q2450.23 1575.2 2450.23 1580.42 L2450.23 1600.56 L2444.34 1600.56 L2444.34 1579.24 Q2444.34 1574.08 2442.53 1571.63 Q2440.72 1569.15 2436.93 1569.15 Q2432.44 1569.15 2429.8 1572.2 Q2427.16 1575.23 2427.16 1580.42 L2427.16 1600.56 L2421.27 1600.56 L2421.27 1564.92 L2427.16 1564.92 L2427.16 1570.45 Q2429.16 1567.18 2431.96 1565.62 Q2434.76 1564.06 2438.62 1564.06 Q2442.5 1564.06 2445.2 1566.03 Q2447.94 1568 2449.25 1571.76 Z" fill="#000000" fill-rule="evenodd" fill-opacity="1" /><path clip-path="url(#clip060)" d="M2515.48 1581.28 L2515.48 1584.14 L2488.55 1584.14 Q2488.94 1590.19 2492.18 1593.37 Q2495.46 1596.52 2501.29 1596.52 Q2504.66 1596.52 2507.81 1595.69 Q2510.99 1594.87 2514.11 1593.21 L2514.11 1598.75 Q2510.96 1600.09 2507.65 1600.79 Q2504.34 1601.49 2500.94 1601.49 Q2492.41 1601.49 2487.41 1596.52 Q2482.44 1591.56 2482.44 1583.09 Q2482.44 1574.34 2487.15 1569.21 Q2491.9 1564.06 2499.92 1564.06 Q2507.11 1564.06 2511.28 1568.7 Q2515.48 1573.32 2515.48 1581.28 M2509.63 1579.56 Q2509.56 1574.75 2506.92 1571.89 Q2504.31 1569.02 2499.98 1569.02 Q2495.08 1569.02 2492.12 1571.79 Q2489.19 1574.56 2488.75 1579.59 L2509.63 1579.56 Z" fill="#000000" fill-rule="evenodd" fill-opacity="1" /><path clip-path="url(#clip060)" d="M2559.88 1551.1 Q2555.62 1558.42 2553.55 1565.58 Q2551.48 1572.75 2551.48 1580.1 Q2551.48 1587.45 2553.55 1594.68 Q2555.65 1601.87 2559.88 1609.16 L2554.79 1609.16 Q2550.02 1601.68 2547.63 1594.45 Q2545.27 1587.23 2545.27 1580.1 Q2545.27 1573 2547.63 1565.81 Q2549.98 1558.61 2554.79 1551.1 L2559.88 1551.1 Z" fill="#000000" fill-rule="evenodd" fill-opacity="1" /><path clip-path="url(#clip060)" d="M2593.97 1565.97 L2593.97 1571.5 Q2591.49 1570.23 2588.81 1569.59 Q2586.14 1568.96 2583.28 1568.96 Q2578.92 1568.96 2576.72 1570.29 Q2574.56 1571.63 2574.56 1574.31 Q2574.56 1576.34 2576.11 1577.52 Q2577.67 1578.67 2582.39 1579.72 L2584.39 1580.16 Q2590.63 1581.5 2593.24 1583.95 Q2595.88 1586.37 2595.88 1590.73 Q2595.88 1595.69 2591.93 1598.59 Q2588.02 1601.49 2581.14 1601.49 Q2578.28 1601.49 2575.16 1600.91 Q2572.07 1600.37 2568.64 1599.26 L2568.64 1593.21 Q2571.88 1594.9 2575.03 1595.76 Q2578.18 1596.59 2581.27 1596.59 Q2585.41 1596.59 2587.64 1595.18 Q2589.86 1593.75 2589.86 1591.17 Q2589.86 1588.79 2588.24 1587.51 Q2586.65 1586.24 2581.21 1585.06 L2579.17 1584.59 Q2573.73 1583.44 2571.31 1581.08 Q2568.89 1578.7 2568.89 1574.56 Q2568.89 1569.53 2572.45 1566.79 Q2576.02 1564.06 2582.58 1564.06 Q2585.82 1564.06 2588.69 1564.53 Q2591.55 1565.01 2593.97 1565.97 Z" fill="#000000" fill-rule="evenodd" fill-opacity="1" /><path clip-path="url(#clip060)" d="M2604.28 1551.1 L2609.38 1551.1 Q2614.15 1558.61 2616.51 1565.81 Q2618.89 1573 2618.89 1580.1 Q2618.89 1587.23 2616.51 1594.45 Q2614.15 1601.68 2609.38 1609.16 L2604.28 1609.16 Q2608.52 1601.87 2610.59 1594.68 Q2612.69 1587.45 2612.69 1580.1 Q2612.69 1572.75 2610.59 1565.58 Q2608.52 1558.42 2604.28 1551.1 Z" fill="#000000" fill-rule="evenodd" fill-opacity="1" /><polyline clip-path="url(#clip063)" style="stroke:#000000; stroke-linecap:round; stroke-linejoin:round; stroke-width:2; stroke-opacity:0.1; fill:none" points="
  1825.37,1362.6 3152.76,1362.6 
  "/>
<polyline clip-path="url(#clip063)" style="stroke:#000000; stroke-linecap:round; stroke-linejoin:round; stroke-width:2; stroke-opacity:0.1; fill:none" points="
  1825.37,903.638 3152.76,903.638 
  "/>
<polyline clip-path="url(#clip063)" style="stroke:#000000; stroke-linecap:round; stroke-linejoin:round; stroke-width:2; stroke-opacity:0.1; fill:none" points="
  1825.37,444.677 3152.76,444.677 
  "/>
<polyline clip-path="url(#clip063)" style="stroke:#000000; stroke-linecap:round; stroke-linejoin:round; stroke-width:2; stroke-opacity:0.05; fill:none" points="
  1825.37,1433.69 3152.76,1433.69 
  "/>
<polyline clip-path="url(#clip063)" style="stroke:#000000; stroke-linecap:round; stroke-linejoin:round; stroke-width:2; stroke-opacity:0.05; fill:none" points="
  1825.37,1407.08 3152.76,1407.08 
  "/>
<polyline clip-path="url(#clip063)" style="stroke:#000000; stroke-linecap:round; stroke-linejoin:round; stroke-width:2; stroke-opacity:0.05; fill:none" points="
  1825.37,1383.6 3152.76,1383.6 
  "/>
<polyline clip-path="url(#clip063)" style="stroke:#000000; stroke-linecap:round; stroke-linejoin:round; stroke-width:2; stroke-opacity:0.05; fill:none" points="
  1825.37,1224.44 3152.76,1224.44 
  "/>
<polyline clip-path="url(#clip063)" style="stroke:#000000; stroke-linecap:round; stroke-linejoin:round; stroke-width:2; stroke-opacity:0.05; fill:none" points="
  1825.37,1143.62 3152.76,1143.62 
  "/>
<polyline clip-path="url(#clip063)" style="stroke:#000000; stroke-linecap:round; stroke-linejoin:round; stroke-width:2; stroke-opacity:0.05; fill:none" points="
  1825.37,1086.28 3152.76,1086.28 
  "/>
<polyline clip-path="url(#clip063)" style="stroke:#000000; stroke-linecap:round; stroke-linejoin:round; stroke-width:2; stroke-opacity:0.05; fill:none" points="
  1825.37,1041.8 3152.76,1041.8 
  "/>
<polyline clip-path="url(#clip063)" style="stroke:#000000; stroke-linecap:round; stroke-linejoin:round; stroke-width:2; stroke-opacity:0.05; fill:none" points="
  1825.37,1005.46 3152.76,1005.46 
  "/>
<polyline clip-path="url(#clip063)" style="stroke:#000000; stroke-linecap:round; stroke-linejoin:round; stroke-width:2; stroke-opacity:0.05; fill:none" points="
  1825.37,974.732 3152.76,974.732 
  "/>
<polyline clip-path="url(#clip063)" style="stroke:#000000; stroke-linecap:round; stroke-linejoin:round; stroke-width:2; stroke-opacity:0.05; fill:none" points="
  1825.37,948.116 3152.76,948.116 
  "/>
<polyline clip-path="url(#clip063)" style="stroke:#000000; stroke-linecap:round; stroke-linejoin:round; stroke-width:2; stroke-opacity:0.05; fill:none" points="
  1825.37,924.639 3152.76,924.639 
  "/>
<polyline clip-path="url(#clip063)" style="stroke:#000000; stroke-linecap:round; stroke-linejoin:round; stroke-width:2; stroke-opacity:0.05; fill:none" points="
  1825.37,765.477 3152.76,765.477 
  "/>
<polyline clip-path="url(#clip063)" style="stroke:#000000; stroke-linecap:round; stroke-linejoin:round; stroke-width:2; stroke-opacity:0.05; fill:none" points="
  1825.37,684.658 3152.76,684.658 
  "/>
<polyline clip-path="url(#clip063)" style="stroke:#000000; stroke-linecap:round; stroke-linejoin:round; stroke-width:2; stroke-opacity:0.05; fill:none" points="
  1825.37,627.316 3152.76,627.316 
  "/>
<polyline clip-path="url(#clip063)" style="stroke:#000000; stroke-linecap:round; stroke-linejoin:round; stroke-width:2; stroke-opacity:0.05; fill:none" points="
  1825.37,582.838 3152.76,582.838 
  "/>
<polyline clip-path="url(#clip063)" style="stroke:#000000; stroke-linecap:round; stroke-linejoin:round; stroke-width:2; stroke-opacity:0.05; fill:none" points="
  1825.37,546.497 3152.76,546.497 
  "/>
<polyline clip-path="url(#clip063)" style="stroke:#000000; stroke-linecap:round; stroke-linejoin:round; stroke-width:2; stroke-opacity:0.05; fill:none" points="
  1825.37,515.771 3152.76,515.771 
  "/>
<polyline clip-path="url(#clip063)" style="stroke:#000000; stroke-linecap:round; stroke-linejoin:round; stroke-width:2; stroke-opacity:0.05; fill:none" points="
  1825.37,489.155 3152.76,489.155 
  "/>
<polyline clip-path="url(#clip063)" style="stroke:#000000; stroke-linecap:round; stroke-linejoin:round; stroke-width:2; stroke-opacity:0.05; fill:none" points="
  1825.37,465.678 3152.76,465.678 
  "/>
<polyline clip-path="url(#clip063)" style="stroke:#000000; stroke-linecap:round; stroke-linejoin:round; stroke-width:2; stroke-opacity:0.05; fill:none" points="
  1825.37,306.516 3152.76,306.516 
  "/>
<polyline clip-path="url(#clip063)" style="stroke:#000000; stroke-linecap:round; stroke-linejoin:round; stroke-width:2; stroke-opacity:0.05; fill:none" points="
  1825.37,225.697 3152.76,225.697 
  "/>
<polyline clip-path="url(#clip063)" style="stroke:#000000; stroke-linecap:round; stroke-linejoin:round; stroke-width:2; stroke-opacity:0.05; fill:none" points="
  1825.37,168.355 3152.76,168.355 
  "/>
<polyline clip-path="url(#clip063)" style="stroke:#000000; stroke-linecap:round; stroke-linejoin:round; stroke-width:2; stroke-opacity:0.05; fill:none" points="
  1825.37,123.877 3152.76,123.877 
  "/>
<polyline clip-path="url(#clip060)" style="stroke:#000000; stroke-linecap:round; stroke-linejoin:round; stroke-width:4; stroke-opacity:1; fill:none" points="
  1825.37,1443.7 1825.37,108.352 
  "/>
<polyline clip-path="url(#clip060)" style="stroke:#000000; stroke-linecap:round; stroke-linejoin:round; stroke-width:4; stroke-opacity:1; fill:none" points="
  1825.37,1362.6 1844.27,1362.6 
  "/>
<polyline clip-path="url(#clip060)" style="stroke:#000000; stroke-linecap:round; stroke-linejoin:round; stroke-width:4; stroke-opacity:1; fill:none" points="
  1825.37,903.638 1844.27,903.638 
  "/>
<polyline clip-path="url(#clip060)" style="stroke:#000000; stroke-linecap:round; stroke-linejoin:round; stroke-width:4; stroke-opacity:1; fill:none" points="
  1825.37,444.677 1844.27,444.677 
  "/>
<polyline clip-path="url(#clip060)" style="stroke:#000000; stroke-linecap:round; stroke-linejoin:round; stroke-width:4; stroke-opacity:1; fill:none" points="
  1825.37,1433.69 1834.82,1433.69 
  "/>
<polyline clip-path="url(#clip060)" style="stroke:#000000; stroke-linecap:round; stroke-linejoin:round; stroke-width:4; stroke-opacity:1; fill:none" points="
  1825.37,1407.08 1834.82,1407.08 
  "/>
<polyline clip-path="url(#clip060)" style="stroke:#000000; stroke-linecap:round; stroke-linejoin:round; stroke-width:4; stroke-opacity:1; fill:none" points="
  1825.37,1383.6 1834.82,1383.6 
  "/>
<polyline clip-path="url(#clip060)" style="stroke:#000000; stroke-linecap:round; stroke-linejoin:round; stroke-width:4; stroke-opacity:1; fill:none" points="
  1825.37,1224.44 1834.82,1224.44 
  "/>
<polyline clip-path="url(#clip060)" style="stroke:#000000; stroke-linecap:round; stroke-linejoin:round; stroke-width:4; stroke-opacity:1; fill:none" points="
  1825.37,1143.62 1834.82,1143.62 
  "/>
<polyline clip-path="url(#clip060)" style="stroke:#000000; stroke-linecap:round; stroke-linejoin:round; stroke-width:4; stroke-opacity:1; fill:none" points="
  1825.37,1086.28 1834.82,1086.28 
  "/>
<polyline clip-path="url(#clip060)" style="stroke:#000000; stroke-linecap:round; stroke-linejoin:round; stroke-width:4; stroke-opacity:1; fill:none" points="
  1825.37,1041.8 1834.82,1041.8 
  "/>
<polyline clip-path="url(#clip060)" style="stroke:#000000; stroke-linecap:round; stroke-linejoin:round; stroke-width:4; stroke-opacity:1; fill:none" points="
  1825.37,1005.46 1834.82,1005.46 
  "/>
<polyline clip-path="url(#clip060)" style="stroke:#000000; stroke-linecap:round; stroke-linejoin:round; stroke-width:4; stroke-opacity:1; fill:none" points="
  1825.37,974.732 1834.82,974.732 
  "/>
<polyline clip-path="url(#clip060)" style="stroke:#000000; stroke-linecap:round; stroke-linejoin:round; stroke-width:4; stroke-opacity:1; fill:none" points="
  1825.37,948.116 1834.82,948.116 
  "/>
<polyline clip-path="url(#clip060)" style="stroke:#000000; stroke-linecap:round; stroke-linejoin:round; stroke-width:4; stroke-opacity:1; fill:none" points="
  1825.37,924.639 1834.82,924.639 
  "/>
<polyline clip-path="url(#clip060)" style="stroke:#000000; stroke-linecap:round; stroke-linejoin:round; stroke-width:4; stroke-opacity:1; fill:none" points="
  1825.37,765.477 1834.82,765.477 
  "/>
<polyline clip-path="url(#clip060)" style="stroke:#000000; stroke-linecap:round; stroke-linejoin:round; stroke-width:4; stroke-opacity:1; fill:none" points="
  1825.37,684.658 1834.82,684.658 
  "/>
<polyline clip-path="url(#clip060)" style="stroke:#000000; stroke-linecap:round; stroke-linejoin:round; stroke-width:4; stroke-opacity:1; fill:none" points="
  1825.37,627.316 1834.82,627.316 
  "/>
<polyline clip-path="url(#clip060)" style="stroke:#000000; stroke-linecap:round; stroke-linejoin:round; stroke-width:4; stroke-opacity:1; fill:none" points="
  1825.37,582.838 1834.82,582.838 
  "/>
<polyline clip-path="url(#clip060)" style="stroke:#000000; stroke-linecap:round; stroke-linejoin:round; stroke-width:4; stroke-opacity:1; fill:none" points="
  1825.37,546.497 1834.82,546.497 
  "/>
<polyline clip-path="url(#clip060)" style="stroke:#000000; stroke-linecap:round; stroke-linejoin:round; stroke-width:4; stroke-opacity:1; fill:none" points="
  1825.37,515.771 1834.82,515.771 
  "/>
<polyline clip-path="url(#clip060)" style="stroke:#000000; stroke-linecap:round; stroke-linejoin:round; stroke-width:4; stroke-opacity:1; fill:none" points="
  1825.37,489.155 1834.82,489.155 
  "/>
<polyline clip-path="url(#clip060)" style="stroke:#000000; stroke-linecap:round; stroke-linejoin:round; stroke-width:4; stroke-opacity:1; fill:none" points="
  1825.37,465.678 1834.82,465.678 
  "/>
<polyline clip-path="url(#clip060)" style="stroke:#000000; stroke-linecap:round; stroke-linejoin:round; stroke-width:4; stroke-opacity:1; fill:none" points="
  1825.37,306.516 1834.82,306.516 
  "/>
<polyline clip-path="url(#clip060)" style="stroke:#000000; stroke-linecap:round; stroke-linejoin:round; stroke-width:4; stroke-opacity:1; fill:none" points="
  1825.37,225.697 1834.82,225.697 
  "/>
<polyline clip-path="url(#clip060)" style="stroke:#000000; stroke-linecap:round; stroke-linejoin:round; stroke-width:4; stroke-opacity:1; fill:none" points="
  1825.37,168.355 1834.82,168.355 
  "/>
<polyline clip-path="url(#clip060)" style="stroke:#000000; stroke-linecap:round; stroke-linejoin:round; stroke-width:4; stroke-opacity:1; fill:none" points="
  1825.37,123.877 1834.82,123.877 
  "/>
<path clip-path="url(#clip060)" d="M1676.93 1382.39 L1684.57 1382.39 L1684.57 1356.03 L1676.26 1357.69 L1676.26 1353.43 L1684.52 1351.77 L1689.2 1351.77 L1689.2 1382.39 L1696.84 1382.39 L1696.84 1386.33 L1676.93 1386.33 L1676.93 1382.39 Z" fill="#000000" fill-rule="evenodd" fill-opacity="1" /><path clip-path="url(#clip060)" d="M1716.28 1354.85 Q1712.67 1354.85 1710.84 1358.41 Q1709.04 1361.95 1709.04 1369.08 Q1709.04 1376.19 1710.84 1379.75 Q1712.67 1383.29 1716.28 1383.29 Q1719.92 1383.29 1721.72 1379.75 Q1723.55 1376.19 1723.55 1369.08 Q1723.55 1361.95 1721.72 1358.41 Q1719.92 1354.85 1716.28 1354.85 M1716.28 1351.14 Q1722.09 1351.14 1725.15 1355.75 Q1728.23 1360.33 1728.23 1369.08 Q1728.23 1377.81 1725.15 1382.42 Q1722.09 1387 1716.28 1387 Q1710.47 1387 1707.39 1382.42 Q1704.34 1377.81 1704.34 1369.08 Q1704.34 1360.33 1707.39 1355.75 Q1710.47 1351.14 1716.28 1351.14 Z" fill="#000000" fill-rule="evenodd" fill-opacity="1" /><path clip-path="url(#clip060)" d="M1728.23 1345.24 L1752.34 1345.24 L1752.34 1348.44 L1728.23 1348.44 L1728.23 1345.24 Z" fill="#000000" fill-rule="evenodd" fill-opacity="1" /><path clip-path="url(#clip060)" d="M1761.2 1355.72 L1767.4 1355.72 L1767.4 1334.3 L1760.65 1335.65 L1760.65 1332.19 L1767.37 1330.84 L1771.17 1330.84 L1771.17 1355.72 L1777.37 1355.72 L1777.37 1358.92 L1761.2 1358.92 L1761.2 1355.72 Z" fill="#000000" fill-rule="evenodd" fill-opacity="1" /><path clip-path="url(#clip060)" d="M1706.67 923.431 L1714.3 923.431 L1714.3 897.065 L1705.99 898.732 L1705.99 894.473 L1714.26 892.806 L1718.93 892.806 L1718.93 923.431 L1726.57 923.431 L1726.57 927.366 L1706.67 927.366 L1706.67 923.431 Z" fill="#000000" fill-rule="evenodd" fill-opacity="1" /><path clip-path="url(#clip060)" d="M1746.02 895.885 Q1742.41 895.885 1740.58 899.45 Q1738.77 902.991 1738.77 910.121 Q1738.77 917.227 1740.58 920.792 Q1742.41 924.334 1746.02 924.334 Q1749.65 924.334 1751.46 920.792 Q1753.29 917.227 1753.29 910.121 Q1753.29 902.991 1751.46 899.45 Q1749.65 895.885 1746.02 895.885 M1746.02 892.181 Q1751.83 892.181 1754.88 896.788 Q1757.96 901.371 1757.96 910.121 Q1757.96 918.848 1754.88 923.454 Q1751.83 928.037 1746.02 928.037 Q1740.21 928.037 1737.13 923.454 Q1734.07 918.848 1734.07 910.121 Q1734.07 901.371 1737.13 896.788 Q1740.21 892.181 1746.02 892.181 Z" fill="#000000" fill-rule="evenodd" fill-opacity="1" /><path clip-path="url(#clip060)" d="M1767.67 874.377 Q1764.73 874.377 1763.25 877.274 Q1761.78 880.151 1761.78 885.944 Q1761.78 891.718 1763.25 894.614 Q1764.73 897.492 1767.67 897.492 Q1770.62 897.492 1772.09 894.614 Q1773.57 891.718 1773.57 885.944 Q1773.57 880.151 1772.09 877.274 Q1770.62 874.377 1767.67 874.377 M1767.67 871.368 Q1772.39 871.368 1774.87 875.111 Q1777.37 878.835 1777.37 885.944 Q1777.37 893.034 1774.87 896.777 Q1772.39 900.501 1767.67 900.501 Q1762.95 900.501 1760.44 896.777 Q1757.96 893.034 1757.96 885.944 Q1757.96 878.835 1760.44 875.111 Q1762.95 871.368 1767.67 871.368 Z" fill="#000000" fill-rule="evenodd" fill-opacity="1" /><path clip-path="url(#clip060)" d="M1709.36 464.47 L1716.99 464.47 L1716.99 438.104 L1708.68 439.771 L1708.68 435.512 L1716.95 433.845 L1721.62 433.845 L1721.62 464.47 L1729.26 464.47 L1729.26 468.405 L1709.36 468.405 L1709.36 464.47 Z" fill="#000000" fill-rule="evenodd" fill-opacity="1" /><path clip-path="url(#clip060)" d="M1748.71 436.924 Q1745.1 436.924 1743.27 440.488 Q1741.46 444.03 1741.46 451.16 Q1741.46 458.266 1743.27 461.831 Q1745.1 465.373 1748.71 465.373 Q1752.34 465.373 1754.15 461.831 Q1755.98 458.266 1755.98 451.16 Q1755.98 444.03 1754.15 440.488 Q1752.34 436.924 1748.71 436.924 M1748.71 433.22 Q1754.52 433.22 1757.57 437.826 Q1760.65 442.41 1760.65 451.16 Q1760.65 459.886 1757.57 464.493 Q1754.52 469.076 1748.71 469.076 Q1742.9 469.076 1739.82 464.493 Q1736.76 459.886 1736.76 451.16 Q1736.76 442.41 1739.82 437.826 Q1742.9 433.22 1748.71 433.22 Z" fill="#000000" fill-rule="evenodd" fill-opacity="1" /><path clip-path="url(#clip060)" d="M1761.2 437.797 L1767.4 437.797 L1767.4 416.375 L1760.65 417.729 L1760.65 414.269 L1767.37 412.915 L1771.17 412.915 L1771.17 437.797 L1777.37 437.797 L1777.37 440.995 L1761.2 440.995 L1761.2 437.797 Z" fill="#000000" fill-rule="evenodd" fill-opacity="1" /><path clip-path="url(#clip060)" d="M2159.58 72.576 L2136.49 12.096 L2145.04 12.096 L2164.2 63.0159 L2183.4 12.096 L2191.91 12.096 L2168.86 72.576 L2159.58 72.576 Z" fill="#000000" fill-rule="evenodd" fill-opacity="1" /><path clip-path="url(#clip060)" d="M2232.78 48.0275 L2232.78 51.6733 L2198.51 51.6733 Q2199 59.3701 2203.13 63.421 Q2207.3 67.4314 2214.72 67.4314 Q2219.01 67.4314 2223.02 66.3781 Q2227.07 65.3249 2231.04 63.2184 L2231.04 70.267 Q2227.03 71.9684 2222.82 72.8596 Q2218.61 73.7508 2214.27 73.7508 Q2203.41 73.7508 2197.05 67.4314 Q2190.73 61.1119 2190.73 50.3365 Q2190.73 39.1965 2196.73 32.6746 Q2202.77 26.1121 2212.97 26.1121 Q2222.13 26.1121 2227.44 32.0264 Q2232.78 37.9003 2232.78 48.0275 M2225.33 45.84 Q2225.25 39.7232 2221.89 36.0774 Q2218.56 32.4315 2213.06 32.4315 Q2206.82 32.4315 2203.05 35.9558 Q2199.32 39.4801 2198.76 45.8805 L2225.33 45.84 Z" fill="#000000" fill-rule="evenodd" fill-opacity="1" /><path clip-path="url(#clip060)" d="M2245.02 9.54393 L2252.47 9.54393 L2252.47 72.576 L2245.02 72.576 L2245.02 9.54393 Z" fill="#000000" fill-rule="evenodd" fill-opacity="1" /><path clip-path="url(#clip060)" d="M2285.65 32.4315 Q2279.65 32.4315 2276.17 37.1306 Q2272.68 41.7891 2272.68 49.9314 Q2272.68 58.0738 2276.13 62.7728 Q2279.61 67.4314 2285.65 67.4314 Q2291.6 67.4314 2295.09 62.7323 Q2298.57 58.0333 2298.57 49.9314 Q2298.57 41.8701 2295.09 37.1711 Q2291.6 32.4315 2285.65 32.4315 M2285.65 26.1121 Q2295.37 26.1121 2300.92 32.4315 Q2306.47 38.7509 2306.47 49.9314 Q2306.47 61.0714 2300.92 67.4314 Q2295.37 73.7508 2285.65 73.7508 Q2275.88 73.7508 2270.34 67.4314 Q2264.83 61.0714 2264.83 49.9314 Q2264.83 38.7509 2270.34 32.4315 Q2275.88 26.1121 2285.65 26.1121 Z" fill="#000000" fill-rule="evenodd" fill-opacity="1" /><path clip-path="url(#clip060)" d="M2351.47 28.9478 L2351.47 35.9153 Q2348.32 34.1734 2345.11 33.3227 Q2341.96 32.4315 2338.71 32.4315 Q2331.46 32.4315 2327.45 37.0496 Q2323.44 41.6271 2323.44 49.9314 Q2323.44 58.2358 2327.45 62.8538 Q2331.46 67.4314 2338.71 67.4314 Q2341.96 67.4314 2345.11 66.5807 Q2348.32 65.6895 2351.47 63.9476 L2351.47 70.8341 Q2348.36 72.2924 2344.99 73.0216 Q2341.67 73.7508 2337.9 73.7508 Q2327.66 73.7508 2321.62 67.3098 Q2315.58 60.8689 2315.58 49.9314 Q2315.58 38.832 2321.66 32.472 Q2327.78 26.1121 2338.39 26.1121 Q2341.83 26.1121 2345.11 26.8413 Q2348.4 27.5299 2351.47 28.9478 Z" fill="#000000" fill-rule="evenodd" fill-opacity="1" /><path clip-path="url(#clip060)" d="M2364.44 27.2059 L2371.89 27.2059 L2371.89 72.576 L2364.44 72.576 L2364.44 27.2059 M2364.44 9.54393 L2371.89 9.54393 L2371.89 18.9825 L2364.44 18.9825 L2364.44 9.54393 Z" fill="#000000" fill-rule="evenodd" fill-opacity="1" /><path clip-path="url(#clip060)" d="M2394.86 14.324 L2394.86 27.2059 L2410.21 27.2059 L2410.21 32.9987 L2394.86 32.9987 L2394.86 57.6282 Q2394.86 63.1779 2396.36 64.7578 Q2397.9 66.3376 2402.56 66.3376 L2410.21 66.3376 L2410.21 72.576 L2402.56 72.576 Q2393.93 72.576 2390.65 69.3758 Q2387.37 66.1351 2387.37 57.6282 L2387.37 32.9987 L2381.9 32.9987 L2381.9 27.2059 L2387.37 27.2059 L2387.37 14.324 L2394.86 14.324 Z" fill="#000000" fill-rule="evenodd" fill-opacity="1" /><path clip-path="url(#clip060)" d="M2438.89 76.7889 Q2435.73 84.8907 2432.74 87.3618 Q2429.74 89.8329 2424.72 89.8329 L2418.76 89.8329 L2418.76 83.5945 L2423.14 83.5945 Q2426.21 83.5945 2427.92 82.1361 Q2429.62 80.6778 2431.68 75.2496 L2433.02 71.8468 L2414.67 27.2059 L2422.57 27.2059 L2436.75 62.6918 L2450.92 27.2059 L2458.82 27.2059 L2438.89 76.7889 Z" fill="#000000" fill-rule="evenodd" fill-opacity="1" /><path clip-path="url(#clip060)" d="M2511.4 72.576 L2488.31 12.096 L2496.86 12.096 L2516.02 63.0159 L2535.22 12.096 L2543.73 12.096 L2520.68 72.576 L2511.4 72.576 Z" fill="#000000" fill-rule="evenodd" fill-opacity="1" /><path clip-path="url(#clip060)" d="M2566.42 49.7694 Q2557.38 49.7694 2553.9 51.8354 Q2550.41 53.9013 2550.41 58.8839 Q2550.41 62.8538 2553.01 65.2034 Q2555.64 67.5124 2560.14 67.5124 Q2566.33 67.5124 2570.06 63.1374 Q2573.83 58.7219 2573.83 51.4303 L2573.83 49.7694 L2566.42 49.7694 M2581.28 46.6907 L2581.28 72.576 L2573.83 72.576 L2573.83 65.6895 Q2571.28 69.8214 2567.47 71.8063 Q2563.66 73.7508 2558.15 73.7508 Q2551.18 73.7508 2547.05 69.8619 Q2542.96 65.9325 2542.96 59.3701 Q2542.96 51.7138 2548.07 47.825 Q2553.21 43.9361 2563.38 43.9361 L2573.83 43.9361 L2573.83 43.2069 Q2573.83 38.0623 2570.43 35.2672 Q2567.06 32.4315 2560.95 32.4315 Q2557.06 32.4315 2553.37 33.3632 Q2549.69 34.295 2546.28 36.1584 L2546.28 29.2718 Q2550.37 27.692 2554.22 26.9223 Q2558.07 26.1121 2561.72 26.1121 Q2571.56 26.1121 2576.42 31.2163 Q2581.28 36.3204 2581.28 46.6907 Z" fill="#000000" fill-rule="evenodd" fill-opacity="1" /><path clip-path="url(#clip060)" d="M2622.93 34.1734 Q2621.67 33.4443 2620.17 33.1202 Q2618.71 32.7556 2616.93 32.7556 Q2610.61 32.7556 2607.21 36.8875 Q2603.85 40.9789 2603.85 48.6757 L2603.85 72.576 L2596.35 72.576 L2596.35 27.2059 L2603.85 27.2059 L2603.85 34.2544 Q2606.2 30.1225 2609.96 28.1376 Q2613.73 26.1121 2619.12 26.1121 Q2619.89 26.1121 2620.82 26.2337 Q2621.75 26.3147 2622.89 26.5172 L2622.93 34.1734 Z" fill="#000000" fill-rule="evenodd" fill-opacity="1" /><path clip-path="url(#clip060)" d="M2630.74 27.2059 L2638.2 27.2059 L2638.2 72.576 L2630.74 72.576 L2630.74 27.2059 M2630.74 9.54393 L2638.2 9.54393 L2638.2 18.9825 L2630.74 18.9825 L2630.74 9.54393 Z" fill="#000000" fill-rule="evenodd" fill-opacity="1" /><path clip-path="url(#clip060)" d="M2674.41 49.7694 Q2665.38 49.7694 2661.9 51.8354 Q2658.41 53.9013 2658.41 58.8839 Q2658.41 62.8538 2661 65.2034 Q2663.64 67.5124 2668.13 67.5124 Q2674.33 67.5124 2678.06 63.1374 Q2681.83 58.7219 2681.83 51.4303 L2681.83 49.7694 L2674.41 49.7694 M2689.28 46.6907 L2689.28 72.576 L2681.83 72.576 L2681.83 65.6895 Q2679.27 69.8214 2675.47 71.8063 Q2671.66 73.7508 2666.15 73.7508 Q2659.18 73.7508 2655.05 69.8619 Q2650.96 65.9325 2650.96 59.3701 Q2650.96 51.7138 2656.06 47.825 Q2661.21 43.9361 2671.37 43.9361 L2681.83 43.9361 L2681.83 43.2069 Q2681.83 38.0623 2678.42 35.2672 Q2675.06 32.4315 2668.94 32.4315 Q2665.06 32.4315 2661.37 33.3632 Q2657.68 34.295 2654.28 36.1584 L2654.28 29.2718 Q2658.37 27.692 2662.22 26.9223 Q2666.07 26.1121 2669.71 26.1121 Q2679.56 26.1121 2684.42 31.2163 Q2689.28 36.3204 2689.28 46.6907 Z" fill="#000000" fill-rule="evenodd" fill-opacity="1" /><path clip-path="url(#clip060)" d="M2742.35 45.1919 L2742.35 72.576 L2734.89 72.576 L2734.89 45.4349 Q2734.89 38.994 2732.38 35.7938 Q2729.87 32.5936 2724.85 32.5936 Q2718.81 32.5936 2715.33 36.4419 Q2711.84 40.2903 2711.84 46.9338 L2711.84 72.576 L2704.35 72.576 L2704.35 27.2059 L2711.84 27.2059 L2711.84 34.2544 Q2714.52 30.163 2718.12 28.1376 Q2721.77 26.1121 2726.51 26.1121 Q2734.33 26.1121 2738.34 30.9732 Q2742.35 35.7938 2742.35 45.1919 Z" fill="#000000" fill-rule="evenodd" fill-opacity="1" /><path clip-path="url(#clip060)" d="M2789.86 28.9478 L2789.86 35.9153 Q2786.7 34.1734 2783.5 33.3227 Q2780.34 32.4315 2777.1 32.4315 Q2769.85 32.4315 2765.84 37.0496 Q2761.83 41.6271 2761.83 49.9314 Q2761.83 58.2358 2765.84 62.8538 Q2769.85 67.4314 2777.1 67.4314 Q2780.34 67.4314 2783.5 66.5807 Q2786.7 65.6895 2789.86 63.9476 L2789.86 70.8341 Q2786.74 72.2924 2783.38 73.0216 Q2780.06 73.7508 2776.29 73.7508 Q2766.04 73.7508 2760.01 67.3098 Q2753.97 60.8689 2753.97 49.9314 Q2753.97 38.832 2760.05 32.472 Q2766.17 26.1121 2776.78 26.1121 Q2780.22 26.1121 2783.5 26.8413 Q2786.78 27.5299 2789.86 28.9478 Z" fill="#000000" fill-rule="evenodd" fill-opacity="1" /><path clip-path="url(#clip060)" d="M2841.63 48.0275 L2841.63 51.6733 L2807.36 51.6733 Q2807.85 59.3701 2811.98 63.421 Q2816.15 67.4314 2823.57 67.4314 Q2827.86 67.4314 2831.87 66.3781 Q2835.92 65.3249 2839.89 63.2184 L2839.89 70.267 Q2835.88 71.9684 2831.67 72.8596 Q2827.46 73.7508 2823.12 73.7508 Q2812.27 73.7508 2805.91 67.4314 Q2799.59 61.1119 2799.59 50.3365 Q2799.59 39.1965 2805.58 32.6746 Q2811.62 26.1121 2821.83 26.1121 Q2830.98 26.1121 2836.29 32.0264 Q2841.63 37.9003 2841.63 48.0275 M2834.18 45.84 Q2834.1 39.7232 2830.74 36.0774 Q2827.42 32.4315 2821.91 32.4315 Q2815.67 32.4315 2811.9 35.9558 Q2808.17 39.4801 2807.61 45.8805 L2834.18 45.84 Z" fill="#000000" fill-rule="evenodd" fill-opacity="1" /><polyline clip-path="url(#clip063)" style="stroke:#009af9; stroke-linecap:round; stroke-linejoin:round; stroke-width:4; stroke-opacity:1; fill:none" points="
  1862.94,146.145 1888.5,386.738 1914.05,608.484 1939.61,776.113 1965.16,906.612 1990.72,1011.41 2016.28,1097.02 2041.83,1167.25 2067.39,1224.56 2092.94,1270.73 
  2118.5,1307.24 2144.06,1335.49 2169.61,1356.84 2195.17,1372.56 2220.72,1383.83 2246.28,1391.7 2271.84,1397.02 2297.39,1400.5 2322.95,1402.67 2348.51,1403.96 
  2374.06,1404.68 2399.62,1405.04 2425.17,1405.19 2450.73,1405.24 2476.29,1405.25 2501.84,1405.25 2527.4,1405.26 2552.95,1405.29 2578.51,1405.34 2604.07,1405.4 
  2629.62,1405.46 2655.18,1405.53 2680.73,1405.6 2706.29,1405.66 2731.85,1405.72 2757.4,1405.76 2782.96,1405.8 2808.52,1405.83 2834.07,1405.85 2859.63,1405.87 
  2885.18,1405.88 2910.74,1405.89 2936.3,1405.9 2961.85,1405.9 2987.41,1405.9 3012.96,1405.91 3038.52,1405.91 3064.08,1405.91 3089.63,1405.91 3115.19,1405.91 
  
  "/>
</svg>
