<?xml version="1.0" encoding="utf-8"?>
<svg xmlns="http://www.w3.org/2000/svg" xmlns:xlink="http://www.w3.org/1999/xlink" width="800" height="500" viewBox="0 0 3200 2000">
<defs>
  <clipPath id="clip800">
    <rect x="0" y="0" width="3200" height="2000"/>
  </clipPath>
</defs>
<path clip-path="url(#clip800)" d="
M0 2000 L3200 2000 L3200 0 L0 0  Z
  " fill="#ffffff" fill-rule="evenodd" fill-opacity="1"/>
<defs>
  <clipPath id="clip801">
    <rect x="640" y="0" width="2241" height="2000"/>
  </clipPath>
</defs>
<path clip-path="url(#clip800)" d="
M224.549 824.31 L3152.76 824.31 L3152.76 47.2441 L224.549 47.2441  Z
  " fill="#ffffff" fill-rule="evenodd" fill-opacity="1"/>
<defs>
  <clipPath id="clip802">
    <rect x="224" y="47" width="2929" height="778"/>
  </clipPath>
</defs>
<polyline clip-path="url(#clip802)" style="stroke:#000000; stroke-linecap:round; stroke-linejoin:round; stroke-width:2; stroke-opacity:0.1; fill:none" points="
  284.209,824.31 284.209,47.2441 
  "/>
<polyline clip-path="url(#clip802)" style="stroke:#000000; stroke-linecap:round; stroke-linejoin:round; stroke-width:2; stroke-opacity:0.1; fill:none" points="
  1058.01,824.31 1058.01,47.2441 
  "/>
<polyline clip-path="url(#clip802)" style="stroke:#000000; stroke-linecap:round; stroke-linejoin:round; stroke-width:2; stroke-opacity:0.1; fill:none" points="
  1831.81,824.31 1831.81,47.2441 
  "/>
<polyline clip-path="url(#clip802)" style="stroke:#000000; stroke-linecap:round; stroke-linejoin:round; stroke-width:2; stroke-opacity:0.1; fill:none" points="
  2605.6,824.31 2605.6,47.2441 
  "/>
<polyline clip-path="url(#clip800)" style="stroke:#000000; stroke-linecap:round; stroke-linejoin:round; stroke-width:4; stroke-opacity:1; fill:none" points="
  224.549,824.31 3152.76,824.31 
  "/>
<polyline clip-path="url(#clip800)" style="stroke:#000000; stroke-linecap:round; stroke-linejoin:round; stroke-width:4; stroke-opacity:1; fill:none" points="
  284.209,824.31 284.209,805.412 
  "/>
<polyline clip-path="url(#clip800)" style="stroke:#000000; stroke-linecap:round; stroke-linejoin:round; stroke-width:4; stroke-opacity:1; fill:none" points="
  1058.01,824.31 1058.01,805.412 
  "/>
<polyline clip-path="url(#clip800)" style="stroke:#000000; stroke-linecap:round; stroke-linejoin:round; stroke-width:4; stroke-opacity:1; fill:none" points="
  1831.81,824.31 1831.81,805.412 
  "/>
<polyline clip-path="url(#clip800)" style="stroke:#000000; stroke-linecap:round; stroke-linejoin:round; stroke-width:4; stroke-opacity:1; fill:none" points="
  2605.6,824.31 2605.6,805.412 
  "/>
<path clip-path="url(#clip800)" d="M284.209 861.629 Q280.598 861.629 278.769 865.193 Q276.964 868.735 276.964 875.865 Q276.964 882.971 278.769 886.536 Q280.598 890.077 284.209 890.077 Q287.843 890.077 289.649 886.536 Q291.477 882.971 291.477 875.865 Q291.477 868.735 289.649 865.193 Q287.843 861.629 284.209 861.629 M284.209 857.925 Q290.019 857.925 293.075 862.531 Q296.153 867.115 296.153 875.865 Q296.153 884.591 293.075 889.198 Q290.019 893.781 284.209 893.781 Q278.399 893.781 275.32 889.198 Q272.265 884.591 272.265 875.865 Q272.265 867.115 275.32 862.531 Q278.399 857.925 284.209 857.925 Z" fill="#000000" fill-rule="evenodd" fill-opacity="1" /><path clip-path="url(#clip800)" d="M1017.61 889.175 L1025.25 889.175 L1025.25 862.809 L1016.94 864.476 L1016.94 860.217 L1025.21 858.55 L1029.88 858.55 L1029.88 889.175 L1037.52 889.175 L1037.52 893.11 L1017.61 893.11 L1017.61 889.175 Z" fill="#000000" fill-rule="evenodd" fill-opacity="1" /><path clip-path="url(#clip800)" d="M1056.97 861.629 Q1053.35 861.629 1051.53 865.193 Q1049.72 868.735 1049.72 875.865 Q1049.72 882.971 1051.53 886.536 Q1053.35 890.077 1056.97 890.077 Q1060.6 890.077 1062.41 886.536 Q1064.23 882.971 1064.23 875.865 Q1064.23 868.735 1062.41 865.193 Q1060.6 861.629 1056.97 861.629 M1056.97 857.925 Q1062.78 857.925 1065.83 862.531 Q1068.91 867.115 1068.91 875.865 Q1068.91 884.591 1065.83 889.198 Q1062.78 893.781 1056.97 893.781 Q1051.16 893.781 1048.08 889.198 Q1045.02 884.591 1045.02 875.865 Q1045.02 867.115 1048.08 862.531 Q1051.16 857.925 1056.97 857.925 Z" fill="#000000" fill-rule="evenodd" fill-opacity="1" /><path clip-path="url(#clip800)" d="M1087.13 861.629 Q1083.52 861.629 1081.69 865.193 Q1079.88 868.735 1079.88 875.865 Q1079.88 882.971 1081.69 886.536 Q1083.52 890.077 1087.13 890.077 Q1090.76 890.077 1092.57 886.536 Q1094.4 882.971 1094.4 875.865 Q1094.4 868.735 1092.57 865.193 Q1090.76 861.629 1087.13 861.629 M1087.13 857.925 Q1092.94 857.925 1095.99 862.531 Q1099.07 867.115 1099.07 875.865 Q1099.07 884.591 1095.99 889.198 Q1092.94 893.781 1087.13 893.781 Q1081.32 893.781 1078.24 889.198 Q1075.18 884.591 1075.18 875.865 Q1075.18 867.115 1078.24 862.531 Q1081.32 857.925 1087.13 857.925 Z" fill="#000000" fill-rule="evenodd" fill-opacity="1" /><path clip-path="url(#clip800)" d="M1795.5 889.175 L1811.82 889.175 L1811.82 893.11 L1789.87 893.11 L1789.87 889.175 Q1792.53 886.42 1797.12 881.79 Q1801.72 877.138 1802.9 875.795 Q1805.15 873.272 1806.03 871.536 Q1806.93 869.777 1806.93 868.087 Q1806.93 865.332 1804.99 863.596 Q1803.07 861.86 1799.97 861.86 Q1797.77 861.86 1795.31 862.624 Q1792.88 863.388 1790.1 864.939 L1790.1 860.217 Q1792.93 859.082 1795.38 858.504 Q1797.84 857.925 1799.87 857.925 Q1805.24 857.925 1808.44 860.61 Q1811.63 863.295 1811.63 867.786 Q1811.63 869.916 1810.82 871.837 Q1810.03 873.735 1807.93 876.328 Q1807.35 876.999 1804.25 880.216 Q1801.15 883.411 1795.5 889.175 Z" fill="#000000" fill-rule="evenodd" fill-opacity="1" /><path clip-path="url(#clip800)" d="M1831.63 861.629 Q1828.02 861.629 1826.19 865.193 Q1824.39 868.735 1824.39 875.865 Q1824.39 882.971 1826.19 886.536 Q1828.02 890.077 1831.63 890.077 Q1835.27 890.077 1837.07 886.536 Q1838.9 882.971 1838.9 875.865 Q1838.9 868.735 1837.07 865.193 Q1835.27 861.629 1831.63 861.629 M1831.63 857.925 Q1837.44 857.925 1840.5 862.531 Q1843.58 867.115 1843.58 875.865 Q1843.58 884.591 1840.5 889.198 Q1837.44 893.781 1831.63 893.781 Q1825.82 893.781 1822.74 889.198 Q1819.69 884.591 1819.69 875.865 Q1819.69 867.115 1822.74 862.531 Q1825.82 857.925 1831.63 857.925 Z" fill="#000000" fill-rule="evenodd" fill-opacity="1" /><path clip-path="url(#clip800)" d="M1861.79 861.629 Q1858.18 861.629 1856.35 865.193 Q1854.55 868.735 1854.55 875.865 Q1854.55 882.971 1856.35 886.536 Q1858.18 890.077 1861.79 890.077 Q1865.43 890.077 1867.23 886.536 Q1869.06 882.971 1869.06 875.865 Q1869.06 868.735 1867.23 865.193 Q1865.43 861.629 1861.79 861.629 M1861.79 857.925 Q1867.6 857.925 1870.66 862.531 Q1873.74 867.115 1873.74 875.865 Q1873.74 884.591 1870.66 889.198 Q1867.6 893.781 1861.79 893.781 Q1855.98 893.781 1852.9 889.198 Q1849.85 884.591 1849.85 875.865 Q1849.85 867.115 1852.9 862.531 Q1855.98 857.925 1861.79 857.925 Z" fill="#000000" fill-rule="evenodd" fill-opacity="1" /><path clip-path="url(#clip800)" d="M2579.36 874.476 Q2582.72 875.193 2584.6 877.462 Q2586.49 879.73 2586.49 883.064 Q2586.49 888.179 2582.98 890.98 Q2579.46 893.781 2572.98 893.781 Q2570.8 893.781 2568.49 893.341 Q2566.19 892.925 2563.74 892.068 L2563.74 887.554 Q2565.68 888.689 2568 889.267 Q2570.31 889.846 2572.84 889.846 Q2577.24 889.846 2579.53 888.11 Q2581.84 886.374 2581.84 883.064 Q2581.84 880.008 2579.69 878.295 Q2577.56 876.559 2573.74 876.559 L2569.71 876.559 L2569.71 872.716 L2573.93 872.716 Q2577.37 872.716 2579.2 871.351 Q2581.03 869.962 2581.03 867.369 Q2581.03 864.707 2579.13 863.295 Q2577.26 861.86 2573.74 861.86 Q2571.82 861.86 2569.62 862.277 Q2567.42 862.693 2564.78 863.573 L2564.78 859.406 Q2567.44 858.666 2569.76 858.295 Q2572.1 857.925 2574.16 857.925 Q2579.48 857.925 2582.58 860.355 Q2585.68 862.763 2585.68 866.883 Q2585.68 869.753 2584.04 871.744 Q2582.4 873.712 2579.36 874.476 Z" fill="#000000" fill-rule="evenodd" fill-opacity="1" /><path clip-path="url(#clip800)" d="M2605.36 861.629 Q2601.75 861.629 2599.92 865.193 Q2598.11 868.735 2598.11 875.865 Q2598.11 882.971 2599.92 886.536 Q2601.75 890.077 2605.36 890.077 Q2608.99 890.077 2610.8 886.536 Q2612.63 882.971 2612.63 875.865 Q2612.63 868.735 2610.8 865.193 Q2608.99 861.629 2605.36 861.629 M2605.36 857.925 Q2611.17 857.925 2614.23 862.531 Q2617.3 867.115 2617.3 875.865 Q2617.3 884.591 2614.23 889.198 Q2611.17 893.781 2605.36 893.781 Q2599.55 893.781 2596.47 889.198 Q2593.42 884.591 2593.42 875.865 Q2593.42 867.115 2596.47 862.531 Q2599.55 857.925 2605.36 857.925 Z" fill="#000000" fill-rule="evenodd" fill-opacity="1" /><path clip-path="url(#clip800)" d="M2635.52 861.629 Q2631.91 861.629 2630.08 865.193 Q2628.28 868.735 2628.28 875.865 Q2628.28 882.971 2630.08 886.536 Q2631.91 890.077 2635.52 890.077 Q2639.16 890.077 2640.96 886.536 Q2642.79 882.971 2642.79 875.865 Q2642.79 868.735 2640.96 865.193 Q2639.16 861.629 2635.52 861.629 M2635.52 857.925 Q2641.33 857.925 2644.39 862.531 Q2647.47 867.115 2647.47 875.865 Q2647.47 884.591 2644.39 889.198 Q2641.33 893.781 2635.52 893.781 Q2629.71 893.781 2626.63 889.198 Q2623.58 884.591 2623.58 875.865 Q2623.58 867.115 2626.63 862.531 Q2629.71 857.925 2635.52 857.925 Z" fill="#000000" fill-rule="evenodd" fill-opacity="1" /><path clip-path="url(#clip800)" d="M1558.82 933.654 L1599.02 933.654 L1599.02 939.065 L1582.15 939.065 L1582.15 981.174 L1575.69 981.174 L1575.69 939.065 L1558.82 939.065 L1558.82 933.654 Z" fill="#000000" fill-rule="evenodd" fill-opacity="1" /><path clip-path="url(#clip800)" d="M1602.97 945.526 L1608.83 945.526 L1608.83 981.174 L1602.97 981.174 L1602.97 945.526 M1602.97 931.649 L1608.83 931.649 L1608.83 939.065 L1602.97 939.065 L1602.97 931.649 Z" fill="#000000" fill-rule="evenodd" fill-opacity="1" /><path clip-path="url(#clip800)" d="M1648.83 952.369 Q1651.03 948.422 1654.09 946.544 Q1657.14 944.667 1661.28 944.667 Q1666.85 944.667 1669.87 948.581 Q1672.9 952.465 1672.9 959.658 L1672.9 981.174 L1667.01 981.174 L1667.01 959.849 Q1667.01 954.724 1665.19 952.242 Q1663.38 949.759 1659.66 949.759 Q1655.11 949.759 1652.46 952.783 Q1649.82 955.807 1649.82 961.026 L1649.82 981.174 L1643.93 981.174 L1643.93 959.849 Q1643.93 954.693 1642.12 952.242 Q1640.3 949.759 1636.52 949.759 Q1632.03 949.759 1629.39 952.815 Q1626.75 955.838 1626.75 961.026 L1626.75 981.174 L1620.86 981.174 L1620.86 945.526 L1626.75 945.526 L1626.75 951.064 Q1628.75 947.786 1631.55 946.226 Q1634.35 944.667 1638.2 944.667 Q1642.09 944.667 1644.79 946.64 Q1647.53 948.613 1648.83 952.369 Z" fill="#000000" fill-rule="evenodd" fill-opacity="1" /><path clip-path="url(#clip800)" d="M1715.07 961.886 L1715.07 964.75 L1688.14 964.75 Q1688.53 970.798 1691.77 973.981 Q1695.05 977.132 1700.87 977.132 Q1704.25 977.132 1707.4 976.304 Q1710.58 975.477 1713.7 973.821 L1713.7 979.36 Q1710.55 980.696 1707.24 981.397 Q1703.93 982.097 1700.52 982.097 Q1691.99 982.097 1687 977.132 Q1682.03 972.166 1682.03 963.7 Q1682.03 954.947 1686.74 949.823 Q1691.49 944.667 1699.51 944.667 Q1706.7 944.667 1710.87 949.313 Q1715.07 953.929 1715.07 961.886 M1709.21 960.167 Q1709.15 955.361 1706.51 952.496 Q1703.9 949.632 1699.57 949.632 Q1694.67 949.632 1691.71 952.401 Q1688.78 955.17 1688.33 960.199 L1709.21 960.167 Z" fill="#000000" fill-rule="evenodd" fill-opacity="1" /><path clip-path="url(#clip800)" d="M1759.47 931.712 Q1755.21 939.033 1753.14 946.194 Q1751.07 953.356 1751.07 960.708 Q1751.07 968.06 1753.14 975.286 Q1755.24 982.479 1759.47 989.768 L1754.38 989.768 Q1749.6 982.288 1747.22 975.063 Q1744.86 967.838 1744.86 960.708 Q1744.86 953.61 1747.22 946.417 Q1749.57 939.224 1754.38 931.712 L1759.47 931.712 Z" fill="#000000" fill-rule="evenodd" fill-opacity="1" /><path clip-path="url(#clip800)" d="M1793.56 946.576 L1793.56 952.114 Q1791.08 950.841 1788.4 950.205 Q1785.73 949.568 1782.86 949.568 Q1778.5 949.568 1776.31 950.905 Q1774.14 952.242 1774.14 954.915 Q1774.14 956.952 1775.7 958.13 Q1777.26 959.276 1781.97 960.326 L1783.98 960.772 Q1790.22 962.109 1792.83 964.559 Q1795.47 966.978 1795.47 971.339 Q1795.47 976.304 1791.52 979.2 Q1787.61 982.097 1780.73 982.097 Q1777.87 982.097 1774.75 981.524 Q1771.66 980.983 1768.22 979.869 L1768.22 973.821 Q1771.47 975.508 1774.62 976.368 Q1777.77 977.195 1780.86 977.195 Q1785 977.195 1787.23 975.795 Q1789.45 974.363 1789.45 971.784 Q1789.45 969.397 1787.83 968.124 Q1786.24 966.851 1780.8 965.673 L1778.76 965.196 Q1773.32 964.05 1770.9 961.695 Q1768.48 959.308 1768.48 955.17 Q1768.48 950.141 1772.04 947.404 Q1775.61 944.667 1782.16 944.667 Q1785.41 944.667 1788.28 945.144 Q1791.14 945.621 1793.56 946.576 Z" fill="#000000" fill-rule="evenodd" fill-opacity="1" /><path clip-path="url(#clip800)" d="M1803.87 931.712 L1808.96 931.712 Q1813.74 939.224 1816.09 946.417 Q1818.48 953.61 1818.48 960.708 Q1818.48 967.838 1816.09 975.063 Q1813.74 982.288 1808.96 989.768 L1803.87 989.768 Q1808.1 982.479 1810.17 975.286 Q1812.27 968.06 1812.27 960.708 Q1812.27 953.356 1810.17 946.194 Q1808.1 939.033 1803.87 931.712 Z" fill="#000000" fill-rule="evenodd" fill-opacity="1" /><polyline clip-path="url(#clip802)" style="stroke:#000000; stroke-linecap:round; stroke-linejoin:round; stroke-width:2; stroke-opacity:0.1; fill:none" points="
  224.549,808.241 3152.76,808.241 
  "/>
<polyline clip-path="url(#clip802)" style="stroke:#000000; stroke-linecap:round; stroke-linejoin:round; stroke-width:2; stroke-opacity:0.1; fill:none" points="
  224.549,603.005 3152.76,603.005 
  "/>
<polyline clip-path="url(#clip802)" style="stroke:#000000; stroke-linecap:round; stroke-linejoin:round; stroke-width:2; stroke-opacity:0.1; fill:none" points="
  224.549,397.77 3152.76,397.77 
  "/>
<polyline clip-path="url(#clip802)" style="stroke:#000000; stroke-linecap:round; stroke-linejoin:round; stroke-width:2; stroke-opacity:0.1; fill:none" points="
  224.549,192.534 3152.76,192.534 
  "/>
<polyline clip-path="url(#clip800)" style="stroke:#000000; stroke-linecap:round; stroke-linejoin:round; stroke-width:4; stroke-opacity:1; fill:none" points="
  224.549,824.31 224.549,47.2441 
  "/>
<polyline clip-path="url(#clip800)" style="stroke:#000000; stroke-linecap:round; stroke-linejoin:round; stroke-width:4; stroke-opacity:1; fill:none" points="
  224.549,808.241 243.447,808.241 
  "/>
<polyline clip-path="url(#clip800)" style="stroke:#000000; stroke-linecap:round; stroke-linejoin:round; stroke-width:4; stroke-opacity:1; fill:none" points="
  224.549,603.005 243.447,603.005 
  "/>
<polyline clip-path="url(#clip800)" style="stroke:#000000; stroke-linecap:round; stroke-linejoin:round; stroke-width:4; stroke-opacity:1; fill:none" points="
  224.549,397.77 243.447,397.77 
  "/>
<polyline clip-path="url(#clip800)" style="stroke:#000000; stroke-linecap:round; stroke-linejoin:round; stroke-width:4; stroke-opacity:1; fill:none" points="
  224.549,192.534 243.447,192.534 
  "/>
<path clip-path="url(#clip800)" d="M164.605 794.039 Q160.994 794.039 159.165 797.604 Q157.359 801.146 157.359 808.275 Q157.359 815.382 159.165 818.947 Q160.994 822.488 164.605 822.488 Q168.239 822.488 170.044 818.947 Q171.873 815.382 171.873 808.275 Q171.873 801.146 170.044 797.604 Q168.239 794.039 164.605 794.039 M164.605 790.336 Q170.415 790.336 173.47 794.942 Q176.549 799.525 176.549 808.275 Q176.549 817.002 173.47 821.609 Q170.415 826.192 164.605 826.192 Q158.795 826.192 155.716 821.609 Q152.66 817.002 152.66 808.275 Q152.66 799.525 155.716 794.942 Q158.795 790.336 164.605 790.336 Z" fill="#000000" fill-rule="evenodd" fill-opacity="1" /><path clip-path="url(#clip800)" d="M125.253 616.35 L132.892 616.35 L132.892 589.984 L124.582 591.651 L124.582 587.392 L132.846 585.725 L137.521 585.725 L137.521 616.35 L145.16 616.35 L145.16 620.285 L125.253 620.285 L125.253 616.35 Z" fill="#000000" fill-rule="evenodd" fill-opacity="1" /><path clip-path="url(#clip800)" d="M164.605 588.804 Q160.994 588.804 159.165 592.369 Q157.359 595.91 157.359 603.04 Q157.359 610.146 159.165 613.711 Q160.994 617.253 164.605 617.253 Q168.239 617.253 170.044 613.711 Q171.873 610.146 171.873 603.04 Q171.873 595.91 170.044 592.369 Q168.239 588.804 164.605 588.804 M164.605 585.1 Q170.415 585.1 173.47 589.707 Q176.549 594.29 176.549 603.04 Q176.549 611.767 173.47 616.373 Q170.415 620.956 164.605 620.956 Q158.795 620.956 155.716 616.373 Q152.66 611.767 152.66 603.04 Q152.66 594.29 155.716 589.707 Q158.795 585.1 164.605 585.1 Z" fill="#000000" fill-rule="evenodd" fill-opacity="1" /><path clip-path="url(#clip800)" d="M128.471 411.114 L144.79 411.114 L144.79 415.05 L122.846 415.05 L122.846 411.114 Q125.508 408.36 130.091 403.73 Q134.697 399.078 135.878 397.735 Q138.123 395.212 139.003 393.476 Q139.906 391.716 139.906 390.027 Q139.906 387.272 137.961 385.536 Q136.04 383.8 132.938 383.8 Q130.739 383.8 128.285 384.564 Q125.855 385.328 123.077 386.879 L123.077 382.156 Q125.901 381.022 128.355 380.443 Q130.809 379.865 132.846 379.865 Q138.216 379.865 141.41 382.55 Q144.605 385.235 144.605 389.726 Q144.605 391.855 143.795 393.777 Q143.008 395.675 140.901 398.267 Q140.322 398.939 137.221 402.156 Q134.119 405.351 128.471 411.114 Z" fill="#000000" fill-rule="evenodd" fill-opacity="1" /><path clip-path="url(#clip800)" d="M164.605 383.568 Q160.994 383.568 159.165 387.133 Q157.359 390.675 157.359 397.804 Q157.359 404.911 159.165 408.476 Q160.994 412.017 164.605 412.017 Q168.239 412.017 170.044 408.476 Q171.873 404.911 171.873 397.804 Q171.873 390.675 170.044 387.133 Q168.239 383.568 164.605 383.568 M164.605 379.865 Q170.415 379.865 173.47 384.471 Q176.549 389.054 176.549 397.804 Q176.549 406.531 173.47 411.138 Q170.415 415.721 164.605 415.721 Q158.795 415.721 155.716 411.138 Q152.66 406.531 152.66 397.804 Q152.66 389.054 155.716 384.471 Q158.795 379.865 164.605 379.865 Z" fill="#000000" fill-rule="evenodd" fill-opacity="1" /><path clip-path="url(#clip800)" d="M138.609 191.18 Q141.966 191.898 143.841 194.166 Q145.739 196.435 145.739 199.768 Q145.739 204.884 142.221 207.685 Q138.702 210.485 132.221 210.485 Q130.045 210.485 127.73 210.046 Q125.438 209.629 122.985 208.772 L122.985 204.259 Q124.929 205.393 127.244 205.972 Q129.559 206.55 132.082 206.55 Q136.48 206.55 138.771 204.814 Q141.086 203.078 141.086 199.768 Q141.086 196.712 138.934 194.999 Q136.804 193.263 132.984 193.263 L128.957 193.263 L128.957 189.421 L133.17 189.421 Q136.619 189.421 138.447 188.055 Q140.276 186.666 140.276 184.074 Q140.276 181.412 138.378 179.999 Q136.503 178.564 132.984 178.564 Q131.063 178.564 128.864 178.981 Q126.665 179.398 124.026 180.277 L124.026 176.111 Q126.688 175.37 129.003 175 Q131.341 174.629 133.401 174.629 Q138.725 174.629 141.827 177.06 Q144.929 179.467 144.929 183.587 Q144.929 186.458 143.285 188.449 Q141.642 190.416 138.609 191.18 Z" fill="#000000" fill-rule="evenodd" fill-opacity="1" /><path clip-path="url(#clip800)" d="M164.605 178.333 Q160.994 178.333 159.165 181.898 Q157.359 185.439 157.359 192.569 Q157.359 199.675 159.165 203.24 Q160.994 206.782 164.605 206.782 Q168.239 206.782 170.044 203.24 Q171.873 199.675 171.873 192.569 Q171.873 185.439 170.044 181.898 Q168.239 178.333 164.605 178.333 M164.605 174.629 Q170.415 174.629 173.47 179.236 Q176.549 183.819 176.549 192.569 Q176.549 201.296 173.47 205.902 Q170.415 210.485 164.605 210.485 Q158.795 210.485 155.716 205.902 Q152.66 201.296 152.66 192.569 Q152.66 183.819 155.716 179.236 Q158.795 174.629 164.605 174.629 Z" fill="#000000" fill-rule="evenodd" fill-opacity="1" /><path clip-path="url(#clip800)" d="M24.9417 641.103 L42.2882 653.993 L60.5896 640.434 L60.5896 647.341 L46.5851 657.717 L60.5896 668.093 L60.5896 675 L41.9381 661.155 L24.9417 673.823 L24.9417 666.916 L37.6413 657.463 L24.9417 648.01 L24.9417 641.103 Z" fill="#000000" fill-rule="evenodd" fill-opacity="1" /><path clip-path="url(#clip800)" d="M18.3532 604.755 L36.209 604.755 L36.209 596.67 Q36.209 592.182 33.8855 589.732 Q31.562 587.281 27.2652 587.281 Q23.0001 587.281 20.6766 589.732 Q18.3532 592.182 18.3532 596.67 L18.3532 604.755 M13.0696 611.184 L13.0696 596.67 Q13.0696 588.681 16.6981 584.607 Q20.2947 580.501 27.2652 580.501 Q34.2993 580.501 37.8959 584.607 Q41.4925 588.681 41.4925 596.67 L41.4925 604.755 L60.5896 604.755 L60.5896 611.184 L13.0696 611.184 Z" fill="#000000" fill-rule="evenodd" fill-opacity="1" /><path clip-path="url(#clip800)" d="M29.0476 560.64 Q29.0476 565.351 32.7397 568.088 Q36.3999 570.825 42.7975 570.825 Q49.195 570.825 52.8871 568.12 Q56.5474 565.383 56.5474 560.64 Q56.5474 555.962 52.8553 553.224 Q49.1632 550.487 42.7975 550.487 Q36.4636 550.487 32.7715 553.224 Q29.0476 555.962 29.0476 560.64 M24.0823 560.64 Q24.0823 553.001 29.0476 548.641 Q34.0128 544.28 42.7975 544.28 Q51.5503 544.28 56.5474 548.641 Q61.5127 553.001 61.5127 560.64 Q61.5127 568.311 56.5474 572.671 Q51.5503 577 42.7975 577 Q34.0128 577 29.0476 572.671 Q24.0823 568.311 24.0823 560.64 Z" fill="#000000" fill-rule="evenodd" fill-opacity="1" /><path clip-path="url(#clip800)" d="M25.992 511.847 L31.5302 511.847 Q30.257 514.33 29.6205 517.003 Q28.9839 519.677 28.9839 522.542 Q28.9839 526.902 30.3207 529.098 Q31.6575 531.263 34.3311 531.263 Q36.3681 531.263 37.5458 529.703 Q38.6916 528.143 39.7419 523.433 L40.1875 521.428 Q41.5243 515.189 43.9751 512.579 Q46.3941 509.937 50.7546 509.937 Q55.7199 509.937 58.6163 513.884 Q61.5127 517.799 61.5127 524.674 Q61.5127 527.539 60.9397 530.658 Q60.3987 533.745 59.2847 537.183 L53.2372 537.183 Q54.9242 533.936 55.7835 530.785 Q56.6111 527.634 56.6111 524.547 Q56.6111 520.409 55.2106 518.181 Q53.7783 515.953 51.2002 515.953 Q48.8131 515.953 47.5399 517.576 Q46.2668 519.168 45.0891 524.61 L44.6117 526.647 Q43.4659 532.09 41.1106 534.509 Q38.7234 536.928 34.5857 536.928 Q29.5568 536.928 26.8196 533.363 Q24.0823 529.798 24.0823 523.242 Q24.0823 519.995 24.5597 517.131 Q25.0372 514.266 25.992 511.847 Z" fill="#000000" fill-rule="evenodd" fill-opacity="1" /><path clip-path="url(#clip800)" d="M24.9417 500.612 L24.9417 494.755 L60.5896 494.755 L60.5896 500.612 L24.9417 500.612 M11.0644 500.612 L11.0644 494.755 L18.4805 494.755 L18.4805 500.612 L11.0644 500.612 Z" fill="#000000" fill-rule="evenodd" fill-opacity="1" /><path clip-path="url(#clip800)" d="M14.8202 476.708 L24.9417 476.708 L24.9417 464.645 L29.4932 464.645 L29.4932 476.708 L48.8449 476.708 Q53.2054 476.708 54.4467 475.531 Q55.688 474.321 55.688 470.661 L55.688 464.645 L60.5896 464.645 L60.5896 470.661 Q60.5896 477.441 58.0752 480.019 Q55.5289 482.597 48.8449 482.597 L29.4932 482.597 L29.4932 486.894 L24.9417 486.894 L24.9417 482.597 L14.8202 482.597 L14.8202 476.708 Z" fill="#000000" fill-rule="evenodd" fill-opacity="1" /><path clip-path="url(#clip800)" d="M24.9417 456.943 L24.9417 451.086 L60.5896 451.086 L60.5896 456.943 L24.9417 456.943 M11.0644 456.943 L11.0644 451.086 L18.4805 451.086 L18.4805 456.943 L11.0644 456.943 Z" fill="#000000" fill-rule="evenodd" fill-opacity="1" /><path clip-path="url(#clip800)" d="M29.0476 425.019 Q29.0476 429.73 32.7397 432.467 Q36.3999 435.204 42.7975 435.204 Q49.195 435.204 52.8871 432.499 Q56.5474 429.761 56.5474 425.019 Q56.5474 420.34 52.8553 417.603 Q49.1632 414.866 42.7975 414.866 Q36.4636 414.866 32.7715 417.603 Q29.0476 420.34 29.0476 425.019 M24.0823 425.019 Q24.0823 417.38 29.0476 413.02 Q34.0128 408.659 42.7975 408.659 Q51.5503 408.659 56.5474 413.02 Q61.5127 417.38 61.5127 425.019 Q61.5127 432.69 56.5474 437.05 Q51.5503 441.379 42.7975 441.379 Q34.0128 441.379 29.0476 437.05 Q24.0823 432.69 24.0823 425.019 Z" fill="#000000" fill-rule="evenodd" fill-opacity="1" /><path clip-path="url(#clip800)" d="M39.0735 369.319 L60.5896 369.319 L60.5896 375.175 L39.2645 375.175 Q34.2038 375.175 31.6893 377.149 Q29.1749 379.122 29.1749 383.069 Q29.1749 387.811 32.1986 390.549 Q35.2223 393.286 40.4422 393.286 L60.5896 393.286 L60.5896 399.174 L24.9417 399.174 L24.9417 393.286 L30.4798 393.286 Q27.2652 391.185 25.6737 388.352 Q24.0823 385.488 24.0823 381.764 Q24.0823 375.621 27.9017 372.47 Q31.6893 369.319 39.0735 369.319 Z" fill="#000000" fill-rule="evenodd" fill-opacity="1" /><path clip-path="url(#clip800)" d="M11.1281 322.849 Q18.4487 327.114 25.6101 329.183 Q32.7715 331.252 40.1239 331.252 Q47.4763 331.252 54.7014 329.183 Q61.8946 327.083 69.1833 322.849 L69.1833 327.942 Q61.7036 332.716 54.4786 335.103 Q47.2535 337.459 40.1239 337.459 Q33.0261 337.459 25.8329 335.103 Q18.6396 332.748 11.1281 327.942 L11.1281 322.849 Z" fill="#000000" fill-rule="evenodd" fill-opacity="1" /><path clip-path="url(#clip800)" d="M11.0644 311.709 L11.0644 305.821 L40.3149 305.821 L24.9417 288.347 L24.9417 280.867 L41.6198 299.774 L60.5896 280.072 L60.5896 287.711 L43.1794 305.821 L60.5896 305.821 L60.5896 311.709 L11.0644 311.709 Z" fill="#000000" fill-rule="evenodd" fill-opacity="1" /><path clip-path="url(#clip800)" d="M31.7848 245.983 Q27.8381 243.787 25.9602 240.732 Q24.0823 237.676 24.0823 233.538 Q24.0823 227.968 27.9972 224.945 Q31.8803 221.921 39.0735 221.921 L60.5896 221.921 L60.5896 227.809 L39.2645 227.809 Q34.1401 227.809 31.6575 229.624 Q29.1749 231.438 29.1749 235.162 Q29.1749 239.713 32.1986 242.355 Q35.2223 244.997 40.4422 244.997 L60.5896 244.997 L60.5896 250.885 L39.2645 250.885 Q34.1083 250.885 31.6575 252.699 Q29.1749 254.513 29.1749 258.301 Q29.1749 262.789 32.2304 265.431 Q35.2541 268.072 40.4422 268.072 L60.5896 268.072 L60.5896 273.961 L24.9417 273.961 L24.9417 268.072 L30.4798 268.072 Q27.2015 266.067 25.6419 263.266 Q24.0823 260.465 24.0823 256.614 Q24.0823 252.731 26.0557 250.026 Q28.029 247.288 31.7848 245.983 Z" fill="#000000" fill-rule="evenodd" fill-opacity="1" /><path clip-path="url(#clip800)" d="M11.1281 211.163 L11.1281 206.07 Q18.6396 201.296 25.8329 198.941 Q33.0261 196.554 40.1239 196.554 Q47.2535 196.554 54.4786 198.941 Q61.7036 201.296 69.1833 206.07 L69.1833 211.163 Q61.8946 206.93 54.7014 204.861 Q47.4763 202.76 40.1239 202.76 Q32.7715 202.76 25.6101 204.861 Q18.4487 206.93 11.1281 211.163 Z" fill="#000000" fill-rule="evenodd" fill-opacity="1" /><polyline clip-path="url(#clip802)" style="stroke:#009af9; stroke-linecap:round; stroke-linejoin:round; stroke-width:4; stroke-opacity:1; fill:none" points="
  307.423,802.317 330.637,795.88 353.851,789.784 377.065,783.519 400.279,777.448 423.493,771.42 446.706,765.124 469.92,759.016 493.134,752.925 516.348,746.772 
  539.562,740.548 562.776,734.386 585.99,728.272 609.204,722.118 632.418,715.891 655.632,709.757 678.846,703.673 702.06,697.476 725.274,691.217 748.488,685.109 
  771.702,678.996 794.916,672.776 818.13,666.576 841.344,660.384 864.557,654.261 887.771,648.068 910.985,641.874 934.199,635.755 957.413,629.631 980.627,623.486 
  1003.84,617.221 1027.06,611.02 1050.27,604.866 1073.48,598.729 1096.7,592.545 1119.91,586.372 1143.12,580.27 1166.34,574.145 1189.55,567.974 1212.77,561.723 
  1235.98,555.614 1259.19,549.41 1282.41,543.322 1305.62,537.264 1328.84,531.155 1352.05,525.083 1375.26,518.963 1398.48,512.808 1421.69,506.66 1444.91,500.537 
  1468.12,494.397 1491.33,488.201 1514.55,482.117 1537.76,475.839 1560.98,469.743 1584.19,463.47 1607.4,457.289 1630.62,451.151 1653.83,444.951 1677.05,438.901 
  1700.26,432.741 1723.47,426.598 1746.69,420.404 1769.9,414.208 1793.12,408.138 1816.33,401.989 1839.54,395.686 1862.76,389.586 1885.97,383.487 1909.18,377.342 
  1932.4,371.183 1955.61,364.993 1978.83,358.884 2002.04,352.693 2025.25,346.512 2048.47,340.334 2071.68,334.176 2094.9,328.042 2118.11,321.999 2141.32,315.783 
  2164.54,309.697 2187.75,303.522 2210.97,297.216 2234.18,291.007 2257.39,284.862 2280.61,278.688 2303.82,272.506 2327.04,266.371 2350.25,260.217 2373.46,254.133 
  2396.68,247.941 2419.89,241.685 2443.11,235.559 2466.32,229.431 2489.53,223.208 2512.75,217.174 2535.96,211.005 2559.18,204.809 2582.39,198.627 2605.6,192.507 
  2628.82,186.436 2652.03,180.288 2675.25,174.094 2698.46,167.881 2721.67,161.66 2744.89,155.453 2768.1,149.304 2791.31,143.215 2814.53,137.127 2837.74,130.945 
  2860.96,124.849 2884.17,118.638 2907.38,112.455 2930.6,106.227 2953.81,100.047 2977.03,93.8526 3000.24,87.6663 3023.45,81.5001 3046.67,75.3987 3069.88,69.2365 
  
  "/>
<polyline clip-path="url(#clip802)" style="stroke:#e26f46; stroke-linecap:round; stroke-linejoin:round; stroke-width:4; stroke-opacity:1; fill:none" stroke-dasharray="16, 10" points="
  307.423,802.082 330.637,795.925 353.851,789.767 377.065,783.609 400.279,777.453 423.493,771.298 446.706,765.141 469.92,758.982 493.134,752.825 516.348,746.668 
  539.562,740.512 562.776,734.356 585.99,728.199 609.204,722.042 632.418,715.885 655.632,709.73 678.846,703.571 702.06,697.413 725.274,691.254 748.488,685.096 
  771.702,678.939 794.916,672.782 818.13,666.626 841.344,660.47 864.557,654.312 887.771,648.156 910.985,642 934.199,635.841 957.413,629.683 980.627,623.525 
  1003.84,617.37 1027.06,611.21 1050.27,605.053 1073.48,598.898 1096.7,592.741 1119.91,586.584 1143.12,580.425 1166.34,574.268 1189.55,568.111 1212.77,561.955 
  1235.98,555.797 1259.19,549.638 1282.41,543.482 1305.62,537.322 1328.84,531.165 1352.05,525.007 1375.26,518.85 1398.48,512.694 1421.69,506.538 1444.91,500.381 
  1468.12,494.223 1491.33,488.068 1514.55,481.912 1537.76,475.754 1560.98,469.598 1584.19,463.442 1607.4,457.284 1630.62,451.126 1653.83,444.969 1677.05,438.812 
  1700.26,432.658 1723.47,426.502 1746.69,420.345 1769.9,414.187 1793.12,408.027 1816.33,401.869 1839.54,395.711 1862.76,389.553 1885.97,383.397 1909.18,377.24 
  1932.4,371.083 1955.61,364.925 1978.83,358.77 2002.04,352.613 2025.25,346.456 2048.47,340.301 2071.68,334.143 2094.9,327.988 2118.11,321.831 2141.32,315.674 
  2164.54,309.517 2187.75,303.36 2210.97,297.202 2234.18,291.045 2257.39,284.889 2280.61,278.729 2303.82,272.574 2327.04,266.416 2350.25,260.258 2373.46,254.102 
  2396.68,247.944 2419.89,241.787 2443.11,235.63 2466.32,229.473 2489.53,223.318 2512.75,217.161 2535.96,211.004 2559.18,204.848 2582.39,198.691 2605.6,192.534 
  2628.82,186.378 2652.03,180.219 2675.25,174.062 2698.46,167.906 2721.67,161.749 2744.89,155.592 2768.1,149.435 2791.31,143.276 2814.53,137.119 2837.74,130.96 
  2860.96,124.804 2884.17,118.645 2907.38,112.489 2930.6,106.331 2953.81,100.176 2977.03,94.0209 3000.24,87.8646 3023.45,81.7085 3046.67,75.5524 3069.88,69.3953 
  
  "/>
<path clip-path="url(#clip800)" d="
M2361.44 798.408 L3055.15 798.408 L3055.15 642.888 L2361.44 642.888  Z
  " fill="#ffffff" fill-rule="evenodd" fill-opacity="1"/>
<polyline clip-path="url(#clip800)" style="stroke:#000000; stroke-linecap:round; stroke-linejoin:round; stroke-width:4; stroke-opacity:1; fill:none" points="
  2361.44,798.408 3055.15,798.408 3055.15,642.888 2361.44,642.888 2361.44,798.408 
  "/>
<polyline clip-path="url(#clip800)" style="stroke:#009af9; stroke-linecap:round; stroke-linejoin:round; stroke-width:4; stroke-opacity:1; fill:none" points="
  2393.97,694.728 2589.19,694.728 
  "/>
<path clip-path="url(#clip800)" d="M2621.72 677.448 L2641.58 677.448 L2641.58 681.383 L2626.4 681.383 L2626.4 691.568 L2640.1 691.568 L2640.1 695.503 L2626.4 695.503 L2626.4 712.008 L2621.72 712.008 L2621.72 677.448 Z" fill="#000000" fill-rule="evenodd" fill-opacity="1" /><path clip-path="url(#clip800)" d="M2645.36 686.082 L2649.62 686.082 L2649.62 712.008 L2645.36 712.008 L2645.36 686.082 M2645.36 675.989 L2649.62 675.989 L2649.62 681.383 L2645.36 681.383 L2645.36 675.989 Z" fill="#000000" fill-rule="evenodd" fill-opacity="1" /><path clip-path="url(#clip800)" d="M2658.53 675.989 L2662.79 675.989 L2662.79 712.008 L2658.53 712.008 L2658.53 675.989 Z" fill="#000000" fill-rule="evenodd" fill-opacity="1" /><path clip-path="url(#clip800)" d="M2675.91 678.721 L2675.91 686.082 L2684.69 686.082 L2684.69 689.392 L2675.91 689.392 L2675.91 703.466 Q2675.91 706.637 2676.77 707.54 Q2677.65 708.443 2680.31 708.443 L2684.69 708.443 L2684.69 712.008 L2680.31 712.008 Q2675.38 712.008 2673.51 710.179 Q2671.63 708.327 2671.63 703.466 L2671.63 689.392 L2668.51 689.392 L2668.51 686.082 L2671.63 686.082 L2671.63 678.721 L2675.91 678.721 Z" fill="#000000" fill-rule="evenodd" fill-opacity="1" /><path clip-path="url(#clip800)" d="M2712.46 697.98 L2712.46 700.063 L2692.88 700.063 Q2693.16 704.461 2695.52 706.776 Q2697.9 709.068 2702.14 709.068 Q2704.59 709.068 2706.88 708.466 Q2709.2 707.864 2711.47 706.66 L2711.47 710.688 Q2709.18 711.66 2706.77 712.17 Q2704.36 712.679 2701.88 712.679 Q2695.68 712.679 2692.05 709.068 Q2688.44 705.457 2688.44 699.299 Q2688.44 692.934 2691.86 689.207 Q2695.31 685.457 2701.14 685.457 Q2706.38 685.457 2709.41 688.836 Q2712.46 692.193 2712.46 697.98 M2708.2 696.73 Q2708.16 693.235 2706.24 691.151 Q2704.34 689.068 2701.19 689.068 Q2697.63 689.068 2695.47 691.082 Q2693.34 693.096 2693.02 696.753 L2708.2 696.73 Z" fill="#000000" fill-rule="evenodd" fill-opacity="1" /><path clip-path="url(#clip800)" d="M2734.48 690.063 Q2733.76 689.647 2732.9 689.461 Q2732.07 689.253 2731.05 689.253 Q2727.44 689.253 2725.5 691.614 Q2723.57 693.952 2723.57 698.35 L2723.57 712.008 L2719.29 712.008 L2719.29 686.082 L2723.57 686.082 L2723.57 690.11 Q2724.92 687.749 2727.07 686.614 Q2729.22 685.457 2732.3 685.457 Q2732.74 685.457 2733.27 685.526 Q2733.81 685.573 2734.45 685.688 L2734.48 690.063 Z" fill="#000000" fill-rule="evenodd" fill-opacity="1" /><polyline clip-path="url(#clip800)" style="stroke:#e26f46; stroke-linecap:round; stroke-linejoin:round; stroke-width:4; stroke-opacity:1; fill:none" stroke-dasharray="16, 10" points="
  2393.97,746.568 2589.19,746.568 
  "/>
<path clip-path="url(#clip800)" d="M2637.56 733.894 L2631.21 751.093 L2643.92 751.093 L2637.56 733.894 M2634.92 729.288 L2640.22 729.288 L2653.39 763.848 L2648.53 763.848 L2645.38 754.982 L2629.8 754.982 L2626.65 763.848 L2621.72 763.848 L2634.92 729.288 Z" fill="#000000" fill-rule="evenodd" fill-opacity="1" /><path clip-path="url(#clip800)" d="M2658.25 737.922 L2662.51 737.922 L2662.51 763.848 L2658.25 763.848 L2658.25 737.922 M2658.25 727.829 L2662.51 727.829 L2662.51 733.223 L2658.25 733.223 L2658.25 727.829 Z" fill="#000000" fill-rule="evenodd" fill-opacity="1" /><path clip-path="url(#clip800)" d="M2686.45 741.903 Q2685.73 741.487 2684.87 741.301 Q2684.04 741.093 2683.02 741.093 Q2679.41 741.093 2677.46 743.454 Q2675.54 745.792 2675.54 750.19 L2675.54 763.848 L2671.26 763.848 L2671.26 737.922 L2675.54 737.922 L2675.54 741.95 Q2676.88 739.589 2679.04 738.454 Q2681.19 737.297 2684.27 737.297 Q2684.71 737.297 2685.24 737.366 Q2685.77 737.413 2686.42 737.528 L2686.45 741.903 Z" fill="#000000" fill-rule="evenodd" fill-opacity="1" /><path clip-path="url(#clip800)" d="M2708.53 738.917 L2708.53 742.899 Q2706.72 741.903 2704.89 741.417 Q2703.09 740.908 2701.24 740.908 Q2697.09 740.908 2694.8 743.547 Q2692.51 746.163 2692.51 750.908 Q2692.51 755.653 2694.8 758.292 Q2697.09 760.908 2701.24 760.908 Q2703.09 760.908 2704.89 760.422 Q2706.72 759.912 2708.53 758.917 L2708.53 762.852 Q2706.75 763.686 2704.82 764.102 Q2702.93 764.519 2700.77 764.519 Q2694.92 764.519 2691.47 760.838 Q2688.02 757.158 2688.02 750.908 Q2688.02 744.565 2691.49 740.931 Q2694.99 737.297 2701.05 737.297 Q2703.02 737.297 2704.89 737.714 Q2706.77 738.107 2708.53 738.917 Z" fill="#000000" fill-rule="evenodd" fill-opacity="1" /><path clip-path="url(#clip800)" d="M2730.96 741.903 Q2730.24 741.487 2729.38 741.301 Q2728.55 741.093 2727.53 741.093 Q2723.92 741.093 2721.98 743.454 Q2720.06 745.792 2720.06 750.19 L2720.06 763.848 L2715.77 763.848 L2715.77 737.922 L2720.06 737.922 L2720.06 741.95 Q2721.4 739.589 2723.55 738.454 Q2725.7 737.297 2728.78 737.297 Q2729.22 737.297 2729.76 737.366 Q2730.29 737.413 2730.94 737.528 L2730.96 741.903 Z" fill="#000000" fill-rule="evenodd" fill-opacity="1" /><path clip-path="url(#clip800)" d="M2747.21 750.815 Q2742.05 750.815 2740.06 751.996 Q2738.07 753.176 2738.07 756.024 Q2738.07 758.292 2739.55 759.635 Q2741.05 760.954 2743.62 760.954 Q2747.16 760.954 2749.29 758.454 Q2751.44 755.931 2751.44 751.764 L2751.44 750.815 L2747.21 750.815 M2755.7 749.056 L2755.7 763.848 L2751.44 763.848 L2751.44 759.912 Q2749.99 762.274 2747.81 763.408 Q2745.63 764.519 2742.49 764.519 Q2738.51 764.519 2736.14 762.297 Q2733.81 760.051 2733.81 756.301 Q2733.81 751.926 2736.72 749.704 Q2739.66 747.482 2745.47 747.482 L2751.44 747.482 L2751.44 747.065 Q2751.44 744.126 2749.5 742.528 Q2747.58 740.908 2744.08 740.908 Q2741.86 740.908 2739.76 741.44 Q2737.65 741.973 2735.7 743.038 L2735.7 739.102 Q2738.04 738.2 2740.24 737.76 Q2742.44 737.297 2744.52 737.297 Q2750.15 737.297 2752.93 740.214 Q2755.7 743.13 2755.7 749.056 Z" fill="#000000" fill-rule="evenodd" fill-opacity="1" /><path clip-path="url(#clip800)" d="M2777.6 727.829 L2777.6 731.371 L2773.53 731.371 Q2771.24 731.371 2770.33 732.297 Q2769.45 733.223 2769.45 735.63 L2769.45 737.922 L2776.47 737.922 L2776.47 741.232 L2769.45 741.232 L2769.45 763.848 L2765.17 763.848 L2765.17 741.232 L2761.1 741.232 L2761.1 737.922 L2765.17 737.922 L2765.17 736.116 Q2765.17 731.788 2767.19 729.82 Q2769.2 727.829 2773.57 727.829 L2777.6 727.829 Z" fill="#000000" fill-rule="evenodd" fill-opacity="1" /><path clip-path="url(#clip800)" d="M2784.55 730.561 L2784.55 737.922 L2793.32 737.922 L2793.32 741.232 L2784.55 741.232 L2784.55 755.306 Q2784.55 758.477 2785.4 759.38 Q2786.28 760.283 2788.94 760.283 L2793.32 760.283 L2793.32 763.848 L2788.94 763.848 Q2784.01 763.848 2782.14 762.019 Q2780.26 760.167 2780.26 755.306 L2780.26 741.232 L2777.14 741.232 L2777.14 737.922 L2780.26 737.922 L2780.26 730.561 L2784.55 730.561 Z" fill="#000000" fill-rule="evenodd" fill-opacity="1" /><path clip-path="url(#clip800)" d="M2818.85 733.13 L2818.85 746.116 L2824.73 746.116 Q2828 746.116 2829.78 744.426 Q2831.56 742.737 2831.56 739.612 Q2831.56 736.51 2829.78 734.82 Q2828 733.13 2824.73 733.13 L2818.85 733.13 M2814.18 729.288 L2824.73 729.288 Q2830.54 729.288 2833.5 731.927 Q2836.49 734.542 2836.49 739.612 Q2836.49 744.727 2833.5 747.343 Q2830.54 749.959 2824.73 749.959 L2818.85 749.959 L2818.85 763.848 L2814.18 763.848 L2814.18 729.288 Z" fill="#000000" fill-rule="evenodd" fill-opacity="1" /><path clip-path="url(#clip800)" d="M2850.93 740.908 Q2847.51 740.908 2845.52 743.593 Q2843.53 746.255 2843.53 750.908 Q2843.53 755.561 2845.5 758.246 Q2847.49 760.908 2850.93 760.908 Q2854.34 760.908 2856.33 758.223 Q2858.32 755.538 2858.32 750.908 Q2858.32 746.301 2856.33 743.616 Q2854.34 740.908 2850.93 740.908 M2850.93 737.297 Q2856.49 737.297 2859.66 740.908 Q2862.83 744.519 2862.83 750.908 Q2862.83 757.274 2859.66 760.908 Q2856.49 764.519 2850.93 764.519 Q2845.36 764.519 2842.19 760.908 Q2839.04 757.274 2839.04 750.908 Q2839.04 744.519 2842.19 740.908 Q2845.36 737.297 2850.93 737.297 Z" fill="#000000" fill-rule="evenodd" fill-opacity="1" /><path clip-path="url(#clip800)" d="M2886.42 738.686 L2886.42 742.714 Q2884.62 741.788 2882.67 741.325 Q2880.73 740.862 2878.64 740.862 Q2875.47 740.862 2873.87 741.834 Q2872.3 742.806 2872.3 744.751 Q2872.3 746.232 2873.43 747.088 Q2874.57 747.922 2878 748.686 L2879.45 749.01 Q2883.99 749.982 2885.89 751.764 Q2887.81 753.524 2887.81 756.695 Q2887.81 760.306 2884.94 762.412 Q2882.09 764.519 2877.09 764.519 Q2875.01 764.519 2872.74 764.102 Q2870.5 763.709 2868 762.899 L2868 758.5 Q2870.36 759.727 2872.65 760.352 Q2874.94 760.954 2877.18 760.954 Q2880.19 760.954 2881.81 759.936 Q2883.43 758.894 2883.43 757.019 Q2883.43 755.283 2882.25 754.357 Q2881.1 753.431 2877.14 752.575 L2875.66 752.227 Q2871.7 751.394 2869.94 749.681 Q2868.18 747.945 2868.18 744.936 Q2868.18 741.278 2870.77 739.288 Q2873.37 737.297 2878.13 737.297 Q2880.5 737.297 2882.58 737.644 Q2884.66 737.991 2886.42 738.686 Z" fill="#000000" fill-rule="evenodd" fill-opacity="1" /><path clip-path="url(#clip800)" d="M2894.59 737.922 L2898.85 737.922 L2898.85 763.848 L2894.59 763.848 L2894.59 737.922 M2894.59 727.829 L2898.85 727.829 L2898.85 733.223 L2894.59 733.223 L2894.59 727.829 Z" fill="#000000" fill-rule="evenodd" fill-opacity="1" /><path clip-path="url(#clip800)" d="M2911.98 730.561 L2911.98 737.922 L2920.75 737.922 L2920.75 741.232 L2911.98 741.232 L2911.98 755.306 Q2911.98 758.477 2912.83 759.38 Q2913.71 760.283 2916.37 760.283 L2920.75 760.283 L2920.75 763.848 L2916.37 763.848 Q2911.44 763.848 2909.57 762.019 Q2907.69 760.167 2907.69 755.306 L2907.69 741.232 L2904.57 741.232 L2904.57 737.922 L2907.69 737.922 L2907.69 730.561 L2911.98 730.561 Z" fill="#000000" fill-rule="evenodd" fill-opacity="1" /><path clip-path="url(#clip800)" d="M2926.35 737.922 L2930.61 737.922 L2930.61 763.848 L2926.35 763.848 L2926.35 737.922 M2926.35 727.829 L2930.61 727.829 L2930.61 733.223 L2926.35 733.223 L2926.35 727.829 Z" fill="#000000" fill-rule="evenodd" fill-opacity="1" /><path clip-path="url(#clip800)" d="M2949.57 740.908 Q2946.14 740.908 2944.15 743.593 Q2942.16 746.255 2942.16 750.908 Q2942.16 755.561 2944.13 758.246 Q2946.12 760.908 2949.57 760.908 Q2952.97 760.908 2954.96 758.223 Q2956.95 755.538 2956.95 750.908 Q2956.95 746.301 2954.96 743.616 Q2952.97 740.908 2949.57 740.908 M2949.57 737.297 Q2955.12 737.297 2958.3 740.908 Q2961.47 744.519 2961.47 750.908 Q2961.47 757.274 2958.3 760.908 Q2955.12 764.519 2949.57 764.519 Q2943.99 764.519 2940.82 760.908 Q2937.67 757.274 2937.67 750.908 Q2937.67 744.519 2940.82 740.908 Q2943.99 737.297 2949.57 737.297 Z" fill="#000000" fill-rule="evenodd" fill-opacity="1" /><path clip-path="url(#clip800)" d="M2990.08 748.2 L2990.08 763.848 L2985.82 763.848 L2985.82 748.338 Q2985.82 744.658 2984.38 742.829 Q2982.95 741.001 2980.08 741.001 Q2976.63 741.001 2974.64 743.2 Q2972.65 745.399 2972.65 749.195 L2972.65 763.848 L2968.36 763.848 L2968.36 737.922 L2972.65 737.922 L2972.65 741.95 Q2974.18 739.612 2976.24 738.454 Q2978.32 737.297 2981.03 737.297 Q2985.49 737.297 2987.79 740.075 Q2990.08 742.829 2990.08 748.2 Z" fill="#000000" fill-rule="evenodd" fill-opacity="1" /><path clip-path="url(#clip800)" d="
M224.549 1824.31 L3152.76 1824.31 L3152.76 1047.24 L224.549 1047.24  Z
  " fill="#ffffff" fill-rule="evenodd" fill-opacity="1"/>
<defs>
  <clipPath id="clip803">
    <rect x="224" y="1047" width="2929" height="778"/>
  </clipPath>
</defs>
<polyline clip-path="url(#clip803)" style="stroke:#000000; stroke-linecap:round; stroke-linejoin:round; stroke-width:2; stroke-opacity:0.1; fill:none" points="
  284.209,1824.31 284.209,1047.24 
  "/>
<polyline clip-path="url(#clip803)" style="stroke:#000000; stroke-linecap:round; stroke-linejoin:round; stroke-width:2; stroke-opacity:0.1; fill:none" points="
  1058.01,1824.31 1058.01,1047.24 
  "/>
<polyline clip-path="url(#clip803)" style="stroke:#000000; stroke-linecap:round; stroke-linejoin:round; stroke-width:2; stroke-opacity:0.1; fill:none" points="
  1831.81,1824.31 1831.81,1047.24 
  "/>
<polyline clip-path="url(#clip803)" style="stroke:#000000; stroke-linecap:round; stroke-linejoin:round; stroke-width:2; stroke-opacity:0.1; fill:none" points="
  2605.6,1824.31 2605.6,1047.24 
  "/>
<polyline clip-path="url(#clip800)" style="stroke:#000000; stroke-linecap:round; stroke-linejoin:round; stroke-width:4; stroke-opacity:1; fill:none" points="
  224.549,1824.31 3152.76,1824.31 
  "/>
<polyline clip-path="url(#clip800)" style="stroke:#000000; stroke-linecap:round; stroke-linejoin:round; stroke-width:4; stroke-opacity:1; fill:none" points="
  284.209,1824.31 284.209,1805.41 
  "/>
<polyline clip-path="url(#clip800)" style="stroke:#000000; stroke-linecap:round; stroke-linejoin:round; stroke-width:4; stroke-opacity:1; fill:none" points="
  1058.01,1824.31 1058.01,1805.41 
  "/>
<polyline clip-path="url(#clip800)" style="stroke:#000000; stroke-linecap:round; stroke-linejoin:round; stroke-width:4; stroke-opacity:1; fill:none" points="
  1831.81,1824.31 1831.81,1805.41 
  "/>
<polyline clip-path="url(#clip800)" style="stroke:#000000; stroke-linecap:round; stroke-linejoin:round; stroke-width:4; stroke-opacity:1; fill:none" points="
  2605.6,1824.31 2605.6,1805.41 
  "/>
<path clip-path="url(#clip800)" d="M284.209 1861.63 Q280.598 1861.63 278.769 1865.19 Q276.964 1868.73 276.964 1875.86 Q276.964 1882.97 278.769 1886.54 Q280.598 1890.08 284.209 1890.08 Q287.843 1890.08 289.649 1886.54 Q291.477 1882.97 291.477 1875.86 Q291.477 1868.73 289.649 1865.19 Q287.843 1861.63 284.209 1861.63 M284.209 1857.92 Q290.019 1857.92 293.075 1862.53 Q296.153 1867.11 296.153 1875.86 Q296.153 1884.59 293.075 1889.2 Q290.019 1893.78 284.209 1893.78 Q278.399 1893.78 275.32 1889.2 Q272.265 1884.59 272.265 1875.86 Q272.265 1867.11 275.32 1862.53 Q278.399 1857.92 284.209 1857.92 Z" fill="#000000" fill-rule="evenodd" fill-opacity="1" /><path clip-path="url(#clip800)" d="M1017.61 1889.17 L1025.25 1889.17 L1025.25 1862.81 L1016.94 1864.48 L1016.94 1860.22 L1025.21 1858.55 L1029.88 1858.55 L1029.88 1889.17 L1037.52 1889.17 L1037.52 1893.11 L1017.61 1893.11 L1017.61 1889.17 Z" fill="#000000" fill-rule="evenodd" fill-opacity="1" /><path clip-path="url(#clip800)" d="M1056.97 1861.63 Q1053.35 1861.63 1051.53 1865.19 Q1049.72 1868.73 1049.72 1875.86 Q1049.72 1882.97 1051.53 1886.54 Q1053.35 1890.08 1056.97 1890.08 Q1060.6 1890.08 1062.41 1886.54 Q1064.23 1882.97 1064.23 1875.86 Q1064.23 1868.73 1062.41 1865.19 Q1060.6 1861.63 1056.97 1861.63 M1056.97 1857.92 Q1062.78 1857.92 1065.83 1862.53 Q1068.91 1867.11 1068.91 1875.86 Q1068.91 1884.59 1065.83 1889.2 Q1062.78 1893.78 1056.97 1893.78 Q1051.16 1893.78 1048.08 1889.2 Q1045.02 1884.59 1045.02 1875.86 Q1045.02 1867.11 1048.08 1862.53 Q1051.16 1857.92 1056.97 1857.92 Z" fill="#000000" fill-rule="evenodd" fill-opacity="1" /><path clip-path="url(#clip800)" d="M1087.13 1861.63 Q1083.52 1861.63 1081.69 1865.19 Q1079.88 1868.73 1079.88 1875.86 Q1079.88 1882.97 1081.69 1886.54 Q1083.52 1890.08 1087.13 1890.08 Q1090.76 1890.08 1092.57 1886.54 Q1094.4 1882.97 1094.4 1875.86 Q1094.4 1868.73 1092.57 1865.19 Q1090.76 1861.63 1087.13 1861.63 M1087.13 1857.92 Q1092.94 1857.92 1095.99 1862.53 Q1099.07 1867.11 1099.07 1875.86 Q1099.07 1884.59 1095.99 1889.2 Q1092.94 1893.78 1087.13 1893.78 Q1081.32 1893.78 1078.24 1889.2 Q1075.18 1884.59 1075.18 1875.86 Q1075.18 1867.11 1078.24 1862.53 Q1081.32 1857.92 1087.13 1857.92 Z" fill="#000000" fill-rule="evenodd" fill-opacity="1" /><path clip-path="url(#clip800)" d="M1795.5 1889.17 L1811.82 1889.17 L1811.82 1893.11 L1789.87 1893.11 L1789.87 1889.17 Q1792.53 1886.42 1797.12 1881.79 Q1801.72 1877.14 1802.9 1875.8 Q1805.15 1873.27 1806.03 1871.54 Q1806.93 1869.78 1806.93 1868.09 Q1806.93 1865.33 1804.99 1863.6 Q1803.07 1861.86 1799.97 1861.86 Q1797.77 1861.86 1795.31 1862.62 Q1792.88 1863.39 1790.1 1864.94 L1790.1 1860.22 Q1792.93 1859.08 1795.38 1858.5 Q1797.84 1857.92 1799.87 1857.92 Q1805.24 1857.92 1808.44 1860.61 Q1811.63 1863.3 1811.63 1867.79 Q1811.63 1869.92 1810.82 1871.84 Q1810.03 1873.73 1807.93 1876.33 Q1807.35 1877 1804.25 1880.22 Q1801.15 1883.41 1795.5 1889.17 Z" fill="#000000" fill-rule="evenodd" fill-opacity="1" /><path clip-path="url(#clip800)" d="M1831.63 1861.63 Q1828.02 1861.63 1826.19 1865.19 Q1824.39 1868.73 1824.39 1875.86 Q1824.39 1882.97 1826.19 1886.54 Q1828.02 1890.08 1831.63 1890.08 Q1835.27 1890.08 1837.07 1886.54 Q1838.9 1882.97 1838.9 1875.86 Q1838.9 1868.73 1837.07 1865.19 Q1835.27 1861.63 1831.63 1861.63 M1831.63 1857.92 Q1837.44 1857.92 1840.5 1862.53 Q1843.58 1867.11 1843.58 1875.86 Q1843.58 1884.59 1840.5 1889.2 Q1837.44 1893.78 1831.63 1893.78 Q1825.82 1893.78 1822.74 1889.2 Q1819.69 1884.59 1819.69 1875.86 Q1819.69 1867.11 1822.74 1862.53 Q1825.82 1857.92 1831.63 1857.92 Z" fill="#000000" fill-rule="evenodd" fill-opacity="1" /><path clip-path="url(#clip800)" d="M1861.79 1861.63 Q1858.18 1861.63 1856.35 1865.19 Q1854.55 1868.73 1854.55 1875.86 Q1854.55 1882.97 1856.35 1886.54 Q1858.18 1890.08 1861.79 1890.08 Q1865.43 1890.08 1867.23 1886.54 Q1869.06 1882.97 1869.06 1875.86 Q1869.06 1868.73 1867.23 1865.19 Q1865.43 1861.63 1861.79 1861.63 M1861.79 1857.92 Q1867.6 1857.92 1870.66 1862.53 Q1873.74 1867.11 1873.74 1875.86 Q1873.74 1884.59 1870.66 1889.2 Q1867.6 1893.78 1861.79 1893.78 Q1855.98 1893.78 1852.9 1889.2 Q1849.85 1884.59 1849.85 1875.86 Q1849.85 1867.11 1852.9 1862.53 Q1855.98 1857.92 1861.79 1857.92 Z" fill="#000000" fill-rule="evenodd" fill-opacity="1" /><path clip-path="url(#clip800)" d="M2579.36 1874.48 Q2582.72 1875.19 2584.6 1877.46 Q2586.49 1879.73 2586.49 1883.06 Q2586.49 1888.18 2582.98 1890.98 Q2579.46 1893.78 2572.98 1893.78 Q2570.8 1893.78 2568.49 1893.34 Q2566.19 1892.92 2563.74 1892.07 L2563.74 1887.55 Q2565.68 1888.69 2568 1889.27 Q2570.31 1889.85 2572.84 1889.85 Q2577.24 1889.85 2579.53 1888.11 Q2581.84 1886.37 2581.84 1883.06 Q2581.84 1880.01 2579.69 1878.3 Q2577.56 1876.56 2573.74 1876.56 L2569.71 1876.56 L2569.71 1872.72 L2573.93 1872.72 Q2577.37 1872.72 2579.2 1871.35 Q2581.03 1869.96 2581.03 1867.37 Q2581.03 1864.71 2579.13 1863.3 Q2577.26 1861.86 2573.74 1861.86 Q2571.82 1861.86 2569.62 1862.28 Q2567.42 1862.69 2564.78 1863.57 L2564.78 1859.41 Q2567.44 1858.67 2569.76 1858.3 Q2572.1 1857.92 2574.16 1857.92 Q2579.48 1857.92 2582.58 1860.36 Q2585.68 1862.76 2585.68 1866.88 Q2585.68 1869.75 2584.04 1871.74 Q2582.4 1873.71 2579.36 1874.48 Z" fill="#000000" fill-rule="evenodd" fill-opacity="1" /><path clip-path="url(#clip800)" d="M2605.36 1861.63 Q2601.75 1861.63 2599.92 1865.19 Q2598.11 1868.73 2598.11 1875.86 Q2598.11 1882.97 2599.92 1886.54 Q2601.75 1890.08 2605.36 1890.08 Q2608.99 1890.08 2610.8 1886.54 Q2612.63 1882.97 2612.63 1875.86 Q2612.63 1868.73 2610.8 1865.19 Q2608.99 1861.63 2605.36 1861.63 M2605.36 1857.92 Q2611.17 1857.92 2614.23 1862.53 Q2617.3 1867.11 2617.3 1875.86 Q2617.3 1884.59 2614.23 1889.2 Q2611.17 1893.78 2605.36 1893.78 Q2599.55 1893.78 2596.47 1889.2 Q2593.42 1884.59 2593.42 1875.86 Q2593.42 1867.11 2596.47 1862.53 Q2599.55 1857.92 2605.36 1857.92 Z" fill="#000000" fill-rule="evenodd" fill-opacity="1" /><path clip-path="url(#clip800)" d="M2635.52 1861.63 Q2631.91 1861.63 2630.08 1865.19 Q2628.28 1868.73 2628.28 1875.86 Q2628.28 1882.97 2630.08 1886.54 Q2631.91 1890.08 2635.52 1890.08 Q2639.16 1890.08 2640.96 1886.54 Q2642.79 1882.97 2642.79 1875.86 Q2642.79 1868.73 2640.96 1865.19 Q2639.16 1861.63 2635.52 1861.63 M2635.52 1857.92 Q2641.33 1857.92 2644.39 1862.53 Q2647.47 1867.11 2647.47 1875.86 Q2647.47 1884.59 2644.39 1889.2 Q2641.33 1893.78 2635.52 1893.78 Q2629.71 1893.78 2626.63 1889.2 Q2623.58 1884.59 2623.58 1875.86 Q2623.58 1867.11 2626.63 1862.53 Q2629.71 1857.92 2635.52 1857.92 Z" fill="#000000" fill-rule="evenodd" fill-opacity="1" /><path clip-path="url(#clip800)" d="M1558.82 1933.65 L1599.02 1933.65 L1599.02 1939.06 L1582.15 1939.06 L1582.15 1981.17 L1575.69 1981.17 L1575.69 1939.06 L1558.82 1939.06 L1558.82 1933.65 Z" fill="#000000" fill-rule="evenodd" fill-opacity="1" /><path clip-path="url(#clip800)" d="M1602.97 1945.53 L1608.83 1945.53 L1608.83 1981.17 L1602.97 1981.17 L1602.97 1945.53 M1602.97 1931.65 L1608.83 1931.65 L1608.83 1939.06 L1602.97 1939.06 L1602.97 1931.65 Z" fill="#000000" fill-rule="evenodd" fill-opacity="1" /><path clip-path="url(#clip800)" d="M1648.83 1952.37 Q1651.03 1948.42 1654.09 1946.54 Q1657.14 1944.67 1661.28 1944.67 Q1666.85 1944.67 1669.87 1948.58 Q1672.9 1952.46 1672.9 1959.66 L1672.9 1981.17 L1667.01 1981.17 L1667.01 1959.85 Q1667.01 1954.72 1665.19 1952.24 Q1663.38 1949.76 1659.66 1949.76 Q1655.11 1949.76 1652.46 1952.78 Q1649.82 1955.81 1649.82 1961.03 L1649.82 1981.17 L1643.93 1981.17 L1643.93 1959.85 Q1643.93 1954.69 1642.12 1952.24 Q1640.3 1949.76 1636.52 1949.76 Q1632.03 1949.76 1629.39 1952.81 Q1626.75 1955.84 1626.75 1961.03 L1626.75 1981.17 L1620.86 1981.17 L1620.86 1945.53 L1626.75 1945.53 L1626.75 1951.06 Q1628.75 1947.79 1631.55 1946.23 Q1634.35 1944.67 1638.2 1944.67 Q1642.09 1944.67 1644.79 1946.64 Q1647.53 1948.61 1648.83 1952.37 Z" fill="#000000" fill-rule="evenodd" fill-opacity="1" /><path clip-path="url(#clip800)" d="M1715.07 1961.89 L1715.07 1964.75 L1688.14 1964.75 Q1688.53 1970.8 1691.77 1973.98 Q1695.05 1977.13 1700.87 1977.13 Q1704.25 1977.13 1707.4 1976.3 Q1710.58 1975.48 1713.7 1973.82 L1713.7 1979.36 Q1710.55 1980.7 1707.24 1981.4 Q1703.93 1982.1 1700.52 1982.1 Q1691.99 1982.1 1687 1977.13 Q1682.03 1972.17 1682.03 1963.7 Q1682.03 1954.95 1686.74 1949.82 Q1691.49 1944.67 1699.51 1944.67 Q1706.7 1944.67 1710.87 1949.31 Q1715.07 1953.93 1715.07 1961.89 M1709.21 1960.17 Q1709.15 1955.36 1706.51 1952.5 Q1703.9 1949.63 1699.57 1949.63 Q1694.67 1949.63 1691.71 1952.4 Q1688.78 1955.17 1688.33 1960.2 L1709.21 1960.17 Z" fill="#000000" fill-rule="evenodd" fill-opacity="1" /><path clip-path="url(#clip800)" d="M1759.47 1931.71 Q1755.21 1939.03 1753.14 1946.19 Q1751.07 1953.36 1751.07 1960.71 Q1751.07 1968.06 1753.14 1975.29 Q1755.24 1982.48 1759.47 1989.77 L1754.38 1989.77 Q1749.6 1982.29 1747.22 1975.06 Q1744.86 1967.84 1744.86 1960.71 Q1744.86 1953.61 1747.22 1946.42 Q1749.57 1939.22 1754.38 1931.71 L1759.47 1931.71 Z" fill="#000000" fill-rule="evenodd" fill-opacity="1" /><path clip-path="url(#clip800)" d="M1793.56 1946.58 L1793.56 1952.11 Q1791.08 1950.84 1788.4 1950.2 Q1785.73 1949.57 1782.86 1949.57 Q1778.5 1949.57 1776.31 1950.9 Q1774.14 1952.24 1774.14 1954.92 Q1774.14 1956.95 1775.7 1958.13 Q1777.26 1959.28 1781.97 1960.33 L1783.98 1960.77 Q1790.22 1962.11 1792.83 1964.56 Q1795.47 1966.98 1795.47 1971.34 Q1795.47 1976.3 1791.52 1979.2 Q1787.61 1982.1 1780.73 1982.1 Q1777.87 1982.1 1774.75 1981.52 Q1771.66 1980.98 1768.22 1979.87 L1768.22 1973.82 Q1771.47 1975.51 1774.62 1976.37 Q1777.77 1977.2 1780.86 1977.2 Q1785 1977.2 1787.23 1975.79 Q1789.45 1974.36 1789.45 1971.78 Q1789.45 1969.4 1787.83 1968.12 Q1786.24 1966.85 1780.8 1965.67 L1778.76 1965.2 Q1773.32 1964.05 1770.9 1961.69 Q1768.48 1959.31 1768.48 1955.17 Q1768.48 1950.14 1772.04 1947.4 Q1775.61 1944.67 1782.16 1944.67 Q1785.41 1944.67 1788.28 1945.14 Q1791.14 1945.62 1793.56 1946.58 Z" fill="#000000" fill-rule="evenodd" fill-opacity="1" /><path clip-path="url(#clip800)" d="M1803.87 1931.71 L1808.96 1931.71 Q1813.74 1939.22 1816.09 1946.42 Q1818.48 1953.61 1818.48 1960.71 Q1818.48 1967.84 1816.09 1975.06 Q1813.74 1982.29 1808.96 1989.77 L1803.87 1989.77 Q1808.1 1982.48 1810.17 1975.29 Q1812.27 1968.06 1812.27 1960.71 Q1812.27 1953.36 1810.17 1946.19 Q1808.1 1939.03 1803.87 1931.71 Z" fill="#000000" fill-rule="evenodd" fill-opacity="1" /><polyline clip-path="url(#clip803)" style="stroke:#000000; stroke-linecap:round; stroke-linejoin:round; stroke-width:2; stroke-opacity:0.1; fill:none" points="
  224.549,1703.58 3152.76,1703.58 
  "/>
<polyline clip-path="url(#clip803)" style="stroke:#000000; stroke-linecap:round; stroke-linejoin:round; stroke-width:2; stroke-opacity:0.1; fill:none" points="
  224.549,1558.96 3152.76,1558.96 
  "/>
<polyline clip-path="url(#clip803)" style="stroke:#000000; stroke-linecap:round; stroke-linejoin:round; stroke-width:2; stroke-opacity:0.1; fill:none" points="
  224.549,1414.34 3152.76,1414.34 
  "/>
<polyline clip-path="url(#clip803)" style="stroke:#000000; stroke-linecap:round; stroke-linejoin:round; stroke-width:2; stroke-opacity:0.1; fill:none" points="
  224.549,1269.71 3152.76,1269.71 
  "/>
<polyline clip-path="url(#clip803)" style="stroke:#000000; stroke-linecap:round; stroke-linejoin:round; stroke-width:2; stroke-opacity:0.1; fill:none" points="
  224.549,1125.09 3152.76,1125.09 
  "/>
<polyline clip-path="url(#clip800)" style="stroke:#000000; stroke-linecap:round; stroke-linejoin:round; stroke-width:4; stroke-opacity:1; fill:none" points="
  224.549,1824.31 224.549,1047.24 
  "/>
<polyline clip-path="url(#clip800)" style="stroke:#000000; stroke-linecap:round; stroke-linejoin:round; stroke-width:4; stroke-opacity:1; fill:none" points="
  224.549,1703.58 243.447,1703.58 
  "/>
<polyline clip-path="url(#clip800)" style="stroke:#000000; stroke-linecap:round; stroke-linejoin:round; stroke-width:4; stroke-opacity:1; fill:none" points="
  224.549,1558.96 243.447,1558.96 
  "/>
<polyline clip-path="url(#clip800)" style="stroke:#000000; stroke-linecap:round; stroke-linejoin:round; stroke-width:4; stroke-opacity:1; fill:none" points="
  224.549,1414.34 243.447,1414.34 
  "/>
<polyline clip-path="url(#clip800)" style="stroke:#000000; stroke-linecap:round; stroke-linejoin:round; stroke-width:4; stroke-opacity:1; fill:none" points="
  224.549,1269.71 243.447,1269.71 
  "/>
<polyline clip-path="url(#clip800)" style="stroke:#000000; stroke-linecap:round; stroke-linejoin:round; stroke-width:4; stroke-opacity:1; fill:none" points="
  224.549,1125.09 243.447,1125.09 
  "/>
<path clip-path="url(#clip800)" d="M111.781 1716.93 L119.42 1716.93 L119.42 1690.56 L111.11 1692.23 L111.11 1687.97 L119.373 1686.3 L124.049 1686.3 L124.049 1716.93 L131.688 1716.93 L131.688 1720.86 L111.781 1720.86 L111.781 1716.93 Z" fill="#000000" fill-rule="evenodd" fill-opacity="1" /><path clip-path="url(#clip800)" d="M141.133 1714.99 L146.017 1714.99 L146.017 1720.86 L141.133 1720.86 L141.133 1714.99 Z" fill="#000000" fill-rule="evenodd" fill-opacity="1" /><path clip-path="url(#clip800)" d="M160.23 1716.93 L176.549 1716.93 L176.549 1720.86 L154.605 1720.86 L154.605 1716.93 Q157.267 1714.18 161.85 1709.55 Q166.457 1704.89 167.637 1703.55 Q169.882 1701.03 170.762 1699.29 Q171.665 1697.53 171.665 1695.84 Q171.665 1693.09 169.72 1691.35 Q167.799 1689.62 164.697 1689.62 Q162.498 1689.62 160.045 1690.38 Q157.614 1691.14 154.836 1692.69 L154.836 1687.97 Q157.66 1686.84 160.114 1686.26 Q162.568 1685.68 164.605 1685.68 Q169.975 1685.68 173.169 1688.37 Q176.364 1691.05 176.364 1695.54 Q176.364 1697.67 175.554 1699.59 Q174.767 1701.49 172.66 1704.08 Q172.081 1704.75 168.98 1707.97 Q165.878 1711.17 160.23 1716.93 Z" fill="#000000" fill-rule="evenodd" fill-opacity="1" /><path clip-path="url(#clip800)" d="M111.179 1572.31 L118.818 1572.31 L118.818 1545.94 L110.508 1547.61 L110.508 1543.35 L118.772 1541.68 L123.447 1541.68 L123.447 1572.31 L131.086 1572.31 L131.086 1576.24 L111.179 1576.24 L111.179 1572.31 Z" fill="#000000" fill-rule="evenodd" fill-opacity="1" /><path clip-path="url(#clip800)" d="M140.531 1570.36 L145.415 1570.36 L145.415 1576.24 L140.531 1576.24 L140.531 1570.36 Z" fill="#000000" fill-rule="evenodd" fill-opacity="1" /><path clip-path="url(#clip800)" d="M155.646 1541.68 L174.003 1541.68 L174.003 1545.62 L159.929 1545.62 L159.929 1554.09 Q160.947 1553.74 161.966 1553.58 Q162.984 1553.39 164.003 1553.39 Q169.79 1553.39 173.169 1556.57 Q176.549 1559.74 176.549 1565.15 Q176.549 1570.73 173.077 1573.83 Q169.605 1576.91 163.285 1576.91 Q161.109 1576.91 158.841 1576.54 Q156.595 1576.17 154.188 1575.43 L154.188 1570.73 Q156.271 1571.87 158.494 1572.42 Q160.716 1572.98 163.193 1572.98 Q167.197 1572.98 169.535 1570.87 Q171.873 1568.76 171.873 1565.15 Q171.873 1561.54 169.535 1559.44 Q167.197 1557.33 163.193 1557.33 Q161.318 1557.33 159.443 1557.75 Q157.591 1558.16 155.646 1559.04 L155.646 1541.68 Z" fill="#000000" fill-rule="evenodd" fill-opacity="1" /><path clip-path="url(#clip800)" d="M110.276 1427.68 L117.915 1427.68 L117.915 1401.32 L109.605 1402.98 L109.605 1398.72 L117.869 1397.06 L122.545 1397.06 L122.545 1427.68 L130.184 1427.68 L130.184 1431.62 L110.276 1431.62 L110.276 1427.68 Z" fill="#000000" fill-rule="evenodd" fill-opacity="1" /><path clip-path="url(#clip800)" d="M139.628 1425.74 L144.512 1425.74 L144.512 1431.62 L139.628 1431.62 L139.628 1425.74 Z" fill="#000000" fill-rule="evenodd" fill-opacity="1" /><path clip-path="url(#clip800)" d="M164.697 1415.21 Q161.364 1415.21 159.443 1416.99 Q157.545 1418.77 157.545 1421.89 Q157.545 1425.02 159.443 1426.8 Q161.364 1428.58 164.697 1428.58 Q168.031 1428.58 169.952 1426.8 Q171.873 1425 171.873 1421.89 Q171.873 1418.77 169.952 1416.99 Q168.054 1415.21 164.697 1415.21 M160.021 1413.21 Q157.012 1412.47 155.322 1410.41 Q153.656 1408.35 153.656 1405.39 Q153.656 1401.25 156.595 1398.84 Q159.558 1396.43 164.697 1396.43 Q169.859 1396.43 172.799 1398.84 Q175.739 1401.25 175.739 1405.39 Q175.739 1408.35 174.049 1410.41 Q172.382 1412.47 169.396 1413.21 Q172.776 1414 174.651 1416.29 Q176.549 1418.58 176.549 1421.89 Q176.549 1426.92 173.47 1429.6 Q170.415 1432.29 164.697 1432.29 Q158.98 1432.29 155.901 1429.6 Q152.845 1426.92 152.845 1421.89 Q152.845 1418.58 154.744 1416.29 Q156.642 1414 160.021 1413.21 M158.308 1405.83 Q158.308 1408.52 159.975 1410.02 Q161.665 1411.52 164.697 1411.52 Q167.707 1411.52 169.396 1410.02 Q171.109 1408.52 171.109 1405.83 Q171.109 1403.15 169.396 1401.64 Q167.707 1400.14 164.697 1400.14 Q161.665 1400.14 159.975 1401.64 Q158.308 1403.15 158.308 1405.83 Z" fill="#000000" fill-rule="evenodd" fill-opacity="1" /><path clip-path="url(#clip800)" d="M114.628 1283.06 L130.947 1283.06 L130.947 1286.99 L109.003 1286.99 L109.003 1283.06 Q111.665 1280.3 116.248 1275.67 Q120.855 1271.02 122.035 1269.68 Q124.281 1267.16 125.16 1265.42 Q126.063 1263.66 126.063 1261.97 Q126.063 1259.22 124.119 1257.48 Q122.197 1255.74 119.096 1255.74 Q116.897 1255.74 114.443 1256.51 Q112.012 1257.27 109.235 1258.82 L109.235 1254.1 Q112.059 1252.97 114.512 1252.39 Q116.966 1251.81 119.003 1251.81 Q124.373 1251.81 127.568 1254.49 Q130.762 1257.18 130.762 1261.67 Q130.762 1263.8 129.952 1265.72 Q129.165 1267.62 127.059 1270.21 Q126.48 1270.88 123.378 1274.1 Q120.276 1277.29 114.628 1283.06 Z" fill="#000000" fill-rule="evenodd" fill-opacity="1" /><path clip-path="url(#clip800)" d="M140.762 1281.11 L145.646 1281.11 L145.646 1286.99 L140.762 1286.99 L140.762 1281.11 Z" fill="#000000" fill-rule="evenodd" fill-opacity="1" /><path clip-path="url(#clip800)" d="M156.642 1283.06 L164.281 1283.06 L164.281 1256.69 L155.97 1258.36 L155.97 1254.1 L164.234 1252.43 L168.91 1252.43 L168.91 1283.06 L176.549 1283.06 L176.549 1286.99 L156.642 1286.99 L156.642 1283.06 Z" fill="#000000" fill-rule="evenodd" fill-opacity="1" /><path clip-path="url(#clip800)" d="M112.915 1138.43 L129.234 1138.43 L129.234 1142.37 L107.29 1142.37 L107.29 1138.43 Q109.952 1135.68 114.535 1131.05 Q119.142 1126.4 120.322 1125.05 Q122.568 1122.53 123.447 1120.8 Q124.35 1119.04 124.35 1117.35 Q124.35 1114.59 122.406 1112.86 Q120.485 1111.12 117.383 1111.12 Q115.184 1111.12 112.73 1111.88 Q110.299 1112.65 107.522 1114.2 L107.522 1109.48 Q110.346 1108.34 112.799 1107.76 Q115.253 1107.18 117.29 1107.18 Q122.66 1107.18 125.855 1109.87 Q129.049 1112.55 129.049 1117.05 Q129.049 1119.18 128.239 1121.1 Q127.452 1122.99 125.346 1125.59 Q124.767 1126.26 121.665 1129.48 Q118.563 1132.67 112.915 1138.43 Z" fill="#000000" fill-rule="evenodd" fill-opacity="1" /><path clip-path="url(#clip800)" d="M139.049 1136.49 L143.933 1136.49 L143.933 1142.37 L139.049 1142.37 L139.049 1136.49 Z" fill="#000000" fill-rule="evenodd" fill-opacity="1" /><path clip-path="url(#clip800)" d="M166.966 1111.88 L155.16 1130.33 L166.966 1130.33 L166.966 1111.88 M165.739 1107.81 L171.619 1107.81 L171.619 1130.33 L176.549 1130.33 L176.549 1134.22 L171.619 1134.22 L171.619 1142.37 L166.966 1142.37 L166.966 1134.22 L151.364 1134.22 L151.364 1129.71 L165.739 1107.81 Z" fill="#000000" fill-rule="evenodd" fill-opacity="1" /><path clip-path="url(#clip800)" d="M48.3443 1637.06 Q54.71 1639.54 56.6516 1641.9 Q58.5931 1644.25 58.5931 1648.2 L58.5931 1652.88 L53.6915 1652.88 L53.6915 1649.44 Q53.6915 1647.02 52.5457 1645.69 Q51.3999 1644.35 47.1348 1642.73 L44.4612 1641.68 L9.3862 1656.09 L9.3862 1649.89 L37.268 1638.75 L9.3862 1627.61 L9.3862 1621.4 L48.3443 1637.06 Z" fill="#000000" fill-rule="evenodd" fill-opacity="1" /><path clip-path="url(#clip800)" d="M2.79769 1585.91 L20.6535 1585.91 L20.6535 1577.83 Q20.6535 1573.34 18.33 1570.89 Q16.0065 1568.44 11.7097 1568.44 Q7.44466 1568.44 5.12118 1570.89 Q2.79769 1573.34 2.79769 1577.83 L2.79769 1585.91 M-2.48584 1592.34 L-2.48584 1577.83 Q-2.48584 1569.84 1.14261 1565.76 Q4.73923 1561.66 11.7097 1561.66 Q18.7438 1561.66 22.3404 1565.76 Q25.937 1569.84 25.937 1577.83 L25.937 1585.91 L45.0342 1585.91 L45.0342 1592.34 L-2.48584 1592.34 Z" fill="#000000" fill-rule="evenodd" fill-opacity="1" /><path clip-path="url(#clip800)" d="M13.4921 1541.8 Q13.4921 1546.51 17.1842 1549.25 Q20.8445 1551.98 27.242 1551.98 Q33.6395 1551.98 37.3317 1549.28 Q40.9919 1546.54 40.9919 1541.8 Q40.9919 1537.12 37.2998 1534.38 Q33.6077 1531.64 27.242 1531.64 Q20.9081 1531.64 17.216 1534.38 Q13.4921 1537.12 13.4921 1541.8 M8.52683 1541.8 Q8.52683 1534.16 13.4921 1529.8 Q18.4573 1525.44 27.242 1525.44 Q35.9949 1525.44 40.9919 1529.8 Q45.9572 1534.16 45.9572 1541.8 Q45.9572 1549.47 40.9919 1553.83 Q35.9949 1558.16 27.242 1558.16 Q18.4573 1558.16 13.4921 1553.83 Q8.52683 1549.47 8.52683 1541.8 Z" fill="#000000" fill-rule="evenodd" fill-opacity="1" /><path clip-path="url(#clip800)" d="M10.4365 1493 L15.9747 1493 Q14.7016 1495.49 14.065 1498.16 Q13.4284 1500.83 13.4284 1503.7 Q13.4284 1508.06 14.7652 1510.26 Q16.102 1512.42 18.7756 1512.42 Q20.8126 1512.42 21.9903 1510.86 Q23.1361 1509.3 24.1865 1504.59 L24.6321 1502.59 Q25.9689 1496.35 28.4197 1493.74 Q30.8386 1491.09 35.1991 1491.09 Q40.1644 1491.09 43.0608 1495.04 Q45.9572 1498.96 45.9572 1505.83 Q45.9572 1508.7 45.3843 1511.82 Q44.8432 1514.9 43.7292 1518.34 L37.6818 1518.34 Q39.3687 1515.09 40.228 1511.94 Q41.0556 1508.79 41.0556 1505.7 Q41.0556 1501.57 39.6551 1499.34 Q38.2229 1497.11 35.6447 1497.11 Q33.2576 1497.11 31.9845 1498.73 Q30.7113 1500.33 29.5337 1505.77 L29.0562 1507.8 Q27.9104 1513.25 25.5551 1515.67 Q23.168 1518.09 19.0302 1518.09 Q14.0013 1518.09 11.2641 1514.52 Q8.52683 1510.96 8.52683 1504.4 Q8.52683 1501.15 9.00426 1498.29 Q9.48169 1495.42 10.4365 1493 Z" fill="#000000" fill-rule="evenodd" fill-opacity="1" /><path clip-path="url(#clip800)" d="M9.3862 1481.77 L9.3862 1475.91 L45.0342 1475.91 L45.0342 1481.77 L9.3862 1481.77 M-4.49104 1481.77 L-4.49104 1475.91 L2.92501 1475.91 L2.92501 1481.77 L-4.49104 1481.77 Z" fill="#000000" fill-rule="evenodd" fill-opacity="1" /><path clip-path="url(#clip800)" d="M-0.735273 1457.87 L9.3862 1457.87 L9.3862 1445.8 L13.9377 1445.8 L13.9377 1457.87 L33.2894 1457.87 Q37.6499 1457.87 38.8913 1456.69 Q40.1326 1455.48 40.1326 1451.82 L40.1326 1445.8 L45.0342 1445.8 L45.0342 1451.82 Q45.0342 1458.6 42.5197 1461.18 Q39.9734 1463.75 33.2894 1463.75 L13.9377 1463.75 L13.9377 1468.05 L9.3862 1468.05 L9.3862 1463.75 L-0.735273 1463.75 L-0.735273 1457.87 Z" fill="#000000" fill-rule="evenodd" fill-opacity="1" /><path clip-path="url(#clip800)" d="M9.3862 1438.1 L9.3862 1432.24 L45.0342 1432.24 L45.0342 1438.1 L9.3862 1438.1 M-4.49104 1438.1 L-4.49104 1432.24 L2.92501 1432.24 L2.92501 1438.1 L-4.49104 1438.1 Z" fill="#000000" fill-rule="evenodd" fill-opacity="1" /><path clip-path="url(#clip800)" d="M13.4921 1406.18 Q13.4921 1410.89 17.1842 1413.62 Q20.8445 1416.36 27.242 1416.36 Q33.6395 1416.36 37.3317 1413.66 Q40.9919 1410.92 40.9919 1406.18 Q40.9919 1401.5 37.2998 1398.76 Q33.6077 1396.02 27.242 1396.02 Q20.9081 1396.02 17.216 1398.76 Q13.4921 1401.5 13.4921 1406.18 M8.52683 1406.18 Q8.52683 1398.54 13.4921 1394.18 Q18.4573 1389.82 27.242 1389.82 Q35.9949 1389.82 40.9919 1394.18 Q45.9572 1398.54 45.9572 1406.18 Q45.9572 1413.85 40.9919 1418.21 Q35.9949 1422.54 27.242 1422.54 Q18.4573 1422.54 13.4921 1418.21 Q8.52683 1413.85 8.52683 1406.18 Z" fill="#000000" fill-rule="evenodd" fill-opacity="1" /><path clip-path="url(#clip800)" d="M23.5181 1350.48 L45.0342 1350.48 L45.0342 1356.33 L23.709 1356.33 Q18.6483 1356.33 16.1338 1358.31 Q13.6194 1360.28 13.6194 1364.23 Q13.6194 1368.97 16.6431 1371.71 Q19.6668 1374.44 24.8867 1374.44 L45.0342 1374.44 L45.0342 1380.33 L9.3862 1380.33 L9.3862 1374.44 L14.9244 1374.44 Q11.7097 1372.34 10.1183 1369.51 Q8.52683 1366.65 8.52683 1362.92 Q8.52683 1356.78 12.3463 1353.63 Q16.1338 1350.48 23.5181 1350.48 Z" fill="#000000" fill-rule="evenodd" fill-opacity="1" /><path clip-path="url(#clip800)" d="M-4.42738 1304.01 Q2.89318 1308.27 10.0546 1310.34 Q17.216 1312.41 24.5684 1312.41 Q31.9208 1312.41 39.1459 1310.34 Q46.3391 1308.24 53.6279 1304.01 L53.6279 1309.1 Q46.1482 1313.87 38.9231 1316.26 Q31.698 1318.62 24.5684 1318.62 Q17.4706 1318.62 10.2774 1316.26 Q3.08415 1313.91 -4.42738 1309.1 L-4.42738 1304.01 Z" fill="#000000" fill-rule="evenodd" fill-opacity="1" /><path clip-path="url(#clip800)" d="M16.2293 1264.89 Q12.2826 1262.69 10.4047 1259.64 Q8.52683 1256.58 8.52683 1252.44 Q8.52683 1246.87 12.4417 1243.85 Q16.3248 1240.83 23.5181 1240.83 L45.0342 1240.83 L45.0342 1246.72 L23.709 1246.72 Q18.5846 1246.72 16.102 1248.53 Q13.6194 1250.34 13.6194 1254.07 Q13.6194 1258.62 16.6431 1261.26 Q19.6668 1263.9 24.8867 1263.9 L45.0342 1263.9 L45.0342 1269.79 L23.709 1269.79 Q18.5528 1269.79 16.102 1271.61 Q13.6194 1273.42 13.6194 1277.21 Q13.6194 1281.7 16.6749 1284.34 Q19.6986 1286.98 24.8867 1286.98 L45.0342 1286.98 L45.0342 1292.87 L9.3862 1292.87 L9.3862 1286.98 L14.9244 1286.98 Q11.646 1284.97 10.0864 1282.17 Q8.52683 1279.37 8.52683 1275.52 Q8.52683 1271.64 10.5002 1268.93 Q12.4736 1266.19 16.2293 1264.89 Z" fill="#000000" fill-rule="evenodd" fill-opacity="1" /><path clip-path="url(#clip800)" d="M-4.42738 1230.07 L-4.42738 1224.98 Q3.08415 1220.2 10.2774 1217.85 Q17.4706 1215.46 24.5684 1215.46 Q31.698 1215.46 38.9231 1217.85 Q46.1482 1220.2 53.6279 1224.98 L53.6279 1230.07 Q46.3391 1225.84 39.1459 1223.77 Q31.9208 1221.67 24.5684 1221.67 Q17.216 1221.67 10.0546 1223.77 Q2.89318 1225.84 -4.42738 1230.07 Z" fill="#000000" fill-rule="evenodd" fill-opacity="1" /><polyline clip-path="url(#clip803)" style="stroke:#009af9; stroke-linecap:round; stroke-linejoin:round; stroke-width:4; stroke-opacity:1; fill:none" points="
  307.423,1802.3 330.637,1802.32 353.851,1799.75 377.065,1798.76 400.279,1798.78 423.493,1792.91 446.706,1796.21 469.92,1793.39 493.134,1794.4 516.348,1793.19 
  539.562,1794.89 562.776,1796.75 585.99,1794.12 609.204,1795.37 632.418,1795.07 655.632,1797.41 678.846,1793.4 702.06,1793.21 725.274,1791.75 748.488,1788.65 
  771.702,1785.42 794.916,1783.56 818.13,1781.9 841.344,1782.45 864.557,1779.95 887.771,1775.4 910.985,1769 934.199,1765.36 957.413,1749.04 980.627,1744.1 
  1003.84,1738.44 1027.06,1732.7 1050.27,1729.01 1073.48,1718.93 1096.7,1710.62 1119.91,1703.11 1143.12,1692.56 1166.34,1684.18 1189.55,1683.55 1212.77,1675.11 
  1235.98,1670.12 1259.19,1665.54 1282.41,1649.1 1305.62,1637.52 1328.84,1627.43 1352.05,1602.81 1375.26,1583.08 1398.48,1565.9 1421.69,1561.11 1444.91,1551.63 
  1468.12,1537.45 1491.33,1528.09 1514.55,1520.25 1537.76,1518.92 1560.98,1511.26 1584.19,1508.62 1607.4,1499.56 1630.62,1495.35 1653.83,1494.9 1677.05,1486.32 
  1700.26,1480.48 1723.47,1478.52 1746.69,1468.77 1769.9,1457.85 1793.12,1447.53 1816.33,1446.23 1839.54,1437.39 1862.76,1428.13 1885.97,1412.54 1909.18,1413.93 
  1932.4,1398.59 1955.61,1387.58 1978.83,1376.46 2002.04,1365.66 2025.25,1363.48 2048.47,1357.69 2071.68,1363.52 2094.9,1352.55 2118.11,1339.29 2141.32,1338.97 
  2164.54,1328.38 2187.75,1336.13 2210.97,1338.32 2234.18,1337.07 2257.39,1332.66 2280.61,1327.11 2303.82,1319.53 2327.04,1311.65 2350.25,1307.63 2373.46,1291.8 
  2396.68,1287.45 2419.89,1283.1 2443.11,1279.98 2466.32,1269.56 2489.53,1270.04 2512.75,1265.98 2535.96,1263.97 2559.18,1247.27 2582.39,1231.45 2605.6,1223 
  2628.82,1214.86 2652.03,1210.19 2675.25,1195.29 2698.46,1187.19 2721.67,1180.66 2744.89,1174.45 2768.1,1178.14 2791.31,1172.81 2814.53,1175.98 2837.74,1184.17 
  2860.96,1181.36 2884.17,1166.91 2907.38,1147.4 2930.6,1146.06 2953.81,1151.26 2977.03,1148.61 3000.24,1150.08 3023.45,1145.37 3046.67,1134.16 3069.88,1125.62 
  
  "/>
<polyline clip-path="url(#clip803)" style="stroke:#e26f46; stroke-linecap:round; stroke-linejoin:round; stroke-width:4; stroke-opacity:1; fill:none" stroke-dasharray="16, 10" points="
  307.423,1800.05 330.637,1800.06 353.851,1800.11 377.065,1800.1 400.279,1800.13 423.493,1800.15 446.706,1800.16 469.92,1800.18 493.134,1800.19 516.348,1800.19 
  539.562,1800.21 562.776,1800.14 585.99,1800.1 609.204,1800.15 632.418,1800.11 655.632,1800.13 678.846,1800.12 702.06,1800.14 725.274,1800.14 748.488,1792.91 
  771.702,1785.64 794.916,1778.4 818.13,1771.13 841.344,1763.88 864.557,1756.6 887.771,1749.37 910.985,1742.12 934.199,1734.88 957.413,1727.65 980.627,1720.42 
  1003.84,1713.16 1027.06,1705.92 1050.27,1698.69 1073.48,1691.42 1096.7,1684.17 1119.91,1676.97 1143.12,1669.71 1166.34,1662.51 1189.55,1655.28 1212.77,1648.02 
  1235.98,1640.76 1259.19,1633.51 1282.41,1626.3 1305.62,1618.98 1328.84,1611.75 1352.05,1604.5 1375.26,1597.26 1398.48,1589.98 1421.69,1582.77 1444.91,1575.53 
  1468.12,1568.33 1491.33,1561.08 1514.55,1553.84 1537.76,1546.66 1560.98,1539.42 1584.19,1532.17 1607.4,1524.97 1630.62,1517.71 1653.83,1510.49 1677.05,1503.31 
  1700.26,1496.08 1723.47,1488.81 1746.69,1481.57 1769.9,1474.36 1793.12,1467.09 1816.33,1459.87 1839.54,1452.64 1862.76,1445.47 1885.97,1438.23 1909.18,1430.99 
  1932.4,1423.76 1955.61,1416.54 1978.83,1409.28 2002.04,1401.98 2025.25,1394.72 2048.47,1387.51 2071.68,1380.26 2094.9,1372.99 2118.11,1365.72 2141.32,1358.47 
  2164.54,1351.21 2187.75,1343.95 2210.97,1336.73 2234.18,1329.51 2257.39,1322.27 2280.61,1315.04 2303.82,1307.83 2327.04,1300.61 2350.25,1293.41 2373.46,1286.22 
  2396.68,1278.97 2419.89,1271.69 2443.11,1264.47 2466.32,1257.22 2489.53,1250 2512.75,1242.77 2535.96,1235.58 2559.18,1228.34 2582.39,1221.15 2605.6,1213.91 
  2628.82,1206.69 2652.03,1199.49 2675.25,1192.23 2698.46,1184.98 2721.67,1177.78 2744.89,1170.5 2768.1,1163.26 2791.31,1156.08 2814.53,1148.87 2837.74,1141.63 
  2860.96,1134.45 2884.17,1127.2 2907.38,1119.93 2930.6,1112.68 2953.81,1105.43 2977.03,1098.19 3000.24,1090.96 3023.45,1083.68 3046.67,1076.44 3069.88,1069.24 
  
  "/>
<path clip-path="url(#clip800)" d="
M2361.44 1798.41 L3055.15 1798.41 L3055.15 1642.89 L2361.44 1642.89  Z
  " fill="#ffffff" fill-rule="evenodd" fill-opacity="1"/>
<polyline clip-path="url(#clip800)" style="stroke:#000000; stroke-linecap:round; stroke-linejoin:round; stroke-width:4; stroke-opacity:1; fill:none" points="
  2361.44,1798.41 3055.15,1798.41 3055.15,1642.89 2361.44,1642.89 2361.44,1798.41 
  "/>
<polyline clip-path="url(#clip800)" style="stroke:#009af9; stroke-linecap:round; stroke-linejoin:round; stroke-width:4; stroke-opacity:1; fill:none" points="
  2393.97,1694.73 2589.19,1694.73 
  "/>
<path clip-path="url(#clip800)" d="M2621.72 1677.45 L2641.58 1677.45 L2641.58 1681.38 L2626.4 1681.38 L2626.4 1691.57 L2640.1 1691.57 L2640.1 1695.5 L2626.4 1695.5 L2626.4 1712.01 L2621.72 1712.01 L2621.72 1677.45 Z" fill="#000000" fill-rule="evenodd" fill-opacity="1" /><path clip-path="url(#clip800)" d="M2645.36 1686.08 L2649.62 1686.08 L2649.62 1712.01 L2645.36 1712.01 L2645.36 1686.08 M2645.36 1675.99 L2649.62 1675.99 L2649.62 1681.38 L2645.36 1681.38 L2645.36 1675.99 Z" fill="#000000" fill-rule="evenodd" fill-opacity="1" /><path clip-path="url(#clip800)" d="M2658.53 1675.99 L2662.79 1675.99 L2662.79 1712.01 L2658.53 1712.01 L2658.53 1675.99 Z" fill="#000000" fill-rule="evenodd" fill-opacity="1" /><path clip-path="url(#clip800)" d="M2675.91 1678.72 L2675.91 1686.08 L2684.69 1686.08 L2684.69 1689.39 L2675.91 1689.39 L2675.91 1703.47 Q2675.91 1706.64 2676.77 1707.54 Q2677.65 1708.44 2680.31 1708.44 L2684.69 1708.44 L2684.69 1712.01 L2680.31 1712.01 Q2675.38 1712.01 2673.51 1710.18 Q2671.63 1708.33 2671.63 1703.47 L2671.63 1689.39 L2668.51 1689.39 L2668.51 1686.08 L2671.63 1686.08 L2671.63 1678.72 L2675.91 1678.72 Z" fill="#000000" fill-rule="evenodd" fill-opacity="1" /><path clip-path="url(#clip800)" d="M2712.46 1697.98 L2712.46 1700.06 L2692.88 1700.06 Q2693.16 1704.46 2695.52 1706.78 Q2697.9 1709.07 2702.14 1709.07 Q2704.59 1709.07 2706.88 1708.47 Q2709.2 1707.86 2711.47 1706.66 L2711.47 1710.69 Q2709.18 1711.66 2706.77 1712.17 Q2704.36 1712.68 2701.88 1712.68 Q2695.68 1712.68 2692.05 1709.07 Q2688.44 1705.46 2688.44 1699.3 Q2688.44 1692.93 2691.86 1689.21 Q2695.31 1685.46 2701.14 1685.46 Q2706.38 1685.46 2709.41 1688.84 Q2712.46 1692.19 2712.46 1697.98 M2708.2 1696.73 Q2708.16 1693.23 2706.24 1691.15 Q2704.34 1689.07 2701.19 1689.07 Q2697.63 1689.07 2695.47 1691.08 Q2693.34 1693.1 2693.02 1696.75 L2708.2 1696.73 Z" fill="#000000" fill-rule="evenodd" fill-opacity="1" /><path clip-path="url(#clip800)" d="M2734.48 1690.06 Q2733.76 1689.65 2732.9 1689.46 Q2732.07 1689.25 2731.05 1689.25 Q2727.44 1689.25 2725.5 1691.61 Q2723.57 1693.95 2723.57 1698.35 L2723.57 1712.01 L2719.29 1712.01 L2719.29 1686.08 L2723.57 1686.08 L2723.57 1690.11 Q2724.92 1687.75 2727.07 1686.61 Q2729.22 1685.46 2732.3 1685.46 Q2732.74 1685.46 2733.27 1685.53 Q2733.81 1685.57 2734.45 1685.69 L2734.48 1690.06 Z" fill="#000000" fill-rule="evenodd" fill-opacity="1" /><polyline clip-path="url(#clip800)" style="stroke:#e26f46; stroke-linecap:round; stroke-linejoin:round; stroke-width:4; stroke-opacity:1; fill:none" stroke-dasharray="16, 10" points="
  2393.97,1746.57 2589.19,1746.57 
  "/>
<path clip-path="url(#clip800)" d="M2637.56 1733.89 L2631.21 1751.09 L2643.92 1751.09 L2637.56 1733.89 M2634.92 1729.29 L2640.22 1729.29 L2653.39 1763.85 L2648.53 1763.85 L2645.38 1754.98 L2629.8 1754.98 L2626.65 1763.85 L2621.72 1763.85 L2634.92 1729.29 Z" fill="#000000" fill-rule="evenodd" fill-opacity="1" /><path clip-path="url(#clip800)" d="M2658.25 1737.92 L2662.51 1737.92 L2662.51 1763.85 L2658.25 1763.85 L2658.25 1737.92 M2658.25 1727.83 L2662.51 1727.83 L2662.51 1733.22 L2658.25 1733.22 L2658.25 1727.83 Z" fill="#000000" fill-rule="evenodd" fill-opacity="1" /><path clip-path="url(#clip800)" d="M2686.45 1741.9 Q2685.73 1741.49 2684.87 1741.3 Q2684.04 1741.09 2683.02 1741.09 Q2679.41 1741.09 2677.46 1743.45 Q2675.54 1745.79 2675.54 1750.19 L2675.54 1763.85 L2671.26 1763.85 L2671.26 1737.92 L2675.54 1737.92 L2675.54 1741.95 Q2676.88 1739.59 2679.04 1738.45 Q2681.19 1737.3 2684.27 1737.3 Q2684.71 1737.3 2685.24 1737.37 Q2685.77 1737.41 2686.42 1737.53 L2686.45 1741.9 Z" fill="#000000" fill-rule="evenodd" fill-opacity="1" /><path clip-path="url(#clip800)" d="M2708.53 1738.92 L2708.53 1742.9 Q2706.72 1741.9 2704.89 1741.42 Q2703.09 1740.91 2701.24 1740.91 Q2697.09 1740.91 2694.8 1743.55 Q2692.51 1746.16 2692.51 1750.91 Q2692.51 1755.65 2694.8 1758.29 Q2697.09 1760.91 2701.24 1760.91 Q2703.09 1760.91 2704.89 1760.42 Q2706.72 1759.91 2708.53 1758.92 L2708.53 1762.85 Q2706.75 1763.69 2704.82 1764.1 Q2702.93 1764.52 2700.77 1764.52 Q2694.92 1764.52 2691.47 1760.84 Q2688.02 1757.16 2688.02 1750.91 Q2688.02 1744.57 2691.49 1740.93 Q2694.99 1737.3 2701.05 1737.3 Q2703.02 1737.3 2704.89 1737.71 Q2706.77 1738.11 2708.53 1738.92 Z" fill="#000000" fill-rule="evenodd" fill-opacity="1" /><path clip-path="url(#clip800)" d="M2730.96 1741.9 Q2730.24 1741.49 2729.38 1741.3 Q2728.55 1741.09 2727.53 1741.09 Q2723.92 1741.09 2721.98 1743.45 Q2720.06 1745.79 2720.06 1750.19 L2720.06 1763.85 L2715.77 1763.85 L2715.77 1737.92 L2720.06 1737.92 L2720.06 1741.95 Q2721.4 1739.59 2723.55 1738.45 Q2725.7 1737.3 2728.78 1737.3 Q2729.22 1737.3 2729.76 1737.37 Q2730.29 1737.41 2730.94 1737.53 L2730.96 1741.9 Z" fill="#000000" fill-rule="evenodd" fill-opacity="1" /><path clip-path="url(#clip800)" d="M2747.21 1750.82 Q2742.05 1750.82 2740.06 1752 Q2738.07 1753.18 2738.07 1756.02 Q2738.07 1758.29 2739.55 1759.63 Q2741.05 1760.95 2743.62 1760.95 Q2747.16 1760.95 2749.29 1758.45 Q2751.44 1755.93 2751.44 1751.76 L2751.44 1750.82 L2747.21 1750.82 M2755.7 1749.06 L2755.7 1763.85 L2751.44 1763.85 L2751.44 1759.91 Q2749.99 1762.27 2747.81 1763.41 Q2745.63 1764.52 2742.49 1764.52 Q2738.51 1764.52 2736.14 1762.3 Q2733.81 1760.05 2733.81 1756.3 Q2733.81 1751.93 2736.72 1749.7 Q2739.66 1747.48 2745.47 1747.48 L2751.44 1747.48 L2751.44 1747.07 Q2751.44 1744.13 2749.5 1742.53 Q2747.58 1740.91 2744.08 1740.91 Q2741.86 1740.91 2739.76 1741.44 Q2737.65 1741.97 2735.7 1743.04 L2735.7 1739.1 Q2738.04 1738.2 2740.24 1737.76 Q2742.44 1737.3 2744.52 1737.3 Q2750.15 1737.3 2752.93 1740.21 Q2755.7 1743.13 2755.7 1749.06 Z" fill="#000000" fill-rule="evenodd" fill-opacity="1" /><path clip-path="url(#clip800)" d="M2777.6 1727.83 L2777.6 1731.37 L2773.53 1731.37 Q2771.24 1731.37 2770.33 1732.3 Q2769.45 1733.22 2769.45 1735.63 L2769.45 1737.92 L2776.47 1737.92 L2776.47 1741.23 L2769.45 1741.23 L2769.45 1763.85 L2765.17 1763.85 L2765.17 1741.23 L2761.1 1741.23 L2761.1 1737.92 L2765.17 1737.92 L2765.17 1736.12 Q2765.17 1731.79 2767.19 1729.82 Q2769.2 1727.83 2773.57 1727.83 L2777.6 1727.83 Z" fill="#000000" fill-rule="evenodd" fill-opacity="1" /><path clip-path="url(#clip800)" d="M2784.55 1730.56 L2784.55 1737.92 L2793.32 1737.92 L2793.32 1741.23 L2784.55 1741.23 L2784.55 1755.31 Q2784.55 1758.48 2785.4 1759.38 Q2786.28 1760.28 2788.94 1760.28 L2793.32 1760.28 L2793.32 1763.85 L2788.94 1763.85 Q2784.01 1763.85 2782.14 1762.02 Q2780.26 1760.17 2780.26 1755.31 L2780.26 1741.23 L2777.14 1741.23 L2777.14 1737.92 L2780.26 1737.92 L2780.26 1730.56 L2784.55 1730.56 Z" fill="#000000" fill-rule="evenodd" fill-opacity="1" /><path clip-path="url(#clip800)" d="M2818.85 1733.13 L2818.85 1746.12 L2824.73 1746.12 Q2828 1746.12 2829.78 1744.43 Q2831.56 1742.74 2831.56 1739.61 Q2831.56 1736.51 2829.78 1734.82 Q2828 1733.13 2824.73 1733.13 L2818.85 1733.13 M2814.18 1729.29 L2824.73 1729.29 Q2830.54 1729.29 2833.5 1731.93 Q2836.49 1734.54 2836.49 1739.61 Q2836.49 1744.73 2833.5 1747.34 Q2830.54 1749.96 2824.73 1749.96 L2818.85 1749.96 L2818.85 1763.85 L2814.18 1763.85 L2814.18 1729.29 Z" fill="#000000" fill-rule="evenodd" fill-opacity="1" /><path clip-path="url(#clip800)" d="M2850.93 1740.91 Q2847.51 1740.91 2845.52 1743.59 Q2843.53 1746.26 2843.53 1750.91 Q2843.53 1755.56 2845.5 1758.25 Q2847.49 1760.91 2850.93 1760.91 Q2854.34 1760.91 2856.33 1758.22 Q2858.32 1755.54 2858.32 1750.91 Q2858.32 1746.3 2856.33 1743.62 Q2854.34 1740.91 2850.93 1740.91 M2850.93 1737.3 Q2856.49 1737.3 2859.66 1740.91 Q2862.83 1744.52 2862.83 1750.91 Q2862.83 1757.27 2859.66 1760.91 Q2856.49 1764.52 2850.93 1764.52 Q2845.36 1764.52 2842.19 1760.91 Q2839.04 1757.27 2839.04 1750.91 Q2839.04 1744.52 2842.19 1740.91 Q2845.36 1737.3 2850.93 1737.3 Z" fill="#000000" fill-rule="evenodd" fill-opacity="1" /><path clip-path="url(#clip800)" d="M2886.42 1738.69 L2886.42 1742.71 Q2884.62 1741.79 2882.67 1741.32 Q2880.73 1740.86 2878.64 1740.86 Q2875.47 1740.86 2873.87 1741.83 Q2872.3 1742.81 2872.3 1744.75 Q2872.3 1746.23 2873.43 1747.09 Q2874.57 1747.92 2878 1748.69 L2879.45 1749.01 Q2883.99 1749.98 2885.89 1751.76 Q2887.81 1753.52 2887.81 1756.69 Q2887.81 1760.31 2884.94 1762.41 Q2882.09 1764.52 2877.09 1764.52 Q2875.01 1764.52 2872.74 1764.1 Q2870.5 1763.71 2868 1762.9 L2868 1758.5 Q2870.36 1759.73 2872.65 1760.35 Q2874.94 1760.95 2877.18 1760.95 Q2880.19 1760.95 2881.81 1759.94 Q2883.43 1758.89 2883.43 1757.02 Q2883.43 1755.28 2882.25 1754.36 Q2881.1 1753.43 2877.14 1752.57 L2875.66 1752.23 Q2871.7 1751.39 2869.94 1749.68 Q2868.18 1747.94 2868.18 1744.94 Q2868.18 1741.28 2870.77 1739.29 Q2873.37 1737.3 2878.13 1737.3 Q2880.5 1737.3 2882.58 1737.64 Q2884.66 1737.99 2886.42 1738.69 Z" fill="#000000" fill-rule="evenodd" fill-opacity="1" /><path clip-path="url(#clip800)" d="M2894.59 1737.92 L2898.85 1737.92 L2898.85 1763.85 L2894.59 1763.85 L2894.59 1737.92 M2894.59 1727.83 L2898.85 1727.83 L2898.85 1733.22 L2894.59 1733.22 L2894.59 1727.83 Z" fill="#000000" fill-rule="evenodd" fill-opacity="1" /><path clip-path="url(#clip800)" d="M2911.98 1730.56 L2911.98 1737.92 L2920.75 1737.92 L2920.75 1741.23 L2911.98 1741.23 L2911.98 1755.31 Q2911.98 1758.48 2912.83 1759.38 Q2913.71 1760.28 2916.37 1760.28 L2920.75 1760.28 L2920.75 1763.85 L2916.37 1763.85 Q2911.44 1763.85 2909.57 1762.02 Q2907.69 1760.17 2907.69 1755.31 L2907.69 1741.23 L2904.57 1741.23 L2904.57 1737.92 L2907.69 1737.92 L2907.69 1730.56 L2911.98 1730.56 Z" fill="#000000" fill-rule="evenodd" fill-opacity="1" /><path clip-path="url(#clip800)" d="M2926.35 1737.92 L2930.61 1737.92 L2930.61 1763.85 L2926.35 1763.85 L2926.35 1737.92 M2926.35 1727.83 L2930.61 1727.83 L2930.61 1733.22 L2926.35 1733.22 L2926.35 1727.83 Z" fill="#000000" fill-rule="evenodd" fill-opacity="1" /><path clip-path="url(#clip800)" d="M2949.57 1740.91 Q2946.14 1740.91 2944.15 1743.59 Q2942.16 1746.26 2942.16 1750.91 Q2942.16 1755.56 2944.13 1758.25 Q2946.12 1760.91 2949.57 1760.91 Q2952.97 1760.91 2954.96 1758.22 Q2956.95 1755.54 2956.95 1750.91 Q2956.95 1746.3 2954.96 1743.62 Q2952.97 1740.91 2949.57 1740.91 M2949.57 1737.3 Q2955.12 1737.3 2958.3 1740.91 Q2961.47 1744.52 2961.47 1750.91 Q2961.47 1757.27 2958.3 1760.91 Q2955.12 1764.52 2949.57 1764.52 Q2943.99 1764.52 2940.82 1760.91 Q2937.67 1757.27 2937.67 1750.91 Q2937.67 1744.52 2940.82 1740.91 Q2943.99 1737.3 2949.57 1737.3 Z" fill="#000000" fill-rule="evenodd" fill-opacity="1" /><path clip-path="url(#clip800)" d="M2990.08 1748.2 L2990.08 1763.85 L2985.82 1763.85 L2985.82 1748.34 Q2985.82 1744.66 2984.38 1742.83 Q2982.95 1741 2980.08 1741 Q2976.63 1741 2974.64 1743.2 Q2972.65 1745.4 2972.65 1749.19 L2972.65 1763.85 L2968.36 1763.85 L2968.36 1737.92 L2972.65 1737.92 L2972.65 1741.95 Q2974.18 1739.61 2976.24 1738.45 Q2978.32 1737.3 2981.03 1737.3 Q2985.49 1737.3 2987.79 1740.07 Q2990.08 1742.83 2990.08 1748.2 Z" fill="#000000" fill-rule="evenodd" fill-opacity="1" /></svg>
